<?xml version="1.0" encoding="utf-8" standalone="no"?>
<!DOCTYPE svg PUBLIC "-//W3C//DTD SVG 1.1//EN"
  "http://www.w3.org/Graphics/SVG/1.1/DTD/svg11.dtd">
<!-- Created with matplotlib (https://matplotlib.org/) -->
<svg height="288pt" version="1.1" viewBox="0 0 432 288" width="432pt" xmlns="http://www.w3.org/2000/svg" xmlns:xlink="http://www.w3.org/1999/xlink">
 <metadata>
  <rdf:RDF xmlns:cc="http://creativecommons.org/ns#" xmlns:dc="http://purl.org/dc/elements/1.1/" xmlns:rdf="http://www.w3.org/1999/02/22-rdf-syntax-ns#">
   <cc:Work>
    <dc:type rdf:resource="http://purl.org/dc/dcmitype/StillImage"/>
    <dc:date>2021-01-23T02:52:32.894427</dc:date>
    <dc:format>image/svg+xml</dc:format>
    <dc:creator>
     <cc:Agent>
      <dc:title>Matplotlib v3.3.2, https://matplotlib.org/</dc:title>
     </cc:Agent>
    </dc:creator>
   </cc:Work>
  </rdf:RDF>
 </metadata>
 <defs>
  <style type="text/css">*{stroke-linecap:butt;stroke-linejoin:round;}</style>
 </defs>
 <g id="figure_1">
  <g id="patch_1">
   <path d="M 0 288 
L 432 288 
L 432 0 
L 0 0 
z
" style="fill:#ffffff;"/>
  </g>
  <g id="axes_1">
   <g id="patch_2">
    <path d="M 47.8 246.2 
L 421.2 246.2 
L 421.2 10.8 
L 47.8 10.8 
z
" style="fill:#ffffff;"/>
   </g>
   <g id="matplotlib.axis_1">
    <g id="xtick_1">
     <g id="line2d_1">
      <path clip-path="url(#p6e3e39853d)" d="M 109.059081 246.2 
L 109.059081 10.8 
" style="fill:none;stroke:#cccccc;stroke-linecap:round;stroke-width:0.8;"/>
     </g>
     <g id="text_1">
      <!-- 8.0 -->
      <g style="fill:#262626;" transform="translate(101.107519 260.798437)scale(0.1 -0.1)">
       <defs>
        <path d="M 31.78125 34.625 
Q 24.75 34.625 20.71875 30.859375 
Q 16.703125 27.09375 16.703125 20.515625 
Q 16.703125 13.921875 20.71875 10.15625 
Q 24.75 6.390625 31.78125 6.390625 
Q 38.8125 6.390625 42.859375 10.171875 
Q 46.921875 13.96875 46.921875 20.515625 
Q 46.921875 27.09375 42.890625 30.859375 
Q 38.875 34.625 31.78125 34.625 
z
M 21.921875 38.8125 
Q 15.578125 40.375 12.03125 44.71875 
Q 8.5 49.078125 8.5 55.328125 
Q 8.5 64.0625 14.71875 69.140625 
Q 20.953125 74.21875 31.78125 74.21875 
Q 42.671875 74.21875 48.875 69.140625 
Q 55.078125 64.0625 55.078125 55.328125 
Q 55.078125 49.078125 51.53125 44.71875 
Q 48 40.375 41.703125 38.8125 
Q 48.828125 37.15625 52.796875 32.3125 
Q 56.78125 27.484375 56.78125 20.515625 
Q 56.78125 9.90625 50.3125 4.234375 
Q 43.84375 -1.421875 31.78125 -1.421875 
Q 19.734375 -1.421875 13.25 4.234375 
Q 6.78125 9.90625 6.78125 20.515625 
Q 6.78125 27.484375 10.78125 32.3125 
Q 14.796875 37.15625 21.921875 38.8125 
z
M 18.3125 54.390625 
Q 18.3125 48.734375 21.84375 45.5625 
Q 25.390625 42.390625 31.78125 42.390625 
Q 38.140625 42.390625 41.71875 45.5625 
Q 45.3125 48.734375 45.3125 54.390625 
Q 45.3125 60.0625 41.71875 63.234375 
Q 38.140625 66.40625 31.78125 66.40625 
Q 25.390625 66.40625 21.84375 63.234375 
Q 18.3125 60.0625 18.3125 54.390625 
z
" id="DejaVuSans-56"/>
        <path d="M 10.6875 12.40625 
L 21 12.40625 
L 21 0 
L 10.6875 0 
z
" id="DejaVuSans-46"/>
        <path d="M 31.78125 66.40625 
Q 24.171875 66.40625 20.328125 58.90625 
Q 16.5 51.421875 16.5 36.375 
Q 16.5 21.390625 20.328125 13.890625 
Q 24.171875 6.390625 31.78125 6.390625 
Q 39.453125 6.390625 43.28125 13.890625 
Q 47.125 21.390625 47.125 36.375 
Q 47.125 51.421875 43.28125 58.90625 
Q 39.453125 66.40625 31.78125 66.40625 
z
M 31.78125 74.21875 
Q 44.046875 74.21875 50.515625 64.515625 
Q 56.984375 54.828125 56.984375 36.375 
Q 56.984375 17.96875 50.515625 8.265625 
Q 44.046875 -1.421875 31.78125 -1.421875 
Q 19.53125 -1.421875 13.0625 8.265625 
Q 6.59375 17.96875 6.59375 36.375 
Q 6.59375 54.828125 13.0625 64.515625 
Q 19.53125 74.21875 31.78125 74.21875 
z
" id="DejaVuSans-48"/>
       </defs>
       <use xlink:href="#DejaVuSans-56"/>
       <use x="63.623047" xlink:href="#DejaVuSans-46"/>
       <use x="95.410156" xlink:href="#DejaVuSans-48"/>
      </g>
     </g>
    </g>
    <g id="xtick_2">
     <g id="line2d_2">
      <path clip-path="url(#p6e3e39853d)" d="M 187.953436 246.2 
L 187.953436 10.8 
" style="fill:none;stroke:#cccccc;stroke-linecap:round;stroke-width:0.8;"/>
     </g>
     <g id="text_2">
      <!-- 8.5 -->
      <g style="fill:#262626;" transform="translate(180.001874 260.798437)scale(0.1 -0.1)">
       <defs>
        <path d="M 10.796875 72.90625 
L 49.515625 72.90625 
L 49.515625 64.59375 
L 19.828125 64.59375 
L 19.828125 46.734375 
Q 21.96875 47.46875 24.109375 47.828125 
Q 26.265625 48.1875 28.421875 48.1875 
Q 40.625 48.1875 47.75 41.5 
Q 54.890625 34.8125 54.890625 23.390625 
Q 54.890625 11.625 47.5625 5.09375 
Q 40.234375 -1.421875 26.90625 -1.421875 
Q 22.3125 -1.421875 17.546875 -0.640625 
Q 12.796875 0.140625 7.71875 1.703125 
L 7.71875 11.625 
Q 12.109375 9.234375 16.796875 8.0625 
Q 21.484375 6.890625 26.703125 6.890625 
Q 35.15625 6.890625 40.078125 11.328125 
Q 45.015625 15.765625 45.015625 23.390625 
Q 45.015625 31 40.078125 35.4375 
Q 35.15625 39.890625 26.703125 39.890625 
Q 22.75 39.890625 18.8125 39.015625 
Q 14.890625 38.140625 10.796875 36.28125 
z
" id="DejaVuSans-53"/>
       </defs>
       <use xlink:href="#DejaVuSans-56"/>
       <use x="63.623047" xlink:href="#DejaVuSans-46"/>
       <use x="95.410156" xlink:href="#DejaVuSans-53"/>
      </g>
     </g>
    </g>
    <g id="xtick_3">
     <g id="line2d_3">
      <path clip-path="url(#p6e3e39853d)" d="M 266.847791 246.2 
L 266.847791 10.8 
" style="fill:none;stroke:#cccccc;stroke-linecap:round;stroke-width:0.8;"/>
     </g>
     <g id="text_3">
      <!-- 9.0 -->
      <g style="fill:#262626;" transform="translate(258.896228 260.798437)scale(0.1 -0.1)">
       <defs>
        <path d="M 10.984375 1.515625 
L 10.984375 10.5 
Q 14.703125 8.734375 18.5 7.8125 
Q 22.3125 6.890625 25.984375 6.890625 
Q 35.75 6.890625 40.890625 13.453125 
Q 46.046875 20.015625 46.78125 33.40625 
Q 43.953125 29.203125 39.59375 26.953125 
Q 35.25 24.703125 29.984375 24.703125 
Q 19.046875 24.703125 12.671875 31.3125 
Q 6.296875 37.9375 6.296875 49.421875 
Q 6.296875 60.640625 12.9375 67.421875 
Q 19.578125 74.21875 30.609375 74.21875 
Q 43.265625 74.21875 49.921875 64.515625 
Q 56.59375 54.828125 56.59375 36.375 
Q 56.59375 19.140625 48.40625 8.859375 
Q 40.234375 -1.421875 26.421875 -1.421875 
Q 22.703125 -1.421875 18.890625 -0.6875 
Q 15.09375 0.046875 10.984375 1.515625 
z
M 30.609375 32.421875 
Q 37.25 32.421875 41.125 36.953125 
Q 45.015625 41.5 45.015625 49.421875 
Q 45.015625 57.28125 41.125 61.84375 
Q 37.25 66.40625 30.609375 66.40625 
Q 23.96875 66.40625 20.09375 61.84375 
Q 16.21875 57.28125 16.21875 49.421875 
Q 16.21875 41.5 20.09375 36.953125 
Q 23.96875 32.421875 30.609375 32.421875 
z
" id="DejaVuSans-57"/>
       </defs>
       <use xlink:href="#DejaVuSans-57"/>
       <use x="63.623047" xlink:href="#DejaVuSans-46"/>
       <use x="95.410156" xlink:href="#DejaVuSans-48"/>
      </g>
     </g>
    </g>
    <g id="xtick_4">
     <g id="line2d_4">
      <path clip-path="url(#p6e3e39853d)" d="M 345.742146 246.2 
L 345.742146 10.8 
" style="fill:none;stroke:#cccccc;stroke-linecap:round;stroke-width:0.8;"/>
     </g>
     <g id="text_4">
      <!-- 9.5 -->
      <g style="fill:#262626;" transform="translate(337.790583 260.798437)scale(0.1 -0.1)">
       <use xlink:href="#DejaVuSans-57"/>
       <use x="63.623047" xlink:href="#DejaVuSans-46"/>
       <use x="95.410156" xlink:href="#DejaVuSans-53"/>
      </g>
     </g>
    </g>
    <g id="text_5">
     <!-- log10(Population, total) -->
     <g style="fill:#262626;" transform="translate(175.735938 274.476562)scale(0.1 -0.1)">
      <defs>
       <path d="M 9.421875 75.984375 
L 18.40625 75.984375 
L 18.40625 0 
L 9.421875 0 
z
" id="DejaVuSans-108"/>
       <path d="M 30.609375 48.390625 
Q 23.390625 48.390625 19.1875 42.75 
Q 14.984375 37.109375 14.984375 27.296875 
Q 14.984375 17.484375 19.15625 11.84375 
Q 23.34375 6.203125 30.609375 6.203125 
Q 37.796875 6.203125 41.984375 11.859375 
Q 46.1875 17.53125 46.1875 27.296875 
Q 46.1875 37.015625 41.984375 42.703125 
Q 37.796875 48.390625 30.609375 48.390625 
z
M 30.609375 56 
Q 42.328125 56 49.015625 48.375 
Q 55.71875 40.765625 55.71875 27.296875 
Q 55.71875 13.875 49.015625 6.21875 
Q 42.328125 -1.421875 30.609375 -1.421875 
Q 18.84375 -1.421875 12.171875 6.21875 
Q 5.515625 13.875 5.515625 27.296875 
Q 5.515625 40.765625 12.171875 48.375 
Q 18.84375 56 30.609375 56 
z
" id="DejaVuSans-111"/>
       <path d="M 45.40625 27.984375 
Q 45.40625 37.75 41.375 43.109375 
Q 37.359375 48.484375 30.078125 48.484375 
Q 22.859375 48.484375 18.828125 43.109375 
Q 14.796875 37.75 14.796875 27.984375 
Q 14.796875 18.265625 18.828125 12.890625 
Q 22.859375 7.515625 30.078125 7.515625 
Q 37.359375 7.515625 41.375 12.890625 
Q 45.40625 18.265625 45.40625 27.984375 
z
M 54.390625 6.78125 
Q 54.390625 -7.171875 48.1875 -13.984375 
Q 42 -20.796875 29.203125 -20.796875 
Q 24.46875 -20.796875 20.265625 -20.09375 
Q 16.0625 -19.390625 12.109375 -17.921875 
L 12.109375 -9.1875 
Q 16.0625 -11.328125 19.921875 -12.34375 
Q 23.78125 -13.375 27.78125 -13.375 
Q 36.625 -13.375 41.015625 -8.765625 
Q 45.40625 -4.15625 45.40625 5.171875 
L 45.40625 9.625 
Q 42.625 4.78125 38.28125 2.390625 
Q 33.9375 0 27.875 0 
Q 17.828125 0 11.671875 7.65625 
Q 5.515625 15.328125 5.515625 27.984375 
Q 5.515625 40.671875 11.671875 48.328125 
Q 17.828125 56 27.875 56 
Q 33.9375 56 38.28125 53.609375 
Q 42.625 51.21875 45.40625 46.390625 
L 45.40625 54.6875 
L 54.390625 54.6875 
z
" id="DejaVuSans-103"/>
       <path d="M 12.40625 8.296875 
L 28.515625 8.296875 
L 28.515625 63.921875 
L 10.984375 60.40625 
L 10.984375 69.390625 
L 28.421875 72.90625 
L 38.28125 72.90625 
L 38.28125 8.296875 
L 54.390625 8.296875 
L 54.390625 0 
L 12.40625 0 
z
" id="DejaVuSans-49"/>
       <path d="M 31 75.875 
Q 24.46875 64.65625 21.28125 53.65625 
Q 18.109375 42.671875 18.109375 31.390625 
Q 18.109375 20.125 21.3125 9.0625 
Q 24.515625 -2 31 -13.1875 
L 23.1875 -13.1875 
Q 15.875 -1.703125 12.234375 9.375 
Q 8.59375 20.453125 8.59375 31.390625 
Q 8.59375 42.28125 12.203125 53.3125 
Q 15.828125 64.359375 23.1875 75.875 
z
" id="DejaVuSans-40"/>
       <path d="M 19.671875 64.796875 
L 19.671875 37.40625 
L 32.078125 37.40625 
Q 38.96875 37.40625 42.71875 40.96875 
Q 46.484375 44.53125 46.484375 51.125 
Q 46.484375 57.671875 42.71875 61.234375 
Q 38.96875 64.796875 32.078125 64.796875 
z
M 9.8125 72.90625 
L 32.078125 72.90625 
Q 44.34375 72.90625 50.609375 67.359375 
Q 56.890625 61.8125 56.890625 51.125 
Q 56.890625 40.328125 50.609375 34.8125 
Q 44.34375 29.296875 32.078125 29.296875 
L 19.671875 29.296875 
L 19.671875 0 
L 9.8125 0 
z
" id="DejaVuSans-80"/>
       <path d="M 18.109375 8.203125 
L 18.109375 -20.796875 
L 9.078125 -20.796875 
L 9.078125 54.6875 
L 18.109375 54.6875 
L 18.109375 46.390625 
Q 20.953125 51.265625 25.265625 53.625 
Q 29.59375 56 35.59375 56 
Q 45.5625 56 51.78125 48.09375 
Q 58.015625 40.1875 58.015625 27.296875 
Q 58.015625 14.40625 51.78125 6.484375 
Q 45.5625 -1.421875 35.59375 -1.421875 
Q 29.59375 -1.421875 25.265625 0.953125 
Q 20.953125 3.328125 18.109375 8.203125 
z
M 48.6875 27.296875 
Q 48.6875 37.203125 44.609375 42.84375 
Q 40.53125 48.484375 33.40625 48.484375 
Q 26.265625 48.484375 22.1875 42.84375 
Q 18.109375 37.203125 18.109375 27.296875 
Q 18.109375 17.390625 22.1875 11.75 
Q 26.265625 6.109375 33.40625 6.109375 
Q 40.53125 6.109375 44.609375 11.75 
Q 48.6875 17.390625 48.6875 27.296875 
z
" id="DejaVuSans-112"/>
       <path d="M 8.5 21.578125 
L 8.5 54.6875 
L 17.484375 54.6875 
L 17.484375 21.921875 
Q 17.484375 14.15625 20.5 10.265625 
Q 23.53125 6.390625 29.59375 6.390625 
Q 36.859375 6.390625 41.078125 11.03125 
Q 45.3125 15.671875 45.3125 23.6875 
L 45.3125 54.6875 
L 54.296875 54.6875 
L 54.296875 0 
L 45.3125 0 
L 45.3125 8.40625 
Q 42.046875 3.421875 37.71875 1 
Q 33.40625 -1.421875 27.6875 -1.421875 
Q 18.265625 -1.421875 13.375 4.4375 
Q 8.5 10.296875 8.5 21.578125 
z
M 31.109375 56 
z
" id="DejaVuSans-117"/>
       <path d="M 34.28125 27.484375 
Q 23.390625 27.484375 19.1875 25 
Q 14.984375 22.515625 14.984375 16.5 
Q 14.984375 11.71875 18.140625 8.90625 
Q 21.296875 6.109375 26.703125 6.109375 
Q 34.1875 6.109375 38.703125 11.40625 
Q 43.21875 16.703125 43.21875 25.484375 
L 43.21875 27.484375 
z
M 52.203125 31.203125 
L 52.203125 0 
L 43.21875 0 
L 43.21875 8.296875 
Q 40.140625 3.328125 35.546875 0.953125 
Q 30.953125 -1.421875 24.3125 -1.421875 
Q 15.921875 -1.421875 10.953125 3.296875 
Q 6 8.015625 6 15.921875 
Q 6 25.140625 12.171875 29.828125 
Q 18.359375 34.515625 30.609375 34.515625 
L 43.21875 34.515625 
L 43.21875 35.40625 
Q 43.21875 41.609375 39.140625 45 
Q 35.0625 48.390625 27.6875 48.390625 
Q 23 48.390625 18.546875 47.265625 
Q 14.109375 46.140625 10.015625 43.890625 
L 10.015625 52.203125 
Q 14.9375 54.109375 19.578125 55.046875 
Q 24.21875 56 28.609375 56 
Q 40.484375 56 46.34375 49.84375 
Q 52.203125 43.703125 52.203125 31.203125 
z
" id="DejaVuSans-97"/>
       <path d="M 18.3125 70.21875 
L 18.3125 54.6875 
L 36.8125 54.6875 
L 36.8125 47.703125 
L 18.3125 47.703125 
L 18.3125 18.015625 
Q 18.3125 11.328125 20.140625 9.421875 
Q 21.96875 7.515625 27.59375 7.515625 
L 36.8125 7.515625 
L 36.8125 0 
L 27.59375 0 
Q 17.1875 0 13.234375 3.875 
Q 9.28125 7.765625 9.28125 18.015625 
L 9.28125 47.703125 
L 2.6875 47.703125 
L 2.6875 54.6875 
L 9.28125 54.6875 
L 9.28125 70.21875 
z
" id="DejaVuSans-116"/>
       <path d="M 9.421875 54.6875 
L 18.40625 54.6875 
L 18.40625 0 
L 9.421875 0 
z
M 9.421875 75.984375 
L 18.40625 75.984375 
L 18.40625 64.59375 
L 9.421875 64.59375 
z
" id="DejaVuSans-105"/>
       <path d="M 54.890625 33.015625 
L 54.890625 0 
L 45.90625 0 
L 45.90625 32.71875 
Q 45.90625 40.484375 42.875 44.328125 
Q 39.84375 48.1875 33.796875 48.1875 
Q 26.515625 48.1875 22.3125 43.546875 
Q 18.109375 38.921875 18.109375 30.90625 
L 18.109375 0 
L 9.078125 0 
L 9.078125 54.6875 
L 18.109375 54.6875 
L 18.109375 46.1875 
Q 21.34375 51.125 25.703125 53.5625 
Q 30.078125 56 35.796875 56 
Q 45.21875 56 50.046875 50.171875 
Q 54.890625 44.34375 54.890625 33.015625 
z
" id="DejaVuSans-110"/>
       <path d="M 11.71875 12.40625 
L 22.015625 12.40625 
L 22.015625 4 
L 14.015625 -11.625 
L 7.71875 -11.625 
L 11.71875 4 
z
" id="DejaVuSans-44"/>
       <path id="DejaVuSans-32"/>
       <path d="M 8.015625 75.875 
L 15.828125 75.875 
Q 23.140625 64.359375 26.78125 53.3125 
Q 30.421875 42.28125 30.421875 31.390625 
Q 30.421875 20.453125 26.78125 9.375 
Q 23.140625 -1.703125 15.828125 -13.1875 
L 8.015625 -13.1875 
Q 14.5 -2 17.703125 9.0625 
Q 20.90625 20.125 20.90625 31.390625 
Q 20.90625 42.671875 17.703125 53.65625 
Q 14.5 64.65625 8.015625 75.875 
z
" id="DejaVuSans-41"/>
      </defs>
      <use xlink:href="#DejaVuSans-108"/>
      <use x="27.783203" xlink:href="#DejaVuSans-111"/>
      <use x="88.964844" xlink:href="#DejaVuSans-103"/>
      <use x="152.441406" xlink:href="#DejaVuSans-49"/>
      <use x="216.064453" xlink:href="#DejaVuSans-48"/>
      <use x="279.6875" xlink:href="#DejaVuSans-40"/>
      <use x="318.701172" xlink:href="#DejaVuSans-80"/>
      <use x="375.378906" xlink:href="#DejaVuSans-111"/>
      <use x="436.560547" xlink:href="#DejaVuSans-112"/>
      <use x="500.037109" xlink:href="#DejaVuSans-117"/>
      <use x="563.416016" xlink:href="#DejaVuSans-108"/>
      <use x="591.199219" xlink:href="#DejaVuSans-97"/>
      <use x="652.478516" xlink:href="#DejaVuSans-116"/>
      <use x="691.6875" xlink:href="#DejaVuSans-105"/>
      <use x="719.470703" xlink:href="#DejaVuSans-111"/>
      <use x="780.652344" xlink:href="#DejaVuSans-110"/>
      <use x="844.03125" xlink:href="#DejaVuSans-44"/>
      <use x="875.818359" xlink:href="#DejaVuSans-32"/>
      <use x="907.605469" xlink:href="#DejaVuSans-116"/>
      <use x="946.814453" xlink:href="#DejaVuSans-111"/>
      <use x="1007.996094" xlink:href="#DejaVuSans-116"/>
      <use x="1047.205078" xlink:href="#DejaVuSans-97"/>
      <use x="1108.484375" xlink:href="#DejaVuSans-108"/>
      <use x="1136.267578" xlink:href="#DejaVuSans-41"/>
     </g>
    </g>
   </g>
   <g id="matplotlib.axis_2">
    <g id="ytick_1">
     <g id="line2d_5">
      <path clip-path="url(#p6e3e39853d)" d="M 47.8 233.674069 
L 421.2 233.674069 
" style="fill:none;stroke:#cccccc;stroke-linecap:round;stroke-width:0.8;"/>
     </g>
     <g id="text_6">
      <!-- 4.0 -->
      <g style="fill:#262626;" transform="translate(24.896875 237.473288)scale(0.1 -0.1)">
       <defs>
        <path d="M 37.796875 64.3125 
L 12.890625 25.390625 
L 37.796875 25.390625 
z
M 35.203125 72.90625 
L 47.609375 72.90625 
L 47.609375 25.390625 
L 58.015625 25.390625 
L 58.015625 17.1875 
L 47.609375 17.1875 
L 47.609375 0 
L 37.796875 0 
L 37.796875 17.1875 
L 4.890625 17.1875 
L 4.890625 26.703125 
z
" id="DejaVuSans-52"/>
       </defs>
       <use xlink:href="#DejaVuSans-52"/>
       <use x="63.623047" xlink:href="#DejaVuSans-46"/>
       <use x="95.410156" xlink:href="#DejaVuSans-48"/>
      </g>
     </g>
    </g>
    <g id="ytick_2">
     <g id="line2d_6">
      <path clip-path="url(#p6e3e39853d)" d="M 47.8 198.458418 
L 421.2 198.458418 
" style="fill:none;stroke:#cccccc;stroke-linecap:round;stroke-width:0.8;"/>
     </g>
     <g id="text_7">
      <!-- 4.5 -->
      <g style="fill:#262626;" transform="translate(24.896875 202.257636)scale(0.1 -0.1)">
       <use xlink:href="#DejaVuSans-52"/>
       <use x="63.623047" xlink:href="#DejaVuSans-46"/>
       <use x="95.410156" xlink:href="#DejaVuSans-53"/>
      </g>
     </g>
    </g>
    <g id="ytick_3">
     <g id="line2d_7">
      <path clip-path="url(#p6e3e39853d)" d="M 47.8 163.242766 
L 421.2 163.242766 
" style="fill:none;stroke:#cccccc;stroke-linecap:round;stroke-width:0.8;"/>
     </g>
     <g id="text_8">
      <!-- 5.0 -->
      <g style="fill:#262626;" transform="translate(24.896875 167.041984)scale(0.1 -0.1)">
       <use xlink:href="#DejaVuSans-53"/>
       <use x="63.623047" xlink:href="#DejaVuSans-46"/>
       <use x="95.410156" xlink:href="#DejaVuSans-48"/>
      </g>
     </g>
    </g>
    <g id="ytick_4">
     <g id="line2d_8">
      <path clip-path="url(#p6e3e39853d)" d="M 47.8 128.027114 
L 421.2 128.027114 
" style="fill:none;stroke:#cccccc;stroke-linecap:round;stroke-width:0.8;"/>
     </g>
     <g id="text_9">
      <!-- 5.5 -->
      <g style="fill:#262626;" transform="translate(24.896875 131.826333)scale(0.1 -0.1)">
       <use xlink:href="#DejaVuSans-53"/>
       <use x="63.623047" xlink:href="#DejaVuSans-46"/>
       <use x="95.410156" xlink:href="#DejaVuSans-53"/>
      </g>
     </g>
    </g>
    <g id="ytick_5">
     <g id="line2d_9">
      <path clip-path="url(#p6e3e39853d)" d="M 47.8 92.811462 
L 421.2 92.811462 
" style="fill:none;stroke:#cccccc;stroke-linecap:round;stroke-width:0.8;"/>
     </g>
     <g id="text_10">
      <!-- 6.0 -->
      <g style="fill:#262626;" transform="translate(24.896875 96.610681)scale(0.1 -0.1)">
       <defs>
        <path d="M 33.015625 40.375 
Q 26.375 40.375 22.484375 35.828125 
Q 18.609375 31.296875 18.609375 23.390625 
Q 18.609375 15.53125 22.484375 10.953125 
Q 26.375 6.390625 33.015625 6.390625 
Q 39.65625 6.390625 43.53125 10.953125 
Q 47.40625 15.53125 47.40625 23.390625 
Q 47.40625 31.296875 43.53125 35.828125 
Q 39.65625 40.375 33.015625 40.375 
z
M 52.59375 71.296875 
L 52.59375 62.3125 
Q 48.875 64.0625 45.09375 64.984375 
Q 41.3125 65.921875 37.59375 65.921875 
Q 27.828125 65.921875 22.671875 59.328125 
Q 17.53125 52.734375 16.796875 39.40625 
Q 19.671875 43.65625 24.015625 45.921875 
Q 28.375 48.1875 33.59375 48.1875 
Q 44.578125 48.1875 50.953125 41.515625 
Q 57.328125 34.859375 57.328125 23.390625 
Q 57.328125 12.15625 50.6875 5.359375 
Q 44.046875 -1.421875 33.015625 -1.421875 
Q 20.359375 -1.421875 13.671875 8.265625 
Q 6.984375 17.96875 6.984375 36.375 
Q 6.984375 53.65625 15.1875 63.9375 
Q 23.390625 74.21875 37.203125 74.21875 
Q 40.921875 74.21875 44.703125 73.484375 
Q 48.484375 72.75 52.59375 71.296875 
z
" id="DejaVuSans-54"/>
       </defs>
       <use xlink:href="#DejaVuSans-54"/>
       <use x="63.623047" xlink:href="#DejaVuSans-46"/>
       <use x="95.410156" xlink:href="#DejaVuSans-48"/>
      </g>
     </g>
    </g>
    <g id="ytick_6">
     <g id="line2d_10">
      <path clip-path="url(#p6e3e39853d)" d="M 47.8 57.59581 
L 421.2 57.59581 
" style="fill:none;stroke:#cccccc;stroke-linecap:round;stroke-width:0.8;"/>
     </g>
     <g id="text_11">
      <!-- 6.5 -->
      <g style="fill:#262626;" transform="translate(24.896875 61.395029)scale(0.1 -0.1)">
       <use xlink:href="#DejaVuSans-54"/>
       <use x="63.623047" xlink:href="#DejaVuSans-46"/>
       <use x="95.410156" xlink:href="#DejaVuSans-53"/>
      </g>
     </g>
    </g>
    <g id="ytick_7">
     <g id="line2d_11">
      <path clip-path="url(#p6e3e39853d)" d="M 47.8 22.380158 
L 421.2 22.380158 
" style="fill:none;stroke:#cccccc;stroke-linecap:round;stroke-width:0.8;"/>
     </g>
     <g id="text_12">
      <!-- 7.0 -->
      <g style="fill:#262626;" transform="translate(24.896875 26.179377)scale(0.1 -0.1)">
       <defs>
        <path d="M 8.203125 72.90625 
L 55.078125 72.90625 
L 55.078125 68.703125 
L 28.609375 0 
L 18.3125 0 
L 43.21875 64.59375 
L 8.203125 64.59375 
z
" id="DejaVuSans-55"/>
       </defs>
       <use xlink:href="#DejaVuSans-55"/>
       <use x="63.623047" xlink:href="#DejaVuSans-46"/>
       <use x="95.410156" xlink:href="#DejaVuSans-48"/>
      </g>
     </g>
    </g>
    <g id="text_13">
     <!-- log10(CO2 emissions (kt)) -->
     <g style="fill:#262626;" transform="translate(18.817188 193.697656)rotate(-90)scale(0.1 -0.1)">
      <defs>
       <path d="M 64.40625 67.28125 
L 64.40625 56.890625 
Q 59.421875 61.53125 53.78125 63.8125 
Q 48.140625 66.109375 41.796875 66.109375 
Q 29.296875 66.109375 22.65625 58.46875 
Q 16.015625 50.828125 16.015625 36.375 
Q 16.015625 21.96875 22.65625 14.328125 
Q 29.296875 6.6875 41.796875 6.6875 
Q 48.140625 6.6875 53.78125 8.984375 
Q 59.421875 11.28125 64.40625 15.921875 
L 64.40625 5.609375 
Q 59.234375 2.09375 53.4375 0.328125 
Q 47.65625 -1.421875 41.21875 -1.421875 
Q 24.65625 -1.421875 15.125 8.703125 
Q 5.609375 18.84375 5.609375 36.375 
Q 5.609375 53.953125 15.125 64.078125 
Q 24.65625 74.21875 41.21875 74.21875 
Q 47.75 74.21875 53.53125 72.484375 
Q 59.328125 70.75 64.40625 67.28125 
z
" id="DejaVuSans-67"/>
       <path d="M 39.40625 66.21875 
Q 28.65625 66.21875 22.328125 58.203125 
Q 16.015625 50.203125 16.015625 36.375 
Q 16.015625 22.609375 22.328125 14.59375 
Q 28.65625 6.59375 39.40625 6.59375 
Q 50.140625 6.59375 56.421875 14.59375 
Q 62.703125 22.609375 62.703125 36.375 
Q 62.703125 50.203125 56.421875 58.203125 
Q 50.140625 66.21875 39.40625 66.21875 
z
M 39.40625 74.21875 
Q 54.734375 74.21875 63.90625 63.9375 
Q 73.09375 53.65625 73.09375 36.375 
Q 73.09375 19.140625 63.90625 8.859375 
Q 54.734375 -1.421875 39.40625 -1.421875 
Q 24.03125 -1.421875 14.8125 8.828125 
Q 5.609375 19.09375 5.609375 36.375 
Q 5.609375 53.65625 14.8125 63.9375 
Q 24.03125 74.21875 39.40625 74.21875 
z
" id="DejaVuSans-79"/>
       <path d="M 19.1875 8.296875 
L 53.609375 8.296875 
L 53.609375 0 
L 7.328125 0 
L 7.328125 8.296875 
Q 12.9375 14.109375 22.625 23.890625 
Q 32.328125 33.6875 34.8125 36.53125 
Q 39.546875 41.84375 41.421875 45.53125 
Q 43.3125 49.21875 43.3125 52.78125 
Q 43.3125 58.59375 39.234375 62.25 
Q 35.15625 65.921875 28.609375 65.921875 
Q 23.96875 65.921875 18.8125 64.3125 
Q 13.671875 62.703125 7.8125 59.421875 
L 7.8125 69.390625 
Q 13.765625 71.78125 18.9375 73 
Q 24.125 74.21875 28.421875 74.21875 
Q 39.75 74.21875 46.484375 68.546875 
Q 53.21875 62.890625 53.21875 53.421875 
Q 53.21875 48.921875 51.53125 44.890625 
Q 49.859375 40.875 45.40625 35.40625 
Q 44.1875 33.984375 37.640625 27.21875 
Q 31.109375 20.453125 19.1875 8.296875 
z
" id="DejaVuSans-50"/>
       <path d="M 56.203125 29.59375 
L 56.203125 25.203125 
L 14.890625 25.203125 
Q 15.484375 15.921875 20.484375 11.0625 
Q 25.484375 6.203125 34.421875 6.203125 
Q 39.59375 6.203125 44.453125 7.46875 
Q 49.3125 8.734375 54.109375 11.28125 
L 54.109375 2.78125 
Q 49.265625 0.734375 44.1875 -0.34375 
Q 39.109375 -1.421875 33.890625 -1.421875 
Q 20.796875 -1.421875 13.15625 6.1875 
Q 5.515625 13.8125 5.515625 26.8125 
Q 5.515625 40.234375 12.765625 48.109375 
Q 20.015625 56 32.328125 56 
Q 43.359375 56 49.78125 48.890625 
Q 56.203125 41.796875 56.203125 29.59375 
z
M 47.21875 32.234375 
Q 47.125 39.59375 43.09375 43.984375 
Q 39.0625 48.390625 32.421875 48.390625 
Q 24.90625 48.390625 20.390625 44.140625 
Q 15.875 39.890625 15.1875 32.171875 
z
" id="DejaVuSans-101"/>
       <path d="M 52 44.1875 
Q 55.375 50.25 60.0625 53.125 
Q 64.75 56 71.09375 56 
Q 79.640625 56 84.28125 50.015625 
Q 88.921875 44.046875 88.921875 33.015625 
L 88.921875 0 
L 79.890625 0 
L 79.890625 32.71875 
Q 79.890625 40.578125 77.09375 44.375 
Q 74.3125 48.1875 68.609375 48.1875 
Q 61.625 48.1875 57.5625 43.546875 
Q 53.515625 38.921875 53.515625 30.90625 
L 53.515625 0 
L 44.484375 0 
L 44.484375 32.71875 
Q 44.484375 40.625 41.703125 44.40625 
Q 38.921875 48.1875 33.109375 48.1875 
Q 26.21875 48.1875 22.15625 43.53125 
Q 18.109375 38.875 18.109375 30.90625 
L 18.109375 0 
L 9.078125 0 
L 9.078125 54.6875 
L 18.109375 54.6875 
L 18.109375 46.1875 
Q 21.1875 51.21875 25.484375 53.609375 
Q 29.78125 56 35.6875 56 
Q 41.65625 56 45.828125 52.96875 
Q 50 49.953125 52 44.1875 
z
" id="DejaVuSans-109"/>
       <path d="M 44.28125 53.078125 
L 44.28125 44.578125 
Q 40.484375 46.53125 36.375 47.5 
Q 32.28125 48.484375 27.875 48.484375 
Q 21.1875 48.484375 17.84375 46.4375 
Q 14.5 44.390625 14.5 40.28125 
Q 14.5 37.15625 16.890625 35.375 
Q 19.28125 33.59375 26.515625 31.984375 
L 29.59375 31.296875 
Q 39.15625 29.25 43.1875 25.515625 
Q 47.21875 21.78125 47.21875 15.09375 
Q 47.21875 7.46875 41.1875 3.015625 
Q 35.15625 -1.421875 24.609375 -1.421875 
Q 20.21875 -1.421875 15.453125 -0.5625 
Q 10.6875 0.296875 5.421875 2 
L 5.421875 11.28125 
Q 10.40625 8.6875 15.234375 7.390625 
Q 20.0625 6.109375 24.8125 6.109375 
Q 31.15625 6.109375 34.5625 8.28125 
Q 37.984375 10.453125 37.984375 14.40625 
Q 37.984375 18.0625 35.515625 20.015625 
Q 33.0625 21.96875 24.703125 23.78125 
L 21.578125 24.515625 
Q 13.234375 26.265625 9.515625 29.90625 
Q 5.8125 33.546875 5.8125 39.890625 
Q 5.8125 47.609375 11.28125 51.796875 
Q 16.75 56 26.8125 56 
Q 31.78125 56 36.171875 55.265625 
Q 40.578125 54.546875 44.28125 53.078125 
z
" id="DejaVuSans-115"/>
       <path d="M 9.078125 75.984375 
L 18.109375 75.984375 
L 18.109375 31.109375 
L 44.921875 54.6875 
L 56.390625 54.6875 
L 27.390625 29.109375 
L 57.625 0 
L 45.90625 0 
L 18.109375 26.703125 
L 18.109375 0 
L 9.078125 0 
z
" id="DejaVuSans-107"/>
      </defs>
      <use xlink:href="#DejaVuSans-108"/>
      <use x="27.783203" xlink:href="#DejaVuSans-111"/>
      <use x="88.964844" xlink:href="#DejaVuSans-103"/>
      <use x="152.441406" xlink:href="#DejaVuSans-49"/>
      <use x="216.064453" xlink:href="#DejaVuSans-48"/>
      <use x="279.6875" xlink:href="#DejaVuSans-40"/>
      <use x="318.701172" xlink:href="#DejaVuSans-67"/>
      <use x="388.525391" xlink:href="#DejaVuSans-79"/>
      <use x="467.236328" xlink:href="#DejaVuSans-50"/>
      <use x="530.859375" xlink:href="#DejaVuSans-32"/>
      <use x="562.646484" xlink:href="#DejaVuSans-101"/>
      <use x="624.169922" xlink:href="#DejaVuSans-109"/>
      <use x="721.582031" xlink:href="#DejaVuSans-105"/>
      <use x="749.365234" xlink:href="#DejaVuSans-115"/>
      <use x="801.464844" xlink:href="#DejaVuSans-115"/>
      <use x="853.564453" xlink:href="#DejaVuSans-105"/>
      <use x="881.347656" xlink:href="#DejaVuSans-111"/>
      <use x="942.529297" xlink:href="#DejaVuSans-110"/>
      <use x="1005.908203" xlink:href="#DejaVuSans-115"/>
      <use x="1058.007812" xlink:href="#DejaVuSans-32"/>
      <use x="1089.794922" xlink:href="#DejaVuSans-40"/>
      <use x="1128.808594" xlink:href="#DejaVuSans-107"/>
      <use x="1186.71875" xlink:href="#DejaVuSans-116"/>
      <use x="1225.927734" xlink:href="#DejaVuSans-41"/>
      <use x="1264.941406" xlink:href="#DejaVuSans-41"/>
     </g>
    </g>
   </g>
   <g id="PathCollection_1">
    <defs>
     <path d="M 0 1.5 
C 0.397805 1.5 0.77937 1.341951 1.06066 1.06066 
C 1.341951 0.77937 1.5 0.397805 1.5 0 
C 1.5 -0.397805 1.341951 -0.77937 1.06066 -1.06066 
C 0.77937 -1.341951 0.397805 -1.5 0 -1.5 
C -0.397805 -1.5 -0.77937 -1.341951 -1.06066 -1.06066 
C -1.341951 -0.77937 -1.5 -0.397805 -1.5 0 
C -1.5 0.397805 -1.341951 0.77937 -1.06066 1.06066 
C -0.77937 1.341951 -0.397805 1.5 0 1.5 
z
" id="m21165ff039" style="stroke:#1f77b4;"/>
    </defs>
    <g clip-path="url(#p6e3e39853d)">
     <use style="fill:#1f77b4;stroke:#1f77b4;" x="212.211992" xlink:href="#m21165ff039" y="157.517944"/>
     <use style="fill:#1f77b4;stroke:#1f77b4;" x="213.581456" xlink:href="#m21165ff039" y="155.123102"/>
     <use style="fill:#1f77b4;stroke:#1f77b4;" x="214.973856" xlink:href="#m21165ff039" y="152.202366"/>
     <use style="fill:#1f77b4;stroke:#1f77b4;" x="216.383391" xlink:href="#m21165ff039" y="150.018822"/>
     <use style="fill:#1f77b4;stroke:#1f77b4;" x="217.802952" xlink:href="#m21165ff039" y="150.708636"/>
     <use style="fill:#1f77b4;stroke:#1f77b4;" x="219.228399" xlink:href="#m21165ff039" y="147.74541"/>
     <use style="fill:#1f77b4;stroke:#1f77b4;" x="220.656134" xlink:href="#m21165ff039" y="146.695842"/>
     <use style="fill:#1f77b4;stroke:#1f77b4;" x="222.089093" xlink:href="#m21165ff039" y="146.611718"/>
     <use style="fill:#1f77b4;stroke:#1f77b4;" x="223.537088" xlink:href="#m21165ff039" y="144.041691"/>
     <use style="fill:#1f77b4;stroke:#1f77b4;" x="225.012841" xlink:href="#m21165ff039" y="143.493398"/>
     <use style="fill:#1f77b4;stroke:#1f77b4;" x="226.523541" xlink:href="#m21165ff039" y="142.792816"/>
     <use style="fill:#1f77b4;stroke:#1f77b4;" x="228.070807" xlink:href="#m21165ff039" y="141.156139"/>
     <use style="fill:#1f77b4;stroke:#1f77b4;" x="229.647738" xlink:href="#m21165ff039" y="139.426009"/>
     <use style="fill:#1f77b4;stroke:#1f77b4;" x="231.242635" xlink:href="#m21165ff039" y="138.527486"/>
     <use style="fill:#1f77b4;stroke:#1f77b4;" x="232.840616" xlink:href="#m21165ff039" y="137.501926"/>
     <use style="fill:#1f77b4;stroke:#1f77b4;" x="234.431642" xlink:href="#m21165ff039" y="134.947143"/>
     <use style="fill:#1f77b4;stroke:#1f77b4;" x="236.010954" xlink:href="#m21165ff039" y="133.573497"/>
     <use style="fill:#1f77b4;stroke:#1f77b4;" x="237.581109" xlink:href="#m21165ff039" y="131.85265"/>
     <use style="fill:#1f77b4;stroke:#1f77b4;" x="239.148163" xlink:href="#m21165ff039" y="131.412476"/>
     <use style="fill:#1f77b4;stroke:#1f77b4;" x="240.720781" xlink:href="#m21165ff039" y="129.957108"/>
     <use style="fill:#1f77b4;stroke:#1f77b4;" x="242.303422" xlink:href="#m21165ff039" y="128.241784"/>
     <use style="fill:#1f77b4;stroke:#1f77b4;" x="243.895818" xlink:href="#m21165ff039" y="125.914718"/>
     <use style="fill:#1f77b4;stroke:#1f77b4;" x="245.491587" xlink:href="#m21165ff039" y="124.955045"/>
     <use style="fill:#1f77b4;stroke:#1f77b4;" x="247.081673" xlink:href="#m21165ff039" y="122.51517"/>
     <use style="fill:#1f77b4;stroke:#1f77b4;" x="248.654915" xlink:href="#m21165ff039" y="121.761204"/>
     <use style="fill:#1f77b4;stroke:#1f77b4;" x="250.203519" xlink:href="#m21165ff039" y="118.864286"/>
     <use style="fill:#1f77b4;stroke:#1f77b4;" x="251.725473" xlink:href="#m21165ff039" y="116.725751"/>
     <use style="fill:#1f77b4;stroke:#1f77b4;" x="253.222018" xlink:href="#m21165ff039" y="114.726321"/>
     <use style="fill:#1f77b4;stroke:#1f77b4;" x="254.693122" xlink:href="#m21165ff039" y="112.371988"/>
     <use style="fill:#1f77b4;stroke:#1f77b4;" x="256.139631" xlink:href="#m21165ff039" y="109.525882"/>
     <use style="fill:#1f77b4;stroke:#1f77b4;" x="257.562307" xlink:href="#m21165ff039" y="107.475322"/>
     <use style="fill:#1f77b4;stroke:#1f77b4;" x="258.960068" xlink:href="#m21165ff039" y="105.605226"/>
     <use style="fill:#1f77b4;stroke:#1f77b4;" x="260.332781" xlink:href="#m21165ff039" y="103.761292"/>
     <use style="fill:#1f77b4;stroke:#1f77b4;" x="261.683193" xlink:href="#m21165ff039" y="102.703057"/>
     <use style="fill:#1f77b4;stroke:#1f77b4;" x="263.014836" xlink:href="#m21165ff039" y="101.016103"/>
     <use style="fill:#1f77b4;stroke:#1f77b4;" x="264.329823" xlink:href="#m21165ff039" y="99.198049"/>
     <use style="fill:#1f77b4;stroke:#1f77b4;" x="265.628556" xlink:href="#m21165ff039" y="96.640939"/>
     <use style="fill:#1f77b4;stroke:#1f77b4;" x="266.909439" xlink:href="#m21165ff039" y="95.438995"/>
     <use style="fill:#1f77b4;stroke:#1f77b4;" x="268.170097" xlink:href="#m21165ff039" y="94.827295"/>
     <use style="fill:#1f77b4;stroke:#1f77b4;" x="269.40739" xlink:href="#m21165ff039" y="92.94123"/>
     <use style="fill:#1f77b4;stroke:#1f77b4;" x="270.619029" xlink:href="#m21165ff039" y="91.852327"/>
     <use style="fill:#1f77b4;stroke:#1f77b4;" x="271.803697" xlink:href="#m21165ff039" y="91.57789"/>
     <use style="fill:#1f77b4;stroke:#1f77b4;" x="272.9615" xlink:href="#m21165ff039" y="91.195257"/>
     <use style="fill:#1f77b4;stroke:#1f77b4;" x="274.093213" xlink:href="#m21165ff039" y="89.907312"/>
     <use style="fill:#1f77b4;stroke:#1f77b4;" x="275.200131" xlink:href="#m21165ff039" y="88.421738"/>
     <use style="fill:#1f77b4;stroke:#1f77b4;" x="276.282656" xlink:href="#m21165ff039" y="86.664831"/>
     <use style="fill:#1f77b4;stroke:#1f77b4;" x="277.341871" xlink:href="#m21165ff039" y="84.698938"/>
     <use style="fill:#1f77b4;stroke:#1f77b4;" x="278.376092" xlink:href="#m21165ff039" y="82.353716"/>
     <use style="fill:#1f77b4;stroke:#1f77b4;" x="279.379934" xlink:href="#m21165ff039" y="79.045581"/>
     <use style="fill:#1f77b4;stroke:#1f77b4;" x="280.346561" xlink:href="#m21165ff039" y="75.893082"/>
     <use style="fill:#1f77b4;stroke:#1f77b4;" x="281.271904" xlink:href="#m21165ff039" y="76.228382"/>
     <use style="fill:#1f77b4;stroke:#1f77b4;" x="282.154923" xlink:href="#m21165ff039" y="74.217205"/>
     <use style="fill:#1f77b4;stroke:#1f77b4;" x="282.998915" xlink:href="#m21165ff039" y="71.399377"/>
     <use style="fill:#1f77b4;stroke:#1f77b4;" x="283.809597" xlink:href="#m21165ff039" y="71.139478"/>
     <use style="fill:#1f77b4;stroke:#1f77b4;" x="284.594657" xlink:href="#m21165ff039" y="68.242474"/>
     <use style="fill:#1f77b4;stroke:#1f77b4;" x="285.359849" xlink:href="#m21165ff039" y="66.836544"/>
     <use style="fill:#1f77b4;stroke:#1f77b4;" x="286.106709" xlink:href="#m21165ff039" y="65.935071"/>
    </g>
   </g>
   <g id="PathCollection_2">
    <defs>
     <path d="M 0 1.5 
C 0.397805 1.5 0.77937 1.341951 1.06066 1.06066 
C 1.341951 0.77937 1.5 0.397805 1.5 0 
C 1.5 -0.397805 1.341951 -0.77937 1.06066 -1.06066 
C 0.77937 -1.341951 0.397805 -1.5 0 -1.5 
C -0.397805 -1.5 -0.77937 -1.341951 -1.06066 -1.06066 
C -1.341951 -0.77937 -1.5 -0.397805 -1.5 0 
C -1.5 0.397805 -1.341951 0.77937 -1.06066 1.06066 
C -0.77937 1.341951 -0.397805 1.5 0 1.5 
z
" id="m0f39a8a8fe" style="stroke:#ff7f0e;"/>
    </defs>
    <g clip-path="url(#p6e3e39853d)">
     <use style="fill:#ff7f0e;stroke:#ff7f0e;" x="342.846511" xlink:href="#m0f39a8a8fe" y="235.5"/>
     <use style="fill:#ff7f0e;stroke:#ff7f0e;" x="343.768084" xlink:href="#m0f39a8a8fe" y="235.369308"/>
     <use style="fill:#ff7f0e;stroke:#ff7f0e;" x="344.939551" xlink:href="#m0f39a8a8fe" y="234.137724"/>
     <use style="fill:#ff7f0e;stroke:#ff7f0e;" x="346.352388" xlink:href="#m0f39a8a8fe" y="232.507904"/>
     <use style="fill:#ff7f0e;stroke:#ff7f0e;" x="347.744963" xlink:href="#m0f39a8a8fe" y="230.80697"/>
     <use style="fill:#ff7f0e;stroke:#ff7f0e;" x="349.138841" xlink:href="#m0f39a8a8fe" y="229.458386"/>
     <use style="fill:#ff7f0e;stroke:#ff7f0e;" x="350.568575" xlink:href="#m0f39a8a8fe" y="227.952039"/>
     <use style="fill:#ff7f0e;stroke:#ff7f0e;" x="351.956621" xlink:href="#m0f39a8a8fe" y="226.990507"/>
     <use style="fill:#ff7f0e;stroke:#ff7f0e;" x="353.33531" xlink:href="#m0f39a8a8fe" y="225.469368"/>
     <use style="fill:#ff7f0e;stroke:#ff7f0e;" x="354.76866" xlink:href="#m0f39a8a8fe" y="223.68672"/>
     <use style="fill:#ff7f0e;stroke:#ff7f0e;" x="356.186374" xlink:href="#m0f39a8a8fe" y="221.553722"/>
     <use style="fill:#ff7f0e;stroke:#ff7f0e;" x="357.615215" xlink:href="#m0f39a8a8fe" y="220.405753"/>
     <use style="fill:#ff7f0e;stroke:#ff7f0e;" x="358.993185" xlink:href="#m0f39a8a8fe" y="219.208309"/>
     <use style="fill:#ff7f0e;stroke:#ff7f0e;" x="360.327729" xlink:href="#m0f39a8a8fe" y="217.58837"/>
     <use style="fill:#ff7f0e;stroke:#ff7f0e;" x="361.648389" xlink:href="#m0f39a8a8fe" y="217.528763"/>
     <use style="fill:#ff7f0e;stroke:#ff7f0e;" x="362.914661" xlink:href="#m0f39a8a8fe" y="217.707932"/>
     <use style="fill:#ff7f0e;stroke:#ff7f0e;" x="364.127593" xlink:href="#m0f39a8a8fe" y="215.974368"/>
     <use style="fill:#ff7f0e;stroke:#ff7f0e;" x="365.316096" xlink:href="#m0f39a8a8fe" y="215.033126"/>
     <use style="fill:#ff7f0e;stroke:#ff7f0e;" x="366.503504" xlink:href="#m0f39a8a8fe" y="214.681467"/>
     <use style="fill:#ff7f0e;stroke:#ff7f0e;" x="367.700377" xlink:href="#m0f39a8a8fe" y="213.021318"/>
     <use style="fill:#ff7f0e;stroke:#ff7f0e;" x="368.888241" xlink:href="#m0f39a8a8fe" y="213.342756"/>
     <use style="fill:#ff7f0e;stroke:#ff7f0e;" x="370.08674" xlink:href="#m0f39a8a8fe" y="214.298065"/>
     <use style="fill:#ff7f0e;stroke:#ff7f0e;" x="371.309304" xlink:href="#m0f39a8a8fe" y="214.561137"/>
     <use style="fill:#ff7f0e;stroke:#ff7f0e;" x="372.521009" xlink:href="#m0f39a8a8fe" y="214.67544"/>
     <use style="fill:#ff7f0e;stroke:#ff7f0e;" x="373.707671" xlink:href="#m0f39a8a8fe" y="213.591887"/>
     <use style="fill:#ff7f0e;stroke:#ff7f0e;" x="374.895553" xlink:href="#m0f39a8a8fe" y="212.680629"/>
     <use style="fill:#ff7f0e;stroke:#ff7f0e;" x="376.098015" xlink:href="#m0f39a8a8fe" y="211.757359"/>
     <use style="fill:#ff7f0e;stroke:#ff7f0e;" x="377.309224" xlink:href="#m0f39a8a8fe" y="210.989104"/>
     <use style="fill:#ff7f0e;stroke:#ff7f0e;" x="378.511805" xlink:href="#m0f39a8a8fe" y="209.882037"/>
     <use style="fill:#ff7f0e;stroke:#ff7f0e;" x="379.693083" xlink:href="#m0f39a8a8fe" y="209.219383"/>
     <use style="fill:#ff7f0e;stroke:#ff7f0e;" x="380.872255" xlink:href="#m0f39a8a8fe" y="209.179069"/>
     <use style="fill:#ff7f0e;stroke:#ff7f0e;" x="382.0048" xlink:href="#m0f39a8a8fe" y="208.838532"/>
     <use style="fill:#ff7f0e;stroke:#ff7f0e;" x="383.072386" xlink:href="#m0f39a8a8fe" y="209.23956"/>
     <use style="fill:#ff7f0e;stroke:#ff7f0e;" x="384.134449" xlink:href="#m0f39a8a8fe" y="208.958289"/>
     <use style="fill:#ff7f0e;stroke:#ff7f0e;" x="385.169505" xlink:href="#m0f39a8a8fe" y="208.729165"/>
     <use style="fill:#ff7f0e;stroke:#ff7f0e;" x="386.19668" xlink:href="#m0f39a8a8fe" y="208.051914"/>
     <use style="fill:#ff7f0e;stroke:#ff7f0e;" x="387.185405" xlink:href="#m0f39a8a8fe" y="207.289753"/>
     <use style="fill:#ff7f0e;stroke:#ff7f0e;" x="388.156518" xlink:href="#m0f39a8a8fe" y="206.955455"/>
     <use style="fill:#ff7f0e;stroke:#ff7f0e;" x="389.10394" xlink:href="#m0f39a8a8fe" y="206.974192"/>
     <use style="fill:#ff7f0e;stroke:#ff7f0e;" x="390.02408" xlink:href="#m0f39a8a8fe" y="206.536882"/>
     <use style="fill:#ff7f0e;stroke:#ff7f0e;" x="390.924793" xlink:href="#m0f39a8a8fe" y="205.725532"/>
     <use style="fill:#ff7f0e;stroke:#ff7f0e;" x="391.808273" xlink:href="#m0f39a8a8fe" y="205.541659"/>
     <use style="fill:#ff7f0e;stroke:#ff7f0e;" x="392.677689" xlink:href="#m0f39a8a8fe" y="204.808291"/>
     <use style="fill:#ff7f0e;stroke:#ff7f0e;" x="393.536732" xlink:href="#m0f39a8a8fe" y="203.163908"/>
     <use style="fill:#ff7f0e;stroke:#ff7f0e;" x="394.390892" xlink:href="#m0f39a8a8fe" y="201.792712"/>
     <use style="fill:#ff7f0e;stroke:#ff7f0e;" x="395.240087" xlink:href="#m0f39a8a8fe" y="200.575237"/>
     <use style="fill:#ff7f0e;stroke:#ff7f0e;" x="396.087093" xlink:href="#m0f39a8a8fe" y="199.551058"/>
     <use style="fill:#ff7f0e;stroke:#ff7f0e;" x="396.928717" xlink:href="#m0f39a8a8fe" y="199.033472"/>
     <use style="fill:#ff7f0e;stroke:#ff7f0e;" x="397.772758" xlink:href="#m0f39a8a8fe" y="197.981919"/>
     <use style="fill:#ff7f0e;stroke:#ff7f0e;" x="398.60595" xlink:href="#m0f39a8a8fe" y="198.799439"/>
     <use style="fill:#ff7f0e;stroke:#ff7f0e;" x="399.425579" xlink:href="#m0f39a8a8fe" y="196.746532"/>
     <use style="fill:#ff7f0e;stroke:#ff7f0e;" x="400.222715" xlink:href="#m0f39a8a8fe" y="195.759792"/>
     <use style="fill:#ff7f0e;stroke:#ff7f0e;" x="401.029192" xlink:href="#m0f39a8a8fe" y="195.088492"/>
     <use style="fill:#ff7f0e;stroke:#ff7f0e;" x="401.835598" xlink:href="#m0f39a8a8fe" y="194.709611"/>
     <use style="fill:#ff7f0e;stroke:#ff7f0e;" x="402.639355" xlink:href="#m0f39a8a8fe" y="194.628135"/>
     <use style="fill:#ff7f0e;stroke:#ff7f0e;" x="403.435191" xlink:href="#m0f39a8a8fe" y="194.512561"/>
     <use style="fill:#ff7f0e;stroke:#ff7f0e;" x="404.227273" xlink:href="#m0f39a8a8fe" y="194.493861"/>
    </g>
   </g>
   <g id="PathCollection_3">
    <defs>
     <path d="M 0 1.5 
C 0.397805 1.5 0.77937 1.341951 1.06066 1.06066 
C 1.341951 0.77937 1.5 0.397805 1.5 0 
C 1.5 -0.397805 1.341951 -0.77937 1.06066 -1.06066 
C 0.77937 -1.341951 0.397805 -1.5 0 -1.5 
C -0.397805 -1.5 -0.77937 -1.341951 -1.06066 -1.06066 
C -1.341951 -0.77937 -1.5 -0.397805 -1.5 0 
C -1.5 0.397805 -1.341951 0.77937 -1.06066 1.06066 
C -0.77937 1.341951 -0.397805 1.5 0 1.5 
z
" id="me70aa5cff1" style="stroke:#2ca02c;"/>
    </defs>
    <g clip-path="url(#p6e3e39853d)">
     <use style="fill:#2ca02c;stroke:#2ca02c;" x="64.772727" xlink:href="#me70aa5cff1" y="109.247612"/>
     <use style="fill:#2ca02c;stroke:#2ca02c;" x="65.293846" xlink:href="#me70aa5cff1" y="109.005734"/>
     <use style="fill:#2ca02c;stroke:#2ca02c;" x="65.875406" xlink:href="#me70aa5cff1" y="108.776904"/>
     <use style="fill:#2ca02c;stroke:#2ca02c;" x="66.388237" xlink:href="#me70aa5cff1" y="108.242287"/>
     <use style="fill:#2ca02c;stroke:#2ca02c;" x="66.833838" xlink:href="#me70aa5cff1" y="108.013545"/>
     <use style="fill:#2ca02c;stroke:#2ca02c;" x="67.274101" xlink:href="#me70aa5cff1" y="107.304603"/>
     <use style="fill:#2ca02c;stroke:#2ca02c;" x="67.651891" xlink:href="#me70aa5cff1" y="107.504502"/>
     <use style="fill:#2ca02c;stroke:#2ca02c;" x="68.020938" xlink:href="#me70aa5cff1" y="108.820413"/>
     <use style="fill:#2ca02c;stroke:#2ca02c;" x="68.354505" xlink:href="#me70aa5cff1" y="108.083319"/>
     <use style="fill:#2ca02c;stroke:#2ca02c;" x="68.639441" xlink:href="#me70aa5cff1" y="106.99969"/>
     <use style="fill:#2ca02c;stroke:#2ca02c;" x="68.912673" xlink:href="#me70aa5cff1" y="105.8444"/>
     <use style="fill:#2ca02c;stroke:#2ca02c;" x="69.198886" xlink:href="#me70aa5cff1" y="105.481245"/>
     <use style="fill:#2ca02c;stroke:#2ca02c;" x="69.431231" xlink:href="#me70aa5cff1" y="106.059503"/>
     <use style="fill:#2ca02c;stroke:#2ca02c;" x="69.563624" xlink:href="#me70aa5cff1" y="105.519627"/>
     <use style="fill:#2ca02c;stroke:#2ca02c;" x="69.606836" xlink:href="#me70aa5cff1" y="107.551867"/>
     <use style="fill:#2ca02c;stroke:#2ca02c;" x="69.601749" xlink:href="#me70aa5cff1" y="108.25139"/>
     <use style="fill:#2ca02c;stroke:#2ca02c;" x="69.584889" xlink:href="#me70aa5cff1" y="108.492036"/>
     <use style="fill:#2ca02c;stroke:#2ca02c;" x="69.562362" xlink:href="#me70aa5cff1" y="108.195511"/>
     <use style="fill:#2ca02c;stroke:#2ca02c;" x="69.566035" xlink:href="#me70aa5cff1" y="108.178452"/>
     <use style="fill:#2ca02c;stroke:#2ca02c;" x="69.627523" xlink:href="#me70aa5cff1" y="106.229481"/>
     <use style="fill:#2ca02c;stroke:#2ca02c;" x="69.709424" xlink:href="#me70aa5cff1" y="109.510969"/>
     <use style="fill:#2ca02c;stroke:#2ca02c;" x="69.733286" xlink:href="#me70aa5cff1" y="110.502152"/>
     <use style="fill:#2ca02c;stroke:#2ca02c;" x="69.708724" xlink:href="#me70aa5cff1" y="111.180429"/>
     <use style="fill:#2ca02c;stroke:#2ca02c;" x="69.732093" xlink:href="#me70aa5cff1" y="111.335825"/>
     <use style="fill:#2ca02c;stroke:#2ca02c;" x="69.840545" xlink:href="#me70aa5cff1" y="112.269469"/>
     <use style="fill:#2ca02c;stroke:#2ca02c;" x="69.996067" xlink:href="#me70aa5cff1" y="110.554798"/>
     <use style="fill:#2ca02c;stroke:#2ca02c;" x="70.154782" xlink:href="#me70aa5cff1" y="110.071195"/>
     <use style="fill:#2ca02c;stroke:#2ca02c;" x="70.300495" xlink:href="#me70aa5cff1" y="109.905401"/>
     <use style="fill:#2ca02c;stroke:#2ca02c;" x="70.452669" xlink:href="#me70aa5cff1" y="109.980615"/>
     <use style="fill:#2ca02c;stroke:#2ca02c;" x="70.631052" xlink:href="#me70aa5cff1" y="109.382863"/>
     <use style="fill:#2ca02c;stroke:#2ca02c;" x="70.835899" xlink:href="#me70aa5cff1" y="110.770329"/>
     <use style="fill:#2ca02c;stroke:#2ca02c;" x="71.047817" xlink:href="#me70aa5cff1" y="110.17609"/>
     <use style="fill:#2ca02c;stroke:#2ca02c;" x="71.233134" xlink:href="#me70aa5cff1" y="110.750764"/>
     <use style="fill:#2ca02c;stroke:#2ca02c;" x="71.397424" xlink:href="#me70aa5cff1" y="111.337469"/>
     <use style="fill:#2ca02c;stroke:#2ca02c;" x="71.571884" xlink:href="#me70aa5cff1" y="111.279972"/>
     <use style="fill:#2ca02c;stroke:#2ca02c;" x="71.75317" xlink:href="#me70aa5cff1" y="111.766133"/>
     <use style="fill:#2ca02c;stroke:#2ca02c;" x="71.927657" xlink:href="#me70aa5cff1" y="111.018291"/>
     <use style="fill:#2ca02c;stroke:#2ca02c;" x="72.10415" xlink:href="#me70aa5cff1" y="112.384747"/>
     <use style="fill:#2ca02c;stroke:#2ca02c;" x="72.303841" xlink:href="#me70aa5cff1" y="112.121286"/>
     <use style="fill:#2ca02c;stroke:#2ca02c;" x="72.532314" xlink:href="#me70aa5cff1" y="112.177008"/>
     <use style="fill:#2ca02c;stroke:#2ca02c;" x="72.77716" xlink:href="#me70aa5cff1" y="111.558399"/>
     <use style="fill:#2ca02c;stroke:#2ca02c;" x="73.040972" xlink:href="#me70aa5cff1" y="111.329043"/>
     <use style="fill:#2ca02c;stroke:#2ca02c;" x="73.331071" xlink:href="#me70aa5cff1" y="112.309544"/>
     <use style="fill:#2ca02c;stroke:#2ca02c;" x="73.65016" xlink:href="#me70aa5cff1" y="111.658974"/>
     <use style="fill:#2ca02c;stroke:#2ca02c;" x="74.040038" xlink:href="#me70aa5cff1" y="111.702416"/>
     <use style="fill:#2ca02c;stroke:#2ca02c;" x="74.510551" xlink:href="#me70aa5cff1" y="111.513506"/>
     <use style="fill:#2ca02c;stroke:#2ca02c;" x="75.014256" xlink:href="#me70aa5cff1" y="111.57683"/>
     <use style="fill:#2ca02c;stroke:#2ca02c;" x="75.54785" xlink:href="#me70aa5cff1" y="112.322065"/>
     <use style="fill:#2ca02c;stroke:#2ca02c;" x="76.087178" xlink:href="#me70aa5cff1" y="112.716651"/>
     <use style="fill:#2ca02c;stroke:#2ca02c;" x="76.605509" xlink:href="#me70aa5cff1" y="115.815762"/>
     <use style="fill:#2ca02c;stroke:#2ca02c;" x="77.142682" xlink:href="#me70aa5cff1" y="114.464756"/>
     <use style="fill:#2ca02c;stroke:#2ca02c;" x="77.678223" xlink:href="#me70aa5cff1" y="117.410665"/>
     <use style="fill:#2ca02c;stroke:#2ca02c;" x="78.154726" xlink:href="#me70aa5cff1" y="116.019407"/>
     <use style="fill:#2ca02c;stroke:#2ca02c;" x="78.613678" xlink:href="#me70aa5cff1" y="116.83503"/>
     <use style="fill:#2ca02c;stroke:#2ca02c;" x="79.118353" xlink:href="#me70aa5cff1" y="119.365217"/>
     <use style="fill:#2ca02c;stroke:#2ca02c;" x="79.661337" xlink:href="#me70aa5cff1" y="120.45601"/>
     <use style="fill:#2ca02c;stroke:#2ca02c;" x="80.180684" xlink:href="#me70aa5cff1" y="122.486451"/>
    </g>
   </g>
   <g id="PathCollection_4">
    <defs>
     <path d="M 0 1.5 
C 0.397805 1.5 0.77937 1.341951 1.06066 1.06066 
C 1.341951 0.77937 1.5 0.397805 1.5 0 
C 1.5 -0.397805 1.341951 -0.77937 1.06066 -1.06066 
C 0.77937 -1.341951 0.397805 -1.5 0 -1.5 
C -0.397805 -1.5 -0.77937 -1.341951 -1.06066 -1.06066 
C -1.341951 -0.77937 -1.5 -0.397805 -1.5 0 
C -1.5 0.397805 -1.341951 0.77937 -1.06066 1.06066 
C -0.77937 1.341951 -0.397805 1.5 0 1.5 
z
" id="m1866b9ca29" style="stroke:#d62728;"/>
    </defs>
    <g clip-path="url(#p6e3e39853d)">
     <use style="fill:#d62728;stroke:#d62728;" x="239.104024" xlink:href="#m1866b9ca29" y="100.382911"/>
     <use style="fill:#d62728;stroke:#d62728;" x="238.408116" xlink:href="#m1866b9ca29" y="110.983325"/>
     <use style="fill:#d62728;stroke:#d62728;" x="238.970348" xlink:href="#m1866b9ca29" y="117.898606"/>
     <use style="fill:#d62728;stroke:#d62728;" x="240.654494" xlink:href="#m1866b9ca29" y="118.15413"/>
     <use style="fill:#d62728;stroke:#d62728;" x="242.244783" xlink:href="#m1866b9ca29" y="118.13821"/>
     <use style="fill:#d62728;stroke:#d62728;" x="243.876658" xlink:href="#m1866b9ca29" y="115.519764"/>
     <use style="fill:#d62728;stroke:#d62728;" x="245.786726" xlink:href="#m1866b9ca29" y="112.650067"/>
     <use style="fill:#d62728;stroke:#d62728;" x="247.548342" xlink:href="#m1866b9ca29" y="118.397564"/>
     <use style="fill:#d62728;stroke:#d62728;" x="249.337509" xlink:href="#m1866b9ca29" y="115.975843"/>
     <use style="fill:#d62728;stroke:#d62728;" x="251.215144" xlink:href="#m1866b9ca29" y="109.619592"/>
     <use style="fill:#d62728;stroke:#d62728;" x="253.107631" xlink:href="#m1866b9ca29" y="100.741882"/>
     <use style="fill:#d62728;stroke:#d62728;" x="254.990003" xlink:href="#m1866b9ca29" y="96.838877"/>
     <use style="fill:#d62728;stroke:#d62728;" x="256.67395" xlink:href="#m1866b9ca29" y="94.979468"/>
     <use style="fill:#d62728;stroke:#d62728;" x="258.238687" xlink:href="#m1866b9ca29" y="93.789135"/>
     <use style="fill:#d62728;stroke:#d62728;" x="259.65442" xlink:href="#m1866b9ca29" y="93.180289"/>
     <use style="fill:#d62728;stroke:#d62728;" x="260.864871" xlink:href="#m1866b9ca29" y="88.653491"/>
     <use style="fill:#d62728;stroke:#d62728;" x="261.925211" xlink:href="#m1866b9ca29" y="87.331799"/>
     <use style="fill:#d62728;stroke:#d62728;" x="262.85908" xlink:href="#m1866b9ca29" y="84.544636"/>
     <use style="fill:#d62728;stroke:#d62728;" x="263.776093" xlink:href="#m1866b9ca29" y="81.190477"/>
     <use style="fill:#d62728;stroke:#d62728;" x="264.690191" xlink:href="#m1866b9ca29" y="80.514122"/>
     <use style="fill:#d62728;stroke:#d62728;" x="265.549668" xlink:href="#m1866b9ca29" y="81.085561"/>
     <use style="fill:#d62728;stroke:#d62728;" x="266.427463" xlink:href="#m1866b9ca29" y="81.41445"/>
     <use style="fill:#d62728;stroke:#d62728;" x="267.43664" xlink:href="#m1866b9ca29" y="78.814739"/>
     <use style="fill:#d62728;stroke:#d62728;" x="268.426817" xlink:href="#m1866b9ca29" y="77.179713"/>
     <use style="fill:#d62728;stroke:#d62728;" x="269.325935" xlink:href="#m1866b9ca29" y="74.579989"/>
     <use style="fill:#d62728;stroke:#d62728;" x="270.259064" xlink:href="#m1866b9ca29" y="72.125383"/>
     <use style="fill:#d62728;stroke:#d62728;" x="271.27833" xlink:href="#m1866b9ca29" y="70.572496"/>
     <use style="fill:#d62728;stroke:#d62728;" x="272.377229" xlink:href="#m1866b9ca29" y="68.5595"/>
     <use style="fill:#d62728;stroke:#d62728;" x="273.480558" xlink:href="#m1866b9ca29" y="66.423879"/>
     <use style="fill:#d62728;stroke:#d62728;" x="274.53119" xlink:href="#m1866b9ca29" y="65.924032"/>
     <use style="fill:#d62728;stroke:#d62728;" x="275.536686" xlink:href="#m1866b9ca29" y="65.490524"/>
     <use style="fill:#d62728;stroke:#d62728;" x="276.471688" xlink:href="#m1866b9ca29" y="64.002485"/>
     <use style="fill:#d62728;stroke:#d62728;" x="277.311508" xlink:href="#m1866b9ca29" y="62.582906"/>
     <use style="fill:#d62728;stroke:#d62728;" x="278.099305" xlink:href="#m1866b9ca29" y="60.469724"/>
     <use style="fill:#d62728;stroke:#d62728;" x="278.873836" xlink:href="#m1866b9ca29" y="58.619054"/>
     <use style="fill:#d62728;stroke:#d62728;" x="279.618386" xlink:href="#m1866b9ca29" y="56.1044"/>
     <use style="fill:#d62728;stroke:#d62728;" x="280.336644" xlink:href="#m1866b9ca29" y="54.816332"/>
     <use style="fill:#d62728;stroke:#d62728;" x="281.037981" xlink:href="#m1866b9ca29" y="54.759672"/>
     <use style="fill:#d62728;stroke:#d62728;" x="281.69553" xlink:href="#m1866b9ca29" y="56.067026"/>
     <use style="fill:#d62728;stroke:#d62728;" x="282.28887" xlink:href="#m1866b9ca29" y="56.124947"/>
     <use style="fill:#d62728;stroke:#d62728;" x="282.828831" xlink:href="#m1866b9ca29" y="55.332144"/>
     <use style="fill:#d62728;stroke:#d62728;" x="283.326596" xlink:href="#m1866b9ca29" y="54.600897"/>
     <use style="fill:#d62728;stroke:#d62728;" x="283.785725" xlink:href="#m1866b9ca29" y="51.57456"/>
     <use style="fill:#d62728;stroke:#d62728;" x="284.212551" xlink:href="#m1866b9ca29" y="46.531352"/>
     <use style="fill:#d62728;stroke:#d62728;" x="284.619554" xlink:href="#m1866b9ca29" y="42.185762"/>
     <use style="fill:#d62728;stroke:#d62728;" x="285.022577" xlink:href="#m1866b9ca29" y="38.535126"/>
     <use style="fill:#d62728;stroke:#d62728;" x="285.405213" xlink:href="#m1866b9ca29" y="35.419383"/>
     <use style="fill:#d62728;stroke:#d62728;" x="285.763109" xlink:href="#m1866b9ca29" y="34.640647"/>
     <use style="fill:#d62728;stroke:#d62728;" x="286.114231" xlink:href="#m1866b9ca29" y="30.964077"/>
     <use style="fill:#d62728;stroke:#d62728;" x="286.455071" xlink:href="#m1866b9ca29" y="30.944971"/>
     <use style="fill:#d62728;stroke:#d62728;" x="286.786027" xlink:href="#m1866b9ca29" y="26.373711"/>
     <use style="fill:#d62728;stroke:#d62728;" x="287.114374" xlink:href="#m1866b9ca29" y="23.206266"/>
     <use style="fill:#d62728;stroke:#d62728;" x="287.448258" xlink:href="#m1866b9ca29" y="22.292881"/>
     <use style="fill:#d62728;stroke:#d62728;" x="287.786581" xlink:href="#m1866b9ca29" y="21.600977"/>
     <use style="fill:#d62728;stroke:#d62728;" x="288.13354" xlink:href="#m1866b9ca29" y="21.5"/>
     <use style="fill:#d62728;stroke:#d62728;" x="288.481749" xlink:href="#m1866b9ca29" y="21.939804"/>
     <use style="fill:#d62728;stroke:#d62728;" x="288.852807" xlink:href="#m1866b9ca29" y="22.709095"/>
    </g>
   </g>
   <g id="line2d_12">
    <path clip-path="url(#p6e3e39853d)" d="M 222.089093 216.081099 
L 223.537088 189.434915 
L 225.012841 174.954455 
L 226.523541 164.781609 
L 228.070807 156.843297 
L 229.647738 150.304567 
L 231.242635 144.747747 
L 232.840616 139.935778 
L 234.431642 135.70482 
L 236.010954 131.933141 
L 237.581109 128.520902 
L 239.148163 125.389739 
L 240.720781 122.476928 
L 242.303422 119.741701 
L 243.895818 117.159502 
L 245.491587 114.719597 
L 247.081673 112.416765 
L 248.654915 110.249373 
L 250.203519 108.211706 
L 251.725473 106.291981 
L 253.222018 104.476536 
L 254.693122 102.755304 
L 256.139631 101.118751 
L 257.562307 99.55877 
L 258.960068 98.070281 
L 260.332781 96.647917 
L 261.683193 95.28412 
L 263.014836 93.971401 
L 264.329823 92.704389 
L 265.628556 91.479843 
L 266.909439 90.29667 
L 268.170097 89.154622 
L 269.40739 88.054207 
L 270.619029 86.995222 
L 271.803697 85.976725 
L 272.9615 84.996708 
L 274.093213 84.052792 
L 275.200131 83.142369 
L 276.282656 82.263744 
L 277.341871 81.414811 
L 278.376092 80.595788 
L 279.379934 79.809806 
L 280.346561 79.061024 
L 281.271904 78.351376 
L 282.154923 77.680504 
L 282.998915 77.044871 
L 283.809597 76.439319 
L 284.594657 75.857444 
L 285.359849 75.294475 
L 286.106709 74.748876 
" style="fill:none;stroke:#1f77b4;stroke-linecap:round;stroke-width:1.5;"/>
   </g>
   <g id="line2d_13">
    <path clip-path="url(#p6e3e39853d)" d="M 342.846511 233.262122 
L 343.768084 232.577788 
L 344.939551 231.716547 
L 346.352388 230.69025 
L 347.744963 229.691371 
L 349.138841 228.703623 
L 350.568575 227.702461 
L 351.956621 226.741614 
L 353.33531 225.797636 
L 354.76866 224.826758 
L 356.186374 223.876595 
L 357.615215 222.928745 
L 358.993185 222.023563 
L 360.327729 221.154937 
L 361.648389 220.302839 
L 362.914661 219.492583 
L 364.127593 218.722444 
L 365.316096 217.973313 
L 366.503504 217.230136 
L 367.700377 216.486196 
L 368.888241 215.75282 
L 370.08674 215.01774 
L 371.309304 214.272779 
L 372.521009 213.539152 
L 373.707671 212.825101 
L 374.895553 212.114564 
L 376.098015 211.39951 
L 377.309224 210.683408 
L 378.511805 209.976413 
L 379.693083 209.285719 
L 380.872255 208.599885 
L 382.0048 207.944493 
L 383.072386 207.329595 
L 384.134449 206.720604 
L 385.169505 206.129654 
L 386.19668 205.545637 
L 387.185405 204.98572 
L 388.156518 204.437867 
L 389.10394 203.905333 
L 390.02408 203.389942 
L 390.924793 202.887123 
L 391.808273 202.395519 
L 392.677689 201.913253 
L 393.536732 201.438185 
L 394.390892 200.967215 
L 395.240087 200.50034 
L 396.087093 200.035991 
L 396.928717 199.575879 
L 397.772758 199.11571 
L 398.60595 198.662676 
L 399.425579 198.218179 
L 400.222715 197.786967 
L 401.029192 197.351775 
L 401.835598 196.917682 
L 402.639355 196.486053 
L 403.435191 196.059684 
L 404.227273 195.636302 
" style="fill:none;stroke:#ff7f0e;stroke-linecap:round;stroke-width:1.5;"/>
   </g>
   <g id="line2d_14">
    <path clip-path="url(#p6e3e39853d)" d="M 64.772727 106.019189 
L 65.293846 106.335506 
L 65.875406 106.695318 
L 66.388237 107.018742 
L 66.833838 107.304572 
L 67.274101 107.591482 
L 67.651891 107.841337 
L 68.020938 108.088746 
L 68.354505 108.315266 
L 68.639441 108.510984 
L 68.912673 108.700619 
L 69.198886 108.901353 
L 69.431231 109.065904 
L 69.563624 109.160316 
L 69.606836 109.191234 
L 69.601749 109.187592 
L 69.584889 109.175524 
L 69.562362 109.159413 
L 69.566035 109.162039 
L 69.627523 109.206053 
L 69.709424 109.264839 
L 69.733286 109.282001 
L 69.708724 109.264336 
L 69.732093 109.281142 
L 69.840545 109.359336 
L 69.996067 109.472034 
L 70.154782 109.587741 
L 70.300495 109.694594 
L 70.452669 109.806828 
L 70.631052 109.939239 
L 70.835899 110.092434 
L 71.047817 110.252213 
L 71.233134 110.393033 
L 71.397424 110.51874 
L 71.571884 110.653129 
L 71.75317 110.793769 
L 71.927657 110.930103 
L 72.10415 111.068982 
L 72.303841 111.227313 
L 72.532314 111.410047 
L 72.77716 111.607782 
L 73.040972 111.823072 
L 73.331071 112.062548 
L 73.65016 112.329326 
L 74.040038 112.660195 
L 74.510551 113.066882 
L 75.014256 113.511509 
L 75.54785 113.99334 
L 76.087178 114.492105 
L 76.605509 114.983045 
L 77.142682 115.504318 
L 77.678223 116.037195 
L 78.154726 116.522861 
L 78.613678 117.001324 
L 79.118353 117.540048 
L 79.661337 118.135036 
L 80.180684 118.719719 
" style="fill:none;stroke:#2ca02c;stroke-linecap:round;stroke-width:1.5;"/>
   </g>
   <g id="line2d_15">
    <path clip-path="url(#p6e3e39853d)" d="M 251.215144 137.961435 
L 253.107631 115.326772 
L 254.990003 102.226713 
L 256.67395 93.737784 
L 258.238687 87.391019 
L 259.65442 82.503397 
L 260.864871 78.80007 
L 261.925211 75.841467 
L 262.85908 73.419845 
L 263.776093 71.186123 
L 264.690191 69.083902 
L 265.549668 67.207557 
L 266.427463 65.380755 
L 267.43664 63.380595 
L 268.426817 61.511266 
L 269.325935 59.885784 
L 270.259064 58.264481 
L 271.27833 56.563089 
L 272.377229 54.802705 
L 273.480558 53.105281 
L 274.53119 51.54836 
L 275.536686 50.108101 
L 276.471688 48.809177 
L 277.311508 47.673372 
L 278.099305 46.632869 
L 278.873836 45.632112 
L 279.618386 44.689778 
L 280.336644 43.798099 
L 281.037981 42.943121 
L 281.69553 42.154988 
L 282.28887 41.454543 
L 282.828831 40.825634 
L 283.326596 40.252827 
L 283.785725 39.73022 
L 284.212551 39.249187 
L 284.619554 38.794698 
L 285.022577 38.348602 
L 285.405213 37.928625 
L 285.763109 37.538866 
L 286.114231 37.159305 
L 286.455071 36.793478 
L 286.786027 36.440682 
L 287.114374 36.092985 
L 287.448258 35.741747 
L 287.786581 35.388186 
L 288.13354 35.02801 
L 288.481749 34.668944 
L 288.852807 34.288923 
" style="fill:none;stroke:#d62728;stroke-linecap:round;stroke-width:1.5;"/>
   </g>
   <g id="patch_3">
    <path d="M 47.8 246.2 
L 47.8 10.8 
" style="fill:none;stroke:#cccccc;stroke-linecap:square;stroke-linejoin:miter;stroke-width:0.8;"/>
   </g>
   <g id="patch_4">
    <path d="M 421.2 246.2 
L 421.2 10.8 
" style="fill:none;stroke:#cccccc;stroke-linecap:square;stroke-linejoin:miter;stroke-width:0.8;"/>
   </g>
   <g id="patch_5">
    <path d="M 47.8 246.2 
L 421.2 246.2 
" style="fill:none;stroke:#cccccc;stroke-linecap:square;stroke-linejoin:miter;stroke-width:0.8;"/>
   </g>
   <g id="patch_6">
    <path d="M 47.8 10.8 
L 421.2 10.8 
" style="fill:none;stroke:#cccccc;stroke-linecap:square;stroke-linejoin:miter;stroke-width:0.8;"/>
   </g>
   <g id="legend_1">
    <g id="patch_7">
     <path d="M 301.935937 77.5125 
L 414.2 77.5125 
Q 416.2 77.5125 416.2 75.5125 
L 416.2 17.8 
Q 416.2 15.8 414.2 15.8 
L 301.935937 15.8 
Q 299.935937 15.8 299.935937 17.8 
L 299.935937 75.5125 
Q 299.935937 77.5125 301.935937 77.5125 
z
" style="fill:#ffffff;opacity:0.8;stroke:#cccccc;stroke-linejoin:miter;"/>
    </g>
    <g id="line2d_16">
     <path d="M 303.935937 23.898438 
L 323.935937 23.898438 
" style="fill:none;stroke:#1f77b4;stroke-linecap:round;stroke-width:1.5;"/>
    </g>
    <g id="line2d_17"/>
    <g id="text_14">
     <!-- India -->
     <g style="fill:#262626;" transform="translate(331.935937 27.398438)scale(0.1 -0.1)">
      <defs>
       <path d="M 9.8125 72.90625 
L 19.671875 72.90625 
L 19.671875 0 
L 9.8125 0 
z
" id="DejaVuSans-73"/>
       <path d="M 45.40625 46.390625 
L 45.40625 75.984375 
L 54.390625 75.984375 
L 54.390625 0 
L 45.40625 0 
L 45.40625 8.203125 
Q 42.578125 3.328125 38.25 0.953125 
Q 33.9375 -1.421875 27.875 -1.421875 
Q 17.96875 -1.421875 11.734375 6.484375 
Q 5.515625 14.40625 5.515625 27.296875 
Q 5.515625 40.1875 11.734375 48.09375 
Q 17.96875 56 27.875 56 
Q 33.9375 56 38.25 53.625 
Q 42.578125 51.265625 45.40625 46.390625 
z
M 14.796875 27.296875 
Q 14.796875 17.390625 18.875 11.75 
Q 22.953125 6.109375 30.078125 6.109375 
Q 37.203125 6.109375 41.296875 11.75 
Q 45.40625 17.390625 45.40625 27.296875 
Q 45.40625 37.203125 41.296875 42.84375 
Q 37.203125 48.484375 30.078125 48.484375 
Q 22.953125 48.484375 18.875 42.84375 
Q 14.796875 37.203125 14.796875 27.296875 
z
" id="DejaVuSans-100"/>
      </defs>
      <use xlink:href="#DejaVuSans-73"/>
      <use x="29.492188" xlink:href="#DejaVuSans-110"/>
      <use x="92.871094" xlink:href="#DejaVuSans-100"/>
      <use x="156.347656" xlink:href="#DejaVuSans-105"/>
      <use x="184.130859" xlink:href="#DejaVuSans-97"/>
     </g>
    </g>
    <g id="line2d_18">
     <path d="M 303.935937 38.576562 
L 323.935937 38.576562 
" style="fill:none;stroke:#ff7f0e;stroke-linecap:round;stroke-width:1.5;"/>
    </g>
    <g id="line2d_19"/>
    <g id="text_15">
     <!-- World -->
     <g style="fill:#262626;" transform="translate(331.935937 42.076562)scale(0.1 -0.1)">
      <defs>
       <path d="M 3.328125 72.90625 
L 13.28125 72.90625 
L 28.609375 11.28125 
L 43.890625 72.90625 
L 54.984375 72.90625 
L 70.3125 11.28125 
L 85.59375 72.90625 
L 95.609375 72.90625 
L 77.296875 0 
L 64.890625 0 
L 49.515625 63.28125 
L 33.984375 0 
L 21.578125 0 
z
" id="DejaVuSans-87"/>
       <path d="M 41.109375 46.296875 
Q 39.59375 47.171875 37.8125 47.578125 
Q 36.03125 48 33.890625 48 
Q 26.265625 48 22.1875 43.046875 
Q 18.109375 38.09375 18.109375 28.8125 
L 18.109375 0 
L 9.078125 0 
L 9.078125 54.6875 
L 18.109375 54.6875 
L 18.109375 46.1875 
Q 20.953125 51.171875 25.484375 53.578125 
Q 30.03125 56 36.53125 56 
Q 37.453125 56 38.578125 55.875 
Q 39.703125 55.765625 41.0625 55.515625 
z
" id="DejaVuSans-114"/>
      </defs>
      <use xlink:href="#DejaVuSans-87"/>
      <use x="93.001953" xlink:href="#DejaVuSans-111"/>
      <use x="154.183594" xlink:href="#DejaVuSans-114"/>
      <use x="195.296875" xlink:href="#DejaVuSans-108"/>
      <use x="223.080078" xlink:href="#DejaVuSans-100"/>
     </g>
    </g>
    <g id="line2d_20">
     <path d="M 303.935937 53.254687 
L 323.935937 53.254687 
" style="fill:none;stroke:#2ca02c;stroke-linecap:round;stroke-width:1.5;"/>
    </g>
    <g id="line2d_21"/>
    <g id="text_16">
     <!-- United Kingdom -->
     <g style="fill:#262626;" transform="translate(331.935937 56.754687)scale(0.1 -0.1)">
      <defs>
       <path d="M 8.6875 72.90625 
L 18.609375 72.90625 
L 18.609375 28.609375 
Q 18.609375 16.890625 22.84375 11.734375 
Q 27.09375 6.59375 36.625 6.59375 
Q 46.09375 6.59375 50.34375 11.734375 
Q 54.59375 16.890625 54.59375 28.609375 
L 54.59375 72.90625 
L 64.5 72.90625 
L 64.5 27.390625 
Q 64.5 13.140625 57.4375 5.859375 
Q 50.390625 -1.421875 36.625 -1.421875 
Q 22.796875 -1.421875 15.734375 5.859375 
Q 8.6875 13.140625 8.6875 27.390625 
z
" id="DejaVuSans-85"/>
       <path d="M 9.8125 72.90625 
L 19.671875 72.90625 
L 19.671875 42.09375 
L 52.390625 72.90625 
L 65.09375 72.90625 
L 28.90625 38.921875 
L 67.671875 0 
L 54.6875 0 
L 19.671875 35.109375 
L 19.671875 0 
L 9.8125 0 
z
" id="DejaVuSans-75"/>
      </defs>
      <use xlink:href="#DejaVuSans-85"/>
      <use x="73.193359" xlink:href="#DejaVuSans-110"/>
      <use x="136.572266" xlink:href="#DejaVuSans-105"/>
      <use x="164.355469" xlink:href="#DejaVuSans-116"/>
      <use x="203.564453" xlink:href="#DejaVuSans-101"/>
      <use x="265.087891" xlink:href="#DejaVuSans-100"/>
      <use x="328.564453" xlink:href="#DejaVuSans-32"/>
      <use x="360.351562" xlink:href="#DejaVuSans-75"/>
      <use x="425.927734" xlink:href="#DejaVuSans-105"/>
      <use x="453.710938" xlink:href="#DejaVuSans-110"/>
      <use x="517.089844" xlink:href="#DejaVuSans-103"/>
      <use x="580.566406" xlink:href="#DejaVuSans-100"/>
      <use x="644.042969" xlink:href="#DejaVuSans-111"/>
      <use x="705.224609" xlink:href="#DejaVuSans-109"/>
     </g>
    </g>
    <g id="line2d_22">
     <path d="M 303.935937 67.932813 
L 323.935937 67.932813 
" style="fill:none;stroke:#d62728;stroke-linecap:round;stroke-width:1.5;"/>
    </g>
    <g id="line2d_23"/>
    <g id="text_17">
     <!-- China -->
     <g style="fill:#262626;" transform="translate(331.935937 71.432813)scale(0.1 -0.1)">
      <defs>
       <path d="M 54.890625 33.015625 
L 54.890625 0 
L 45.90625 0 
L 45.90625 32.71875 
Q 45.90625 40.484375 42.875 44.328125 
Q 39.84375 48.1875 33.796875 48.1875 
Q 26.515625 48.1875 22.3125 43.546875 
Q 18.109375 38.921875 18.109375 30.90625 
L 18.109375 0 
L 9.078125 0 
L 9.078125 75.984375 
L 18.109375 75.984375 
L 18.109375 46.1875 
Q 21.34375 51.125 25.703125 53.5625 
Q 30.078125 56 35.796875 56 
Q 45.21875 56 50.046875 50.171875 
Q 54.890625 44.34375 54.890625 33.015625 
z
" id="DejaVuSans-104"/>
      </defs>
      <use xlink:href="#DejaVuSans-67"/>
      <use x="69.824219" xlink:href="#DejaVuSans-104"/>
      <use x="133.203125" xlink:href="#DejaVuSans-105"/>
      <use x="160.986328" xlink:href="#DejaVuSans-110"/>
      <use x="224.365234" xlink:href="#DejaVuSans-97"/>
     </g>
    </g>
   </g>
  </g>
 </g>
 <defs>
  <clipPath id="p6e3e39853d">
   <rect height="235.4" width="373.4" x="47.8" y="10.8"/>
  </clipPath>
 </defs>
</svg>
