<?xml version="1.0" encoding="utf-8" standalone="no"?>
<!DOCTYPE svg PUBLIC "-//W3C//DTD SVG 1.1//EN"
  "http://www.w3.org/Graphics/SVG/1.1/DTD/svg11.dtd">
<!-- Created with matplotlib (https://matplotlib.org/) -->
<svg height="360pt" version="1.1" viewBox="0 0 360 360" width="360pt" xmlns="http://www.w3.org/2000/svg" xmlns:xlink="http://www.w3.org/1999/xlink">
 <metadata>
  <rdf:RDF xmlns:cc="http://creativecommons.org/ns#" xmlns:dc="http://purl.org/dc/elements/1.1/" xmlns:rdf="http://www.w3.org/1999/02/22-rdf-syntax-ns#">
   <cc:Work>
    <dc:type rdf:resource="http://purl.org/dc/dcmitype/StillImage"/>
    <dc:date>2021-01-23T02:53:04.545968</dc:date>
    <dc:format>image/svg+xml</dc:format>
    <dc:creator>
     <cc:Agent>
      <dc:title>Matplotlib v3.3.2, https://matplotlib.org/</dc:title>
     </cc:Agent>
    </dc:creator>
   </cc:Work>
  </rdf:RDF>
 </metadata>
 <defs>
  <style type="text/css">*{stroke-linecap:butt;stroke-linejoin:round;}</style>
 </defs>
 <g id="figure_1">
  <g id="patch_1">
   <path d="M 0 360 
L 360 360 
L 360 0 
L 0 0 
z
" style="fill:#ffffff;"/>
  </g>
  <g id="axes_1">
   <g id="patch_2">
    <path d="M 50.645234 318.2 
L 346.281086 318.2 
L 346.281086 10.8 
L 50.645234 10.8 
z
" style="fill:#ffffff;"/>
   </g>
   <g id="matplotlib.axis_1">
    <g id="xtick_1">
     <g id="line2d_1">
      <path clip-path="url(#pf896b511c7)" d="M 50.645234 318.2 
L 50.645234 10.8 
" style="fill:none;stroke:#cccccc;stroke-linecap:round;stroke-width:0.8;"/>
     </g>
     <g id="text_1">
      <!-- 1960 -->
      <g style="fill:#262626;" transform="translate(37.920234 332.798438)scale(0.1 -0.1)">
       <defs>
        <path d="M 12.40625 8.296875 
L 28.515625 8.296875 
L 28.515625 63.921875 
L 10.984375 60.40625 
L 10.984375 69.390625 
L 28.421875 72.90625 
L 38.28125 72.90625 
L 38.28125 8.296875 
L 54.390625 8.296875 
L 54.390625 0 
L 12.40625 0 
z
" id="DejaVuSans-49"/>
        <path d="M 10.984375 1.515625 
L 10.984375 10.5 
Q 14.703125 8.734375 18.5 7.8125 
Q 22.3125 6.890625 25.984375 6.890625 
Q 35.75 6.890625 40.890625 13.453125 
Q 46.046875 20.015625 46.78125 33.40625 
Q 43.953125 29.203125 39.59375 26.953125 
Q 35.25 24.703125 29.984375 24.703125 
Q 19.046875 24.703125 12.671875 31.3125 
Q 6.296875 37.9375 6.296875 49.421875 
Q 6.296875 60.640625 12.9375 67.421875 
Q 19.578125 74.21875 30.609375 74.21875 
Q 43.265625 74.21875 49.921875 64.515625 
Q 56.59375 54.828125 56.59375 36.375 
Q 56.59375 19.140625 48.40625 8.859375 
Q 40.234375 -1.421875 26.421875 -1.421875 
Q 22.703125 -1.421875 18.890625 -0.6875 
Q 15.09375 0.046875 10.984375 1.515625 
z
M 30.609375 32.421875 
Q 37.25 32.421875 41.125 36.953125 
Q 45.015625 41.5 45.015625 49.421875 
Q 45.015625 57.28125 41.125 61.84375 
Q 37.25 66.40625 30.609375 66.40625 
Q 23.96875 66.40625 20.09375 61.84375 
Q 16.21875 57.28125 16.21875 49.421875 
Q 16.21875 41.5 20.09375 36.953125 
Q 23.96875 32.421875 30.609375 32.421875 
z
" id="DejaVuSans-57"/>
        <path d="M 33.015625 40.375 
Q 26.375 40.375 22.484375 35.828125 
Q 18.609375 31.296875 18.609375 23.390625 
Q 18.609375 15.53125 22.484375 10.953125 
Q 26.375 6.390625 33.015625 6.390625 
Q 39.65625 6.390625 43.53125 10.953125 
Q 47.40625 15.53125 47.40625 23.390625 
Q 47.40625 31.296875 43.53125 35.828125 
Q 39.65625 40.375 33.015625 40.375 
z
M 52.59375 71.296875 
L 52.59375 62.3125 
Q 48.875 64.0625 45.09375 64.984375 
Q 41.3125 65.921875 37.59375 65.921875 
Q 27.828125 65.921875 22.671875 59.328125 
Q 17.53125 52.734375 16.796875 39.40625 
Q 19.671875 43.65625 24.015625 45.921875 
Q 28.375 48.1875 33.59375 48.1875 
Q 44.578125 48.1875 50.953125 41.515625 
Q 57.328125 34.859375 57.328125 23.390625 
Q 57.328125 12.15625 50.6875 5.359375 
Q 44.046875 -1.421875 33.015625 -1.421875 
Q 20.359375 -1.421875 13.671875 8.265625 
Q 6.984375 17.96875 6.984375 36.375 
Q 6.984375 53.65625 15.1875 63.9375 
Q 23.390625 74.21875 37.203125 74.21875 
Q 40.921875 74.21875 44.703125 73.484375 
Q 48.484375 72.75 52.59375 71.296875 
z
" id="DejaVuSans-54"/>
        <path d="M 31.78125 66.40625 
Q 24.171875 66.40625 20.328125 58.90625 
Q 16.5 51.421875 16.5 36.375 
Q 16.5 21.390625 20.328125 13.890625 
Q 24.171875 6.390625 31.78125 6.390625 
Q 39.453125 6.390625 43.28125 13.890625 
Q 47.125 21.390625 47.125 36.375 
Q 47.125 51.421875 43.28125 58.90625 
Q 39.453125 66.40625 31.78125 66.40625 
z
M 31.78125 74.21875 
Q 44.046875 74.21875 50.515625 64.515625 
Q 56.984375 54.828125 56.984375 36.375 
Q 56.984375 17.96875 50.515625 8.265625 
Q 44.046875 -1.421875 31.78125 -1.421875 
Q 19.53125 -1.421875 13.0625 8.265625 
Q 6.59375 17.96875 6.59375 36.375 
Q 6.59375 54.828125 13.0625 64.515625 
Q 19.53125 74.21875 31.78125 74.21875 
z
" id="DejaVuSans-48"/>
       </defs>
       <use xlink:href="#DejaVuSans-49"/>
       <use x="63.623047" xlink:href="#DejaVuSans-57"/>
       <use x="127.246094" xlink:href="#DejaVuSans-54"/>
       <use x="190.869141" xlink:href="#DejaVuSans-48"/>
      </g>
     </g>
    </g>
    <g id="xtick_2">
     <g id="line2d_2">
      <path clip-path="url(#pf896b511c7)" d="M 98.366921 318.2 
L 98.366921 10.8 
" style="fill:none;stroke:#cccccc;stroke-linecap:round;stroke-width:0.8;"/>
     </g>
     <g id="text_2">
      <!-- 1970 -->
      <g style="fill:#262626;" transform="translate(85.641921 332.798438)scale(0.1 -0.1)">
       <defs>
        <path d="M 8.203125 72.90625 
L 55.078125 72.90625 
L 55.078125 68.703125 
L 28.609375 0 
L 18.3125 0 
L 43.21875 64.59375 
L 8.203125 64.59375 
z
" id="DejaVuSans-55"/>
       </defs>
       <use xlink:href="#DejaVuSans-49"/>
       <use x="63.623047" xlink:href="#DejaVuSans-57"/>
       <use x="127.246094" xlink:href="#DejaVuSans-55"/>
       <use x="190.869141" xlink:href="#DejaVuSans-48"/>
      </g>
     </g>
    </g>
    <g id="xtick_3">
     <g id="line2d_3">
      <path clip-path="url(#pf896b511c7)" d="M 146.088608 318.2 
L 146.088608 10.8 
" style="fill:none;stroke:#cccccc;stroke-linecap:round;stroke-width:0.8;"/>
     </g>
     <g id="text_3">
      <!-- 1980 -->
      <g style="fill:#262626;" transform="translate(133.363608 332.798438)scale(0.1 -0.1)">
       <defs>
        <path d="M 31.78125 34.625 
Q 24.75 34.625 20.71875 30.859375 
Q 16.703125 27.09375 16.703125 20.515625 
Q 16.703125 13.921875 20.71875 10.15625 
Q 24.75 6.390625 31.78125 6.390625 
Q 38.8125 6.390625 42.859375 10.171875 
Q 46.921875 13.96875 46.921875 20.515625 
Q 46.921875 27.09375 42.890625 30.859375 
Q 38.875 34.625 31.78125 34.625 
z
M 21.921875 38.8125 
Q 15.578125 40.375 12.03125 44.71875 
Q 8.5 49.078125 8.5 55.328125 
Q 8.5 64.0625 14.71875 69.140625 
Q 20.953125 74.21875 31.78125 74.21875 
Q 42.671875 74.21875 48.875 69.140625 
Q 55.078125 64.0625 55.078125 55.328125 
Q 55.078125 49.078125 51.53125 44.71875 
Q 48 40.375 41.703125 38.8125 
Q 48.828125 37.15625 52.796875 32.3125 
Q 56.78125 27.484375 56.78125 20.515625 
Q 56.78125 9.90625 50.3125 4.234375 
Q 43.84375 -1.421875 31.78125 -1.421875 
Q 19.734375 -1.421875 13.25 4.234375 
Q 6.78125 9.90625 6.78125 20.515625 
Q 6.78125 27.484375 10.78125 32.3125 
Q 14.796875 37.15625 21.921875 38.8125 
z
M 18.3125 54.390625 
Q 18.3125 48.734375 21.84375 45.5625 
Q 25.390625 42.390625 31.78125 42.390625 
Q 38.140625 42.390625 41.71875 45.5625 
Q 45.3125 48.734375 45.3125 54.390625 
Q 45.3125 60.0625 41.71875 63.234375 
Q 38.140625 66.40625 31.78125 66.40625 
Q 25.390625 66.40625 21.84375 63.234375 
Q 18.3125 60.0625 18.3125 54.390625 
z
" id="DejaVuSans-56"/>
       </defs>
       <use xlink:href="#DejaVuSans-49"/>
       <use x="63.623047" xlink:href="#DejaVuSans-57"/>
       <use x="127.246094" xlink:href="#DejaVuSans-56"/>
       <use x="190.869141" xlink:href="#DejaVuSans-48"/>
      </g>
     </g>
    </g>
    <g id="xtick_4">
     <g id="line2d_4">
      <path clip-path="url(#pf896b511c7)" d="M 193.810296 318.2 
L 193.810296 10.8 
" style="fill:none;stroke:#cccccc;stroke-linecap:round;stroke-width:0.8;"/>
     </g>
     <g id="text_4">
      <!-- 1990 -->
      <g style="fill:#262626;" transform="translate(181.085296 332.798438)scale(0.1 -0.1)">
       <use xlink:href="#DejaVuSans-49"/>
       <use x="63.623047" xlink:href="#DejaVuSans-57"/>
       <use x="127.246094" xlink:href="#DejaVuSans-57"/>
       <use x="190.869141" xlink:href="#DejaVuSans-48"/>
      </g>
     </g>
    </g>
    <g id="xtick_5">
     <g id="line2d_5">
      <path clip-path="url(#pf896b511c7)" d="M 241.531983 318.2 
L 241.531983 10.8 
" style="fill:none;stroke:#cccccc;stroke-linecap:round;stroke-width:0.8;"/>
     </g>
     <g id="text_5">
      <!-- 2000 -->
      <g style="fill:#262626;" transform="translate(228.806983 332.798438)scale(0.1 -0.1)">
       <defs>
        <path d="M 19.1875 8.296875 
L 53.609375 8.296875 
L 53.609375 0 
L 7.328125 0 
L 7.328125 8.296875 
Q 12.9375 14.109375 22.625 23.890625 
Q 32.328125 33.6875 34.8125 36.53125 
Q 39.546875 41.84375 41.421875 45.53125 
Q 43.3125 49.21875 43.3125 52.78125 
Q 43.3125 58.59375 39.234375 62.25 
Q 35.15625 65.921875 28.609375 65.921875 
Q 23.96875 65.921875 18.8125 64.3125 
Q 13.671875 62.703125 7.8125 59.421875 
L 7.8125 69.390625 
Q 13.765625 71.78125 18.9375 73 
Q 24.125 74.21875 28.421875 74.21875 
Q 39.75 74.21875 46.484375 68.546875 
Q 53.21875 62.890625 53.21875 53.421875 
Q 53.21875 48.921875 51.53125 44.890625 
Q 49.859375 40.875 45.40625 35.40625 
Q 44.1875 33.984375 37.640625 27.21875 
Q 31.109375 20.453125 19.1875 8.296875 
z
" id="DejaVuSans-50"/>
       </defs>
       <use xlink:href="#DejaVuSans-50"/>
       <use x="63.623047" xlink:href="#DejaVuSans-48"/>
       <use x="127.246094" xlink:href="#DejaVuSans-48"/>
       <use x="190.869141" xlink:href="#DejaVuSans-48"/>
      </g>
     </g>
    </g>
    <g id="xtick_6">
     <g id="line2d_6">
      <path clip-path="url(#pf896b511c7)" d="M 289.25367 318.2 
L 289.25367 10.8 
" style="fill:none;stroke:#cccccc;stroke-linecap:round;stroke-width:0.8;"/>
     </g>
     <g id="text_6">
      <!-- 2010 -->
      <g style="fill:#262626;" transform="translate(276.52867 332.798438)scale(0.1 -0.1)">
       <use xlink:href="#DejaVuSans-50"/>
       <use x="63.623047" xlink:href="#DejaVuSans-48"/>
       <use x="127.246094" xlink:href="#DejaVuSans-49"/>
       <use x="190.869141" xlink:href="#DejaVuSans-48"/>
      </g>
     </g>
    </g>
    <g id="xtick_7">
     <g id="line2d_7">
      <path clip-path="url(#pf896b511c7)" d="M 336.975357 318.2 
L 336.975357 10.8 
" style="fill:none;stroke:#cccccc;stroke-linecap:round;stroke-width:0.8;"/>
     </g>
     <g id="text_7">
      <!-- 2020 -->
      <g style="fill:#262626;" transform="translate(324.250357 332.798438)scale(0.1 -0.1)">
       <use xlink:href="#DejaVuSans-50"/>
       <use x="63.623047" xlink:href="#DejaVuSans-48"/>
       <use x="127.246094" xlink:href="#DejaVuSans-50"/>
       <use x="190.869141" xlink:href="#DejaVuSans-48"/>
      </g>
     </g>
    </g>
    <g id="text_8">
     <!-- Time -->
     <g style="fill:#262626;" transform="translate(186.229566 346.476562)scale(0.1 -0.1)">
      <defs>
       <path d="M -0.296875 72.90625 
L 61.375 72.90625 
L 61.375 64.59375 
L 35.5 64.59375 
L 35.5 0 
L 25.59375 0 
L 25.59375 64.59375 
L -0.296875 64.59375 
z
" id="DejaVuSans-84"/>
       <path d="M 9.421875 54.6875 
L 18.40625 54.6875 
L 18.40625 0 
L 9.421875 0 
z
M 9.421875 75.984375 
L 18.40625 75.984375 
L 18.40625 64.59375 
L 9.421875 64.59375 
z
" id="DejaVuSans-105"/>
       <path d="M 52 44.1875 
Q 55.375 50.25 60.0625 53.125 
Q 64.75 56 71.09375 56 
Q 79.640625 56 84.28125 50.015625 
Q 88.921875 44.046875 88.921875 33.015625 
L 88.921875 0 
L 79.890625 0 
L 79.890625 32.71875 
Q 79.890625 40.578125 77.09375 44.375 
Q 74.3125 48.1875 68.609375 48.1875 
Q 61.625 48.1875 57.5625 43.546875 
Q 53.515625 38.921875 53.515625 30.90625 
L 53.515625 0 
L 44.484375 0 
L 44.484375 32.71875 
Q 44.484375 40.625 41.703125 44.40625 
Q 38.921875 48.1875 33.109375 48.1875 
Q 26.21875 48.1875 22.15625 43.53125 
Q 18.109375 38.875 18.109375 30.90625 
L 18.109375 0 
L 9.078125 0 
L 9.078125 54.6875 
L 18.109375 54.6875 
L 18.109375 46.1875 
Q 21.1875 51.21875 25.484375 53.609375 
Q 29.78125 56 35.6875 56 
Q 41.65625 56 45.828125 52.96875 
Q 50 49.953125 52 44.1875 
z
" id="DejaVuSans-109"/>
       <path d="M 56.203125 29.59375 
L 56.203125 25.203125 
L 14.890625 25.203125 
Q 15.484375 15.921875 20.484375 11.0625 
Q 25.484375 6.203125 34.421875 6.203125 
Q 39.59375 6.203125 44.453125 7.46875 
Q 49.3125 8.734375 54.109375 11.28125 
L 54.109375 2.78125 
Q 49.265625 0.734375 44.1875 -0.34375 
Q 39.109375 -1.421875 33.890625 -1.421875 
Q 20.796875 -1.421875 13.15625 6.1875 
Q 5.515625 13.8125 5.515625 26.8125 
Q 5.515625 40.234375 12.765625 48.109375 
Q 20.015625 56 32.328125 56 
Q 43.359375 56 49.78125 48.890625 
Q 56.203125 41.796875 56.203125 29.59375 
z
M 47.21875 32.234375 
Q 47.125 39.59375 43.09375 43.984375 
Q 39.0625 48.390625 32.421875 48.390625 
Q 24.90625 48.390625 20.390625 44.140625 
Q 15.875 39.890625 15.1875 32.171875 
z
" id="DejaVuSans-101"/>
      </defs>
      <use xlink:href="#DejaVuSans-84"/>
      <use x="57.958984" xlink:href="#DejaVuSans-105"/>
      <use x="85.742188" xlink:href="#DejaVuSans-109"/>
      <use x="183.154297" xlink:href="#DejaVuSans-101"/>
     </g>
    </g>
   </g>
   <g id="matplotlib.axis_2">
    <g id="ytick_1">
     <g id="line2d_8">
      <path clip-path="url(#pf896b511c7)" d="M 50.645234 293.194066 
L 346.281086 293.194066 
" style="fill:none;stroke:#cccccc;stroke-linecap:round;stroke-width:0.8;"/>
     </g>
     <g id="text_9">
      <!-- $\mathdefault{10^{4}}$ -->
      <g style="fill:#262626;" transform="translate(26.045234 296.993285)scale(0.1 -0.1)">
       <defs>
        <path d="M 37.796875 64.3125 
L 12.890625 25.390625 
L 37.796875 25.390625 
z
M 35.203125 72.90625 
L 47.609375 72.90625 
L 47.609375 25.390625 
L 58.015625 25.390625 
L 58.015625 17.1875 
L 47.609375 17.1875 
L 47.609375 0 
L 37.796875 0 
L 37.796875 17.1875 
L 4.890625 17.1875 
L 4.890625 26.703125 
z
" id="DejaVuSans-52"/>
       </defs>
       <use transform="translate(0 0.684375)" xlink:href="#DejaVuSans-49"/>
       <use transform="translate(63.623047 0.684375)" xlink:href="#DejaVuSans-48"/>
       <use transform="translate(128.203125 38.965625)scale(0.7)" xlink:href="#DejaVuSans-52"/>
      </g>
     </g>
    </g>
    <g id="ytick_2">
     <g id="line2d_9">
      <path clip-path="url(#pf896b511c7)" d="M 50.645234 206.458995 
L 346.281086 206.458995 
" style="fill:none;stroke:#cccccc;stroke-linecap:round;stroke-width:0.8;"/>
     </g>
     <g id="text_10">
      <!-- $\mathdefault{10^{5}}$ -->
      <g style="fill:#262626;" transform="translate(26.045234 210.258214)scale(0.1 -0.1)">
       <defs>
        <path d="M 10.796875 72.90625 
L 49.515625 72.90625 
L 49.515625 64.59375 
L 19.828125 64.59375 
L 19.828125 46.734375 
Q 21.96875 47.46875 24.109375 47.828125 
Q 26.265625 48.1875 28.421875 48.1875 
Q 40.625 48.1875 47.75 41.5 
Q 54.890625 34.8125 54.890625 23.390625 
Q 54.890625 11.625 47.5625 5.09375 
Q 40.234375 -1.421875 26.90625 -1.421875 
Q 22.3125 -1.421875 17.546875 -0.640625 
Q 12.796875 0.140625 7.71875 1.703125 
L 7.71875 11.625 
Q 12.109375 9.234375 16.796875 8.0625 
Q 21.484375 6.890625 26.703125 6.890625 
Q 35.15625 6.890625 40.078125 11.328125 
Q 45.015625 15.765625 45.015625 23.390625 
Q 45.015625 31 40.078125 35.4375 
Q 35.15625 39.890625 26.703125 39.890625 
Q 22.75 39.890625 18.8125 39.015625 
Q 14.890625 38.140625 10.796875 36.28125 
z
" id="DejaVuSans-53"/>
       </defs>
       <use transform="translate(0 0.684375)" xlink:href="#DejaVuSans-49"/>
       <use transform="translate(63.623047 0.684375)" xlink:href="#DejaVuSans-48"/>
       <use transform="translate(128.203125 38.965625)scale(0.7)" xlink:href="#DejaVuSans-53"/>
      </g>
     </g>
    </g>
    <g id="ytick_3">
     <g id="line2d_10">
      <path clip-path="url(#pf896b511c7)" d="M 50.645234 119.723924 
L 346.281086 119.723924 
" style="fill:none;stroke:#cccccc;stroke-linecap:round;stroke-width:0.8;"/>
     </g>
     <g id="text_11">
      <!-- $\mathdefault{10^{6}}$ -->
      <g style="fill:#262626;" transform="translate(26.045234 123.523143)scale(0.1 -0.1)">
       <use transform="translate(0 0.765625)" xlink:href="#DejaVuSans-49"/>
       <use transform="translate(63.623047 0.765625)" xlink:href="#DejaVuSans-48"/>
       <use transform="translate(128.203125 39.046875)scale(0.7)" xlink:href="#DejaVuSans-54"/>
      </g>
     </g>
    </g>
    <g id="ytick_4">
     <g id="line2d_11">
      <path clip-path="url(#pf896b511c7)" d="M 50.645234 32.988854 
L 346.281086 32.988854 
" style="fill:none;stroke:#cccccc;stroke-linecap:round;stroke-width:0.8;"/>
     </g>
     <g id="text_12">
      <!-- $\mathdefault{10^{7}}$ -->
      <g style="fill:#262626;" transform="translate(26.045234 36.788072)scale(0.1 -0.1)">
       <use transform="translate(0 0.684375)" xlink:href="#DejaVuSans-49"/>
       <use transform="translate(63.623047 0.684375)" xlink:href="#DejaVuSans-48"/>
       <use transform="translate(128.203125 38.965625)scale(0.7)" xlink:href="#DejaVuSans-55"/>
      </g>
     </g>
    </g>
    <g id="ytick_5"/>
    <g id="ytick_6"/>
    <g id="ytick_7"/>
    <g id="ytick_8"/>
    <g id="ytick_9"/>
    <g id="ytick_10"/>
    <g id="ytick_11"/>
    <g id="ytick_12"/>
    <g id="ytick_13"/>
    <g id="ytick_14"/>
    <g id="ytick_15"/>
    <g id="ytick_16"/>
    <g id="ytick_17"/>
    <g id="ytick_18"/>
    <g id="ytick_19"/>
    <g id="ytick_20"/>
    <g id="ytick_21"/>
    <g id="ytick_22"/>
    <g id="ytick_23"/>
    <g id="ytick_24"/>
    <g id="ytick_25"/>
    <g id="ytick_26"/>
    <g id="ytick_27"/>
    <g id="ytick_28"/>
    <g id="ytick_29"/>
    <g id="ytick_30"/>
    <g id="ytick_31"/>
    <g id="ytick_32"/>
    <g id="text_13">
     <!-- CO2 emissions (kt) -->
     <g style="fill:#262626;" transform="translate(19.965547 211.810938)rotate(-90)scale(0.1 -0.1)">
      <defs>
       <path d="M 64.40625 67.28125 
L 64.40625 56.890625 
Q 59.421875 61.53125 53.78125 63.8125 
Q 48.140625 66.109375 41.796875 66.109375 
Q 29.296875 66.109375 22.65625 58.46875 
Q 16.015625 50.828125 16.015625 36.375 
Q 16.015625 21.96875 22.65625 14.328125 
Q 29.296875 6.6875 41.796875 6.6875 
Q 48.140625 6.6875 53.78125 8.984375 
Q 59.421875 11.28125 64.40625 15.921875 
L 64.40625 5.609375 
Q 59.234375 2.09375 53.4375 0.328125 
Q 47.65625 -1.421875 41.21875 -1.421875 
Q 24.65625 -1.421875 15.125 8.703125 
Q 5.609375 18.84375 5.609375 36.375 
Q 5.609375 53.953125 15.125 64.078125 
Q 24.65625 74.21875 41.21875 74.21875 
Q 47.75 74.21875 53.53125 72.484375 
Q 59.328125 70.75 64.40625 67.28125 
z
" id="DejaVuSans-67"/>
       <path d="M 39.40625 66.21875 
Q 28.65625 66.21875 22.328125 58.203125 
Q 16.015625 50.203125 16.015625 36.375 
Q 16.015625 22.609375 22.328125 14.59375 
Q 28.65625 6.59375 39.40625 6.59375 
Q 50.140625 6.59375 56.421875 14.59375 
Q 62.703125 22.609375 62.703125 36.375 
Q 62.703125 50.203125 56.421875 58.203125 
Q 50.140625 66.21875 39.40625 66.21875 
z
M 39.40625 74.21875 
Q 54.734375 74.21875 63.90625 63.9375 
Q 73.09375 53.65625 73.09375 36.375 
Q 73.09375 19.140625 63.90625 8.859375 
Q 54.734375 -1.421875 39.40625 -1.421875 
Q 24.03125 -1.421875 14.8125 8.828125 
Q 5.609375 19.09375 5.609375 36.375 
Q 5.609375 53.65625 14.8125 63.9375 
Q 24.03125 74.21875 39.40625 74.21875 
z
" id="DejaVuSans-79"/>
       <path id="DejaVuSans-32"/>
       <path d="M 44.28125 53.078125 
L 44.28125 44.578125 
Q 40.484375 46.53125 36.375 47.5 
Q 32.28125 48.484375 27.875 48.484375 
Q 21.1875 48.484375 17.84375 46.4375 
Q 14.5 44.390625 14.5 40.28125 
Q 14.5 37.15625 16.890625 35.375 
Q 19.28125 33.59375 26.515625 31.984375 
L 29.59375 31.296875 
Q 39.15625 29.25 43.1875 25.515625 
Q 47.21875 21.78125 47.21875 15.09375 
Q 47.21875 7.46875 41.1875 3.015625 
Q 35.15625 -1.421875 24.609375 -1.421875 
Q 20.21875 -1.421875 15.453125 -0.5625 
Q 10.6875 0.296875 5.421875 2 
L 5.421875 11.28125 
Q 10.40625 8.6875 15.234375 7.390625 
Q 20.0625 6.109375 24.8125 6.109375 
Q 31.15625 6.109375 34.5625 8.28125 
Q 37.984375 10.453125 37.984375 14.40625 
Q 37.984375 18.0625 35.515625 20.015625 
Q 33.0625 21.96875 24.703125 23.78125 
L 21.578125 24.515625 
Q 13.234375 26.265625 9.515625 29.90625 
Q 5.8125 33.546875 5.8125 39.890625 
Q 5.8125 47.609375 11.28125 51.796875 
Q 16.75 56 26.8125 56 
Q 31.78125 56 36.171875 55.265625 
Q 40.578125 54.546875 44.28125 53.078125 
z
" id="DejaVuSans-115"/>
       <path d="M 30.609375 48.390625 
Q 23.390625 48.390625 19.1875 42.75 
Q 14.984375 37.109375 14.984375 27.296875 
Q 14.984375 17.484375 19.15625 11.84375 
Q 23.34375 6.203125 30.609375 6.203125 
Q 37.796875 6.203125 41.984375 11.859375 
Q 46.1875 17.53125 46.1875 27.296875 
Q 46.1875 37.015625 41.984375 42.703125 
Q 37.796875 48.390625 30.609375 48.390625 
z
M 30.609375 56 
Q 42.328125 56 49.015625 48.375 
Q 55.71875 40.765625 55.71875 27.296875 
Q 55.71875 13.875 49.015625 6.21875 
Q 42.328125 -1.421875 30.609375 -1.421875 
Q 18.84375 -1.421875 12.171875 6.21875 
Q 5.515625 13.875 5.515625 27.296875 
Q 5.515625 40.765625 12.171875 48.375 
Q 18.84375 56 30.609375 56 
z
" id="DejaVuSans-111"/>
       <path d="M 54.890625 33.015625 
L 54.890625 0 
L 45.90625 0 
L 45.90625 32.71875 
Q 45.90625 40.484375 42.875 44.328125 
Q 39.84375 48.1875 33.796875 48.1875 
Q 26.515625 48.1875 22.3125 43.546875 
Q 18.109375 38.921875 18.109375 30.90625 
L 18.109375 0 
L 9.078125 0 
L 9.078125 54.6875 
L 18.109375 54.6875 
L 18.109375 46.1875 
Q 21.34375 51.125 25.703125 53.5625 
Q 30.078125 56 35.796875 56 
Q 45.21875 56 50.046875 50.171875 
Q 54.890625 44.34375 54.890625 33.015625 
z
" id="DejaVuSans-110"/>
       <path d="M 31 75.875 
Q 24.46875 64.65625 21.28125 53.65625 
Q 18.109375 42.671875 18.109375 31.390625 
Q 18.109375 20.125 21.3125 9.0625 
Q 24.515625 -2 31 -13.1875 
L 23.1875 -13.1875 
Q 15.875 -1.703125 12.234375 9.375 
Q 8.59375 20.453125 8.59375 31.390625 
Q 8.59375 42.28125 12.203125 53.3125 
Q 15.828125 64.359375 23.1875 75.875 
z
" id="DejaVuSans-40"/>
       <path d="M 9.078125 75.984375 
L 18.109375 75.984375 
L 18.109375 31.109375 
L 44.921875 54.6875 
L 56.390625 54.6875 
L 27.390625 29.109375 
L 57.625 0 
L 45.90625 0 
L 18.109375 26.703125 
L 18.109375 0 
L 9.078125 0 
z
" id="DejaVuSans-107"/>
       <path d="M 18.3125 70.21875 
L 18.3125 54.6875 
L 36.8125 54.6875 
L 36.8125 47.703125 
L 18.3125 47.703125 
L 18.3125 18.015625 
Q 18.3125 11.328125 20.140625 9.421875 
Q 21.96875 7.515625 27.59375 7.515625 
L 36.8125 7.515625 
L 36.8125 0 
L 27.59375 0 
Q 17.1875 0 13.234375 3.875 
Q 9.28125 7.765625 9.28125 18.015625 
L 9.28125 47.703125 
L 2.6875 47.703125 
L 2.6875 54.6875 
L 9.28125 54.6875 
L 9.28125 70.21875 
z
" id="DejaVuSans-116"/>
       <path d="M 8.015625 75.875 
L 15.828125 75.875 
Q 23.140625 64.359375 26.78125 53.3125 
Q 30.421875 42.28125 30.421875 31.390625 
Q 30.421875 20.453125 26.78125 9.375 
Q 23.140625 -1.703125 15.828125 -13.1875 
L 8.015625 -13.1875 
Q 14.5 -2 17.703125 9.0625 
Q 20.90625 20.125 20.90625 31.390625 
Q 20.90625 42.671875 17.703125 53.65625 
Q 14.5 64.65625 8.015625 75.875 
z
" id="DejaVuSans-41"/>
      </defs>
      <use xlink:href="#DejaVuSans-67"/>
      <use x="69.824219" xlink:href="#DejaVuSans-79"/>
      <use x="148.535156" xlink:href="#DejaVuSans-50"/>
      <use x="212.158203" xlink:href="#DejaVuSans-32"/>
      <use x="243.945312" xlink:href="#DejaVuSans-101"/>
      <use x="305.46875" xlink:href="#DejaVuSans-109"/>
      <use x="402.880859" xlink:href="#DejaVuSans-105"/>
      <use x="430.664062" xlink:href="#DejaVuSans-115"/>
      <use x="482.763672" xlink:href="#DejaVuSans-115"/>
      <use x="534.863281" xlink:href="#DejaVuSans-105"/>
      <use x="562.646484" xlink:href="#DejaVuSans-111"/>
      <use x="623.828125" xlink:href="#DejaVuSans-110"/>
      <use x="687.207031" xlink:href="#DejaVuSans-115"/>
      <use x="739.306641" xlink:href="#DejaVuSans-32"/>
      <use x="771.09375" xlink:href="#DejaVuSans-40"/>
      <use x="810.107422" xlink:href="#DejaVuSans-107"/>
      <use x="868.017578" xlink:href="#DejaVuSans-116"/>
      <use x="907.226562" xlink:href="#DejaVuSans-41"/>
     </g>
    </g>
   </g>
   <g id="PathCollection_1">
    <defs>
     <path d="M 0 3.535534 
C 0.937635 3.535534 1.836992 3.163008 2.5 2.5 
C 3.163008 1.836992 3.535534 0.937635 3.535534 0 
C 3.535534 -0.937635 3.163008 -1.836992 2.5 -2.5 
C 1.836992 -3.163008 0.937635 -3.535534 0 -3.535534 
C -0.937635 -3.535534 -1.836992 -3.163008 -2.5 -2.5 
C -3.163008 -1.836992 -3.535534 -0.937635 -3.535534 0 
C -3.535534 0.937635 -3.163008 1.836992 -2.5 2.5 
C -1.836992 3.163008 -0.937635 3.535534 0 3.535534 
z
" id="m98e6425135" style="stroke:#1f77b4;"/>
    </defs>
    <g clip-path="url(#pf896b511c7)">
     <use style="fill:#1f77b4;stroke:#1f77b4;" x="60.923752" xlink:href="#m98e6425135" y="142.075345"/>
     <use style="fill:#1f77b4;stroke:#1f77b4;" x="71.202269" xlink:href="#m98e6425135" y="149.266644"/>
     <use style="fill:#1f77b4;stroke:#1f77b4;" x="81.480786" xlink:href="#m98e6425135" y="147.52784"/>
     <use style="fill:#1f77b4;stroke:#1f77b4;" x="91.759303" xlink:href="#m98e6425135" y="144.133731"/>
     <use style="fill:#1f77b4;stroke:#1f77b4;" x="102.03782" xlink:href="#m98e6425135" y="127.010258"/>
     <use style="fill:#1f77b4;stroke:#1f77b4;" x="112.316338" xlink:href="#m98e6425135" y="121.155407"/>
     <use style="fill:#1f77b4;stroke:#1f77b4;" x="122.594855" xlink:href="#m98e6425135" y="113.780835"/>
     <use style="fill:#1f77b4;stroke:#1f77b4;" x="132.873372" xlink:href="#m98e6425135" y="107.421567"/>
     <use style="fill:#1f77b4;stroke:#1f77b4;" x="143.151889" xlink:href="#m98e6425135" y="104.930155"/>
     <use style="fill:#1f77b4;stroke:#1f77b4;" x="153.430406" xlink:href="#m98e6425135" y="104.053924"/>
     <use style="fill:#1f77b4;stroke:#1f77b4;" x="163.708924" xlink:href="#m98e6425135" y="98.838902"/>
     <use style="fill:#1f77b4;stroke:#1f77b4;" x="173.987441" xlink:href="#m98e6425135" y="93.281023"/>
     <use style="fill:#1f77b4;stroke:#1f77b4;" x="184.265958" xlink:href="#m98e6425135" y="87.873405"/>
     <use style="fill:#1f77b4;stroke:#1f77b4;" x="194.544475" xlink:href="#m98e6425135" y="85.151217"/>
     <use style="fill:#1f77b4;stroke:#1f77b4;" x="204.822993" xlink:href="#m98e6425135" y="81.174277"/>
     <use style="fill:#1f77b4;stroke:#1f77b4;" x="215.10151" xlink:href="#m98e6425135" y="76.036305"/>
     <use style="fill:#1f77b4;stroke:#1f77b4;" x="225.380027" xlink:href="#m98e6425135" y="72.8986"/>
     <use style="fill:#1f77b4;stroke:#1f77b4;" x="235.658544" xlink:href="#m98e6425135" y="74.509362"/>
     <use style="fill:#1f77b4;stroke:#1f77b4;" x="245.937061" xlink:href="#m98e6425135" y="71.672266"/>
     <use style="fill:#1f77b4;stroke:#1f77b4;" x="256.215579" xlink:href="#m98e6425135" y="59.959959"/>
     <use style="fill:#1f77b4;stroke:#1f77b4;" x="266.494096" xlink:href="#m98e6425135" y="50.91612"/>
     <use style="fill:#1f77b4;stroke:#1f77b4;" x="276.772613" xlink:href="#m98e6425135" y="45.755653"/>
     <use style="fill:#1f77b4;stroke:#1f77b4;" x="287.05113" xlink:href="#m98e6425135" y="40.616506"/>
     <use style="fill:#1f77b4;stroke:#1f77b4;" x="297.329647" xlink:href="#m98e6425135" y="33.439584"/>
     <use style="fill:#1f77b4;stroke:#1f77b4;" x="307.608165" xlink:href="#m98e6425135" y="32.439178"/>
    </g>
   </g>
   <g id="PolyCollection_1">
    <path clip-path="url(#pf896b511c7)" d="M 50.645234 145.804889 
L 50.645234 87375.205096 
L 53.344643 87375.205096 
L 56.044051 87375.205096 
L 58.74346 87375.205096 
L 61.442869 302.461128 
L 64.142277 208.006405 
L 66.841686 183.428243 
L 69.541094 170.533081 
L 72.240503 160.718486 
L 74.939911 152.984706 
L 77.63932 147.173152 
L 80.338729 142.39465 
L 83.038137 138.977161 
L 85.737546 136.338886 
L 88.436954 134.305862 
L 91.136363 132.243391 
L 93.835771 130.704136 
L 96.53518 129.250754 
L 99.234588 128.0941 
L 101.933997 126.939507 
L 104.633406 125.860632 
L 107.332814 124.823997 
L 110.032223 123.817561 
L 112.731631 122.831505 
L 115.43104 121.85458 
L 118.130448 120.847161 
L 120.829857 119.799322 
L 123.529266 118.752637 
L 126.228674 117.729294 
L 128.928083 116.712308 
L 131.627491 115.644135 
L 134.3269 114.615101 
L 137.026308 113.650558 
L 139.725717 112.601427 
L 142.425125 111.538937 
L 145.124534 110.493286 
L 147.823943 109.532787 
L 150.523351 108.532421 
L 153.22276 107.660857 
L 155.922168 106.941794 
L 158.621577 105.957881 
L 161.320985 104.953879 
L 164.020394 103.932352 
L 166.719802 102.990109 
L 169.419211 102.020694 
L 172.11862 101.063935 
L 174.818028 100.100961 
L 177.517437 99.174766 
L 180.216845 98.100759 
L 182.916254 97.008256 
L 185.615662 95.920249 
L 188.315071 94.756472 
L 191.01448 93.58124 
L 193.713888 92.388269 
L 196.413297 91.16246 
L 199.112705 89.869304 
L 201.812114 88.605603 
L 204.511522 87.325007 
L 207.210931 85.970627 
L 209.910339 84.590514 
L 212.609748 83.188617 
L 215.309157 81.875534 
L 218.008565 80.453362 
L 220.707974 79.092122 
L 223.407382 77.676904 
L 226.106791 76.126863 
L 228.806199 74.653306 
L 231.505608 73.177507 
L 234.205016 71.694687 
L 236.904425 70.241997 
L 239.603834 68.692339 
L 242.303242 67.208051 
L 245.002651 65.658324 
L 247.702059 64.129947 
L 250.401468 62.647111 
L 253.100876 61.153735 
L 255.800285 59.729158 
L 258.499694 58.299933 
L 261.199102 56.957925 
L 263.898511 55.538957 
L 266.597919 54.166984 
L 269.297328 52.865135 
L 271.996736 51.536688 
L 274.696145 50.211759 
L 277.395553 48.882659 
L 280.094962 47.564681 
L 282.794371 46.295167 
L 285.493779 45.015964 
L 288.193188 43.763467 
L 290.892596 42.529383 
L 293.592005 41.341269 
L 296.291413 40.177859 
L 298.990822 38.998516 
L 301.690231 37.777866 
L 304.389639 36.567442 
L 307.089048 35.432055 
L 309.788456 34.316372 
L 312.487865 33.171069 
L 315.187273 32.05288 
L 317.886682 30.904304 
L 317.886682 24.772727 
L 317.886682 24.772727 
L 315.187273 26.117532 
L 312.487865 27.48908 
L 309.788456 28.873797 
L 307.089048 30.258803 
L 304.389639 31.638942 
L 301.690231 33.016755 
L 298.990822 34.389147 
L 296.291413 35.739661 
L 293.592005 37.128206 
L 290.892596 38.576867 
L 288.193188 39.94518 
L 285.493779 41.351704 
L 282.794371 42.687754 
L 280.094962 44.074414 
L 277.395553 45.433241 
L 274.696145 46.806934 
L 271.996736 48.091836 
L 269.297328 49.416606 
L 266.597919 50.75564 
L 263.898511 52.10084 
L 261.199102 53.398707 
L 258.499694 54.684999 
L 255.800285 55.976053 
L 253.100876 57.272234 
L 250.401468 58.578525 
L 247.702059 59.880378 
L 245.002651 61.166253 
L 242.303242 62.438941 
L 239.603834 63.770224 
L 236.904425 65.110856 
L 234.205016 66.44303 
L 231.505608 67.782364 
L 228.806199 69.079424 
L 226.106791 70.381474 
L 223.407382 71.699946 
L 220.707974 73.018803 
L 218.008565 74.305961 
L 215.309157 75.620579 
L 212.609748 76.927432 
L 209.910339 78.249142 
L 207.210931 79.533262 
L 204.511522 80.870962 
L 201.812114 82.193785 
L 199.112705 83.506146 
L 196.413297 84.801532 
L 193.713888 86.141839 
L 191.01448 87.484355 
L 188.315071 88.776055 
L 185.615662 90.002981 
L 182.916254 91.202824 
L 180.216845 92.44345 
L 177.517437 93.692502 
L 174.818028 94.836177 
L 172.11862 95.989419 
L 169.419211 97.115837 
L 166.719802 98.138053 
L 164.020394 99.120648 
L 161.320985 100.017849 
L 158.621577 100.906407 
L 155.922168 101.726075 
L 153.22276 102.45039 
L 150.523351 103.192917 
L 147.823943 103.978529 
L 145.124534 104.676437 
L 142.425125 105.2237 
L 139.725717 105.904327 
L 137.026308 106.552907 
L 134.3269 107.185224 
L 131.627491 107.952477 
L 128.928083 108.534929 
L 126.228674 109.082847 
L 123.529266 109.650047 
L 120.829857 110.293708 
L 118.130448 110.897299 
L 115.43104 111.633719 
L 112.731631 112.32256 
L 110.032223 113.377002 
L 107.332814 114.161183 
L 104.633406 115.018026 
L 101.933997 115.830725 
L 99.234588 116.83488 
L 96.53518 117.774637 
L 93.835771 118.935624 
L 91.136363 120.26526 
L 88.436954 121.513599 
L 85.737546 122.899894 
L 83.038137 124.446727 
L 80.338729 125.681148 
L 77.63932 127.137122 
L 74.939911 128.527851 
L 72.240503 130.241017 
L 69.541094 132.220767 
L 66.841686 133.951913 
L 64.142277 135.905127 
L 61.442869 137.735721 
L 58.74346 139.443972 
L 56.044051 141.699237 
L 53.344643 143.641866 
L 50.645234 145.804889 
z
" style="fill:#1f77b4;fill-opacity:0.15;stroke:#ffffff;stroke-opacity:0.15;"/>
   </g>
   <g id="PathCollection_2">
    <defs>
     <path d="M -3.535534 3.535534 
L 3.535534 -3.535534 
M -3.535534 -3.535534 
L 3.535534 3.535534 
" id="ma75b06091d" style="stroke:#ff7f0e;stroke-width:1.5;"/>
    </defs>
    <g clip-path="url(#pf896b511c7)">
     <use style="fill:#ff7f0e;stroke:#ff7f0e;stroke-width:1.5;" x="60.923752" xlink:href="#ma75b06091d" y="194.563734"/>
     <use style="fill:#ff7f0e;stroke:#ff7f0e;stroke-width:1.5;" x="71.202269" xlink:href="#ma75b06091d" y="189.15465"/>
     <use style="fill:#ff7f0e;stroke:#ff7f0e;stroke-width:1.5;" x="81.480786" xlink:href="#ma75b06091d" y="186.029878"/>
     <use style="fill:#ff7f0e;stroke:#ff7f0e;stroke-width:1.5;" x="91.759303" xlink:href="#ma75b06091d" y="182.474046"/>
     <use style="fill:#ff7f0e;stroke:#ff7f0e;stroke-width:1.5;" x="102.03782" xlink:href="#ma75b06091d" y="180.253945"/>
     <use style="fill:#ff7f0e;stroke:#ff7f0e;stroke-width:1.5;" x="112.316338" xlink:href="#ma75b06091d" y="175.957912"/>
     <use style="fill:#ff7f0e;stroke:#ff7f0e;stroke-width:1.5;" x="122.594855" xlink:href="#ma75b06091d" y="170.758063"/>
     <use style="fill:#ff7f0e;stroke:#ff7f0e;stroke-width:1.5;" x="132.873372" xlink:href="#ma75b06091d" y="167.53054"/>
     <use style="fill:#ff7f0e;stroke:#ff7f0e;stroke-width:1.5;" x="143.151889" xlink:href="#ma75b06091d" y="164.397214"/>
     <use style="fill:#ff7f0e;stroke:#ff7f0e;stroke-width:1.5;" x="153.430406" xlink:href="#ma75b06091d" y="159.894531"/>
     <use style="fill:#ff7f0e;stroke:#ff7f0e;stroke-width:1.5;" x="163.708924" xlink:href="#ma75b06091d" y="155.836476"/>
     <use style="fill:#ff7f0e;stroke:#ff7f0e;stroke-width:1.5;" x="173.987441" xlink:href="#ma75b06091d" y="150.46778"/>
     <use style="fill:#ff7f0e;stroke:#ff7f0e;stroke-width:1.5;" x="184.265958" xlink:href="#ma75b06091d" y="143.519348"/>
     <use style="fill:#ff7f0e;stroke:#ff7f0e;stroke-width:1.5;" x="194.544475" xlink:href="#ma75b06091d" y="136.613148"/>
     <use style="fill:#ff7f0e;stroke:#ff7f0e;stroke-width:1.5;" x="204.822993" xlink:href="#ma75b06091d" y="132.551236"/>
     <use style="fill:#ff7f0e;stroke:#ff7f0e;stroke-width:1.5;" x="215.10151" xlink:href="#ma75b06091d" y="128.691729"/>
     <use style="fill:#ff7f0e;stroke:#ff7f0e;stroke-width:1.5;" x="225.380027" xlink:href="#ma75b06091d" y="123.692509"/>
     <use style="fill:#ff7f0e;stroke:#ff7f0e;stroke-width:1.5;" x="235.658544" xlink:href="#ma75b06091d" y="121.027163"/>
     <use style="fill:#ff7f0e;stroke:#ff7f0e;stroke-width:1.5;" x="245.937061" xlink:href="#ma75b06091d" y="118.158923"/>
     <use style="fill:#ff7f0e;stroke:#ff7f0e;stroke-width:1.5;" x="256.215579" xlink:href="#ma75b06091d" y="115.221672"/>
     <use style="fill:#ff7f0e;stroke:#ff7f0e;stroke-width:1.5;" x="266.494096" xlink:href="#ma75b06091d" y="110.924513"/>
     <use style="fill:#ff7f0e;stroke:#ff7f0e;stroke-width:1.5;" x="276.772613" xlink:href="#ma75b06091d" y="104.753363"/>
     <use style="fill:#ff7f0e;stroke:#ff7f0e;stroke-width:1.5;" x="287.05113" xlink:href="#ma75b06091d" y="99.095091"/>
     <use style="fill:#ff7f0e;stroke:#ff7f0e;stroke-width:1.5;" x="297.329647" xlink:href="#ma75b06091d" y="95.05038"/>
     <use style="fill:#ff7f0e;stroke:#ff7f0e;stroke-width:1.5;" x="307.608165" xlink:href="#ma75b06091d" y="89.139188"/>
    </g>
   </g>
   <g id="PolyCollection_2">
    <defs>
     <path d="M 50.645234 -160.271425 
L 50.645234 -132.208523 
L 53.344643 -139.242623 
L 56.044051 -144.884859 
L 58.74346 -149.756271 
L 61.442869 -153.803764 
L 64.142277 -157.338755 
L 66.841686 -160.463665 
L 69.541094 -163.212627 
L 72.240503 -165.464731 
L 74.939911 -167.829376 
L 77.63932 -169.785136 
L 80.338729 -171.557963 
L 83.038137 -172.991838 
L 85.737546 -174.243021 
L 88.436954 -175.625481 
L 91.136363 -176.773154 
L 93.835771 -177.877561 
L 96.53518 -178.957868 
L 99.234588 -179.985128 
L 101.933997 -180.986883 
L 104.633406 -182.006462 
L 107.332814 -183.032483 
L 110.032223 -184.06896 
L 112.731631 -185.115711 
L 115.43104 -186.164892 
L 118.130448 -187.230588 
L 120.829857 -188.257891 
L 123.529266 -189.299965 
L 126.228674 -190.319325 
L 128.928083 -191.371387 
L 131.627491 -192.460954 
L 134.3269 -193.529813 
L 137.026308 -194.578345 
L 139.725717 -195.644772 
L 142.425125 -196.686488 
L 145.124534 -197.705769 
L 147.823943 -198.739749 
L 150.523351 -199.808856 
L 153.22276 -200.831545 
L 155.922168 -201.872049 
L 158.621577 -202.935482 
L 161.320985 -204.021993 
L 164.020394 -205.075988 
L 166.719802 -206.146201 
L 169.419211 -207.227136 
L 172.11862 -208.336804 
L 174.818028 -209.460103 
L 177.517437 -210.579118 
L 180.216845 -211.730204 
L 182.916254 -212.891425 
L 185.615662 -214.055251 
L 188.315071 -215.222767 
L 191.01448 -216.415611 
L 193.713888 -217.611405 
L 196.413297 -218.816703 
L 199.112705 -219.97576 
L 201.812114 -221.17526 
L 204.511522 -222.407215 
L 207.210931 -223.643325 
L 209.910339 -224.880999 
L 212.609748 -226.1035 
L 215.309157 -227.318542 
L 218.008565 -228.567379 
L 220.707974 -229.81186 
L 223.407382 -231.043499 
L 226.106791 -232.279649 
L 228.806199 -233.532647 
L 231.505608 -234.769309 
L 234.205016 -236.038454 
L 236.904425 -237.282181 
L 239.603834 -238.53868 
L 242.303242 -239.799608 
L 245.002651 -241.050009 
L 247.702059 -242.291291 
L 250.401468 -243.533813 
L 253.100876 -244.789596 
L 255.800285 -245.994948 
L 258.499694 -247.215549 
L 261.199102 -248.434526 
L 263.898511 -249.651981 
L 266.597919 -250.856593 
L 269.297328 -252.056654 
L 271.996736 -253.228219 
L 274.696145 -254.421632 
L 277.395553 -255.605693 
L 280.094962 -256.802841 
L 282.794371 -257.92276 
L 285.493779 -259.036862 
L 288.193188 -260.167875 
L 290.892596 -261.258015 
L 293.592005 -262.373384 
L 296.291413 -263.452927 
L 298.990822 -264.548125 
L 301.690231 -265.598503 
L 304.389639 -266.659952 
L 307.089048 -267.720882 
L 309.788456 -268.775803 
L 312.487865 -269.815742 
L 315.187273 -270.860518 
L 317.886682 -271.859968 
L 317.886682 -273.751197 
L 317.886682 -273.751197 
L 315.187273 -272.667647 
L 312.487865 -271.559816 
L 309.788456 -270.436999 
L 307.089048 -269.332086 
L 304.389639 -268.239762 
L 301.690231 -267.139324 
L 298.990822 -266.033928 
L 296.291413 -264.934118 
L 293.592005 -263.835904 
L 290.892596 -262.71738 
L 288.193188 -261.608677 
L 285.493779 -260.493936 
L 282.794371 -259.380098 
L 280.094962 -258.263028 
L 277.395553 -257.143369 
L 274.696145 -256.009935 
L 271.996736 -254.869859 
L 269.297328 -253.720487 
L 266.597919 -252.573955 
L 263.898511 -251.458981 
L 261.199102 -250.308398 
L 258.499694 -249.165567 
L 255.800285 -247.992844 
L 253.100876 -246.819074 
L 250.401468 -245.654005 
L 247.702059 -244.459189 
L 245.002651 -243.284028 
L 242.303242 -242.111514 
L 239.603834 -240.933785 
L 236.904425 -239.750998 
L 234.205016 -238.561946 
L 231.505608 -237.346247 
L 228.806199 -236.13283 
L 226.106791 -234.930294 
L 223.407382 -233.727968 
L 220.707974 -232.520315 
L 218.008565 -231.289794 
L 215.309157 -230.080193 
L 212.609748 -228.861706 
L 209.910339 -227.627223 
L 207.210931 -226.384893 
L 204.511522 -225.153483 
L 201.812114 -223.920084 
L 199.112705 -222.684674 
L 196.413297 -221.458886 
L 193.713888 -220.238797 
L 191.01448 -219.041726 
L 188.315071 -217.845994 
L 185.615662 -216.648977 
L 182.916254 -215.448272 
L 180.216845 -214.249647 
L 177.517437 -213.07875 
L 174.818028 -211.901102 
L 172.11862 -210.76545 
L 169.419211 -209.659551 
L 166.719802 -208.596514 
L 164.020394 -207.510144 
L 161.320985 -206.440258 
L 158.621577 -205.39666 
L 155.922168 -204.361899 
L 153.22276 -203.326355 
L 150.523351 -202.340159 
L 147.823943 -201.358365 
L 145.124534 -200.443627 
L 142.425125 -199.518544 
L 139.725717 -198.533591 
L 137.026308 -197.544332 
L 134.3269 -196.567292 
L 131.627491 -195.62608 
L 128.928083 -194.726677 
L 126.228674 -193.80301 
L 123.529266 -192.923766 
L 120.829857 -192.043636 
L 118.130448 -191.111965 
L 115.43104 -190.177966 
L 112.731631 -189.246634 
L 110.032223 -188.317511 
L 107.332814 -187.356691 
L 104.633406 -186.368831 
L 101.933997 -185.359691 
L 99.234588 -184.329289 
L 96.53518 -183.317619 
L 93.835771 -182.244416 
L 91.136363 -181.1026 
L 88.436954 -180.001776 
L 85.737546 -178.77413 
L 83.038137 -177.50575 
L 80.338729 -176.1415 
L 77.63932 -174.802724 
L 74.939911 -173.301052 
L 72.240503 -171.741195 
L 69.541094 -170.206187 
L 66.841686 -168.674615 
L 64.142277 -167.157298 
L 61.442869 -165.796512 
L 58.74346 -164.499478 
L 56.044051 -163.117146 
L 53.344643 -161.764169 
L 50.645234 -160.271425 
z
" id="m1bee2a46e9" style="stroke:#ffffff;stroke-opacity:0.15;"/>
    </defs>
    <g clip-path="url(#pf896b511c7)">
     <use style="fill:#ff7f0e;fill-opacity:0.15;stroke:#ffffff;stroke-opacity:0.15;" x="0" xlink:href="#m1bee2a46e9" y="360"/>
    </g>
   </g>
   <g id="PathCollection_3">
    <defs>
     <path d="M -0 3.535534 
L 3.535534 -3.535534 
L -3.535534 -3.535534 
z
" id="m080bbe7503" style="stroke:#2ca02c;"/>
    </defs>
    <g clip-path="url(#pf896b511c7)">
     <use style="fill:#2ca02c;stroke:#2ca02c;" x="60.923752" xlink:href="#m080bbe7503" y="139.433107"/>
     <use style="fill:#2ca02c;stroke:#2ca02c;" x="71.202269" xlink:href="#m080bbe7503" y="138.006002"/>
     <use style="fill:#2ca02c;stroke:#2ca02c;" x="81.480786" xlink:href="#m080bbe7503" y="138.619726"/>
     <use style="fill:#2ca02c;stroke:#2ca02c;" x="91.759303" xlink:href="#m080bbe7503" y="137.857837"/>
     <use style="fill:#2ca02c;stroke:#2ca02c;" x="102.03782" xlink:href="#m080bbe7503" y="135.549514"/>
     <use style="fill:#2ca02c;stroke:#2ca02c;" x="112.316338" xlink:href="#m080bbe7503" y="136.414876"/>
     <use style="fill:#2ca02c;stroke:#2ca02c;" x="122.594855" xlink:href="#m080bbe7503" y="138.885843"/>
     <use style="fill:#2ca02c;stroke:#2ca02c;" x="132.873372" xlink:href="#m080bbe7503" y="138.658639"/>
     <use style="fill:#2ca02c;stroke:#2ca02c;" x="143.151889" xlink:href="#m080bbe7503" y="138.214394"/>
     <use style="fill:#2ca02c;stroke:#2ca02c;" x="153.430406" xlink:href="#m080bbe7503" y="141.925066"/>
     <use style="fill:#2ca02c;stroke:#2ca02c;" x="163.708924" xlink:href="#m080bbe7503" y="143.10689"/>
     <use style="fill:#2ca02c;stroke:#2ca02c;" x="173.987441" xlink:href="#m080bbe7503" y="141.275619"/>
     <use style="fill:#2ca02c;stroke:#2ca02c;" x="184.265958" xlink:href="#m080bbe7503" y="140.589798"/>
     <use style="fill:#2ca02c;stroke:#2ca02c;" x="194.544475" xlink:href="#m080bbe7503" y="141.472319"/>
     <use style="fill:#2ca02c;stroke:#2ca02c;" x="204.822993" xlink:href="#m080bbe7503" y="142.175426"/>
     <use style="fill:#2ca02c;stroke:#2ca02c;" x="215.10151" xlink:href="#m080bbe7503" y="142.765771"/>
     <use style="fill:#2ca02c;stroke:#2ca02c;" x="225.380027" xlink:href="#m080bbe7503" y="142.977344"/>
     <use style="fill:#2ca02c;stroke:#2ca02c;" x="235.658544" xlink:href="#m080bbe7503" y="143.537972"/>
     <use style="fill:#2ca02c;stroke:#2ca02c;" x="245.937061" xlink:href="#m080bbe7503" y="143.02116"/>
     <use style="fill:#2ca02c;stroke:#2ca02c;" x="256.215579" xlink:href="#m080bbe7503" y="142.961086"/>
     <use style="fill:#2ca02c;stroke:#2ca02c;" x="266.494096" xlink:href="#m080bbe7503" y="142.794176"/>
     <use style="fill:#2ca02c;stroke:#2ca02c;" x="276.772613" xlink:href="#m080bbe7503" y="143.993113"/>
     <use style="fill:#2ca02c;stroke:#2ca02c;" x="287.05113" xlink:href="#m080bbe7503" y="147.21231"/>
     <use style="fill:#2ca02c;stroke:#2ca02c;" x="297.329647" xlink:href="#m080bbe7503" y="149.151069"/>
     <use style="fill:#2ca02c;stroke:#2ca02c;" x="307.608165" xlink:href="#m080bbe7503" y="152.858302"/>
    </g>
   </g>
   <g id="PolyCollection_3">
    <defs>
     <path d="M 50.645234 -224.582406 
L 50.645234 -220.826061 
L 53.344643 -220.942137 
L 56.044051 -221.02471 
L 58.74346 -221.096883 
L 61.442869 -221.13926 
L 64.142277 -221.160761 
L 66.841686 -221.167758 
L 69.541094 -221.143549 
L 72.240503 -221.091706 
L 74.939911 -221.052772 
L 77.63932 -221.019477 
L 80.338729 -220.977304 
L 83.038137 -220.940206 
L 85.737546 -220.884211 
L 88.436954 -220.824963 
L 91.136363 -220.784146 
L 93.835771 -220.722782 
L 96.53518 -220.671125 
L 99.234588 -220.609699 
L 101.933997 -220.570063 
L 104.633406 -220.531582 
L 107.332814 -220.489702 
L 110.032223 -220.425277 
L 112.731631 -220.376765 
L 115.43104 -220.316382 
L 118.130448 -220.255756 
L 120.829857 -220.200743 
L 123.529266 -220.173124 
L 126.228674 -220.126563 
L 128.928083 -220.092795 
L 131.627491 -220.056489 
L 134.3269 -219.999462 
L 137.026308 -219.940341 
L 139.725717 -219.894599 
L 142.425125 -219.865332 
L 145.124534 -219.788808 
L 147.823943 -219.741836 
L 150.523351 -219.709251 
L 153.22276 -219.660294 
L 155.922168 -219.615379 
L 158.621577 -219.554622 
L 161.320985 -219.497001 
L 164.020394 -219.448832 
L 166.719802 -219.383638 
L 169.419211 -219.310498 
L 172.11862 -219.255998 
L 174.818028 -219.184446 
L 177.517437 -219.109411 
L 180.216845 -219.041576 
L 182.916254 -218.955121 
L 185.615662 -218.890614 
L 188.315071 -218.767587 
L 191.01448 -218.663311 
L 193.713888 -218.579202 
L 196.413297 -218.472625 
L 199.112705 -218.353401 
L 201.812114 -218.229447 
L 204.511522 -218.094919 
L 207.210931 -217.968218 
L 209.910339 -217.817445 
L 212.609748 -217.665376 
L 215.309157 -217.510398 
L 218.008565 -217.350372 
L 220.707974 -217.187548 
L 223.407382 -217.015845 
L 226.106791 -216.842754 
L 228.806199 -216.665516 
L 231.505608 -216.499907 
L 234.205016 -216.316881 
L 236.904425 -216.130464 
L 239.603834 -215.940228 
L 242.303242 -215.73136 
L 245.002651 -215.513014 
L 247.702059 -215.295526 
L 250.401468 -215.092365 
L 253.100876 -214.865562 
L 255.800285 -214.647591 
L 258.499694 -214.41318 
L 261.199102 -214.170644 
L 263.898511 -213.928017 
L 266.597919 -213.66137 
L 269.297328 -213.382493 
L 271.996736 -213.121881 
L 274.696145 -212.81712 
L 277.395553 -212.515787 
L 280.094962 -212.192694 
L 282.794371 -211.872166 
L 285.493779 -211.530687 
L 288.193188 -211.201143 
L 290.892596 -210.805273 
L 293.592005 -210.448279 
L 296.291413 -210.047155 
L 298.990822 -209.610936 
L 301.690231 -209.181022 
L 304.389639 -208.732278 
L 307.089048 -208.231308 
L 309.788456 -207.715266 
L 312.487865 -207.175706 
L 315.187273 -206.607325 
L 317.886682 -205.984832 
L 317.886682 -211.813707 
L 317.886682 -211.813707 
L 315.187273 -211.998207 
L 312.487865 -212.177281 
L 309.788456 -212.321514 
L 307.089048 -212.462905 
L 304.389639 -212.621625 
L 301.690231 -212.813362 
L 298.990822 -212.9464 
L 296.291413 -213.152368 
L 293.592005 -213.313725 
L 290.892596 -213.516818 
L 288.193188 -213.658816 
L 285.493779 -213.84228 
L 282.794371 -214.068277 
L 280.094962 -214.253117 
L 277.395553 -214.439617 
L 274.696145 -214.649744 
L 271.996736 -214.887757 
L 269.297328 -215.116607 
L 266.597919 -215.355953 
L 263.898511 -215.566044 
L 261.199102 -215.797069 
L 258.499694 -216.051118 
L 255.800285 -216.26491 
L 253.100876 -216.479291 
L 250.401468 -216.674688 
L 247.702059 -216.868016 
L 245.002651 -217.055739 
L 242.303242 -217.233161 
L 239.603834 -217.417641 
L 236.904425 -217.596122 
L 234.205016 -217.771344 
L 231.505608 -217.952471 
L 228.806199 -218.101775 
L 226.106791 -218.252992 
L 223.407382 -218.393168 
L 220.707974 -218.540646 
L 218.008565 -218.685382 
L 215.309157 -218.824247 
L 212.609748 -218.961138 
L 209.910339 -219.095907 
L 207.210931 -219.232756 
L 204.511522 -219.360494 
L 201.812114 -219.499126 
L 199.112705 -219.620472 
L 196.413297 -219.735812 
L 193.713888 -219.871128 
L 191.01448 -219.978195 
L 188.315071 -220.095923 
L 185.615662 -220.202871 
L 182.916254 -220.30378 
L 180.216845 -220.406427 
L 177.517437 -220.521842 
L 174.818028 -220.642524 
L 172.11862 -220.739652 
L 169.419211 -220.836865 
L 166.719802 -220.949485 
L 164.020394 -221.038647 
L 161.320985 -221.124439 
L 158.621577 -221.199175 
L 155.922168 -221.289068 
L 153.22276 -221.389593 
L 150.523351 -221.500297 
L 147.823943 -221.567109 
L 145.124534 -221.638001 
L 142.425125 -221.698618 
L 139.725717 -221.761687 
L 137.026308 -221.825621 
L 134.3269 -221.887347 
L 131.627491 -221.940717 
L 128.928083 -221.990556 
L 126.228674 -222.034907 
L 123.529266 -222.07429 
L 120.829857 -222.117023 
L 118.130448 -222.156813 
L 115.43104 -222.193267 
L 112.731631 -222.226485 
L 110.032223 -222.245979 
L 107.332814 -222.28613 
L 104.633406 -222.320674 
L 101.933997 -222.357286 
L 99.234588 -222.39621 
L 96.53518 -222.437855 
L 93.835771 -222.472258 
L 91.136363 -222.485925 
L 88.436954 -222.530181 
L 85.737546 -222.60147 
L 83.038137 -222.637417 
L 80.338729 -222.7251 
L 77.63932 -222.820009 
L 74.939911 -222.922839 
L 72.240503 -223.05693 
L 69.541094 -223.247011 
L 66.841686 -223.358752 
L 64.142277 -223.534232 
L 61.442869 -223.744162 
L 58.74346 -223.932754 
L 56.044051 -224.111799 
L 53.344643 -224.364187 
L 50.645234 -224.582406 
z
" id="m328d678d9f" style="stroke:#ffffff;stroke-opacity:0.15;"/>
    </defs>
    <g clip-path="url(#pf896b511c7)">
     <use style="fill:#2ca02c;fill-opacity:0.15;stroke:#ffffff;stroke-opacity:0.15;" x="0" xlink:href="#m328d678d9f" y="360"/>
    </g>
   </g>
   <g id="PathCollection_4">
    <defs>
     <path d="M 0 1.767767 
C 0.468817 1.767767 0.918496 1.581504 1.25 1.25 
C 1.581504 0.918496 1.767767 0.468817 1.767767 0 
C 1.767767 -0.468817 1.581504 -0.918496 1.25 -1.25 
C 0.918496 -1.581504 0.468817 -1.767767 0 -1.767767 
C -0.468817 -1.767767 -0.918496 -1.581504 -1.25 -1.25 
C -1.581504 -0.918496 -1.767767 -0.468817 -1.767767 0 
C -1.767767 0.468817 -1.581504 0.918496 -1.25 1.25 
C -0.918496 1.581504 -0.468817 1.767767 0 1.767767 
z
" id="m3b1b792299" style="stroke:#d62728;"/>
    </defs>
    <g clip-path="url(#pf896b511c7)">
     <use style="fill:#d62728;stroke:#d62728;" x="60.923752" xlink:href="#m3b1b792299" y="294.032453"/>
     <use style="fill:#d62728;stroke:#d62728;" x="71.202269" xlink:href="#m3b1b792299" y="288.823745"/>
     <use style="fill:#d62728;stroke:#d62728;" x="81.480786" xlink:href="#m3b1b792299" y="285.550764"/>
     <use style="fill:#d62728;stroke:#d62728;" x="91.759303" xlink:href="#m3b1b792299" y="281.97646"/>
     <use style="fill:#d62728;stroke:#d62728;" x="102.03782" xlink:href="#m3b1b792299" y="277.554559"/>
     <use style="fill:#d62728;stroke:#d62728;" x="112.316338" xlink:href="#m3b1b792299" y="274.013169"/>
     <use style="fill:#d62728;stroke:#d62728;" x="122.594855" xlink:href="#m3b1b792299" y="272.449461"/>
     <use style="fill:#d62728;stroke:#d62728;" x="132.873372" xlink:href="#m3b1b792299" y="270.020877"/>
     <use style="fill:#d62728;stroke:#d62728;" x="143.151889" xlink:href="#m3b1b792299" y="267.957922"/>
     <use style="fill:#d62728;stroke:#d62728;" x="153.430406" xlink:href="#m3b1b792299" y="269.49445"/>
     <use style="fill:#d62728;stroke:#d62728;" x="163.708924" xlink:href="#m3b1b792299" y="269.124447"/>
     <use style="fill:#d62728;stroke:#d62728;" x="173.987441" xlink:href="#m3b1b792299" y="266.76818"/>
     <use style="fill:#d62728;stroke:#d62728;" x="184.265958" xlink:href="#m3b1b792299" y="264.066269"/>
     <use style="fill:#d62728;stroke:#d62728;" x="194.544475" xlink:href="#m3b1b792299" y="262.818582"/>
     <use style="fill:#d62728;stroke:#d62728;" x="204.822993" xlink:href="#m3b1b792299" y="262.929754"/>
     <use style="fill:#d62728;stroke:#d62728;" x="215.10151" xlink:href="#m3b1b792299" y="262.055478"/>
     <use style="fill:#d62728;stroke:#d62728;" x="225.380027" xlink:href="#m3b1b792299" y="260.495781"/>
     <use style="fill:#d62728;stroke:#d62728;" x="235.658544" xlink:href="#m3b1b792299" y="260.043344"/>
     <use style="fill:#d62728;stroke:#d62728;" x="245.937061" xlink:href="#m3b1b792299" y="258.3207"/>
     <use style="fill:#d62728;stroke:#d62728;" x="256.215579" xlink:href="#m3b1b792299" y="254.767505"/>
     <use style="fill:#d62728;stroke:#d62728;" x="266.494096" xlink:href="#m3b1b792299" y="251.797452"/>
     <use style="fill:#d62728;stroke:#d62728;" x="276.772613" xlink:href="#m3b1b792299" y="249.881651"/>
     <use style="fill:#d62728;stroke:#d62728;" x="287.05113" xlink:href="#m3b1b792299" y="248.961226"/>
     <use style="fill:#d62728;stroke:#d62728;" x="297.329647" xlink:href="#m3b1b792299" y="246.087599"/>
     <use style="fill:#d62728;stroke:#d62728;" x="307.608165" xlink:href="#m3b1b792299" y="245.057603"/>
    </g>
   </g>
   <g id="PolyCollection_4">
    <defs>
     <path d="M 50.645234 -62.749558 
L 50.645234 -55.772727 
L 53.344643 -58.398356 
L 56.044051 -60.730483 
L 58.74346 -62.95919 
L 61.442869 -64.952639 
L 64.142277 -66.78855 
L 66.841686 -68.488982 
L 69.541094 -70.072755 
L 72.240503 -71.523846 
L 74.939911 -72.797416 
L 77.63932 -74.002659 
L 80.338729 -75.113558 
L 83.038137 -76.127125 
L 85.737546 -77.056619 
L 88.436954 -77.948974 
L 91.136363 -78.781803 
L 93.835771 -79.531725 
L 96.53518 -80.281107 
L 99.234588 -80.982209 
L 101.933997 -81.634493 
L 104.633406 -82.272232 
L 107.332814 -82.887656 
L 110.032223 -83.467562 
L 112.731631 -84.037365 
L 115.43104 -84.593575 
L 118.130448 -85.117145 
L 120.829857 -85.621857 
L 123.529266 -86.133482 
L 126.228674 -86.624392 
L 128.928083 -87.096136 
L 131.627491 -87.55482 
L 134.3269 -87.997278 
L 137.026308 -88.418154 
L 139.725717 -88.82789 
L 142.425125 -89.228722 
L 145.124534 -89.620092 
L 147.823943 -89.99509 
L 150.523351 -90.365501 
L 153.22276 -90.724806 
L 155.922168 -91.097309 
L 158.621577 -91.457546 
L 161.320985 -91.796124 
L 164.020394 -92.127356 
L 166.719802 -92.449356 
L 169.419211 -92.764003 
L 172.11862 -93.090791 
L 174.818028 -93.408498 
L 177.517437 -93.733215 
L 180.216845 -94.040387 
L 182.916254 -94.345457 
L 185.615662 -94.642787 
L 188.315071 -94.938169 
L 191.01448 -95.236819 
L 193.713888 -95.552906 
L 196.413297 -95.864278 
L 199.112705 -96.175571 
L 201.812114 -96.491869 
L 204.511522 -96.807345 
L 207.210931 -97.143778 
L 209.910339 -97.468095 
L 212.609748 -97.814812 
L 215.309157 -98.147809 
L 218.008565 -98.495184 
L 220.707974 -98.85709 
L 223.407382 -99.227969 
L 226.106791 -99.606089 
L 228.806199 -99.984761 
L 231.505608 -100.382742 
L 234.205016 -100.791281 
L 236.904425 -101.211703 
L 239.603834 -101.629996 
L 242.303242 -102.061849 
L 245.002651 -102.485024 
L 247.702059 -102.929944 
L 250.401468 -103.3557 
L 253.100876 -103.795665 
L 255.800285 -104.246745 
L 258.499694 -104.720875 
L 261.199102 -105.192975 
L 263.898511 -105.673571 
L 266.597919 -106.13657 
L 269.297328 -106.621882 
L 271.996736 -107.097313 
L 274.696145 -107.584882 
L 277.395553 -108.085795 
L 280.094962 -108.601927 
L 282.794371 -109.100644 
L 285.493779 -109.61084 
L 288.193188 -110.132504 
L 290.892596 -110.657672 
L 293.592005 -111.197055 
L 296.291413 -111.743558 
L 298.990822 -112.278855 
L 301.690231 -112.829482 
L 304.389639 -113.383922 
L 307.089048 -113.948337 
L 309.788456 -114.524511 
L 312.487865 -115.102608 
L 315.187273 -115.682495 
L 317.886682 -116.248703 
L 317.886682 -119.276852 
L 317.886682 -119.276852 
L 315.187273 -118.556733 
L 312.487865 -117.826148 
L 309.788456 -117.109502 
L 307.089048 -116.41633 
L 304.389639 -115.7264 
L 301.690231 -115.028956 
L 298.990822 -114.327114 
L 296.291413 -113.637204 
L 293.592005 -112.956196 
L 290.892596 -112.309927 
L 288.193188 -111.675862 
L 285.493779 -111.053125 
L 282.794371 -110.456914 
L 280.094962 -109.87105 
L 277.395553 -109.28403 
L 274.696145 -108.71709 
L 271.996736 -108.178661 
L 269.297328 -107.660016 
L 266.597919 -107.159549 
L 263.898511 -106.688245 
L 261.199102 -106.22026 
L 258.499694 -105.77297 
L 255.800285 -105.328114 
L 253.100876 -104.883364 
L 250.401468 -104.446132 
L 247.702059 -104.025065 
L 245.002651 -103.598485 
L 242.303242 -103.175671 
L 239.603834 -102.763883 
L 236.904425 -102.372082 
L 234.205016 -101.985569 
L 231.505608 -101.594236 
L 228.806199 -101.217505 
L 226.106791 -100.843332 
L 223.407382 -100.472099 
L 220.707974 -100.100542 
L 218.008565 -99.735486 
L 215.309157 -99.379953 
L 212.609748 -99.030315 
L 209.910339 -98.686792 
L 207.210931 -98.344563 
L 204.511522 -98.002256 
L 201.812114 -97.657914 
L 199.112705 -97.311826 
L 196.413297 -96.977913 
L 193.713888 -96.654471 
L 191.01448 -96.325302 
L 188.315071 -96.007465 
L 185.615662 -95.676185 
L 182.916254 -95.356527 
L 180.216845 -95.045447 
L 177.517437 -94.72596 
L 174.818028 -94.396799 
L 172.11862 -94.076743 
L 169.419211 -93.751633 
L 166.719802 -93.430079 
L 164.020394 -93.113469 
L 161.320985 -92.796497 
L 158.621577 -92.466544 
L 155.922168 -92.136329 
L 153.22276 -91.812055 
L 150.523351 -91.470365 
L 147.823943 -91.130249 
L 145.124534 -90.782863 
L 142.425125 -90.417297 
L 139.725717 -90.047855 
L 137.026308 -89.671218 
L 134.3269 -89.291694 
L 131.627491 -88.891175 
L 128.928083 -88.476531 
L 126.228674 -88.044285 
L 123.529266 -87.599358 
L 120.829857 -87.128353 
L 118.130448 -86.633334 
L 115.43104 -86.121608 
L 112.731631 -85.590448 
L 110.032223 -85.034489 
L 107.332814 -84.450525 
L 104.633406 -83.853727 
L 101.933997 -83.219367 
L 99.234588 -82.564536 
L 96.53518 -81.872758 
L 93.835771 -81.160417 
L 91.136363 -80.391093 
L 88.436954 -79.55885 
L 85.737546 -78.731237 
L 83.038137 -77.84923 
L 80.338729 -76.927568 
L 77.63932 -75.946739 
L 74.939911 -74.918794 
L 72.240503 -73.85989 
L 69.541094 -72.704022 
L 66.841686 -71.49282 
L 64.142277 -70.232102 
L 61.442869 -68.914095 
L 58.74346 -67.518802 
L 56.044051 -66.008967 
L 53.344643 -64.406485 
L 50.645234 -62.749558 
z
" id="m7ddb337e9c" style="stroke:#ffffff;stroke-opacity:0.15;"/>
    </defs>
    <g clip-path="url(#pf896b511c7)">
     <use style="fill:#d62728;fill-opacity:0.15;stroke:#ffffff;stroke-opacity:0.15;" x="0" xlink:href="#m7ddb337e9c" y="360"/>
    </g>
   </g>
   <g id="line2d_12">
    <path clip-path="url(#pf896b511c7)" d="M 60.923752 150.775366 
L 60.923752 133.395011 
" style="fill:none;stroke:#1f77b4;stroke-linecap:round;stroke-width:2.625;"/>
   </g>
   <g id="line2d_13">
    <path clip-path="url(#pf896b511c7)" d="M 71.202269 150.913426 
L 71.202269 147.68885 
" style="fill:none;stroke:#1f77b4;stroke-linecap:round;stroke-width:2.625;"/>
   </g>
   <g id="line2d_14">
    <path clip-path="url(#pf896b511c7)" d="M 81.480786 151.232817 
L 81.480786 144.154863 
" style="fill:none;stroke:#1f77b4;stroke-linecap:round;stroke-width:2.625;"/>
   </g>
   <g id="line2d_15">
    <path clip-path="url(#pf896b511c7)" d="M 91.759303 148.250504 
L 91.759303 140.422879 
" style="fill:none;stroke:#1f77b4;stroke-linecap:round;stroke-width:2.625;"/>
   </g>
   <g id="line2d_16">
    <path clip-path="url(#pf896b511c7)" d="M 102.03782 129.490115 
L 102.03782 124.683624 
" style="fill:none;stroke:#1f77b4;stroke-linecap:round;stroke-width:2.625;"/>
   </g>
   <g id="line2d_17">
    <path clip-path="url(#pf896b511c7)" d="M 112.316338 122.393791 
L 112.316338 120.178129 
" style="fill:none;stroke:#1f77b4;stroke-linecap:round;stroke-width:2.625;"/>
   </g>
   <g id="line2d_18">
    <path clip-path="url(#pf896b511c7)" d="M 122.594855 114.603447 
L 122.594855 112.975804 
" style="fill:none;stroke:#1f77b4;stroke-linecap:round;stroke-width:2.625;"/>
   </g>
   <g id="line2d_19">
    <path clip-path="url(#pf896b511c7)" d="M 132.873372 109.543455 
L 132.873372 105.412859 
" style="fill:none;stroke:#1f77b4;stroke-linecap:round;stroke-width:2.625;"/>
   </g>
   <g id="line2d_20">
    <path clip-path="url(#pf896b511c7)" d="M 143.151889 105.283657 
L 143.151889 104.579939 
" style="fill:none;stroke:#1f77b4;stroke-linecap:round;stroke-width:2.625;"/>
   </g>
   <g id="line2d_21">
    <path clip-path="url(#pf896b511c7)" d="M 153.430406 105.688679 
L 153.430406 102.487174 
" style="fill:none;stroke:#1f77b4;stroke-linecap:round;stroke-width:2.625;"/>
   </g>
   <g id="line2d_22">
    <path clip-path="url(#pf896b511c7)" d="M 163.708924 100.473665 
L 163.708924 97.272145 
" style="fill:none;stroke:#1f77b4;stroke-linecap:round;stroke-width:2.625;"/>
   </g>
   <g id="line2d_23">
    <path clip-path="url(#pf896b511c7)" d="M 173.987441 94.249335 
L 173.987441 92.336979 
" style="fill:none;stroke:#1f77b4;stroke-linecap:round;stroke-width:2.625;"/>
   </g>
   <g id="line2d_24">
    <path clip-path="url(#pf896b511c7)" d="M 184.265958 89.858004 
L 184.265958 86.816536 
" style="fill:none;stroke:#1f77b4;stroke-linecap:round;stroke-width:2.625;"/>
   </g>
   <g id="line2d_25">
    <path clip-path="url(#pf896b511c7)" d="M 194.544475 86.078608 
L 194.544475 84.246111 
" style="fill:none;stroke:#1f77b4;stroke-linecap:round;stroke-width:2.625;"/>
   </g>
   <g id="line2d_26">
    <path clip-path="url(#pf896b511c7)" d="M 204.822993 82.497921 
L 204.822993 79.89557 
" style="fill:none;stroke:#1f77b4;stroke-linecap:round;stroke-width:2.625;"/>
   </g>
   <g id="line2d_27">
    <path clip-path="url(#pf896b511c7)" d="M 215.10151 77.616497 
L 215.10151 74.519741 
" style="fill:none;stroke:#1f77b4;stroke-linecap:round;stroke-width:2.625;"/>
   </g>
   <g id="line2d_28">
    <path clip-path="url(#pf896b511c7)" d="M 225.380027 72.933505 
L 225.380027 72.863728 
" style="fill:none;stroke:#1f77b4;stroke-linecap:round;stroke-width:2.625;"/>
   </g>
   <g id="line2d_29">
    <path clip-path="url(#pf896b511c7)" d="M 235.658544 74.545043 
L 235.658544 74.473715 
" style="fill:none;stroke:#1f77b4;stroke-linecap:round;stroke-width:2.625;"/>
   </g>
   <g id="line2d_30">
    <path clip-path="url(#pf896b511c7)" d="M 245.937061 73.568719 
L 245.937061 68.941312 
" style="fill:none;stroke:#1f77b4;stroke-linecap:round;stroke-width:2.625;"/>
   </g>
   <g id="line2d_31">
    <path clip-path="url(#pf896b511c7)" d="M 256.215579 62.730678 
L 256.215579 57.379151 
" style="fill:none;stroke:#1f77b4;stroke-linecap:round;stroke-width:2.625;"/>
   </g>
   <g id="line2d_32">
    <path clip-path="url(#pf896b511c7)" d="M 266.494096 52.883449 
L 266.494096 49.046459 
" style="fill:none;stroke:#1f77b4;stroke-linecap:round;stroke-width:2.625;"/>
   </g>
   <g id="line2d_33">
    <path clip-path="url(#pf896b511c7)" d="M 276.772613 48.087457 
L 276.772613 43.559818 
" style="fill:none;stroke:#1f77b4;stroke-linecap:round;stroke-width:2.625;"/>
   </g>
   <g id="line2d_34">
    <path clip-path="url(#pf896b511c7)" d="M 287.05113 43.536289 
L 287.05113 37.906852 
" style="fill:none;stroke:#1f77b4;stroke-linecap:round;stroke-width:2.625;"/>
   </g>
   <g id="line2d_35">
    <path clip-path="url(#pf896b511c7)" d="M 297.329647 34.006192 
L 297.329647 32.881373 
" style="fill:none;stroke:#1f77b4;stroke-linecap:round;stroke-width:2.625;"/>
   </g>
   <g id="line2d_36">
    <path clip-path="url(#pf896b511c7)" d="M 307.608165 33.048114 
L 307.608165 31.967077 
" style="fill:none;stroke:#1f77b4;stroke-linecap:round;stroke-width:2.625;"/>
   </g>
   <g id="line2d_37">
    <path clip-path="url(#pf896b511c7)" d="M 50.645234 178.015842 
L 53.344643 169.009504 
L 56.044051 162.064631 
L 58.74346 156.465548 
L 61.442869 151.813601 
L 64.142277 147.863593 
L 66.841686 144.453741 
L 69.541094 141.47152 
L 72.240503 138.835369 
L 74.939911 136.484169 
L 77.63932 134.370833 
L 80.338729 132.458223 
L 83.038137 130.716448 
L 85.737546 129.121022 
L 88.436954 127.651564 
L 91.136363 126.290872 
L 93.835771 125.024241 
L 96.53518 123.838954 
L 99.234588 122.7239 
L 101.933997 121.669279 
L 104.633406 120.666375 
L 107.332814 119.707377 
L 110.032223 118.785242 
L 112.731631 117.893583 
L 115.43104 117.026581 
L 118.130448 116.178919 
L 120.829857 115.345721 
L 123.529266 114.522513 
L 126.228674 113.705186 
L 128.928083 112.889969 
L 131.627491 112.073407 
L 134.3269 111.252344 
L 137.026308 110.423909 
L 139.725717 109.585503 
L 142.425125 108.734794 
L 145.124534 107.869705 
L 147.823943 106.988407 
L 150.523351 106.089316 
L 153.22276 105.17108 
L 155.922168 104.232577 
L 158.621577 103.272905 
L 161.320985 102.291373 
L 164.020394 101.287491 
L 166.719802 100.260963 
L 169.419211 99.211675 
L 172.11862 98.139679 
L 174.818028 97.045189 
L 177.517437 95.928561 
L 180.216845 94.790282 
L 182.916254 93.630959 
L 185.615662 92.451303 
L 188.315071 91.252116 
L 191.01448 90.034277 
L 193.713888 88.798734 
L 196.413297 87.546484 
L 199.112705 86.278568 
L 201.812114 84.996057 
L 204.511522 83.700041 
L 207.210931 82.391624 
L 209.910339 81.071908 
L 212.609748 79.741993 
L 215.309157 78.402966 
L 218.008565 77.055895 
L 220.707974 75.701826 
L 223.407382 74.341775 
L 226.106791 72.97673 
L 228.806199 71.60764 
L 231.505608 70.235421 
L 234.205016 68.86095 
L 236.904425 67.485061 
L 239.603834 66.108551 
L 242.303242 64.732173 
L 245.002651 63.356642 
L 247.702059 61.982629 
L 250.401468 60.610766 
L 253.100876 59.241647 
L 255.800285 57.875825 
L 258.499694 56.513817 
L 261.199102 55.156102 
L 263.898511 53.803128 
L 266.597919 52.455304 
L 269.297328 51.113012 
L 271.996736 49.776599 
L 274.696145 48.446387 
L 277.395553 47.122667 
L 280.094962 45.805706 
L 282.794371 44.495743 
L 285.493779 43.192998 
L 288.193188 41.897665 
L 290.892596 40.60992 
L 293.592005 39.329918 
L 296.291413 38.057795 
L 298.990822 36.793673 
L 301.690231 35.537654 
L 304.389639 34.289828 
L 307.089048 33.050271 
L 309.788456 31.819044 
L 312.487865 30.596197 
L 315.187273 29.381771 
L 317.886682 28.175793 
" style="fill:none;stroke:#1f77b4;stroke-linecap:round;stroke-width:2.25;"/>
   </g>
   <g id="line2d_38">
    <path clip-path="url(#pf896b511c7)" d="M 60.923752 197.905504 
L 60.923752 191.494422 
" style="fill:none;stroke:#ff7f0e;stroke-linecap:round;stroke-width:2.625;"/>
   </g>
   <g id="line2d_39">
    <path clip-path="url(#pf896b511c7)" d="M 71.202269 191.023406 
L 71.202269 187.374239 
" style="fill:none;stroke:#ff7f0e;stroke-linecap:round;stroke-width:2.625;"/>
   </g>
   <g id="line2d_40">
    <path clip-path="url(#pf896b511c7)" d="M 81.480786 186.081712 
L 81.480786 185.978115 
" style="fill:none;stroke:#ff7f0e;stroke-linecap:round;stroke-width:2.625;"/>
   </g>
   <g id="line2d_41">
    <path clip-path="url(#pf896b511c7)" d="M 91.759303 182.813166 
L 91.759303 182.137951 
" style="fill:none;stroke:#ff7f0e;stroke-linecap:round;stroke-width:2.625;"/>
   </g>
   <g id="line2d_42">
    <path clip-path="url(#pf896b511c7)" d="M 102.03782 181.275195 
L 102.03782 179.259653 
" style="fill:none;stroke:#ff7f0e;stroke-linecap:round;stroke-width:2.625;"/>
   </g>
   <g id="line2d_43">
    <path clip-path="url(#pf896b511c7)" d="M 112.316338 177.129024 
L 112.316338 174.759545 
" style="fill:none;stroke:#ff7f0e;stroke-linecap:round;stroke-width:2.625;"/>
   </g>
   <g id="line2d_44">
    <path clip-path="url(#pf896b511c7)" d="M 122.594855 171.613369 
L 122.594855 169.921746 
" style="fill:none;stroke:#ff7f0e;stroke-linecap:round;stroke-width:2.625;"/>
   </g>
   <g id="line2d_45">
    <path clip-path="url(#pf896b511c7)" d="M 132.873372 167.802549 
L 132.873372 167.260482 
" style="fill:none;stroke:#ff7f0e;stroke-linecap:round;stroke-width:2.625;"/>
   </g>
   <g id="line2d_46">
    <path clip-path="url(#pf896b511c7)" d="M 143.151889 165.468217 
L 143.151889 163.355822 
" style="fill:none;stroke:#ff7f0e;stroke-linecap:round;stroke-width:2.625;"/>
   </g>
   <g id="line2d_47">
    <path clip-path="url(#pf896b511c7)" d="M 153.430406 160.490077 
L 153.430406 159.308254 
" style="fill:none;stroke:#ff7f0e;stroke-linecap:round;stroke-width:2.625;"/>
   </g>
   <g id="line2d_48">
    <path clip-path="url(#pf896b511c7)" d="M 163.708924 156.303586 
L 163.708924 155.375088 
" style="fill:none;stroke:#ff7f0e;stroke-linecap:round;stroke-width:2.625;"/>
   </g>
   <g id="line2d_49">
    <path clip-path="url(#pf896b511c7)" d="M 173.987441 151.807577 
L 173.987441 149.174005 
" style="fill:none;stroke:#ff7f0e;stroke-linecap:round;stroke-width:2.625;"/>
   </g>
   <g id="line2d_50">
    <path clip-path="url(#pf896b511c7)" d="M 184.265958 146.711738 
L 184.265958 140.307476 
" style="fill:none;stroke:#ff7f0e;stroke-linecap:round;stroke-width:2.625;"/>
   </g>
   <g id="line2d_51">
    <path clip-path="url(#pf896b511c7)" d="M 194.544475 137.782243 
L 194.544475 135.479249 
" style="fill:none;stroke:#ff7f0e;stroke-linecap:round;stroke-width:2.625;"/>
   </g>
   <g id="line2d_52">
    <path clip-path="url(#pf896b511c7)" d="M 204.822993 133.208472 
L 204.822993 131.905272 
" style="fill:none;stroke:#ff7f0e;stroke-linecap:round;stroke-width:2.625;"/>
   </g>
   <g id="line2d_53">
    <path clip-path="url(#pf896b511c7)" d="M 215.10151 129.827813 
L 215.10151 127.588908 
" style="fill:none;stroke:#ff7f0e;stroke-linecap:round;stroke-width:2.625;"/>
   </g>
   <g id="line2d_54">
    <path clip-path="url(#pf896b511c7)" d="M 225.380027 124.439867 
L 225.380027 122.959691 
" style="fill:none;stroke:#ff7f0e;stroke-linecap:round;stroke-width:2.625;"/>
   </g>
   <g id="line2d_55">
    <path clip-path="url(#pf896b511c7)" d="M 235.658544 122.206392 
L 235.658544 119.883732 
" style="fill:none;stroke:#ff7f0e;stroke-linecap:round;stroke-width:2.625;"/>
   </g>
   <g id="line2d_56">
    <path clip-path="url(#pf896b511c7)" d="M 245.937061 118.542764 
L 245.937061 117.733593 
" style="fill:none;stroke:#ff7f0e;stroke-linecap:round;stroke-width:2.625;"/>
   </g>
   <g id="line2d_57">
    <path clip-path="url(#pf896b511c7)" d="M 256.215579 116.147509 
L 256.215579 114.318047 
" style="fill:none;stroke:#ff7f0e;stroke-linecap:round;stroke-width:2.625;"/>
   </g>
   <g id="line2d_58">
    <path clip-path="url(#pf896b511c7)" d="M 266.494096 112.154442 
L 266.494096 109.733475 
" style="fill:none;stroke:#ff7f0e;stroke-linecap:round;stroke-width:2.625;"/>
   </g>
   <g id="line2d_59">
    <path clip-path="url(#pf896b511c7)" d="M 276.772613 106.84537 
L 276.772613 102.771453 
" style="fill:none;stroke:#ff7f0e;stroke-linecap:round;stroke-width:2.625;"/>
   </g>
   <g id="line2d_60">
    <path clip-path="url(#pf896b511c7)" d="M 287.05113 99.302116 
L 287.05113 98.889198 
" style="fill:none;stroke:#ff7f0e;stroke-linecap:round;stroke-width:2.625;"/>
   </g>
   <g id="line2d_61">
    <path clip-path="url(#pf896b511c7)" d="M 297.329647 96.825382 
L 297.329647 93.355269 
" style="fill:none;stroke:#ff7f0e;stroke-linecap:round;stroke-width:2.625;"/>
   </g>
   <g id="line2d_62">
    <path clip-path="url(#pf896b511c7)" d="M 307.608165 91.638953 
L 307.608165 87.177047 
" style="fill:none;stroke:#ff7f0e;stroke-linecap:round;stroke-width:2.625;"/>
   </g>
   <g id="line2d_63">
    <path clip-path="url(#pf896b511c7)" d="M 50.645234 206.782421 
L 53.344643 203.928424 
L 56.044051 201.361849 
L 58.74346 199.034716 
L 61.442869 196.909347 
L 64.142277 194.955553 
L 66.841686 193.148732 
L 69.541094 191.468528 
L 72.240503 189.897871 
L 74.939911 188.422279 
L 77.63932 187.029333 
L 80.338729 185.708283 
L 83.038137 184.449745 
L 85.737546 183.245468 
L 88.436954 182.088146 
L 91.136363 180.971276 
L 93.835771 179.889038 
L 96.53518 178.836204 
L 99.234588 177.808061 
L 101.933997 176.800348 
L 104.633406 175.809207 
L 107.332814 174.831144 
L 110.032223 173.862986 
L 112.731631 172.90186 
L 115.43104 171.945166 
L 118.130448 170.990555 
L 120.829857 170.035913 
L 123.529266 169.079345 
L 126.228674 168.11916 
L 128.928083 167.153861 
L 131.627491 166.182132 
L 134.3269 165.202831 
L 137.026308 164.214974 
L 139.725717 163.217732 
L 142.425125 162.210421 
L 145.124534 161.192491 
L 147.823943 160.163517 
L 150.523351 159.123197 
L 153.22276 158.071335 
L 155.922168 157.00784 
L 158.621577 155.932714 
L 161.320985 154.846044 
L 164.020394 153.747998 
L 166.719802 152.638812 
L 169.419211 151.518788 
L 172.11862 150.388283 
L 174.818028 149.247703 
L 177.517437 148.097495 
L 180.216845 146.938145 
L 182.916254 145.770168 
L 185.615662 144.594103 
L 188.315071 143.410508 
L 191.01448 142.219955 
L 193.713888 141.023028 
L 196.413297 139.820313 
L 199.112705 138.6124 
L 201.812114 137.399876 
L 204.511522 136.183324 
L 207.210931 134.963318 
L 209.910339 133.740426 
L 212.609748 132.515198 
L 215.309157 131.288176 
L 218.008565 130.059882 
L 220.707974 128.830825 
L 223.407382 127.601494 
L 226.106791 126.372362 
L 228.806199 125.14388 
L 231.505608 123.916484 
L 234.205016 122.690587 
L 236.904425 121.466582 
L 239.603834 120.244846 
L 242.303242 119.025734 
L 245.002651 117.80958 
L 247.702059 116.596704 
L 250.401468 115.387402 
L 253.100876 114.181956 
L 255.800285 112.980629 
L 258.499694 111.783666 
L 261.199102 110.591296 
L 263.898511 109.403733 
L 266.597919 108.221174 
L 269.297328 107.043802 
L 271.996736 105.871786 
L 274.696145 104.705282 
L 277.395553 103.544432 
L 280.094962 102.389366 
L 282.794371 101.240202 
L 285.493779 100.097048 
L 288.193188 98.959999 
L 290.892596 97.829143 
L 293.592005 96.704557 
L 296.291413 95.586307 
L 298.990822 94.474455 
L 301.690231 93.369051 
L 304.389639 92.270139 
L 307.089048 91.177756 
L 309.788456 90.091933 
L 312.487865 89.012692 
L 315.187273 87.940053 
L 317.886682 86.874027 
" style="fill:none;stroke:#ff7f0e;stroke-linecap:round;stroke-width:2.25;"/>
   </g>
   <g id="line2d_64">
    <path clip-path="url(#pf896b511c7)" d="M 60.923752 139.819035 
L 60.923752 138.959601 
" style="fill:none;stroke:#2ca02c;stroke-linecap:round;stroke-width:2.625;"/>
   </g>
   <g id="line2d_65">
    <path clip-path="url(#pf896b511c7)" d="M 71.202269 138.445057 
L 71.202269 137.572005 
" style="fill:none;stroke:#2ca02c;stroke-linecap:round;stroke-width:2.625;"/>
   </g>
   <g id="line2d_66">
    <path clip-path="url(#pf896b511c7)" d="M 81.480786 139.438702 
L 81.480786 137.818178 
" style="fill:none;stroke:#2ca02c;stroke-linecap:round;stroke-width:2.625;"/>
   </g>
   <g id="line2d_67">
    <path clip-path="url(#pf896b511c7)" d="M 91.759303 138.530982 
L 91.759303 137.19651 
" style="fill:none;stroke:#2ca02c;stroke-linecap:round;stroke-width:2.625;"/>
   </g>
   <g id="line2d_68">
    <path clip-path="url(#pf896b511c7)" d="M 102.03782 135.773788 
L 102.03782 135.326567 
" style="fill:none;stroke:#2ca02c;stroke-linecap:round;stroke-width:2.625;"/>
   </g>
   <g id="line2d_69">
    <path clip-path="url(#pf896b511c7)" d="M 112.316338 137.876507 
L 112.316338 135.373835 
" style="fill:none;stroke:#2ca02c;stroke-linecap:round;stroke-width:2.625;"/>
   </g>
   <g id="line2d_70">
    <path clip-path="url(#pf896b511c7)" d="M 122.594855 139.03431 
L 122.594855 138.737959 
" style="fill:none;stroke:#2ca02c;stroke-linecap:round;stroke-width:2.625;"/>
   </g>
   <g id="line2d_71">
    <path clip-path="url(#pf896b511c7)" d="M 132.873372 138.669145 
L 132.873372 138.648137 
" style="fill:none;stroke:#2ca02c;stroke-linecap:round;stroke-width:2.625;"/>
   </g>
   <g id="line2d_72">
    <path clip-path="url(#pf896b511c7)" d="M 143.151889 140.289111 
L 143.151889 136.248009 
" style="fill:none;stroke:#2ca02c;stroke-linecap:round;stroke-width:2.625;"/>
   </g>
   <g id="line2d_73">
    <path clip-path="url(#pf896b511c7)" d="M 153.430406 142.345025 
L 153.430406 141.509738 
" style="fill:none;stroke:#2ca02c;stroke-linecap:round;stroke-width:2.625;"/>
   </g>
   <g id="line2d_74">
    <path clip-path="url(#pf896b511c7)" d="M 163.708924 143.686161 
L 163.708924 142.536393 
" style="fill:none;stroke:#2ca02c;stroke-linecap:round;stroke-width:2.625;"/>
   </g>
   <g id="line2d_75">
    <path clip-path="url(#pf896b511c7)" d="M 173.987441 141.574571 
L 173.987441 140.979021 
" style="fill:none;stroke:#2ca02c;stroke-linecap:round;stroke-width:2.625;"/>
   </g>
   <g id="line2d_76">
    <path clip-path="url(#pf896b511c7)" d="M 184.265958 140.867472 
L 184.265958 140.131351 
" style="fill:none;stroke:#2ca02c;stroke-linecap:round;stroke-width:2.625;"/>
   </g>
   <g id="line2d_77">
    <path clip-path="url(#pf896b511c7)" d="M 194.544475 141.839993 
L 194.544475 141.108198 
" style="fill:none;stroke:#2ca02c;stroke-linecap:round;stroke-width:2.625;"/>
   </g>
   <g id="line2d_78">
    <path clip-path="url(#pf896b511c7)" d="M 204.822993 142.538418 
L 204.822993 141.8159 
" style="fill:none;stroke:#2ca02c;stroke-linecap:round;stroke-width:2.625;"/>
   </g>
   <g id="line2d_79">
    <path clip-path="url(#pf896b511c7)" d="M 215.10151 143.066311 
L 215.10151 142.467611 
" style="fill:none;stroke:#2ca02c;stroke-linecap:round;stroke-width:2.625;"/>
   </g>
   <g id="line2d_80">
    <path clip-path="url(#pf896b511c7)" d="M 225.380027 143.828125 
L 225.380027 142.145355 
" style="fill:none;stroke:#2ca02c;stroke-linecap:round;stroke-width:2.625;"/>
   </g>
   <g id="line2d_81">
    <path clip-path="url(#pf896b511c7)" d="M 235.658544 143.572298 
L 235.658544 143.503677 
" style="fill:none;stroke:#2ca02c;stroke-linecap:round;stroke-width:2.625;"/>
   </g>
   <g id="line2d_82">
    <path clip-path="url(#pf896b511c7)" d="M 245.937061 143.735513 
L 245.937061 142.528041 
" style="fill:none;stroke:#2ca02c;stroke-linecap:round;stroke-width:2.625;"/>
   </g>
   <g id="line2d_83">
    <path clip-path="url(#pf896b511c7)" d="M 256.215579 142.987845 
L 256.215579 142.934346 
" style="fill:none;stroke:#2ca02c;stroke-linecap:round;stroke-width:2.625;"/>
   </g>
   <g id="line2d_84">
    <path clip-path="url(#pf896b511c7)" d="M 266.494096 142.833187 
L 266.494096 142.755205 
" style="fill:none;stroke:#2ca02c;stroke-linecap:round;stroke-width:2.625;"/>
   </g>
   <g id="line2d_85">
    <path clip-path="url(#pf896b511c7)" d="M 276.772613 144.23686 
L 276.772613 143.750933 
" style="fill:none;stroke:#2ca02c;stroke-linecap:round;stroke-width:2.625;"/>
   </g>
   <g id="line2d_86">
    <path clip-path="url(#pf896b511c7)" d="M 287.05113 148.053367 
L 287.05113 146.389623 
" style="fill:none;stroke:#2ca02c;stroke-linecap:round;stroke-width:2.625;"/>
   </g>
   <g id="line2d_87">
    <path clip-path="url(#pf896b511c7)" d="M 297.329647 150.017465 
L 297.329647 148.304153 
" style="fill:none;stroke:#2ca02c;stroke-linecap:round;stroke-width:2.625;"/>
   </g>
   <g id="line2d_88">
    <path clip-path="url(#pf896b511c7)" d="M 307.608165 155.269889 
L 307.608165 150.37487 
" style="fill:none;stroke:#2ca02c;stroke-linecap:round;stroke-width:2.625;"/>
   </g>
   <g id="line2d_89">
    <path clip-path="url(#pf896b511c7)" d="M 50.645234 138.031849 
L 53.344643 138.057469 
L 56.044051 138.082949 
L 58.74346 138.108352 
L 61.442869 138.133742 
L 64.142277 138.159182 
L 66.841686 138.184736 
L 69.541094 138.210469 
L 72.240503 138.236444 
L 74.939911 138.262725 
L 77.63932 138.289378 
L 80.338729 138.316466 
L 83.038137 138.344056 
L 85.737546 138.372211 
L 88.436954 138.400997 
L 91.136363 138.430481 
L 93.835771 138.460726 
L 96.53518 138.491801 
L 99.234588 138.52377 
L 101.933997 138.556702 
L 104.633406 138.590661 
L 107.332814 138.625716 
L 110.032223 138.661935 
L 112.731631 138.699384 
L 115.43104 138.738134 
L 118.130448 138.778251 
L 120.829857 138.819805 
L 123.529266 138.862867 
L 126.228674 138.907505 
L 128.928083 138.953791 
L 131.627491 139.001796 
L 134.3269 139.051591 
L 137.026308 139.103248 
L 139.725717 139.156841 
L 142.425125 139.212444 
L 145.124534 139.27013 
L 147.823943 139.329975 
L 150.523351 139.392054 
L 153.22276 139.456445 
L 155.922168 139.523225 
L 158.621577 139.592474 
L 161.320985 139.664269 
L 164.020394 139.738693 
L 166.719802 139.815828 
L 169.419211 139.895755 
L 172.11862 139.97856 
L 174.818028 140.064328 
L 177.517437 140.153147 
L 180.216845 140.245104 
L 182.916254 140.340289 
L 185.615662 140.438795 
L 188.315071 140.540714 
L 191.01448 140.646142 
L 193.713888 140.755175 
L 196.413297 140.867912 
L 199.112705 140.984456 
L 201.812114 141.104908 
L 204.511522 141.229374 
L 207.210931 141.357962 
L 209.910339 141.490783 
L 212.609748 141.62795 
L 215.309157 141.769578 
L 218.008565 141.915787 
L 220.707974 142.066699 
L 223.407382 142.22244 
L 226.106791 142.383137 
L 228.806199 142.548923 
L 231.505608 142.719936 
L 234.205016 142.896314 
L 236.904425 143.078203 
L 239.603834 143.265751 
L 242.303242 143.459113 
L 245.002651 143.658447 
L 247.702059 143.863917 
L 250.401468 144.075693 
L 253.100876 144.293951 
L 255.800285 144.518871 
L 258.499694 144.750642 
L 261.199102 144.989459 
L 263.898511 145.235525 
L 266.597919 145.48905 
L 269.297328 145.750252 
L 271.996736 146.019359 
L 274.696145 146.296606 
L 277.395553 146.58224 
L 280.094962 146.876518 
L 282.794371 147.179707 
L 285.493779 147.492087 
L 288.193188 147.81395 
L 290.892596 148.145601 
L 293.592005 148.487361 
L 296.291413 148.839563 
L 298.990822 149.20256 
L 301.690231 149.576719 
L 304.389639 149.962429 
L 307.089048 150.360097 
L 309.788456 150.77015 
L 312.487865 151.193042 
L 315.187273 151.629249 
L 317.886682 152.079274 
" style="fill:none;stroke:#2ca02c;stroke-linecap:round;stroke-width:2.25;"/>
   </g>
   <g id="line2d_90">
    <path clip-path="url(#pf896b511c7)" d="M 60.923752 295.40237 
L 60.923752 292.645894 
" style="fill:none;stroke:#d62728;stroke-linecap:round;stroke-width:2.625;"/>
   </g>
   <g id="line2d_91">
    <path clip-path="url(#pf896b511c7)" d="M 71.202269 289.663277 
L 71.202269 288.002517 
" style="fill:none;stroke:#d62728;stroke-linecap:round;stroke-width:2.625;"/>
   </g>
   <g id="line2d_92">
    <path clip-path="url(#pf896b511c7)" d="M 81.480786 286.147473 
L 81.480786 284.963361 
" style="fill:none;stroke:#d62728;stroke-linecap:round;stroke-width:2.625;"/>
   </g>
   <g id="line2d_93">
    <path clip-path="url(#pf896b511c7)" d="M 91.759303 283.090102 
L 91.759303 280.894798 
" style="fill:none;stroke:#d62728;stroke-linecap:round;stroke-width:2.625;"/>
   </g>
   <g id="line2d_94">
    <path clip-path="url(#pf896b511c7)" d="M 102.03782 278.268043 
L 102.03782 276.854337 
" style="fill:none;stroke:#d62728;stroke-linecap:round;stroke-width:2.625;"/>
   </g>
   <g id="line2d_95">
    <path clip-path="url(#pf896b511c7)" d="M 112.316338 275.379704 
L 112.316338 273.33521 
" style="fill:none;stroke:#d62728;stroke-linecap:round;stroke-width:2.625;"/>
   </g>
   <g id="line2d_96">
    <path clip-path="url(#pf896b511c7)" d="M 122.594855 273.532012 
L 122.594855 271.397154 
" style="fill:none;stroke:#d62728;stroke-linecap:round;stroke-width:2.625;"/>
   </g>
   <g id="line2d_97">
    <path clip-path="url(#pf896b511c7)" d="M 132.873372 270.23803 
L 132.873372 269.804968 
" style="fill:none;stroke:#d62728;stroke-linecap:round;stroke-width:2.625;"/>
   </g>
   <g id="line2d_98">
    <path clip-path="url(#pf896b511c7)" d="M 143.151889 268.156365 
L 143.151889 267.760519 
" style="fill:none;stroke:#d62728;stroke-linecap:round;stroke-width:2.625;"/>
   </g>
   <g id="line2d_99">
    <path clip-path="url(#pf896b511c7)" d="M 153.430406 269.656783 
L 153.430406 269.332813 
" style="fill:none;stroke:#d62728;stroke-linecap:round;stroke-width:2.625;"/>
   </g>
   <g id="line2d_100">
    <path clip-path="url(#pf896b511c7)" d="M 163.708924 269.797544 
L 163.708924 268.463166 
" style="fill:none;stroke:#d62728;stroke-linecap:round;stroke-width:2.625;"/>
   </g>
   <g id="line2d_101">
    <path clip-path="url(#pf896b511c7)" d="M 173.987441 267.340965 
L 173.987441 266.203973 
" style="fill:none;stroke:#d62728;stroke-linecap:round;stroke-width:2.625;"/>
   </g>
   <g id="line2d_102">
    <path clip-path="url(#pf896b511c7)" d="M 184.265958 265.257879 
L 184.265958 263.078494 
" style="fill:none;stroke:#d62728;stroke-linecap:round;stroke-width:2.625;"/>
   </g>
   <g id="line2d_103">
    <path clip-path="url(#pf896b511c7)" d="M 194.544475 263.028849 
L 194.544475 262.609483 
" style="fill:none;stroke:#d62728;stroke-linecap:round;stroke-width:2.625;"/>
   </g>
   <g id="line2d_104">
    <path clip-path="url(#pf896b511c7)" d="M 204.822993 263.103342 
L 204.822993 262.756962 
" style="fill:none;stroke:#d62728;stroke-linecap:round;stroke-width:2.625;"/>
   </g>
   <g id="line2d_105">
    <path clip-path="url(#pf896b511c7)" d="M 215.10151 262.474799 
L 215.10151 261.640774 
" style="fill:none;stroke:#d62728;stroke-linecap:round;stroke-width:2.625;"/>
   </g>
   <g id="line2d_106">
    <path clip-path="url(#pf896b511c7)" d="M 225.380027 260.702185 
L 225.380027 260.290502 
" style="fill:none;stroke:#d62728;stroke-linecap:round;stroke-width:2.625;"/>
   </g>
   <g id="line2d_107">
    <path clip-path="url(#pf896b511c7)" d="M 235.658544 260.313576 
L 235.658544 259.775036 
" style="fill:none;stroke:#d62728;stroke-linecap:round;stroke-width:2.625;"/>
   </g>
   <g id="line2d_108">
    <path clip-path="url(#pf896b511c7)" d="M 245.937061 258.77587 
L 245.937061 257.646302 
" style="fill:none;stroke:#d62728;stroke-linecap:round;stroke-width:2.625;"/>
   </g>
   <g id="line2d_109">
    <path clip-path="url(#pf896b511c7)" d="M 256.215579 255.62127 
L 256.215579 253.932662 
" style="fill:none;stroke:#d62728;stroke-linecap:round;stroke-width:2.625;"/>
   </g>
   <g id="line2d_110">
    <path clip-path="url(#pf896b511c7)" d="M 266.494096 252.433361 
L 266.494096 251.172101 
" style="fill:none;stroke:#d62728;stroke-linecap:round;stroke-width:2.625;"/>
   </g>
   <g id="line2d_111">
    <path clip-path="url(#pf896b511c7)" d="M 276.772613 250.534701 
L 276.772613 249.23973 
" style="fill:none;stroke:#d62728;stroke-linecap:round;stroke-width:2.625;"/>
   </g>
   <g id="line2d_112">
    <path clip-path="url(#pf896b511c7)" d="M 287.05113 250.246493 
L 287.05113 247.71837 
" style="fill:none;stroke:#d62728;stroke-linecap:round;stroke-width:2.625;"/>
   </g>
   <g id="line2d_113">
    <path clip-path="url(#pf896b511c7)" d="M 297.329647 246.503215 
L 297.329647 245.676518 
" style="fill:none;stroke:#d62728;stroke-linecap:round;stroke-width:2.625;"/>
   </g>
   <g id="line2d_114">
    <path clip-path="url(#pf896b511c7)" d="M 307.608165 245.159731 
L 307.608165 244.955752 
" style="fill:none;stroke:#d62728;stroke-linecap:round;stroke-width:2.625;"/>
   </g>
   <g id="line2d_115">
    <path clip-path="url(#pf896b511c7)" d="M 50.645234 299.601735 
L 53.344643 297.631605 
L 56.044051 295.811357 
L 58.74346 294.123532 
L 61.442869 292.553508 
L 64.142277 291.088913 
L 66.841686 289.719182 
L 69.541094 288.435217 
L 72.240503 287.229121 
L 74.939911 286.093994 
L 77.63932 285.023767 
L 80.338729 284.01307 
L 83.038137 283.057128 
L 85.737546 282.151668 
L 88.436954 281.29285 
L 91.136363 280.477211 
L 93.835771 279.701607 
L 96.53518 278.963178 
L 99.234588 278.259311 
L 101.933997 277.587608 
L 104.633406 276.945861 
L 107.332814 276.332032 
L 110.032223 275.744231 
L 112.731631 275.180702 
L 115.43104 274.639808 
L 118.130448 274.120016 
L 120.829857 273.619892 
L 123.529266 273.138085 
L 126.228674 272.673323 
L 128.928083 272.224404 
L 131.627491 271.790188 
L 134.3269 271.369596 
L 137.026308 270.961599 
L 139.725717 270.565218 
L 142.425125 270.179517 
L 145.124534 269.803601 
L 147.823943 269.436612 
L 150.523351 269.077729 
L 153.22276 268.726159 
L 155.922168 268.381143 
L 158.621577 268.041948 
L 161.320985 267.707866 
L 164.020394 267.378217 
L 166.719802 267.052342 
L 169.419211 266.729605 
L 172.11862 266.40939 
L 174.818028 266.091102 
L 177.517437 265.774167 
L 180.216845 265.458027 
L 182.916254 265.142144 
L 185.615662 264.825998 
L 188.315071 264.509087 
L 191.01448 264.190924 
L 193.713888 263.87104 
L 196.413297 263.548985 
L 199.112705 263.224321 
L 201.812114 262.896631 
L 204.511522 262.565512 
L 207.210931 262.230578 
L 209.910339 261.891461 
L 212.609748 261.547808 
L 215.309157 261.199282 
L 218.008565 260.845564 
L 220.707974 260.486351 
L 223.407382 260.121359 
L 226.106791 259.750317 
L 228.806199 259.372973 
L 231.505608 258.989094 
L 234.205016 258.598459 
L 236.904425 258.200868 
L 239.603834 257.796137 
L 242.303242 257.384099 
L 245.002651 256.964602 
L 247.702059 256.537513 
L 250.401468 256.102715 
L 253.100876 255.660107 
L 255.800285 255.209603 
L 258.499694 254.751136 
L 261.199102 254.284653 
L 263.898511 253.810115 
L 266.597919 253.327501 
L 269.297328 252.836803 
L 271.996736 252.338028 
L 274.696145 251.831197 
L 277.395553 251.316343 
L 280.094962 250.793514 
L 282.794371 250.262769 
L 285.493779 249.724182 
L 288.193188 249.177834 
L 290.892596 248.62382 
L 293.592005 248.062244 
L 296.291413 247.493222 
L 298.990822 246.916877 
L 301.690231 246.333341 
L 304.389639 245.742755 
L 307.089048 245.145266 
L 309.788456 244.541029 
L 312.487865 243.930206 
L 315.187273 243.312963 
L 317.886682 242.689471 
" style="fill:none;stroke:#d62728;stroke-linecap:round;stroke-width:2.25;"/>
   </g>
   <g id="patch_3">
    <path d="M 50.645234 318.2 
L 50.645234 10.8 
" style="fill:none;stroke:#cccccc;stroke-linecap:square;stroke-linejoin:miter;stroke-width:0.8;"/>
   </g>
   <g id="patch_4">
    <path d="M 50.645234 318.2 
L 346.281086 318.2 
" style="fill:none;stroke:#cccccc;stroke-linecap:square;stroke-linejoin:miter;stroke-width:0.8;"/>
   </g>
   <g id="legend_1">
    <g id="patch_5">
     <path d="M 57.645234 92.190625 
L 169.909297 92.190625 
Q 171.909297 92.190625 171.909297 90.190625 
L 171.909297 17.8 
Q 171.909297 15.8 169.909297 15.8 
L 57.645234 15.8 
Q 55.645234 15.8 55.645234 17.8 
L 55.645234 90.190625 
Q 55.645234 92.190625 57.645234 92.190625 
z
" style="fill:#ffffff;opacity:0.8;stroke:#cccccc;stroke-linejoin:miter;"/>
    </g>
    <g id="text_14">
     <!-- Country Name -->
     <g style="fill:#262626;" transform="translate(77.573359 27.398438)scale(0.1 -0.1)">
      <defs>
       <path d="M 8.5 21.578125 
L 8.5 54.6875 
L 17.484375 54.6875 
L 17.484375 21.921875 
Q 17.484375 14.15625 20.5 10.265625 
Q 23.53125 6.390625 29.59375 6.390625 
Q 36.859375 6.390625 41.078125 11.03125 
Q 45.3125 15.671875 45.3125 23.6875 
L 45.3125 54.6875 
L 54.296875 54.6875 
L 54.296875 0 
L 45.3125 0 
L 45.3125 8.40625 
Q 42.046875 3.421875 37.71875 1 
Q 33.40625 -1.421875 27.6875 -1.421875 
Q 18.265625 -1.421875 13.375 4.4375 
Q 8.5 10.296875 8.5 21.578125 
z
M 31.109375 56 
z
" id="DejaVuSans-117"/>
       <path d="M 41.109375 46.296875 
Q 39.59375 47.171875 37.8125 47.578125 
Q 36.03125 48 33.890625 48 
Q 26.265625 48 22.1875 43.046875 
Q 18.109375 38.09375 18.109375 28.8125 
L 18.109375 0 
L 9.078125 0 
L 9.078125 54.6875 
L 18.109375 54.6875 
L 18.109375 46.1875 
Q 20.953125 51.171875 25.484375 53.578125 
Q 30.03125 56 36.53125 56 
Q 37.453125 56 38.578125 55.875 
Q 39.703125 55.765625 41.0625 55.515625 
z
" id="DejaVuSans-114"/>
       <path d="M 32.171875 -5.078125 
Q 28.375 -14.84375 24.75 -17.8125 
Q 21.140625 -20.796875 15.09375 -20.796875 
L 7.90625 -20.796875 
L 7.90625 -13.28125 
L 13.1875 -13.28125 
Q 16.890625 -13.28125 18.9375 -11.515625 
Q 21 -9.765625 23.484375 -3.21875 
L 25.09375 0.875 
L 2.984375 54.6875 
L 12.5 54.6875 
L 29.59375 11.921875 
L 46.6875 54.6875 
L 56.203125 54.6875 
z
" id="DejaVuSans-121"/>
       <path d="M 9.8125 72.90625 
L 23.09375 72.90625 
L 55.421875 11.921875 
L 55.421875 72.90625 
L 64.984375 72.90625 
L 64.984375 0 
L 51.703125 0 
L 19.390625 60.984375 
L 19.390625 0 
L 9.8125 0 
z
" id="DejaVuSans-78"/>
       <path d="M 34.28125 27.484375 
Q 23.390625 27.484375 19.1875 25 
Q 14.984375 22.515625 14.984375 16.5 
Q 14.984375 11.71875 18.140625 8.90625 
Q 21.296875 6.109375 26.703125 6.109375 
Q 34.1875 6.109375 38.703125 11.40625 
Q 43.21875 16.703125 43.21875 25.484375 
L 43.21875 27.484375 
z
M 52.203125 31.203125 
L 52.203125 0 
L 43.21875 0 
L 43.21875 8.296875 
Q 40.140625 3.328125 35.546875 0.953125 
Q 30.953125 -1.421875 24.3125 -1.421875 
Q 15.921875 -1.421875 10.953125 3.296875 
Q 6 8.015625 6 15.921875 
Q 6 25.140625 12.171875 29.828125 
Q 18.359375 34.515625 30.609375 34.515625 
L 43.21875 34.515625 
L 43.21875 35.40625 
Q 43.21875 41.609375 39.140625 45 
Q 35.0625 48.390625 27.6875 48.390625 
Q 23 48.390625 18.546875 47.265625 
Q 14.109375 46.140625 10.015625 43.890625 
L 10.015625 52.203125 
Q 14.9375 54.109375 19.578125 55.046875 
Q 24.21875 56 28.609375 56 
Q 40.484375 56 46.34375 49.84375 
Q 52.203125 43.703125 52.203125 31.203125 
z
" id="DejaVuSans-97"/>
      </defs>
      <use xlink:href="#DejaVuSans-67"/>
      <use x="69.824219" xlink:href="#DejaVuSans-111"/>
      <use x="131.005859" xlink:href="#DejaVuSans-117"/>
      <use x="194.384766" xlink:href="#DejaVuSans-110"/>
      <use x="257.763672" xlink:href="#DejaVuSans-116"/>
      <use x="296.972656" xlink:href="#DejaVuSans-114"/>
      <use x="338.085938" xlink:href="#DejaVuSans-121"/>
      <use x="397.265625" xlink:href="#DejaVuSans-32"/>
      <use x="429.052734" xlink:href="#DejaVuSans-78"/>
      <use x="503.857422" xlink:href="#DejaVuSans-97"/>
      <use x="565.136719" xlink:href="#DejaVuSans-109"/>
      <use x="662.548828" xlink:href="#DejaVuSans-101"/>
     </g>
    </g>
    <g id="PathCollection_5">
     <g>
      <use style="fill:#1f77b4;stroke:#1f77b4;" x="69.645234" xlink:href="#m98e6425135" y="39.451563"/>
     </g>
    </g>
    <g id="text_15">
     <!-- China -->
     <g style="fill:#262626;" transform="translate(87.645234 42.076563)scale(0.1 -0.1)">
      <defs>
       <path d="M 54.890625 33.015625 
L 54.890625 0 
L 45.90625 0 
L 45.90625 32.71875 
Q 45.90625 40.484375 42.875 44.328125 
Q 39.84375 48.1875 33.796875 48.1875 
Q 26.515625 48.1875 22.3125 43.546875 
Q 18.109375 38.921875 18.109375 30.90625 
L 18.109375 0 
L 9.078125 0 
L 9.078125 75.984375 
L 18.109375 75.984375 
L 18.109375 46.1875 
Q 21.34375 51.125 25.703125 53.5625 
Q 30.078125 56 35.796875 56 
Q 45.21875 56 50.046875 50.171875 
Q 54.890625 44.34375 54.890625 33.015625 
z
" id="DejaVuSans-104"/>
      </defs>
      <use xlink:href="#DejaVuSans-67"/>
      <use x="69.824219" xlink:href="#DejaVuSans-104"/>
      <use x="133.203125" xlink:href="#DejaVuSans-105"/>
      <use x="160.986328" xlink:href="#DejaVuSans-110"/>
      <use x="224.365234" xlink:href="#DejaVuSans-97"/>
     </g>
    </g>
    <g id="PathCollection_6">
     <g>
      <use style="fill:#ff7f0e;stroke:#ff7f0e;stroke-width:1.5;" x="69.645234" xlink:href="#ma75b06091d" y="54.129688"/>
     </g>
    </g>
    <g id="text_16">
     <!-- India -->
     <g style="fill:#262626;" transform="translate(87.645234 56.754688)scale(0.1 -0.1)">
      <defs>
       <path d="M 9.8125 72.90625 
L 19.671875 72.90625 
L 19.671875 0 
L 9.8125 0 
z
" id="DejaVuSans-73"/>
       <path d="M 45.40625 46.390625 
L 45.40625 75.984375 
L 54.390625 75.984375 
L 54.390625 0 
L 45.40625 0 
L 45.40625 8.203125 
Q 42.578125 3.328125 38.25 0.953125 
Q 33.9375 -1.421875 27.875 -1.421875 
Q 17.96875 -1.421875 11.734375 6.484375 
Q 5.515625 14.40625 5.515625 27.296875 
Q 5.515625 40.1875 11.734375 48.09375 
Q 17.96875 56 27.875 56 
Q 33.9375 56 38.25 53.625 
Q 42.578125 51.265625 45.40625 46.390625 
z
M 14.796875 27.296875 
Q 14.796875 17.390625 18.875 11.75 
Q 22.953125 6.109375 30.078125 6.109375 
Q 37.203125 6.109375 41.296875 11.75 
Q 45.40625 17.390625 45.40625 27.296875 
Q 45.40625 37.203125 41.296875 42.84375 
Q 37.203125 48.484375 30.078125 48.484375 
Q 22.953125 48.484375 18.875 42.84375 
Q 14.796875 37.203125 14.796875 27.296875 
z
" id="DejaVuSans-100"/>
      </defs>
      <use xlink:href="#DejaVuSans-73"/>
      <use x="29.492188" xlink:href="#DejaVuSans-110"/>
      <use x="92.871094" xlink:href="#DejaVuSans-100"/>
      <use x="156.347656" xlink:href="#DejaVuSans-105"/>
      <use x="184.130859" xlink:href="#DejaVuSans-97"/>
     </g>
    </g>
    <g id="PathCollection_7">
     <g>
      <use style="fill:#2ca02c;stroke:#2ca02c;" x="69.645234" xlink:href="#m080bbe7503" y="68.807813"/>
     </g>
    </g>
    <g id="text_17">
     <!-- United Kingdom -->
     <g style="fill:#262626;" transform="translate(87.645234 71.432813)scale(0.1 -0.1)">
      <defs>
       <path d="M 8.6875 72.90625 
L 18.609375 72.90625 
L 18.609375 28.609375 
Q 18.609375 16.890625 22.84375 11.734375 
Q 27.09375 6.59375 36.625 6.59375 
Q 46.09375 6.59375 50.34375 11.734375 
Q 54.59375 16.890625 54.59375 28.609375 
L 54.59375 72.90625 
L 64.5 72.90625 
L 64.5 27.390625 
Q 64.5 13.140625 57.4375 5.859375 
Q 50.390625 -1.421875 36.625 -1.421875 
Q 22.796875 -1.421875 15.734375 5.859375 
Q 8.6875 13.140625 8.6875 27.390625 
z
" id="DejaVuSans-85"/>
       <path d="M 9.8125 72.90625 
L 19.671875 72.90625 
L 19.671875 42.09375 
L 52.390625 72.90625 
L 65.09375 72.90625 
L 28.90625 38.921875 
L 67.671875 0 
L 54.6875 0 
L 19.671875 35.109375 
L 19.671875 0 
L 9.8125 0 
z
" id="DejaVuSans-75"/>
       <path d="M 45.40625 27.984375 
Q 45.40625 37.75 41.375 43.109375 
Q 37.359375 48.484375 30.078125 48.484375 
Q 22.859375 48.484375 18.828125 43.109375 
Q 14.796875 37.75 14.796875 27.984375 
Q 14.796875 18.265625 18.828125 12.890625 
Q 22.859375 7.515625 30.078125 7.515625 
Q 37.359375 7.515625 41.375 12.890625 
Q 45.40625 18.265625 45.40625 27.984375 
z
M 54.390625 6.78125 
Q 54.390625 -7.171875 48.1875 -13.984375 
Q 42 -20.796875 29.203125 -20.796875 
Q 24.46875 -20.796875 20.265625 -20.09375 
Q 16.0625 -19.390625 12.109375 -17.921875 
L 12.109375 -9.1875 
Q 16.0625 -11.328125 19.921875 -12.34375 
Q 23.78125 -13.375 27.78125 -13.375 
Q 36.625 -13.375 41.015625 -8.765625 
Q 45.40625 -4.15625 45.40625 5.171875 
L 45.40625 9.625 
Q 42.625 4.78125 38.28125 2.390625 
Q 33.9375 0 27.875 0 
Q 17.828125 0 11.671875 7.65625 
Q 5.515625 15.328125 5.515625 27.984375 
Q 5.515625 40.671875 11.671875 48.328125 
Q 17.828125 56 27.875 56 
Q 33.9375 56 38.28125 53.609375 
Q 42.625 51.21875 45.40625 46.390625 
L 45.40625 54.6875 
L 54.390625 54.6875 
z
" id="DejaVuSans-103"/>
      </defs>
      <use xlink:href="#DejaVuSans-85"/>
      <use x="73.193359" xlink:href="#DejaVuSans-110"/>
      <use x="136.572266" xlink:href="#DejaVuSans-105"/>
      <use x="164.355469" xlink:href="#DejaVuSans-116"/>
      <use x="203.564453" xlink:href="#DejaVuSans-101"/>
      <use x="265.087891" xlink:href="#DejaVuSans-100"/>
      <use x="328.564453" xlink:href="#DejaVuSans-32"/>
      <use x="360.351562" xlink:href="#DejaVuSans-75"/>
      <use x="425.927734" xlink:href="#DejaVuSans-105"/>
      <use x="453.710938" xlink:href="#DejaVuSans-110"/>
      <use x="517.089844" xlink:href="#DejaVuSans-103"/>
      <use x="580.566406" xlink:href="#DejaVuSans-100"/>
      <use x="644.042969" xlink:href="#DejaVuSans-111"/>
      <use x="705.224609" xlink:href="#DejaVuSans-109"/>
     </g>
    </g>
    <g id="PathCollection_8">
     <g>
      <use style="fill:#d62728;stroke:#d62728;" x="69.645234" xlink:href="#m3b1b792299" y="83.485938"/>
     </g>
    </g>
    <g id="text_18">
     <!-- World -->
     <g style="fill:#262626;" transform="translate(87.645234 86.110938)scale(0.1 -0.1)">
      <defs>
       <path d="M 3.328125 72.90625 
L 13.28125 72.90625 
L 28.609375 11.28125 
L 43.890625 72.90625 
L 54.984375 72.90625 
L 70.3125 11.28125 
L 85.59375 72.90625 
L 95.609375 72.90625 
L 77.296875 0 
L 64.890625 0 
L 49.515625 63.28125 
L 33.984375 0 
L 21.578125 0 
z
" id="DejaVuSans-87"/>
       <path d="M 9.421875 75.984375 
L 18.40625 75.984375 
L 18.40625 0 
L 9.421875 0 
z
" id="DejaVuSans-108"/>
      </defs>
      <use xlink:href="#DejaVuSans-87"/>
      <use x="93.001953" xlink:href="#DejaVuSans-111"/>
      <use x="154.183594" xlink:href="#DejaVuSans-114"/>
      <use x="195.296875" xlink:href="#DejaVuSans-108"/>
      <use x="223.080078" xlink:href="#DejaVuSans-100"/>
     </g>
    </g>
   </g>
  </g>
 </g>
 <defs>
  <clipPath id="pf896b511c7">
   <rect height="307.4" width="295.635851" x="50.645234" y="10.8"/>
  </clipPath>
 </defs>
</svg>
