<?xml version="1.0" encoding="utf-8" standalone="no"?>
<!DOCTYPE svg PUBLIC "-//W3C//DTD SVG 1.1//EN"
  "http://www.w3.org/Graphics/SVG/1.1/DTD/svg11.dtd">
<!-- Created with matplotlib (https://matplotlib.org/) -->
<svg height="360pt" version="1.1" viewBox="0 0 360 360" width="360pt" xmlns="http://www.w3.org/2000/svg" xmlns:xlink="http://www.w3.org/1999/xlink">
 <metadata>
  <rdf:RDF xmlns:cc="http://creativecommons.org/ns#" xmlns:dc="http://purl.org/dc/elements/1.1/" xmlns:rdf="http://www.w3.org/1999/02/22-rdf-syntax-ns#">
   <cc:Work>
    <dc:type rdf:resource="http://purl.org/dc/dcmitype/StillImage"/>
    <dc:date>2021-01-23T03:07:33.380887</dc:date>
    <dc:format>image/svg+xml</dc:format>
    <dc:creator>
     <cc:Agent>
      <dc:title>Matplotlib v3.3.2, https://matplotlib.org/</dc:title>
     </cc:Agent>
    </dc:creator>
   </cc:Work>
  </rdf:RDF>
 </metadata>
 <defs>
  <style type="text/css">*{stroke-linecap:butt;stroke-linejoin:round;}</style>
 </defs>
 <g id="figure_1">
  <g id="patch_1">
   <path d="M 0 360 
L 360 360 
L 360 0 
L 0 0 
z
" style="fill:#ffffff;"/>
  </g>
  <g id="axes_1">
   <g id="patch_2">
    <path d="M 63.675 318.2 
L 349.2 318.2 
L 349.2 10.8 
L 63.675 10.8 
z
" style="fill:#ffffff;"/>
   </g>
   <g id="matplotlib.axis_1">
    <g id="xtick_1">
     <g id="line2d_1">
      <path clip-path="url(#p61c7a15993)" d="M 63.675 318.2 
L 63.675 10.8 
" style="fill:none;stroke:#cccccc;stroke-linecap:round;stroke-width:0.8;"/>
     </g>
     <g id="text_1">
      <!-- 1960 -->
      <g style="fill:#262626;" transform="translate(50.95 332.798438)scale(0.1 -0.1)">
       <defs>
        <path d="M 12.40625 8.296875 
L 28.515625 8.296875 
L 28.515625 63.921875 
L 10.984375 60.40625 
L 10.984375 69.390625 
L 28.421875 72.90625 
L 38.28125 72.90625 
L 38.28125 8.296875 
L 54.390625 8.296875 
L 54.390625 0 
L 12.40625 0 
z
" id="DejaVuSans-49"/>
        <path d="M 10.984375 1.515625 
L 10.984375 10.5 
Q 14.703125 8.734375 18.5 7.8125 
Q 22.3125 6.890625 25.984375 6.890625 
Q 35.75 6.890625 40.890625 13.453125 
Q 46.046875 20.015625 46.78125 33.40625 
Q 43.953125 29.203125 39.59375 26.953125 
Q 35.25 24.703125 29.984375 24.703125 
Q 19.046875 24.703125 12.671875 31.3125 
Q 6.296875 37.9375 6.296875 49.421875 
Q 6.296875 60.640625 12.9375 67.421875 
Q 19.578125 74.21875 30.609375 74.21875 
Q 43.265625 74.21875 49.921875 64.515625 
Q 56.59375 54.828125 56.59375 36.375 
Q 56.59375 19.140625 48.40625 8.859375 
Q 40.234375 -1.421875 26.421875 -1.421875 
Q 22.703125 -1.421875 18.890625 -0.6875 
Q 15.09375 0.046875 10.984375 1.515625 
z
M 30.609375 32.421875 
Q 37.25 32.421875 41.125 36.953125 
Q 45.015625 41.5 45.015625 49.421875 
Q 45.015625 57.28125 41.125 61.84375 
Q 37.25 66.40625 30.609375 66.40625 
Q 23.96875 66.40625 20.09375 61.84375 
Q 16.21875 57.28125 16.21875 49.421875 
Q 16.21875 41.5 20.09375 36.953125 
Q 23.96875 32.421875 30.609375 32.421875 
z
" id="DejaVuSans-57"/>
        <path d="M 33.015625 40.375 
Q 26.375 40.375 22.484375 35.828125 
Q 18.609375 31.296875 18.609375 23.390625 
Q 18.609375 15.53125 22.484375 10.953125 
Q 26.375 6.390625 33.015625 6.390625 
Q 39.65625 6.390625 43.53125 10.953125 
Q 47.40625 15.53125 47.40625 23.390625 
Q 47.40625 31.296875 43.53125 35.828125 
Q 39.65625 40.375 33.015625 40.375 
z
M 52.59375 71.296875 
L 52.59375 62.3125 
Q 48.875 64.0625 45.09375 64.984375 
Q 41.3125 65.921875 37.59375 65.921875 
Q 27.828125 65.921875 22.671875 59.328125 
Q 17.53125 52.734375 16.796875 39.40625 
Q 19.671875 43.65625 24.015625 45.921875 
Q 28.375 48.1875 33.59375 48.1875 
Q 44.578125 48.1875 50.953125 41.515625 
Q 57.328125 34.859375 57.328125 23.390625 
Q 57.328125 12.15625 50.6875 5.359375 
Q 44.046875 -1.421875 33.015625 -1.421875 
Q 20.359375 -1.421875 13.671875 8.265625 
Q 6.984375 17.96875 6.984375 36.375 
Q 6.984375 53.65625 15.1875 63.9375 
Q 23.390625 74.21875 37.203125 74.21875 
Q 40.921875 74.21875 44.703125 73.484375 
Q 48.484375 72.75 52.59375 71.296875 
z
" id="DejaVuSans-54"/>
        <path d="M 31.78125 66.40625 
Q 24.171875 66.40625 20.328125 58.90625 
Q 16.5 51.421875 16.5 36.375 
Q 16.5 21.390625 20.328125 13.890625 
Q 24.171875 6.390625 31.78125 6.390625 
Q 39.453125 6.390625 43.28125 13.890625 
Q 47.125 21.390625 47.125 36.375 
Q 47.125 51.421875 43.28125 58.90625 
Q 39.453125 66.40625 31.78125 66.40625 
z
M 31.78125 74.21875 
Q 44.046875 74.21875 50.515625 64.515625 
Q 56.984375 54.828125 56.984375 36.375 
Q 56.984375 17.96875 50.515625 8.265625 
Q 44.046875 -1.421875 31.78125 -1.421875 
Q 19.53125 -1.421875 13.0625 8.265625 
Q 6.59375 17.96875 6.59375 36.375 
Q 6.59375 54.828125 13.0625 64.515625 
Q 19.53125 74.21875 31.78125 74.21875 
z
" id="DejaVuSans-48"/>
       </defs>
       <use xlink:href="#DejaVuSans-49"/>
       <use x="63.623047" xlink:href="#DejaVuSans-57"/>
       <use x="127.246094" xlink:href="#DejaVuSans-54"/>
       <use x="190.869141" xlink:href="#DejaVuSans-48"/>
      </g>
     </g>
    </g>
    <g id="xtick_2">
     <g id="line2d_2">
      <path clip-path="url(#p61c7a15993)" d="M 114.661607 318.2 
L 114.661607 10.8 
" style="fill:none;stroke:#cccccc;stroke-linecap:round;stroke-width:0.8;"/>
     </g>
     <g id="text_2">
      <!-- 1970 -->
      <g style="fill:#262626;" transform="translate(101.936607 332.798438)scale(0.1 -0.1)">
       <defs>
        <path d="M 8.203125 72.90625 
L 55.078125 72.90625 
L 55.078125 68.703125 
L 28.609375 0 
L 18.3125 0 
L 43.21875 64.59375 
L 8.203125 64.59375 
z
" id="DejaVuSans-55"/>
       </defs>
       <use xlink:href="#DejaVuSans-49"/>
       <use x="63.623047" xlink:href="#DejaVuSans-57"/>
       <use x="127.246094" xlink:href="#DejaVuSans-55"/>
       <use x="190.869141" xlink:href="#DejaVuSans-48"/>
      </g>
     </g>
    </g>
    <g id="xtick_3">
     <g id="line2d_3">
      <path clip-path="url(#p61c7a15993)" d="M 165.648214 318.2 
L 165.648214 10.8 
" style="fill:none;stroke:#cccccc;stroke-linecap:round;stroke-width:0.8;"/>
     </g>
     <g id="text_3">
      <!-- 1980 -->
      <g style="fill:#262626;" transform="translate(152.923214 332.798438)scale(0.1 -0.1)">
       <defs>
        <path d="M 31.78125 34.625 
Q 24.75 34.625 20.71875 30.859375 
Q 16.703125 27.09375 16.703125 20.515625 
Q 16.703125 13.921875 20.71875 10.15625 
Q 24.75 6.390625 31.78125 6.390625 
Q 38.8125 6.390625 42.859375 10.171875 
Q 46.921875 13.96875 46.921875 20.515625 
Q 46.921875 27.09375 42.890625 30.859375 
Q 38.875 34.625 31.78125 34.625 
z
M 21.921875 38.8125 
Q 15.578125 40.375 12.03125 44.71875 
Q 8.5 49.078125 8.5 55.328125 
Q 8.5 64.0625 14.71875 69.140625 
Q 20.953125 74.21875 31.78125 74.21875 
Q 42.671875 74.21875 48.875 69.140625 
Q 55.078125 64.0625 55.078125 55.328125 
Q 55.078125 49.078125 51.53125 44.71875 
Q 48 40.375 41.703125 38.8125 
Q 48.828125 37.15625 52.796875 32.3125 
Q 56.78125 27.484375 56.78125 20.515625 
Q 56.78125 9.90625 50.3125 4.234375 
Q 43.84375 -1.421875 31.78125 -1.421875 
Q 19.734375 -1.421875 13.25 4.234375 
Q 6.78125 9.90625 6.78125 20.515625 
Q 6.78125 27.484375 10.78125 32.3125 
Q 14.796875 37.15625 21.921875 38.8125 
z
M 18.3125 54.390625 
Q 18.3125 48.734375 21.84375 45.5625 
Q 25.390625 42.390625 31.78125 42.390625 
Q 38.140625 42.390625 41.71875 45.5625 
Q 45.3125 48.734375 45.3125 54.390625 
Q 45.3125 60.0625 41.71875 63.234375 
Q 38.140625 66.40625 31.78125 66.40625 
Q 25.390625 66.40625 21.84375 63.234375 
Q 18.3125 60.0625 18.3125 54.390625 
z
" id="DejaVuSans-56"/>
       </defs>
       <use xlink:href="#DejaVuSans-49"/>
       <use x="63.623047" xlink:href="#DejaVuSans-57"/>
       <use x="127.246094" xlink:href="#DejaVuSans-56"/>
       <use x="190.869141" xlink:href="#DejaVuSans-48"/>
      </g>
     </g>
    </g>
    <g id="xtick_4">
     <g id="line2d_4">
      <path clip-path="url(#p61c7a15993)" d="M 216.634821 318.2 
L 216.634821 10.8 
" style="fill:none;stroke:#cccccc;stroke-linecap:round;stroke-width:0.8;"/>
     </g>
     <g id="text_4">
      <!-- 1990 -->
      <g style="fill:#262626;" transform="translate(203.909821 332.798438)scale(0.1 -0.1)">
       <use xlink:href="#DejaVuSans-49"/>
       <use x="63.623047" xlink:href="#DejaVuSans-57"/>
       <use x="127.246094" xlink:href="#DejaVuSans-57"/>
       <use x="190.869141" xlink:href="#DejaVuSans-48"/>
      </g>
     </g>
    </g>
    <g id="xtick_5">
     <g id="line2d_5">
      <path clip-path="url(#p61c7a15993)" d="M 267.621429 318.2 
L 267.621429 10.8 
" style="fill:none;stroke:#cccccc;stroke-linecap:round;stroke-width:0.8;"/>
     </g>
     <g id="text_5">
      <!-- 2000 -->
      <g style="fill:#262626;" transform="translate(254.896429 332.798438)scale(0.1 -0.1)">
       <defs>
        <path d="M 19.1875 8.296875 
L 53.609375 8.296875 
L 53.609375 0 
L 7.328125 0 
L 7.328125 8.296875 
Q 12.9375 14.109375 22.625 23.890625 
Q 32.328125 33.6875 34.8125 36.53125 
Q 39.546875 41.84375 41.421875 45.53125 
Q 43.3125 49.21875 43.3125 52.78125 
Q 43.3125 58.59375 39.234375 62.25 
Q 35.15625 65.921875 28.609375 65.921875 
Q 23.96875 65.921875 18.8125 64.3125 
Q 13.671875 62.703125 7.8125 59.421875 
L 7.8125 69.390625 
Q 13.765625 71.78125 18.9375 73 
Q 24.125 74.21875 28.421875 74.21875 
Q 39.75 74.21875 46.484375 68.546875 
Q 53.21875 62.890625 53.21875 53.421875 
Q 53.21875 48.921875 51.53125 44.890625 
Q 49.859375 40.875 45.40625 35.40625 
Q 44.1875 33.984375 37.640625 27.21875 
Q 31.109375 20.453125 19.1875 8.296875 
z
" id="DejaVuSans-50"/>
       </defs>
       <use xlink:href="#DejaVuSans-50"/>
       <use x="63.623047" xlink:href="#DejaVuSans-48"/>
       <use x="127.246094" xlink:href="#DejaVuSans-48"/>
       <use x="190.869141" xlink:href="#DejaVuSans-48"/>
      </g>
     </g>
    </g>
    <g id="xtick_6">
     <g id="line2d_6">
      <path clip-path="url(#p61c7a15993)" d="M 318.608036 318.2 
L 318.608036 10.8 
" style="fill:none;stroke:#cccccc;stroke-linecap:round;stroke-width:0.8;"/>
     </g>
     <g id="text_6">
      <!-- 2010 -->
      <g style="fill:#262626;" transform="translate(305.883036 332.798438)scale(0.1 -0.1)">
       <use xlink:href="#DejaVuSans-50"/>
       <use x="63.623047" xlink:href="#DejaVuSans-48"/>
       <use x="127.246094" xlink:href="#DejaVuSans-49"/>
       <use x="190.869141" xlink:href="#DejaVuSans-48"/>
      </g>
     </g>
    </g>
    <g id="text_7">
     <!-- Time -->
     <g style="fill:#262626;" transform="translate(194.203906 346.476562)scale(0.1 -0.1)">
      <defs>
       <path d="M -0.296875 72.90625 
L 61.375 72.90625 
L 61.375 64.59375 
L 35.5 64.59375 
L 35.5 0 
L 25.59375 0 
L 25.59375 64.59375 
L -0.296875 64.59375 
z
" id="DejaVuSans-84"/>
       <path d="M 9.421875 54.6875 
L 18.40625 54.6875 
L 18.40625 0 
L 9.421875 0 
z
M 9.421875 75.984375 
L 18.40625 75.984375 
L 18.40625 64.59375 
L 9.421875 64.59375 
z
" id="DejaVuSans-105"/>
       <path d="M 52 44.1875 
Q 55.375 50.25 60.0625 53.125 
Q 64.75 56 71.09375 56 
Q 79.640625 56 84.28125 50.015625 
Q 88.921875 44.046875 88.921875 33.015625 
L 88.921875 0 
L 79.890625 0 
L 79.890625 32.71875 
Q 79.890625 40.578125 77.09375 44.375 
Q 74.3125 48.1875 68.609375 48.1875 
Q 61.625 48.1875 57.5625 43.546875 
Q 53.515625 38.921875 53.515625 30.90625 
L 53.515625 0 
L 44.484375 0 
L 44.484375 32.71875 
Q 44.484375 40.625 41.703125 44.40625 
Q 38.921875 48.1875 33.109375 48.1875 
Q 26.21875 48.1875 22.15625 43.53125 
Q 18.109375 38.875 18.109375 30.90625 
L 18.109375 0 
L 9.078125 0 
L 9.078125 54.6875 
L 18.109375 54.6875 
L 18.109375 46.1875 
Q 21.1875 51.21875 25.484375 53.609375 
Q 29.78125 56 35.6875 56 
Q 41.65625 56 45.828125 52.96875 
Q 50 49.953125 52 44.1875 
z
" id="DejaVuSans-109"/>
       <path d="M 56.203125 29.59375 
L 56.203125 25.203125 
L 14.890625 25.203125 
Q 15.484375 15.921875 20.484375 11.0625 
Q 25.484375 6.203125 34.421875 6.203125 
Q 39.59375 6.203125 44.453125 7.46875 
Q 49.3125 8.734375 54.109375 11.28125 
L 54.109375 2.78125 
Q 49.265625 0.734375 44.1875 -0.34375 
Q 39.109375 -1.421875 33.890625 -1.421875 
Q 20.796875 -1.421875 13.15625 6.1875 
Q 5.515625 13.8125 5.515625 26.8125 
Q 5.515625 40.234375 12.765625 48.109375 
Q 20.015625 56 32.328125 56 
Q 43.359375 56 49.78125 48.890625 
Q 56.203125 41.796875 56.203125 29.59375 
z
M 47.21875 32.234375 
Q 47.125 39.59375 43.09375 43.984375 
Q 39.0625 48.390625 32.421875 48.390625 
Q 24.90625 48.390625 20.390625 44.140625 
Q 15.875 39.890625 15.1875 32.171875 
z
" id="DejaVuSans-101"/>
      </defs>
      <use xlink:href="#DejaVuSans-84"/>
      <use x="57.958984" xlink:href="#DejaVuSans-105"/>
      <use x="85.742188" xlink:href="#DejaVuSans-109"/>
      <use x="183.154297" xlink:href="#DejaVuSans-101"/>
     </g>
    </g>
   </g>
   <g id="matplotlib.axis_2">
    <g id="ytick_1">
     <g id="line2d_7">
      <path clip-path="url(#p61c7a15993)" d="M 63.675 284.00524 
L 349.2 284.00524 
" style="fill:none;stroke:#cccccc;stroke-linecap:round;stroke-width:0.8;"/>
     </g>
     <g id="text_8">
      <!-- 0 -->
      <g style="fill:#262626;" transform="translate(50.3125 287.804459)scale(0.1 -0.1)">
       <use xlink:href="#DejaVuSans-48"/>
      </g>
     </g>
    </g>
    <g id="ytick_2">
     <g id="line2d_8">
      <path clip-path="url(#p61c7a15993)" d="M 63.675 242.046512 
L 349.2 242.046512 
" style="fill:none;stroke:#cccccc;stroke-linecap:round;stroke-width:0.8;"/>
     </g>
     <g id="text_9">
      <!-- 2000 -->
      <g style="fill:#262626;" transform="translate(31.225 245.84573)scale(0.1 -0.1)">
       <use xlink:href="#DejaVuSans-50"/>
       <use x="63.623047" xlink:href="#DejaVuSans-48"/>
       <use x="127.246094" xlink:href="#DejaVuSans-48"/>
       <use x="190.869141" xlink:href="#DejaVuSans-48"/>
      </g>
     </g>
    </g>
    <g id="ytick_3">
     <g id="line2d_9">
      <path clip-path="url(#p61c7a15993)" d="M 63.675 200.087783 
L 349.2 200.087783 
" style="fill:none;stroke:#cccccc;stroke-linecap:round;stroke-width:0.8;"/>
     </g>
     <g id="text_10">
      <!-- 4000 -->
      <g style="fill:#262626;" transform="translate(31.225 203.887002)scale(0.1 -0.1)">
       <defs>
        <path d="M 37.796875 64.3125 
L 12.890625 25.390625 
L 37.796875 25.390625 
z
M 35.203125 72.90625 
L 47.609375 72.90625 
L 47.609375 25.390625 
L 58.015625 25.390625 
L 58.015625 17.1875 
L 47.609375 17.1875 
L 47.609375 0 
L 37.796875 0 
L 37.796875 17.1875 
L 4.890625 17.1875 
L 4.890625 26.703125 
z
" id="DejaVuSans-52"/>
       </defs>
       <use xlink:href="#DejaVuSans-52"/>
       <use x="63.623047" xlink:href="#DejaVuSans-48"/>
       <use x="127.246094" xlink:href="#DejaVuSans-48"/>
       <use x="190.869141" xlink:href="#DejaVuSans-48"/>
      </g>
     </g>
    </g>
    <g id="ytick_4">
     <g id="line2d_10">
      <path clip-path="url(#p61c7a15993)" d="M 63.675 158.129055 
L 349.2 158.129055 
" style="fill:none;stroke:#cccccc;stroke-linecap:round;stroke-width:0.8;"/>
     </g>
     <g id="text_11">
      <!-- 6000 -->
      <g style="fill:#262626;" transform="translate(31.225 161.928274)scale(0.1 -0.1)">
       <use xlink:href="#DejaVuSans-54"/>
       <use x="63.623047" xlink:href="#DejaVuSans-48"/>
       <use x="127.246094" xlink:href="#DejaVuSans-48"/>
       <use x="190.869141" xlink:href="#DejaVuSans-48"/>
      </g>
     </g>
    </g>
    <g id="ytick_5">
     <g id="line2d_11">
      <path clip-path="url(#p61c7a15993)" d="M 63.675 116.170327 
L 349.2 116.170327 
" style="fill:none;stroke:#cccccc;stroke-linecap:round;stroke-width:0.8;"/>
     </g>
     <g id="text_12">
      <!-- 8000 -->
      <g style="fill:#262626;" transform="translate(31.225 119.969545)scale(0.1 -0.1)">
       <use xlink:href="#DejaVuSans-56"/>
       <use x="63.623047" xlink:href="#DejaVuSans-48"/>
       <use x="127.246094" xlink:href="#DejaVuSans-48"/>
       <use x="190.869141" xlink:href="#DejaVuSans-48"/>
      </g>
     </g>
    </g>
    <g id="ytick_6">
     <g id="line2d_12">
      <path clip-path="url(#p61c7a15993)" d="M 63.675 74.211598 
L 349.2 74.211598 
" style="fill:none;stroke:#cccccc;stroke-linecap:round;stroke-width:0.8;"/>
     </g>
     <g id="text_13">
      <!-- 10000 -->
      <g style="fill:#262626;" transform="translate(24.8625 78.010817)scale(0.1 -0.1)">
       <use xlink:href="#DejaVuSans-49"/>
       <use x="63.623047" xlink:href="#DejaVuSans-48"/>
       <use x="127.246094" xlink:href="#DejaVuSans-48"/>
       <use x="190.869141" xlink:href="#DejaVuSans-48"/>
       <use x="254.492188" xlink:href="#DejaVuSans-48"/>
      </g>
     </g>
    </g>
    <g id="ytick_7">
     <g id="line2d_13">
      <path clip-path="url(#p61c7a15993)" d="M 63.675 32.25287 
L 349.2 32.25287 
" style="fill:none;stroke:#cccccc;stroke-linecap:round;stroke-width:0.8;"/>
     </g>
     <g id="text_14">
      <!-- 12000 -->
      <g style="fill:#262626;" transform="translate(24.8625 36.052089)scale(0.1 -0.1)">
       <use xlink:href="#DejaVuSans-49"/>
       <use x="63.623047" xlink:href="#DejaVuSans-50"/>
       <use x="127.246094" xlink:href="#DejaVuSans-48"/>
       <use x="190.869141" xlink:href="#DejaVuSans-48"/>
       <use x="254.492188" xlink:href="#DejaVuSans-48"/>
      </g>
     </g>
    </g>
    <g id="text_15">
     <!-- Co2 per capita (kg) -->
     <g style="fill:#262626;" transform="translate(18.782812 212.677344)rotate(-90)scale(0.1 -0.1)">
      <defs>
       <path d="M 64.40625 67.28125 
L 64.40625 56.890625 
Q 59.421875 61.53125 53.78125 63.8125 
Q 48.140625 66.109375 41.796875 66.109375 
Q 29.296875 66.109375 22.65625 58.46875 
Q 16.015625 50.828125 16.015625 36.375 
Q 16.015625 21.96875 22.65625 14.328125 
Q 29.296875 6.6875 41.796875 6.6875 
Q 48.140625 6.6875 53.78125 8.984375 
Q 59.421875 11.28125 64.40625 15.921875 
L 64.40625 5.609375 
Q 59.234375 2.09375 53.4375 0.328125 
Q 47.65625 -1.421875 41.21875 -1.421875 
Q 24.65625 -1.421875 15.125 8.703125 
Q 5.609375 18.84375 5.609375 36.375 
Q 5.609375 53.953125 15.125 64.078125 
Q 24.65625 74.21875 41.21875 74.21875 
Q 47.75 74.21875 53.53125 72.484375 
Q 59.328125 70.75 64.40625 67.28125 
z
" id="DejaVuSans-67"/>
       <path d="M 30.609375 48.390625 
Q 23.390625 48.390625 19.1875 42.75 
Q 14.984375 37.109375 14.984375 27.296875 
Q 14.984375 17.484375 19.15625 11.84375 
Q 23.34375 6.203125 30.609375 6.203125 
Q 37.796875 6.203125 41.984375 11.859375 
Q 46.1875 17.53125 46.1875 27.296875 
Q 46.1875 37.015625 41.984375 42.703125 
Q 37.796875 48.390625 30.609375 48.390625 
z
M 30.609375 56 
Q 42.328125 56 49.015625 48.375 
Q 55.71875 40.765625 55.71875 27.296875 
Q 55.71875 13.875 49.015625 6.21875 
Q 42.328125 -1.421875 30.609375 -1.421875 
Q 18.84375 -1.421875 12.171875 6.21875 
Q 5.515625 13.875 5.515625 27.296875 
Q 5.515625 40.765625 12.171875 48.375 
Q 18.84375 56 30.609375 56 
z
" id="DejaVuSans-111"/>
       <path id="DejaVuSans-32"/>
       <path d="M 18.109375 8.203125 
L 18.109375 -20.796875 
L 9.078125 -20.796875 
L 9.078125 54.6875 
L 18.109375 54.6875 
L 18.109375 46.390625 
Q 20.953125 51.265625 25.265625 53.625 
Q 29.59375 56 35.59375 56 
Q 45.5625 56 51.78125 48.09375 
Q 58.015625 40.1875 58.015625 27.296875 
Q 58.015625 14.40625 51.78125 6.484375 
Q 45.5625 -1.421875 35.59375 -1.421875 
Q 29.59375 -1.421875 25.265625 0.953125 
Q 20.953125 3.328125 18.109375 8.203125 
z
M 48.6875 27.296875 
Q 48.6875 37.203125 44.609375 42.84375 
Q 40.53125 48.484375 33.40625 48.484375 
Q 26.265625 48.484375 22.1875 42.84375 
Q 18.109375 37.203125 18.109375 27.296875 
Q 18.109375 17.390625 22.1875 11.75 
Q 26.265625 6.109375 33.40625 6.109375 
Q 40.53125 6.109375 44.609375 11.75 
Q 48.6875 17.390625 48.6875 27.296875 
z
" id="DejaVuSans-112"/>
       <path d="M 41.109375 46.296875 
Q 39.59375 47.171875 37.8125 47.578125 
Q 36.03125 48 33.890625 48 
Q 26.265625 48 22.1875 43.046875 
Q 18.109375 38.09375 18.109375 28.8125 
L 18.109375 0 
L 9.078125 0 
L 9.078125 54.6875 
L 18.109375 54.6875 
L 18.109375 46.1875 
Q 20.953125 51.171875 25.484375 53.578125 
Q 30.03125 56 36.53125 56 
Q 37.453125 56 38.578125 55.875 
Q 39.703125 55.765625 41.0625 55.515625 
z
" id="DejaVuSans-114"/>
       <path d="M 48.78125 52.59375 
L 48.78125 44.1875 
Q 44.96875 46.296875 41.140625 47.34375 
Q 37.3125 48.390625 33.40625 48.390625 
Q 24.65625 48.390625 19.8125 42.84375 
Q 14.984375 37.3125 14.984375 27.296875 
Q 14.984375 17.28125 19.8125 11.734375 
Q 24.65625 6.203125 33.40625 6.203125 
Q 37.3125 6.203125 41.140625 7.25 
Q 44.96875 8.296875 48.78125 10.40625 
L 48.78125 2.09375 
Q 45.015625 0.34375 40.984375 -0.53125 
Q 36.96875 -1.421875 32.421875 -1.421875 
Q 20.0625 -1.421875 12.78125 6.34375 
Q 5.515625 14.109375 5.515625 27.296875 
Q 5.515625 40.671875 12.859375 48.328125 
Q 20.21875 56 33.015625 56 
Q 37.15625 56 41.109375 55.140625 
Q 45.0625 54.296875 48.78125 52.59375 
z
" id="DejaVuSans-99"/>
       <path d="M 34.28125 27.484375 
Q 23.390625 27.484375 19.1875 25 
Q 14.984375 22.515625 14.984375 16.5 
Q 14.984375 11.71875 18.140625 8.90625 
Q 21.296875 6.109375 26.703125 6.109375 
Q 34.1875 6.109375 38.703125 11.40625 
Q 43.21875 16.703125 43.21875 25.484375 
L 43.21875 27.484375 
z
M 52.203125 31.203125 
L 52.203125 0 
L 43.21875 0 
L 43.21875 8.296875 
Q 40.140625 3.328125 35.546875 0.953125 
Q 30.953125 -1.421875 24.3125 -1.421875 
Q 15.921875 -1.421875 10.953125 3.296875 
Q 6 8.015625 6 15.921875 
Q 6 25.140625 12.171875 29.828125 
Q 18.359375 34.515625 30.609375 34.515625 
L 43.21875 34.515625 
L 43.21875 35.40625 
Q 43.21875 41.609375 39.140625 45 
Q 35.0625 48.390625 27.6875 48.390625 
Q 23 48.390625 18.546875 47.265625 
Q 14.109375 46.140625 10.015625 43.890625 
L 10.015625 52.203125 
Q 14.9375 54.109375 19.578125 55.046875 
Q 24.21875 56 28.609375 56 
Q 40.484375 56 46.34375 49.84375 
Q 52.203125 43.703125 52.203125 31.203125 
z
" id="DejaVuSans-97"/>
       <path d="M 18.3125 70.21875 
L 18.3125 54.6875 
L 36.8125 54.6875 
L 36.8125 47.703125 
L 18.3125 47.703125 
L 18.3125 18.015625 
Q 18.3125 11.328125 20.140625 9.421875 
Q 21.96875 7.515625 27.59375 7.515625 
L 36.8125 7.515625 
L 36.8125 0 
L 27.59375 0 
Q 17.1875 0 13.234375 3.875 
Q 9.28125 7.765625 9.28125 18.015625 
L 9.28125 47.703125 
L 2.6875 47.703125 
L 2.6875 54.6875 
L 9.28125 54.6875 
L 9.28125 70.21875 
z
" id="DejaVuSans-116"/>
       <path d="M 31 75.875 
Q 24.46875 64.65625 21.28125 53.65625 
Q 18.109375 42.671875 18.109375 31.390625 
Q 18.109375 20.125 21.3125 9.0625 
Q 24.515625 -2 31 -13.1875 
L 23.1875 -13.1875 
Q 15.875 -1.703125 12.234375 9.375 
Q 8.59375 20.453125 8.59375 31.390625 
Q 8.59375 42.28125 12.203125 53.3125 
Q 15.828125 64.359375 23.1875 75.875 
z
" id="DejaVuSans-40"/>
       <path d="M 9.078125 75.984375 
L 18.109375 75.984375 
L 18.109375 31.109375 
L 44.921875 54.6875 
L 56.390625 54.6875 
L 27.390625 29.109375 
L 57.625 0 
L 45.90625 0 
L 18.109375 26.703125 
L 18.109375 0 
L 9.078125 0 
z
" id="DejaVuSans-107"/>
       <path d="M 45.40625 27.984375 
Q 45.40625 37.75 41.375 43.109375 
Q 37.359375 48.484375 30.078125 48.484375 
Q 22.859375 48.484375 18.828125 43.109375 
Q 14.796875 37.75 14.796875 27.984375 
Q 14.796875 18.265625 18.828125 12.890625 
Q 22.859375 7.515625 30.078125 7.515625 
Q 37.359375 7.515625 41.375 12.890625 
Q 45.40625 18.265625 45.40625 27.984375 
z
M 54.390625 6.78125 
Q 54.390625 -7.171875 48.1875 -13.984375 
Q 42 -20.796875 29.203125 -20.796875 
Q 24.46875 -20.796875 20.265625 -20.09375 
Q 16.0625 -19.390625 12.109375 -17.921875 
L 12.109375 -9.1875 
Q 16.0625 -11.328125 19.921875 -12.34375 
Q 23.78125 -13.375 27.78125 -13.375 
Q 36.625 -13.375 41.015625 -8.765625 
Q 45.40625 -4.15625 45.40625 5.171875 
L 45.40625 9.625 
Q 42.625 4.78125 38.28125 2.390625 
Q 33.9375 0 27.875 0 
Q 17.828125 0 11.671875 7.65625 
Q 5.515625 15.328125 5.515625 27.984375 
Q 5.515625 40.671875 11.671875 48.328125 
Q 17.828125 56 27.875 56 
Q 33.9375 56 38.28125 53.609375 
Q 42.625 51.21875 45.40625 46.390625 
L 45.40625 54.6875 
L 54.390625 54.6875 
z
" id="DejaVuSans-103"/>
       <path d="M 8.015625 75.875 
L 15.828125 75.875 
Q 23.140625 64.359375 26.78125 53.3125 
Q 30.421875 42.28125 30.421875 31.390625 
Q 30.421875 20.453125 26.78125 9.375 
Q 23.140625 -1.703125 15.828125 -13.1875 
L 8.015625 -13.1875 
Q 14.5 -2 17.703125 9.0625 
Q 20.90625 20.125 20.90625 31.390625 
Q 20.90625 42.671875 17.703125 53.65625 
Q 14.5 64.65625 8.015625 75.875 
z
" id="DejaVuSans-41"/>
      </defs>
      <use xlink:href="#DejaVuSans-67"/>
      <use x="69.824219" xlink:href="#DejaVuSans-111"/>
      <use x="131.005859" xlink:href="#DejaVuSans-50"/>
      <use x="194.628906" xlink:href="#DejaVuSans-32"/>
      <use x="226.416016" xlink:href="#DejaVuSans-112"/>
      <use x="289.892578" xlink:href="#DejaVuSans-101"/>
      <use x="351.416016" xlink:href="#DejaVuSans-114"/>
      <use x="392.529297" xlink:href="#DejaVuSans-32"/>
      <use x="424.316406" xlink:href="#DejaVuSans-99"/>
      <use x="479.296875" xlink:href="#DejaVuSans-97"/>
      <use x="540.576172" xlink:href="#DejaVuSans-112"/>
      <use x="604.052734" xlink:href="#DejaVuSans-105"/>
      <use x="631.835938" xlink:href="#DejaVuSans-116"/>
      <use x="671.044922" xlink:href="#DejaVuSans-97"/>
      <use x="732.324219" xlink:href="#DejaVuSans-32"/>
      <use x="764.111328" xlink:href="#DejaVuSans-40"/>
      <use x="803.125" xlink:href="#DejaVuSans-107"/>
      <use x="861.035156" xlink:href="#DejaVuSans-103"/>
      <use x="924.511719" xlink:href="#DejaVuSans-41"/>
     </g>
    </g>
   </g>
   <g id="PathCollection_1">
    <defs>
     <path d="M 0 1.767767 
C 0.468817 1.767767 0.918496 1.581504 1.25 1.25 
C 1.581504 0.918496 1.767767 0.468817 1.767767 0 
C 1.767767 -0.468817 1.581504 -0.918496 1.25 -1.25 
C 0.918496 -1.581504 0.468817 -1.767767 0 -1.767767 
C -0.468817 -1.767767 -0.918496 -1.581504 -1.25 -1.25 
C -1.581504 -0.918496 -1.767767 -0.468817 -1.767767 0 
C -1.767767 0.468817 -1.581504 0.918496 -1.25 1.25 
C -0.918496 1.581504 -0.468817 1.767767 0 1.767767 
z
" id="m9278812a22" style="stroke:#1f77b4;"/>
    </defs>
    <g clip-path="url(#p61c7a15993)">
     <use style="fill:#1f77b4;stroke:#1f77b4;" x="74.656731" xlink:href="#m9278812a22" y="266.656049"/>
     <use style="fill:#1f77b4;stroke:#1f77b4;" x="85.638462" xlink:href="#m9278812a22" y="270.461274"/>
     <use style="fill:#1f77b4;stroke:#1f77b4;" x="96.620192" xlink:href="#m9278812a22" y="270.525437"/>
     <use style="fill:#1f77b4;stroke:#1f77b4;" x="107.601923" xlink:href="#m9278812a22" y="270.047653"/>
     <use style="fill:#1f77b4;stroke:#1f77b4;" x="118.583654" xlink:href="#m9278812a22" y="263.181393"/>
     <use style="fill:#1f77b4;stroke:#1f77b4;" x="129.565385" xlink:href="#m9278812a22" y="261.0941"/>
     <use style="fill:#1f77b4;stroke:#1f77b4;" x="140.547115" xlink:href="#m9278812a22" y="257.409624"/>
     <use style="fill:#1f77b4;stroke:#1f77b4;" x="151.528846" xlink:href="#m9278812a22" y="253.395886"/>
     <use style="fill:#1f77b4;stroke:#1f77b4;" x="162.510577" xlink:href="#m9278812a22" y="252.138364"/>
     <use style="fill:#1f77b4;stroke:#1f77b4;" x="173.492308" xlink:href="#m9278812a22" y="252.251173"/>
     <use style="fill:#1f77b4;stroke:#1f77b4;" x="184.474038" xlink:href="#m9278812a22" y="248.555318"/>
     <use style="fill:#1f77b4;stroke:#1f77b4;" x="195.455769" xlink:href="#m9278812a22" y="244.034421"/>
     <use style="fill:#1f77b4;stroke:#1f77b4;" x="206.4375" xlink:href="#m9278812a22" y="239.65211"/>
     <use style="fill:#1f77b4;stroke:#1f77b4;" x="217.419231" xlink:href="#m9278812a22" y="238.053481"/>
     <use style="fill:#1f77b4;stroke:#1f77b4;" x="228.400962" xlink:href="#m9278812a22" y="234.190828"/>
     <use style="fill:#1f77b4;stroke:#1f77b4;" x="239.382692" xlink:href="#m9278812a22" y="228.181786"/>
     <use style="fill:#1f77b4;stroke:#1f77b4;" x="250.364423" xlink:href="#m9278812a22" y="224.582476"/>
     <use style="fill:#1f77b4;stroke:#1f77b4;" x="261.346154" xlink:href="#m9278812a22" y="228.143537"/>
     <use style="fill:#1f77b4;stroke:#1f77b4;" x="272.327885" xlink:href="#m9278812a22" y="224.940872"/>
     <use style="fill:#1f77b4;stroke:#1f77b4;" x="283.309615" xlink:href="#m9278812a22" y="204.681585"/>
     <use style="fill:#1f77b4;stroke:#1f77b4;" x="294.291346" xlink:href="#m9278812a22" y="184.316627"/>
     <use style="fill:#1f77b4;stroke:#1f77b4;" x="305.273077" xlink:href="#m9278812a22" y="170.884103"/>
     <use style="fill:#1f77b4;stroke:#1f77b4;" x="316.254808" xlink:href="#m9278812a22" y="155.63576"/>
     <use style="fill:#1f77b4;stroke:#1f77b4;" x="327.236538" xlink:href="#m9278812a22" y="130.160769"/>
     <use style="fill:#1f77b4;stroke:#1f77b4;" x="338.218269" xlink:href="#m9278812a22" y="128.362205"/>
    </g>
   </g>
   <g id="PolyCollection_1">
    <defs>
     <path d="M 63.675 -74.657985 
L 63.675 -55.772727 
L 66.559091 -57.291363 
L 69.443182 -58.809999 
L 72.327273 -60.363594 
L 75.211364 -61.928038 
L 78.095455 -63.492481 
L 80.979545 -65.056924 
L 83.863636 -66.621368 
L 86.747727 -68.185811 
L 89.631818 -69.719694 
L 92.515909 -71.189004 
L 95.4 -72.783646 
L 98.284091 -74.29259 
L 101.168182 -75.804811 
L 104.052273 -77.317033 
L 106.936364 -78.913221 
L 109.820455 -80.511645 
L 112.704545 -82.093982 
L 115.588636 -83.565552 
L 118.472727 -85.037121 
L 121.356818 -86.518196 
L 124.240909 -87.982023 
L 127.125 -89.454178 
L 130.009091 -90.925965 
L 132.893182 -92.383117 
L 135.777273 -93.870007 
L 138.661364 -95.341804 
L 141.545455 -96.845556 
L 144.429545 -98.378096 
L 147.313636 -99.911846 
L 150.197727 -101.356529 
L 153.081818 -102.881818 
L 155.965909 -104.357859 
L 158.85 -105.849081 
L 161.734091 -107.367323 
L 164.618182 -108.759759 
L 167.502273 -110.180523 
L 170.386364 -111.600681 
L 173.270455 -113.01754 
L 176.154545 -114.340729 
L 179.038636 -115.76775 
L 181.922727 -117.104129 
L 184.806818 -118.447608 
L 187.690909 -119.837485 
L 190.575 -121.269449 
L 193.459091 -122.491597 
L 196.343182 -123.879964 
L 199.227273 -125.167388 
L 202.111364 -126.485912 
L 204.995455 -127.836599 
L 207.879545 -129.046847 
L 210.763636 -130.293513 
L 213.647727 -131.510569 
L 216.531818 -132.656063 
L 219.415909 -133.893545 
L 222.3 -135.090698 
L 225.184091 -136.309398 
L 228.068182 -137.470783 
L 230.952273 -138.624055 
L 233.836364 -139.76804 
L 236.720455 -141.045684 
L 239.604545 -142.227802 
L 242.488636 -143.377051 
L 245.372727 -144.563795 
L 248.256818 -145.672749 
L 251.140909 -146.755715 
L 254.025 -147.843464 
L 256.909091 -149.016125 
L 259.793182 -150.140312 
L 262.677273 -151.29446 
L 265.561364 -152.46106 
L 268.445455 -153.62766 
L 271.329545 -154.79426 
L 274.213636 -155.961891 
L 277.097727 -157.213745 
L 279.981818 -158.38914 
L 282.865909 -159.493655 
L 285.75 -160.629359 
L 288.634091 -161.794718 
L 291.518182 -162.960461 
L 294.402273 -164.127061 
L 297.286364 -165.293661 
L 300.170455 -166.460261 
L 303.054545 -167.579845 
L 305.938636 -168.687197 
L 308.822727 -169.795294 
L 311.706818 -170.949515 
L 314.590909 -172.135428 
L 317.475 -173.321741 
L 320.359091 -174.508055 
L 323.243182 -175.694787 
L 326.127273 -176.881743 
L 329.011364 -178.068699 
L 331.895455 -179.255656 
L 334.779545 -180.442612 
L 337.663636 -181.629569 
L 340.547727 -182.772135 
L 343.431818 -183.865916 
L 346.315909 -184.959697 
L 349.2 -186.115738 
L 349.2 -213.805117 
L 349.2 -213.805117 
L 346.315909 -212.326576 
L 343.431818 -210.769994 
L 340.547727 -209.195468 
L 337.663636 -207.636088 
L 334.779545 -206.058578 
L 331.895455 -204.481067 
L 329.011364 -202.90266 
L 326.127273 -201.327674 
L 323.243182 -199.753484 
L 320.359091 -198.179294 
L 317.475 -196.605104 
L 314.590909 -195.030913 
L 311.706818 -193.469948 
L 308.822727 -191.976562 
L 305.938636 -190.483175 
L 303.054545 -188.987538 
L 300.170455 -187.423764 
L 297.286364 -185.859989 
L 294.402273 -184.294137 
L 291.518182 -182.72767 
L 288.634091 -181.161202 
L 285.75 -179.634518 
L 282.865909 -178.038804 
L 279.981818 -176.466065 
L 277.097727 -174.924528 
L 274.213636 -173.351047 
L 271.329545 -171.888136 
L 268.445455 -170.439803 
L 265.561364 -168.99019 
L 262.677273 -167.583775 
L 259.793182 -166.142475 
L 256.909091 -164.577506 
L 254.025 -163.123081 
L 251.140909 -161.633977 
L 248.256818 -160.033047 
L 245.372727 -158.510471 
L 242.488636 -156.987609 
L 239.604545 -155.488073 
L 236.720455 -153.975432 
L 233.836364 -152.479444 
L 230.952273 -150.948724 
L 228.068182 -149.4368 
L 225.184091 -147.950344 
L 222.3 -146.477303 
L 219.415909 -145.025312 
L 216.531818 -143.534796 
L 213.647727 -142.057026 
L 210.763636 -140.578838 
L 207.879545 -139.11083 
L 204.995455 -137.637553 
L 202.111364 -136.183551 
L 199.227273 -134.690867 
L 196.343182 -133.229584 
L 193.459091 -131.782516 
L 190.575 -130.35012 
L 187.690909 -128.926867 
L 184.806818 -127.495908 
L 181.922727 -126.120986 
L 179.038636 -124.675797 
L 176.154545 -123.25569 
L 173.270455 -121.804749 
L 170.386364 -120.381035 
L 167.502273 -119.018733 
L 164.618182 -117.666703 
L 161.734091 -116.320202 
L 158.85 -115.008445 
L 155.965909 -113.739027 
L 153.081818 -112.287773 
L 150.197727 -110.914396 
L 147.313636 -109.639202 
L 144.429545 -108.331591 
L 141.545455 -106.98414 
L 138.661364 -105.616599 
L 135.777273 -104.326406 
L 132.893182 -103.054622 
L 130.009091 -101.645173 
L 127.125 -100.383229 
L 124.240909 -99.134618 
L 121.356818 -98.045999 
L 118.472727 -96.799622 
L 115.588636 -95.526772 
L 112.704545 -94.375058 
L 109.820455 -93.056416 
L 106.936364 -91.845507 
L 104.052273 -90.690027 
L 101.168182 -89.492324 
L 98.284091 -88.233735 
L 95.4 -87.040773 
L 92.515909 -85.858096 
L 89.631818 -84.740567 
L 86.747727 -83.6319 
L 83.863636 -82.480126 
L 80.979545 -81.28495 
L 78.095455 -80.196333 
L 75.211364 -79.144872 
L 72.327273 -78.08179 
L 69.443182 -76.942195 
L 66.559091 -75.885479 
L 63.675 -74.657985 
z
" id="m05336d4741" style="stroke:#ffffff;stroke-opacity:0.15;"/>
    </defs>
    <g clip-path="url(#p61c7a15993)">
     <use style="fill:#1f77b4;fill-opacity:0.15;stroke:#ffffff;stroke-opacity:0.15;" x="0" xlink:href="#m05336d4741" y="360"/>
    </g>
   </g>
   <g id="PathCollection_2">
    <defs>
     <path d="M 0 0 
L 3.535534 0 
M 0 0 
L -1.767767 -2.828427 
M 0 0 
L -1.767767 2.828427 
" id="m78262bba59" style="stroke:#ff7f0e;stroke-width:1.5;"/>
    </defs>
    <g clip-path="url(#p61c7a15993)">
     <use style="fill:#ff7f0e;stroke:#ff7f0e;stroke-width:1.5;" x="74.656731" xlink:href="#m78262bba59" y="277.821657"/>
     <use style="fill:#ff7f0e;stroke:#ff7f0e;stroke-width:1.5;" x="85.638462" xlink:href="#m78262bba59" y="277.284543"/>
     <use style="fill:#ff7f0e;stroke:#ff7f0e;stroke-width:1.5;" x="96.620192" xlink:href="#m78262bba59" y="276.997992"/>
     <use style="fill:#ff7f0e;stroke:#ff7f0e;stroke-width:1.5;" x="107.601923" xlink:href="#m78262bba59" y="276.624229"/>
     <use style="fill:#ff7f0e;stroke:#ff7f0e;stroke-width:1.5;" x="118.583654" xlink:href="#m78262bba59" y="276.515411"/>
     <use style="fill:#ff7f0e;stroke:#ff7f0e;stroke-width:1.5;" x="129.565385" xlink:href="#m78262bba59" y="276.080938"/>
     <use style="fill:#ff7f0e;stroke:#ff7f0e;stroke-width:1.5;" x="140.547115" xlink:href="#m78262bba59" y="275.419979"/>
     <use style="fill:#ff7f0e;stroke:#ff7f0e;stroke-width:1.5;" x="151.528846" xlink:href="#m78262bba59" y="275.069722"/>
     <use style="fill:#ff7f0e;stroke:#ff7f0e;stroke-width:1.5;" x="162.510577" xlink:href="#m78262bba59" y="274.732814"/>
     <use style="fill:#ff7f0e;stroke:#ff7f0e;stroke-width:1.5;" x="173.492308" xlink:href="#m78262bba59" y="274.028136"/>
     <use style="fill:#ff7f0e;stroke:#ff7f0e;stroke-width:1.5;" x="184.474038" xlink:href="#m78262bba59" y="273.395882"/>
     <use style="fill:#ff7f0e;stroke:#ff7f0e;stroke-width:1.5;" x="195.455769" xlink:href="#m78262bba59" y="272.314141"/>
     <use style="fill:#ff7f0e;stroke:#ff7f0e;stroke-width:1.5;" x="206.4375" xlink:href="#m78262bba59" y="270.698534"/>
     <use style="fill:#ff7f0e;stroke:#ff7f0e;stroke-width:1.5;" x="217.419231" xlink:href="#m78262bba59" y="268.821599"/>
     <use style="fill:#ff7f0e;stroke:#ff7f0e;stroke-width:1.5;" x="228.400962" xlink:href="#m78262bba59" y="267.755031"/>
     <use style="fill:#ff7f0e;stroke:#ff7f0e;stroke-width:1.5;" x="239.382692" xlink:href="#m78262bba59" y="266.690331"/>
     <use style="fill:#ff7f0e;stroke:#ff7f0e;stroke-width:1.5;" x="250.364423" xlink:href="#m78262bba59" y="264.966226"/>
     <use style="fill:#ff7f0e;stroke:#ff7f0e;stroke-width:1.5;" x="261.346154" xlink:href="#m78262bba59" y="264.309935"/>
     <use style="fill:#ff7f0e;stroke:#ff7f0e;stroke-width:1.5;" x="272.327885" xlink:href="#m78262bba59" y="263.659513"/>
     <use style="fill:#ff7f0e;stroke:#ff7f0e;stroke-width:1.5;" x="283.309615" xlink:href="#m78262bba59" y="262.909085"/>
     <use style="fill:#ff7f0e;stroke:#ff7f0e;stroke-width:1.5;" x="294.291346" xlink:href="#m78262bba59" y="261.096652"/>
     <use style="fill:#ff7f0e;stroke:#ff7f0e;stroke-width:1.5;" x="305.273077" xlink:href="#m78262bba59" y="257.823982"/>
     <use style="fill:#ff7f0e;stroke:#ff7f0e;stroke-width:1.5;" x="316.254808" xlink:href="#m78262bba59" y="254.413283"/>
     <use style="fill:#ff7f0e;stroke:#ff7f0e;stroke-width:1.5;" x="327.236538" xlink:href="#m78262bba59" y="251.908354"/>
     <use style="fill:#ff7f0e;stroke:#ff7f0e;stroke-width:1.5;" x="338.218269" xlink:href="#m78262bba59" y="247.757738"/>
    </g>
   </g>
   <g id="PolyCollection_2">
    <defs>
     <path d="M 63.675 -78.918871 
L 63.675 -75.443068 
L 66.559091 -75.778707 
L 69.443182 -76.10924 
L 72.327273 -76.426329 
L 75.211364 -76.74774 
L 78.095455 -77.077921 
L 80.979545 -77.409564 
L 83.863636 -77.741207 
L 86.747727 -78.070132 
L 89.631818 -78.394774 
L 92.515909 -78.719475 
L 95.4 -79.044177 
L 98.284091 -79.368916 
L 101.168182 -79.693699 
L 104.052273 -80.015224 
L 106.936364 -80.336005 
L 109.820455 -80.656785 
L 112.704545 -80.977566 
L 115.588636 -81.303948 
L 118.472727 -81.625754 
L 121.356818 -81.944756 
L 124.240909 -82.267662 
L 127.125 -82.608266 
L 130.009091 -82.940752 
L 132.893182 -83.265623 
L 135.777273 -83.590494 
L 138.661364 -83.911159 
L 141.545455 -84.239978 
L 144.429545 -84.567693 
L 147.313636 -84.883386 
L 150.197727 -85.211023 
L 153.081818 -85.530919 
L 155.965909 -85.848691 
L 158.85 -86.166353 
L 161.734091 -86.4837 
L 164.618182 -86.801523 
L 167.502273 -87.126968 
L 170.386364 -87.434209 
L 173.270455 -87.739629 
L 176.154545 -88.061155 
L 179.038636 -88.36901 
L 181.922727 -88.689861 
L 184.806818 -88.981074 
L 187.690909 -89.283362 
L 190.575 -89.59835 
L 193.459091 -89.869232 
L 196.343182 -90.187512 
L 199.227273 -90.461903 
L 202.111364 -90.742689 
L 204.995455 -91.039106 
L 207.879545 -91.312945 
L 210.763636 -91.598595 
L 213.647727 -91.865652 
L 216.531818 -92.124361 
L 219.415909 -92.39219 
L 222.3 -92.652187 
L 225.184091 -92.922396 
L 228.068182 -93.175002 
L 230.952273 -93.453901 
L 233.836364 -93.721004 
L 236.720455 -93.983604 
L 239.604545 -94.242178 
L 242.488636 -94.507693 
L 245.372727 -94.759819 
L 248.256818 -95.011909 
L 251.140909 -95.270516 
L 254.025 -95.526382 
L 256.909091 -95.784912 
L 259.793182 -96.048074 
L 262.677273 -96.311236 
L 265.561364 -96.574032 
L 268.445455 -96.832383 
L 271.329545 -97.090734 
L 274.213636 -97.345225 
L 277.097727 -97.598451 
L 279.981818 -97.849707 
L 282.865909 -98.105207 
L 285.75 -98.373911 
L 288.634091 -98.639439 
L 291.518182 -98.896054 
L 294.402273 -99.149711 
L 297.286364 -99.403368 
L 300.170455 -99.656549 
L 303.054545 -99.91047 
L 305.938636 -100.164236 
L 308.822727 -100.423138 
L 311.706818 -100.682054 
L 314.590909 -100.940969 
L 317.475 -101.199559 
L 320.359091 -101.457606 
L 323.243182 -101.715654 
L 326.127273 -101.976916 
L 329.011364 -102.236516 
L 331.895455 -102.495539 
L 334.779545 -102.754563 
L 337.663636 -103.012418 
L 340.547727 -103.26305 
L 343.431818 -103.520746 
L 346.315909 -103.778442 
L 349.2 -104.036138 
L 349.2 -108.531062 
L 349.2 -108.531062 
L 346.315909 -108.207047 
L 343.431818 -107.883032 
L 340.547727 -107.559017 
L 337.663636 -107.234991 
L 334.779545 -106.910965 
L 331.895455 -106.586938 
L 329.011364 -106.262912 
L 326.127273 -105.938886 
L 323.243182 -105.614756 
L 320.359091 -105.290486 
L 317.475 -104.966137 
L 314.590909 -104.642077 
L 311.706818 -104.317924 
L 308.822727 -103.988235 
L 305.938636 -103.659985 
L 303.054545 -103.336004 
L 300.170455 -103.008641 
L 297.286364 -102.679883 
L 294.402273 -102.362111 
L 291.518182 -102.040061 
L 288.634091 -101.716242 
L 285.75 -101.39355 
L 282.865909 -101.077316 
L 279.981818 -100.759459 
L 277.097727 -100.442503 
L 274.213636 -100.125422 
L 271.329545 -99.804555 
L 268.445455 -99.475982 
L 265.561364 -99.16065 
L 262.677273 -98.85684 
L 259.793182 -98.538108 
L 256.909091 -98.212953 
L 254.025 -97.885865 
L 251.140909 -97.575956 
L 248.256818 -97.25366 
L 245.372727 -96.945727 
L 242.488636 -96.625474 
L 239.604545 -96.303394 
L 236.720455 -95.991386 
L 233.836364 -95.686165 
L 230.952273 -95.365774 
L 228.068182 -95.052098 
L 225.184091 -94.73937 
L 222.3 -94.423511 
L 219.415909 -94.108846 
L 216.531818 -93.806431 
L 213.647727 -93.505753 
L 210.763636 -93.204203 
L 207.879545 -92.902654 
L 204.995455 -92.601104 
L 202.111364 -92.305542 
L 199.227273 -92.012234 
L 196.343182 -91.697607 
L 193.459091 -91.39386 
L 190.575 -91.092856 
L 187.690909 -90.788723 
L 184.806818 -90.482495 
L 181.922727 -90.178367 
L 179.038636 -89.872942 
L 176.154545 -89.551105 
L 173.270455 -89.23726 
L 170.386364 -88.926727 
L 167.502273 -88.644235 
L 164.618182 -88.359762 
L 161.734091 -88.086845 
L 158.85 -87.782533 
L 155.965909 -87.476213 
L 153.081818 -87.180612 
L 150.197727 -86.897357 
L 147.313636 -86.611412 
L 144.429545 -86.323204 
L 141.545455 -86.034409 
L 138.661364 -85.746251 
L 135.777273 -85.467592 
L 132.893182 -85.20497 
L 130.009091 -84.921339 
L 127.125 -84.642203 
L 124.240909 -84.356657 
L 121.356818 -84.086024 
L 118.472727 -83.817439 
L 115.588636 -83.551632 
L 112.704545 -83.305716 
L 109.820455 -83.048421 
L 106.936364 -82.776046 
L 104.052273 -82.497414 
L 101.168182 -82.242792 
L 98.284091 -81.999104 
L 95.4 -81.739264 
L 92.515909 -81.487352 
L 89.631818 -81.232445 
L 86.747727 -80.962605 
L 83.863636 -80.701825 
L 80.979545 -80.464971 
L 78.095455 -80.21554 
L 75.211364 -79.943548 
L 72.327273 -79.689499 
L 69.443182 -79.440527 
L 66.559091 -79.182332 
L 63.675 -78.918871 
z
" id="m9b77d815b6" style="stroke:#ffffff;stroke-opacity:0.15;"/>
    </defs>
    <g clip-path="url(#p61c7a15993)">
     <use style="fill:#ff7f0e;fill-opacity:0.15;stroke:#ffffff;stroke-opacity:0.15;" x="0" xlink:href="#m9b77d815b6" y="360"/>
    </g>
   </g>
   <g id="PathCollection_3">
    <defs>
     <path d="M 0 0 
L -3.535534 -0 
M 0 0 
L 1.767767 2.828427 
M 0 0 
L 1.767767 -2.828427 
" id="mc272072c24" style="stroke:#2ca02c;stroke-width:1.5;"/>
    </defs>
    <g clip-path="url(#p61c7a15993)">
     <use style="fill:#2ca02c;stroke:#2ca02c;stroke-width:1.5;" x="74.656731" xlink:href="#mc272072c24" y="49.54679"/>
     <use style="fill:#2ca02c;stroke:#2ca02c;stroke-width:1.5;" x="85.638462" xlink:href="#mc272072c24" y="45.658701"/>
     <use style="fill:#2ca02c;stroke:#2ca02c;stroke-width:1.5;" x="96.620192" xlink:href="#mc272072c24" y="52.151112"/>
     <use style="fill:#2ca02c;stroke:#2ca02c;stroke-width:1.5;" x="107.601923" xlink:href="#mc272072c24" y="49.706037"/>
     <use style="fill:#2ca02c;stroke:#2ca02c;stroke-width:1.5;" x="118.583654" xlink:href="#mc272072c24" y="36.91623"/>
     <use style="fill:#2ca02c;stroke:#2ca02c;stroke-width:1.5;" x="129.565385" xlink:href="#mc272072c24" y="44.2008"/>
     <use style="fill:#2ca02c;stroke:#2ca02c;stroke-width:1.5;" x="140.547115" xlink:href="#mc272072c24" y="59.624692"/>
     <use style="fill:#2ca02c;stroke:#2ca02c;stroke-width:1.5;" x="151.528846" xlink:href="#mc272072c24" y="58.17116"/>
     <use style="fill:#2ca02c;stroke:#2ca02c;stroke-width:1.5;" x="162.510577" xlink:href="#mc272072c24" y="55.832122"/>
     <use style="fill:#2ca02c;stroke:#2ca02c;stroke-width:1.5;" x="173.492308" xlink:href="#mc272072c24" y="77.402997"/>
     <use style="fill:#2ca02c;stroke:#2ca02c;stroke-width:1.5;" x="184.474038" xlink:href="#mc272072c24" y="83.972234"/>
     <use style="fill:#2ca02c;stroke:#2ca02c;stroke-width:1.5;" x="195.455769" xlink:href="#mc272072c24" y="74.895744"/>
     <use style="fill:#2ca02c;stroke:#2ca02c;stroke-width:1.5;" x="206.4375" xlink:href="#mc272072c24" y="72.250579"/>
     <use style="fill:#2ca02c;stroke:#2ca02c;stroke-width:1.5;" x="217.419231" xlink:href="#mc272072c24" y="78.59953"/>
     <use style="fill:#2ca02c;stroke:#2ca02c;stroke-width:1.5;" x="228.400962" xlink:href="#mc272072c24" y="83.488402"/>
     <use style="fill:#2ca02c;stroke:#2ca02c;stroke-width:1.5;" x="239.382692" xlink:href="#mc272072c24" y="87.604341"/>
     <use style="fill:#2ca02c;stroke:#2ca02c;stroke-width:1.5;" x="250.364423" xlink:href="#mc272072c24" y="89.705363"/>
     <use style="fill:#2ca02c;stroke:#2ca02c;stroke-width:1.5;" x="261.346154" xlink:href="#mc272072c24" y="93.701008"/>
     <use style="fill:#2ca02c;stroke:#2ca02c;stroke-width:1.5;" x="272.327885" xlink:href="#mc272072c24" y="92.835348"/>
     <use style="fill:#2ca02c;stroke:#2ca02c;stroke-width:1.5;" x="283.309615" xlink:href="#mc272072c24" y="94.746012"/>
     <use style="fill:#2ca02c;stroke:#2ca02c;stroke-width:1.5;" x="294.291346" xlink:href="#mc272072c24" y="96.43243"/>
     <use style="fill:#2ca02c;stroke:#2ca02c;stroke-width:1.5;" x="305.273077" xlink:href="#mc272072c24" y="105.080725"/>
     <use style="fill:#2ca02c;stroke:#2ca02c;stroke-width:1.5;" x="316.254808" xlink:href="#mc272072c24" y="122.268107"/>
     <use style="fill:#2ca02c;stroke:#2ca02c;stroke-width:1.5;" x="327.236538" xlink:href="#mc272072c24" y="132.700177"/>
     <use style="fill:#2ca02c;stroke:#2ca02c;stroke-width:1.5;" x="338.218269" xlink:href="#mc272072c24" y="149.715329"/>
    </g>
   </g>
   <g id="PolyCollection_3">
    <defs>
     <path d="M 63.675 -335.227273 
L 63.675 -321.748124 
L 66.559091 -320.917953 
L 69.443182 -320.042881 
L 72.327273 -319.211099 
L 75.211364 -318.369364 
L 78.095455 -317.521583 
L 80.979545 -316.683904 
L 83.863636 -315.835143 
L 86.747727 -314.991308 
L 89.631818 -314.156593 
L 92.515909 -313.321879 
L 95.4 -312.47572 
L 98.284091 -311.588771 
L 101.168182 -310.757018 
L 104.052273 -309.92768 
L 106.936364 -309.044711 
L 109.820455 -308.199889 
L 112.704545 -307.329956 
L 115.588636 -306.448093 
L 118.472727 -305.562697 
L 121.356818 -304.657296 
L 124.240909 -303.790078 
L 127.125 -302.936962 
L 130.009091 -301.983469 
L 132.893182 -301.116092 
L 135.777273 -300.214205 
L 138.661364 -299.276513 
L 141.545455 -298.338223 
L 144.429545 -297.400355 
L 147.313636 -296.509163 
L 150.197727 -295.571018 
L 153.081818 -294.645393 
L 155.965909 -293.705933 
L 158.85 -292.796022 
L 161.734091 -291.900768 
L 164.618182 -290.940749 
L 167.502273 -290.001079 
L 170.386364 -289.01436 
L 173.270455 -288.047237 
L 176.154545 -287.066594 
L 179.038636 -286.094045 
L 181.922727 -285.098251 
L 184.806818 -284.107778 
L 187.690909 -283.092579 
L 190.575 -282.11108 
L 193.459091 -281.150431 
L 196.343182 -280.153623 
L 199.227273 -279.089653 
L 202.111364 -278.021912 
L 204.995455 -277.023328 
L 207.879545 -276.003599 
L 210.763636 -275.034566 
L 213.647727 -274.040185 
L 216.531818 -273.045804 
L 219.415909 -272.02093 
L 222.3 -270.969246 
L 225.184091 -269.918576 
L 228.068182 -268.863928 
L 230.952273 -267.811146 
L 233.836364 -266.769267 
L 236.720455 -265.706381 
L 239.604545 -264.668222 
L 242.488636 -263.601435 
L 245.372727 -262.562653 
L 248.256818 -261.496419 
L 251.140909 -260.442478 
L 254.025 -259.358236 
L 256.909091 -258.310837 
L 259.793182 -257.240777 
L 262.677273 -256.174979 
L 265.561364 -255.083237 
L 268.445455 -253.972417 
L 271.329545 -252.907845 
L 274.213636 -251.881225 
L 277.097727 -250.902742 
L 279.981818 -249.861474 
L 282.865909 -248.833613 
L 285.75 -247.750519 
L 288.634091 -246.712406 
L 291.518182 -245.687378 
L 294.402273 -244.636987 
L 297.286364 -243.556253 
L 300.170455 -242.422372 
L 303.054545 -241.330838 
L 305.938636 -240.240352 
L 308.822727 -239.149866 
L 311.706818 -238.059381 
L 314.590909 -236.968895 
L 317.475 -235.86814 
L 320.359091 -234.787923 
L 323.243182 -233.697438 
L 326.127273 -232.606952 
L 329.011364 -231.508137 
L 331.895455 -230.425507 
L 334.779545 -229.339238 
L 337.663636 -228.270794 
L 340.547727 -227.189325 
L 343.431818 -226.068843 
L 346.315909 -224.982265 
L 349.2 -223.895612 
L 349.2 -239.761998 
L 349.2 -239.761998 
L 346.315909 -240.60319 
L 343.431818 -241.444381 
L 340.547727 -242.285402 
L 337.663636 -243.125809 
L 334.779545 -243.966217 
L 331.895455 -244.806624 
L 329.011364 -245.624251 
L 326.127273 -246.424854 
L 323.243182 -247.225458 
L 320.359091 -248.026061 
L 317.475 -248.851576 
L 314.590909 -249.711299 
L 311.706818 -250.571023 
L 308.822727 -251.430747 
L 305.938636 -252.29047 
L 303.054545 -253.150128 
L 300.170455 -254.009501 
L 297.286364 -254.868875 
L 294.402273 -255.701144 
L 291.518182 -256.557904 
L 288.634091 -257.390027 
L 285.75 -258.221221 
L 282.865909 -259.052415 
L 279.981818 -259.883609 
L 277.097727 -260.724578 
L 274.213636 -261.586088 
L 271.329545 -262.447598 
L 268.445455 -263.318464 
L 265.561364 -264.179431 
L 262.677273 -265.099837 
L 259.793182 -265.989636 
L 256.909091 -266.884462 
L 254.025 -267.760973 
L 251.140909 -268.636976 
L 248.256818 -269.519619 
L 245.372727 -270.359545 
L 242.488636 -271.278394 
L 239.604545 -272.172183 
L 236.720455 -273.065086 
L 233.836364 -273.959643 
L 230.952273 -274.85346 
L 228.068182 -275.738176 
L 225.184091 -276.64157 
L 222.3 -277.618014 
L 219.415909 -278.526613 
L 216.531818 -279.420757 
L 213.647727 -280.353121 
L 210.763636 -281.25728 
L 207.879545 -282.217132 
L 204.995455 -283.149155 
L 202.111364 -284.114551 
L 199.227273 -285.015607 
L 196.343182 -286.038996 
L 193.459091 -286.919873 
L 190.575 -287.890583 
L 187.690909 -288.883149 
L 184.806818 -289.919442 
L 181.922727 -290.929517 
L 179.038636 -291.914089 
L 176.154545 -292.954332 
L 173.270455 -293.955006 
L 170.386364 -295.007179 
L 167.502273 -296.088367 
L 164.618182 -297.05122 
L 161.734091 -298.090729 
L 158.85 -299.160242 
L 155.965909 -300.250354 
L 153.081818 -301.290506 
L 150.197727 -302.411572 
L 147.313636 -303.501664 
L 144.429545 -304.557371 
L 141.545455 -305.694178 
L 138.661364 -306.780827 
L 135.777273 -307.867473 
L 132.893182 -308.954278 
L 130.009091 -310.040818 
L 127.125 -311.127358 
L 124.240909 -312.253064 
L 121.356818 -313.336971 
L 118.472727 -314.442156 
L 115.588636 -315.512686 
L 112.704545 -316.609569 
L 109.820455 -317.717515 
L 106.936364 -318.794997 
L 104.052273 -319.861 
L 101.168182 -320.930809 
L 98.284091 -322.050456 
L 95.4 -323.170104 
L 92.515909 -324.276726 
L 89.631818 -325.365889 
L 86.747727 -326.467876 
L 83.863636 -327.567811 
L 80.979545 -328.661071 
L 78.095455 -329.759963 
L 75.211364 -330.84557 
L 72.327273 -331.938616 
L 69.443182 -333.031526 
L 66.559091 -334.128154 
L 63.675 -335.227273 
z
" id="ma5fec2a3b8" style="stroke:#ffffff;stroke-opacity:0.15;"/>
    </defs>
    <g clip-path="url(#p61c7a15993)">
     <use style="fill:#2ca02c;fill-opacity:0.15;stroke:#ffffff;stroke-opacity:0.15;" x="0" xlink:href="#ma5fec2a3b8" y="360"/>
    </g>
   </g>
   <g id="PathCollection_4">
    <defs>
     <path d="M -3.535534 3.535534 
L 3.535534 -3.535534 
M -3.535534 -3.535534 
L 3.535534 3.535534 
" id="mafdcd821da" style="stroke:#d62728;stroke-width:1.5;"/>
    </defs>
    <g clip-path="url(#p61c7a15993)">
     <use style="fill:#d62728;stroke:#d62728;stroke-width:1.5;" x="74.656731" xlink:href="#mafdcd821da" y="283.939185"/>
     <use style="fill:#d62728;stroke:#d62728;stroke-width:1.5;" x="85.638462" xlink:href="#mafdcd821da" y="283.933626"/>
     <use style="fill:#d62728;stroke:#d62728;stroke-width:1.5;" x="96.620192" xlink:href="#mafdcd821da" y="283.930271"/>
     <use style="fill:#d62728;stroke:#d62728;stroke-width:1.5;" x="107.601923" xlink:href="#mafdcd821da" y="283.926108"/>
     <use style="fill:#d62728;stroke:#d62728;stroke-width:1.5;" x="118.583654" xlink:href="#mafdcd821da" y="283.919866"/>
     <use style="fill:#d62728;stroke:#d62728;stroke-width:1.5;" x="129.565385" xlink:href="#mafdcd821da" y="283.916027"/>
     <use style="fill:#d62728;stroke:#d62728;stroke-width:1.5;" x="140.547115" xlink:href="#mafdcd821da" y="283.916484"/>
     <use style="fill:#d62728;stroke:#d62728;stroke-width:1.5;" x="151.528846" xlink:href="#mafdcd821da" y="283.913798"/>
     <use style="fill:#d62728;stroke:#d62728;stroke-width:1.5;" x="162.510577" xlink:href="#mafdcd821da" y="283.911945"/>
     <use style="fill:#d62728;stroke:#d62728;stroke-width:1.5;" x="173.492308" xlink:href="#mafdcd821da" y="283.918761"/>
     <use style="fill:#d62728;stroke:#d62728;stroke-width:1.5;" x="184.474038" xlink:href="#mafdcd821da" y="283.92095"/>
     <use style="fill:#d62728;stroke:#d62728;stroke-width:1.5;" x="195.455769" xlink:href="#mafdcd821da" y="283.918573"/>
     <use style="fill:#d62728;stroke:#d62728;stroke-width:1.5;" x="206.4375" xlink:href="#mafdcd821da" y="283.916139"/>
     <use style="fill:#d62728;stroke:#d62728;stroke-width:1.5;" x="217.419231" xlink:href="#mafdcd821da" y="283.916979"/>
     <use style="fill:#d62728;stroke:#d62728;stroke-width:1.5;" x="228.400962" xlink:href="#mafdcd821da" y="283.919975"/>
     <use style="fill:#d62728;stroke:#d62728;stroke-width:1.5;" x="239.382692" xlink:href="#mafdcd821da" y="283.920586"/>
     <use style="fill:#d62728;stroke:#d62728;stroke-width:1.5;" x="250.364423" xlink:href="#mafdcd821da" y="283.919526"/>
     <use style="fill:#d62728;stroke:#d62728;stroke-width:1.5;" x="261.346154" xlink:href="#mafdcd821da" y="283.920855"/>
     <use style="fill:#d62728;stroke:#d62728;stroke-width:1.5;" x="272.327885" xlink:href="#mafdcd821da" y="283.919751"/>
     <use style="fill:#d62728;stroke:#d62728;stroke-width:1.5;" x="283.309615" xlink:href="#mafdcd821da" y="283.914214"/>
     <use style="fill:#d62728;stroke:#d62728;stroke-width:1.5;" x="294.291346" xlink:href="#mafdcd821da" y="283.909156"/>
     <use style="fill:#d62728;stroke:#d62728;stroke-width:1.5;" x="305.273077" xlink:href="#mafdcd821da" y="283.906602"/>
     <use style="fill:#d62728;stroke:#d62728;stroke-width:1.5;" x="316.254808" xlink:href="#mafdcd821da" y="283.906598"/>
     <use style="fill:#d62728;stroke:#d62728;stroke-width:1.5;" x="327.236538" xlink:href="#mafdcd821da" y="283.901236"/>
     <use style="fill:#d62728;stroke:#d62728;stroke-width:1.5;" x="338.218269" xlink:href="#mafdcd821da" y="283.902035"/>
    </g>
   </g>
   <g id="PolyCollection_4">
    <defs>
     <path d="M 63.675 -76.072875 
L 63.675 -76.065947 
L 66.559091 -76.066249 
L 69.443182 -76.066547 
L 72.327273 -76.066859 
L 75.211364 -76.067171 
L 78.095455 -76.067483 
L 80.979545 -76.067801 
L 83.863636 -76.068118 
L 86.747727 -76.068429 
L 89.631818 -76.06874 
L 92.515909 -76.069039 
L 95.4 -76.069331 
L 98.284091 -76.069633 
L 101.168182 -76.069917 
L 104.052273 -76.070217 
L 106.936364 -76.070512 
L 109.820455 -76.070811 
L 112.704545 -76.071116 
L 115.588636 -76.071416 
L 118.472727 -76.071717 
L 121.356818 -76.072044 
L 124.240909 -76.072334 
L 127.125 -76.072618 
L 130.009091 -76.072915 
L 132.893182 -76.073215 
L 135.777273 -76.073515 
L 138.661364 -76.073803 
L 141.545455 -76.074109 
L 144.429545 -76.074405 
L 147.313636 -76.074704 
L 150.197727 -76.075014 
L 153.081818 -76.075329 
L 155.965909 -76.075638 
L 158.85 -76.075935 
L 161.734091 -76.076233 
L 164.618182 -76.076531 
L 167.502273 -76.076842 
L 170.386364 -76.077158 
L 173.270455 -76.077441 
L 176.154545 -76.077735 
L 179.038636 -76.078035 
L 181.922727 -76.078326 
L 184.806818 -76.078617 
L 187.690909 -76.078912 
L 190.575 -76.079212 
L 193.459091 -76.079508 
L 196.343182 -76.0798 
L 199.227273 -76.080071 
L 202.111364 -76.080356 
L 204.995455 -76.080639 
L 207.879545 -76.080906 
L 210.763636 -76.081185 
L 213.647727 -76.081475 
L 216.531818 -76.081753 
L 219.415909 -76.082024 
L 222.3 -76.082242 
L 225.184091 -76.082514 
L 228.068182 -76.082768 
L 230.952273 -76.08304 
L 233.836364 -76.083289 
L 236.720455 -76.083565 
L 239.604545 -76.083814 
L 242.488636 -76.084039 
L 245.372727 -76.084302 
L 248.256818 -76.084578 
L 251.140909 -76.084814 
L 254.025 -76.085083 
L 256.909091 -76.085301 
L 259.793182 -76.08553 
L 262.677273 -76.085742 
L 265.561364 -76.085996 
L 268.445455 -76.086238 
L 271.329545 -76.086507 
L 274.213636 -76.086774 
L 277.097727 -76.086995 
L 279.981818 -76.0872 
L 282.865909 -76.087407 
L 285.75 -76.087609 
L 288.634091 -76.087805 
L 291.518182 -76.088031 
L 294.402273 -76.08824 
L 297.286364 -76.088447 
L 300.170455 -76.088663 
L 303.054545 -76.088899 
L 305.938636 -76.08912 
L 308.822727 -76.089335 
L 311.706818 -76.089535 
L 314.590909 -76.089752 
L 317.475 -76.089985 
L 320.359091 -76.09022 
L 323.243182 -76.090454 
L 326.127273 -76.090688 
L 329.011364 -76.090923 
L 331.895455 -76.091158 
L 334.779545 -76.091384 
L 337.663636 -76.0916 
L 340.547727 -76.091815 
L 343.431818 -76.092031 
L 346.315909 -76.092247 
L 349.2 -76.092462 
L 349.2 -76.097626 
L 349.2 -76.097626 
L 346.315909 -76.097331 
L 343.431818 -76.097036 
L 340.547727 -76.096741 
L 337.663636 -76.096445 
L 334.779545 -76.096148 
L 331.895455 -76.095836 
L 329.011364 -76.095545 
L 326.127273 -76.09525 
L 323.243182 -76.094948 
L 320.359091 -76.094628 
L 317.475 -76.094307 
L 314.590909 -76.094025 
L 311.706818 -76.093744 
L 308.822727 -76.093457 
L 305.938636 -76.09318 
L 303.054545 -76.092896 
L 300.170455 -76.092607 
L 297.286364 -76.092329 
L 294.402273 -76.092047 
L 291.518182 -76.091723 
L 288.634091 -76.091427 
L 285.75 -76.091132 
L 282.865909 -76.090862 
L 279.981818 -76.090555 
L 277.097727 -76.090274 
L 274.213636 -76.090004 
L 271.329545 -76.089708 
L 268.445455 -76.08942 
L 265.561364 -76.089137 
L 262.677273 -76.08887 
L 259.793182 -76.088591 
L 256.909091 -76.088336 
L 254.025 -76.088044 
L 251.140909 -76.087793 
L 248.256818 -76.087491 
L 245.372727 -76.08724 
L 242.488636 -76.086951 
L 239.604545 -76.086683 
L 236.720455 -76.086408 
L 233.836364 -76.086152 
L 230.952273 -76.085893 
L 228.068182 -76.085637 
L 225.184091 -76.085414 
L 222.3 -76.085155 
L 219.415909 -76.08489 
L 216.531818 -76.08464 
L 213.647727 -76.084376 
L 210.763636 -76.084114 
L 207.879545 -76.083866 
L 204.995455 -76.083624 
L 202.111364 -76.083384 
L 199.227273 -76.083142 
L 196.343182 -76.08289 
L 193.459091 -76.082636 
L 190.575 -76.082405 
L 187.690909 -76.082175 
L 184.806818 -76.081935 
L 181.922727 -76.081705 
L 179.038636 -76.081463 
L 176.154545 -76.08121 
L 173.270455 -76.080977 
L 170.386364 -76.080734 
L 167.502273 -76.080509 
L 164.618182 -76.080295 
L 161.734091 -76.080057 
L 158.85 -76.079824 
L 155.965909 -76.079582 
L 153.081818 -76.079355 
L 150.197727 -76.079143 
L 147.313636 -76.078927 
L 144.429545 -76.0787 
L 141.545455 -76.078496 
L 138.661364 -76.078308 
L 135.777273 -76.078103 
L 132.893182 -76.077896 
L 130.009091 -76.077687 
L 127.125 -76.077479 
L 124.240909 -76.077271 
L 121.356818 -76.077059 
L 118.472727 -76.076829 
L 115.588636 -76.076593 
L 112.704545 -76.076395 
L 109.820455 -76.076186 
L 106.936364 -76.075968 
L 104.052273 -76.075772 
L 101.168182 -76.075592 
L 98.284091 -76.0754 
L 95.4 -76.075199 
L 92.515909 -76.075004 
L 89.631818 -76.074789 
L 86.747727 -76.074574 
L 83.863636 -76.074361 
L 80.979545 -76.074153 
L 78.095455 -76.073945 
L 75.211364 -76.073737 
L 72.327273 -76.073525 
L 69.443182 -76.073305 
L 66.559091 -76.073084 
L 63.675 -76.072875 
z
" id="mf52b3bb2f3" style="stroke:#ffffff;stroke-opacity:0.15;"/>
    </defs>
    <g clip-path="url(#p61c7a15993)">
     <use style="fill:#d62728;fill-opacity:0.15;stroke:#ffffff;stroke-opacity:0.15;" x="0" xlink:href="#mf52b3bb2f3" y="360"/>
    </g>
   </g>
   <g id="line2d_14">
    <path clip-path="url(#p61c7a15993)" d="M 74.656731 271.111076 
L 74.656731 262.201021 
" style="fill:none;stroke:#1f77b4;stroke-linecap:round;stroke-width:2.625;"/>
   </g>
   <g id="line2d_15">
    <path clip-path="url(#p61c7a15993)" d="M 85.638462 270.879583 
L 85.638462 270.042965 
" style="fill:none;stroke:#1f77b4;stroke-linecap:round;stroke-width:2.625;"/>
   </g>
   <g id="line2d_16">
    <path clip-path="url(#p61c7a15993)" d="M 96.620192 271.959683 
L 96.620192 269.091191 
" style="fill:none;stroke:#1f77b4;stroke-linecap:round;stroke-width:2.625;"/>
   </g>
   <g id="line2d_17">
    <path clip-path="url(#p61c7a15993)" d="M 107.601923 271.303242 
L 107.601923 268.792064 
" style="fill:none;stroke:#1f77b4;stroke-linecap:round;stroke-width:2.625;"/>
   </g>
   <g id="line2d_18">
    <path clip-path="url(#p61c7a15993)" d="M 118.583654 264.223073 
L 118.583654 262.139714 
" style="fill:none;stroke:#1f77b4;stroke-linecap:round;stroke-width:2.625;"/>
   </g>
   <g id="line2d_19">
    <path clip-path="url(#p61c7a15993)" d="M 129.565385 261.263411 
L 129.565385 260.924789 
" style="fill:none;stroke:#1f77b4;stroke-linecap:round;stroke-width:2.625;"/>
   </g>
   <g id="line2d_20">
    <path clip-path="url(#p61c7a15993)" d="M 140.547115 257.778431 
L 140.547115 257.040817 
" style="fill:none;stroke:#1f77b4;stroke-linecap:round;stroke-width:2.625;"/>
   </g>
   <g id="line2d_21">
    <path clip-path="url(#p61c7a15993)" d="M 151.528846 254.868199 
L 151.528846 251.923573 
" style="fill:none;stroke:#1f77b4;stroke-linecap:round;stroke-width:2.625;"/>
   </g>
   <g id="line2d_22">
    <path clip-path="url(#p61c7a15993)" d="M 162.510577 252.63583 
L 162.510577 251.640897 
" style="fill:none;stroke:#1f77b4;stroke-linecap:round;stroke-width:2.625;"/>
   </g>
   <g id="line2d_23">
    <path clip-path="url(#p61c7a15993)" d="M 173.492308 253.366309 
L 173.492308 251.136037 
" style="fill:none;stroke:#1f77b4;stroke-linecap:round;stroke-width:2.625;"/>
   </g>
   <g id="line2d_24">
    <path clip-path="url(#p61c7a15993)" d="M 184.474038 249.828683 
L 184.474038 247.281953 
" style="fill:none;stroke:#1f77b4;stroke-linecap:round;stroke-width:2.625;"/>
   </g>
   <g id="line2d_25">
    <path clip-path="url(#p61c7a15993)" d="M 195.455769 244.7517 
L 195.455769 243.317142 
" style="fill:none;stroke:#1f77b4;stroke-linecap:round;stroke-width:2.625;"/>
   </g>
   <g id="line2d_26">
    <path clip-path="url(#p61c7a15993)" d="M 206.4375 240.775553 
L 206.4375 238.528667 
" style="fill:none;stroke:#1f77b4;stroke-linecap:round;stroke-width:2.625;"/>
   </g>
   <g id="line2d_27">
    <path clip-path="url(#p61c7a15993)" d="M 217.419231 238.857637 
L 217.419231 237.249326 
" style="fill:none;stroke:#1f77b4;stroke-linecap:round;stroke-width:2.625;"/>
   </g>
   <g id="line2d_28">
    <path clip-path="url(#p61c7a15993)" d="M 228.400962 235.62482 
L 228.400962 232.756835 
" style="fill:none;stroke:#1f77b4;stroke-linecap:round;stroke-width:2.625;"/>
   </g>
   <g id="line2d_29">
    <path clip-path="url(#p61c7a15993)" d="M 239.382692 230.17232 
L 239.382692 226.191253 
" style="fill:none;stroke:#1f77b4;stroke-linecap:round;stroke-width:2.625;"/>
   </g>
   <g id="line2d_30">
    <path clip-path="url(#p61c7a15993)" d="M 250.364423 224.831519 
L 250.364423 224.333433 
" style="fill:none;stroke:#1f77b4;stroke-linecap:round;stroke-width:2.625;"/>
   </g>
   <g id="line2d_31">
    <path clip-path="url(#p61c7a15993)" d="M 261.346154 228.438263 
L 261.346154 227.848811 
" style="fill:none;stroke:#1f77b4;stroke-linecap:round;stroke-width:2.625;"/>
   </g>
   <g id="line2d_32">
    <path clip-path="url(#p61c7a15993)" d="M 272.327885 227.811378 
L 272.327885 222.070366 
" style="fill:none;stroke:#1f77b4;stroke-linecap:round;stroke-width:2.625;"/>
   </g>
   <g id="line2d_33">
    <path clip-path="url(#p61c7a15993)" d="M 283.309615 210.072406 
L 283.309615 199.290764 
" style="fill:none;stroke:#1f77b4;stroke-linecap:round;stroke-width:2.625;"/>
   </g>
   <g id="line2d_34">
    <path clip-path="url(#p61c7a15993)" d="M 294.291346 189.11184 
L 294.291346 179.521415 
" style="fill:none;stroke:#1f77b4;stroke-linecap:round;stroke-width:2.625;"/>
   </g>
   <g id="line2d_35">
    <path clip-path="url(#p61c7a15993)" d="M 305.273077 177.385518 
L 305.273077 164.382688 
" style="fill:none;stroke:#1f77b4;stroke-linecap:round;stroke-width:2.625;"/>
   </g>
   <g id="line2d_36">
    <path clip-path="url(#p61c7a15993)" d="M 316.254808 164.901818 
L 316.254808 146.369702 
" style="fill:none;stroke:#1f77b4;stroke-linecap:round;stroke-width:2.625;"/>
   </g>
   <g id="line2d_37">
    <path clip-path="url(#p61c7a15993)" d="M 327.236538 132.082851 
L 327.236538 128.238687 
" style="fill:none;stroke:#1f77b4;stroke-linecap:round;stroke-width:2.625;"/>
   </g>
   <g id="line2d_38">
    <path clip-path="url(#p61c7a15993)" d="M 338.218269 131.582808 
L 338.218269 125.141603 
" style="fill:none;stroke:#1f77b4;stroke-linecap:round;stroke-width:2.625;"/>
   </g>
   <g id="line2d_39">
    <path clip-path="url(#p61c7a15993)" d="M 63.675 294.473455 
L 66.559091 293.103194 
L 69.443182 291.732934 
L 72.327273 290.362673 
L 75.211364 288.992413 
L 78.095455 287.622153 
L 80.979545 286.251892 
L 83.863636 284.881632 
L 86.747727 283.511372 
L 89.631818 282.141111 
L 92.515909 280.770851 
L 95.4 279.40059 
L 98.284091 278.03033 
L 101.168182 276.66007 
L 104.052273 275.289809 
L 106.936364 273.919549 
L 109.820455 272.549289 
L 112.704545 271.179028 
L 115.588636 269.808768 
L 118.472727 268.438507 
L 121.356818 267.068247 
L 124.240909 265.697987 
L 127.125 264.327726 
L 130.009091 262.957466 
L 132.893182 261.587206 
L 135.777273 260.216945 
L 138.661364 258.846685 
L 141.545455 257.476424 
L 144.429545 256.106164 
L 147.313636 254.735904 
L 150.197727 253.365643 
L 153.081818 251.995383 
L 155.965909 250.625122 
L 158.85 249.254862 
L 161.734091 247.884602 
L 164.618182 246.514341 
L 167.502273 245.144081 
L 170.386364 243.773821 
L 173.270455 242.40356 
L 176.154545 241.0333 
L 179.038636 239.663039 
L 181.922727 238.292779 
L 184.806818 236.922519 
L 187.690909 235.552258 
L 190.575 234.181998 
L 193.459091 232.811738 
L 196.343182 231.441477 
L 199.227273 230.071217 
L 202.111364 228.700956 
L 204.995455 227.330696 
L 207.879545 225.960436 
L 210.763636 224.590175 
L 213.647727 223.219915 
L 216.531818 221.849654 
L 219.415909 220.479394 
L 222.3 219.109134 
L 225.184091 217.738873 
L 228.068182 216.368613 
L 230.952273 214.998353 
L 233.836364 213.628092 
L 236.720455 212.257832 
L 239.604545 210.887571 
L 242.488636 209.517311 
L 245.372727 208.147051 
L 248.256818 206.77679 
L 251.140909 205.40653 
L 254.025 204.03627 
L 256.909091 202.666009 
L 259.793182 201.295749 
L 262.677273 199.925488 
L 265.561364 198.555228 
L 268.445455 197.184968 
L 271.329545 195.814707 
L 274.213636 194.444447 
L 277.097727 193.074187 
L 279.981818 191.703926 
L 282.865909 190.333666 
L 285.75 188.963405 
L 288.634091 187.593145 
L 291.518182 186.222885 
L 294.402273 184.852624 
L 297.286364 183.482364 
L 300.170455 182.112103 
L 303.054545 180.741843 
L 305.938636 179.371583 
L 308.822727 178.001322 
L 311.706818 176.631062 
L 314.590909 175.260802 
L 317.475 173.890541 
L 320.359091 172.520281 
L 323.243182 171.15002 
L 326.127273 169.77976 
L 329.011364 168.4095 
L 331.895455 167.039239 
L 334.779545 165.668979 
L 337.663636 164.298719 
L 340.547727 162.928458 
L 343.431818 161.558198 
L 346.315909 160.187937 
L 349.2 158.817677 
" style="fill:none;stroke:#1f77b4;stroke-linecap:round;stroke-width:2.25;"/>
   </g>
   <g id="line2d_40">
    <path clip-path="url(#p61c7a15993)" d="M 74.656731 278.255675 
L 74.656731 277.387639 
" style="fill:none;stroke:#ff7f0e;stroke-linecap:round;stroke-width:2.625;"/>
   </g>
   <g id="line2d_41">
    <path clip-path="url(#p61c7a15993)" d="M 85.638462 277.540056 
L 85.638462 277.02903 
" style="fill:none;stroke:#ff7f0e;stroke-linecap:round;stroke-width:2.625;"/>
   </g>
   <g id="line2d_42">
    <path clip-path="url(#p61c7a15993)" d="M 96.620192 277.061619 
L 96.620192 276.934365 
" style="fill:none;stroke:#ff7f0e;stroke-linecap:round;stroke-width:2.625;"/>
   </g>
   <g id="line2d_43">
    <path clip-path="url(#p61c7a15993)" d="M 107.601923 276.637553 
L 107.601923 276.610906 
" style="fill:none;stroke:#ff7f0e;stroke-linecap:round;stroke-width:2.625;"/>
   </g>
   <g id="line2d_44">
    <path clip-path="url(#p61c7a15993)" d="M 118.583654 276.631225 
L 118.583654 276.399596 
" style="fill:none;stroke:#ff7f0e;stroke-linecap:round;stroke-width:2.625;"/>
   </g>
   <g id="line2d_45">
    <path clip-path="url(#p61c7a15993)" d="M 129.565385 276.134311 
L 129.565385 276.027565 
" style="fill:none;stroke:#ff7f0e;stroke-linecap:round;stroke-width:2.625;"/>
   </g>
   <g id="line2d_46">
    <path clip-path="url(#p61c7a15993)" d="M 140.547115 275.513819 
L 140.547115 275.32614 
" style="fill:none;stroke:#ff7f0e;stroke-linecap:round;stroke-width:2.625;"/>
   </g>
   <g id="line2d_47">
    <path clip-path="url(#p61c7a15993)" d="M 151.528846 275.107596 
L 151.528846 275.031847 
" style="fill:none;stroke:#ff7f0e;stroke-linecap:round;stroke-width:2.625;"/>
   </g>
   <g id="line2d_48">
    <path clip-path="url(#p61c7a15993)" d="M 162.510577 274.885718 
L 162.510577 274.579911 
" style="fill:none;stroke:#ff7f0e;stroke-linecap:round;stroke-width:2.625;"/>
   </g>
   <g id="line2d_49">
    <path clip-path="url(#p61c7a15993)" d="M 173.492308 274.06848 
L 173.492308 273.987792 
" style="fill:none;stroke:#ff7f0e;stroke-linecap:round;stroke-width:2.625;"/>
   </g>
   <g id="line2d_50">
    <path clip-path="url(#p61c7a15993)" d="M 184.474038 273.404853 
L 184.474038 273.386912 
" style="fill:none;stroke:#ff7f0e;stroke-linecap:round;stroke-width:2.625;"/>
   </g>
   <g id="line2d_51">
    <path clip-path="url(#p61c7a15993)" d="M 195.455769 272.592949 
L 195.455769 272.035334 
" style="fill:none;stroke:#ff7f0e;stroke-linecap:round;stroke-width:2.625;"/>
   </g>
   <g id="line2d_52">
    <path clip-path="url(#p61c7a15993)" d="M 206.4375 271.395226 
L 206.4375 270.001841 
" style="fill:none;stroke:#ff7f0e;stroke-linecap:round;stroke-width:2.625;"/>
   </g>
   <g id="line2d_53">
    <path clip-path="url(#p61c7a15993)" d="M 217.419231 269.130855 
L 217.419231 268.512343 
" style="fill:none;stroke:#ff7f0e;stroke-linecap:round;stroke-width:2.625;"/>
   </g>
   <g id="line2d_54">
    <path clip-path="url(#p61c7a15993)" d="M 228.400962 267.876013 
L 228.400962 267.634049 
" style="fill:none;stroke:#ff7f0e;stroke-linecap:round;stroke-width:2.625;"/>
   </g>
   <g id="line2d_55">
    <path clip-path="url(#p61c7a15993)" d="M 239.382692 267.038726 
L 239.382692 266.341937 
" style="fill:none;stroke:#ff7f0e;stroke-linecap:round;stroke-width:2.625;"/>
   </g>
   <g id="line2d_56">
    <path clip-path="url(#p61c7a15993)" d="M 250.364423 265.162349 
L 250.364423 264.770102 
" style="fill:none;stroke:#ff7f0e;stroke-linecap:round;stroke-width:2.625;"/>
   </g>
   <g id="line2d_57">
    <path clip-path="url(#p61c7a15993)" d="M 261.346154 264.739272 
L 261.346154 263.880598 
" style="fill:none;stroke:#ff7f0e;stroke-linecap:round;stroke-width:2.625;"/>
   </g>
   <g id="line2d_58">
    <path clip-path="url(#p61c7a15993)" d="M 272.327885 263.766787 
L 272.327885 263.552239 
" style="fill:none;stroke:#ff7f0e;stroke-linecap:round;stroke-width:2.625;"/>
   </g>
   <g id="line2d_59">
    <path clip-path="url(#p61c7a15993)" d="M 283.309615 263.250963 
L 283.309615 262.567207 
" style="fill:none;stroke:#ff7f0e;stroke-linecap:round;stroke-width:2.625;"/>
   </g>
   <g id="line2d_60">
    <path clip-path="url(#p61c7a15993)" d="M 294.291346 261.655662 
L 294.291346 260.537641 
" style="fill:none;stroke:#ff7f0e;stroke-linecap:round;stroke-width:2.625;"/>
   </g>
   <g id="line2d_61">
    <path clip-path="url(#p61c7a15993)" d="M 305.273077 259.047101 
L 305.273077 256.600864 
" style="fill:none;stroke:#ff7f0e;stroke-linecap:round;stroke-width:2.625;"/>
   </g>
   <g id="line2d_62">
    <path clip-path="url(#p61c7a15993)" d="M 316.254808 254.775252 
L 316.254808 254.051313 
" style="fill:none;stroke:#ff7f0e;stroke-linecap:round;stroke-width:2.625;"/>
   </g>
   <g id="line2d_63">
    <path clip-path="url(#p61c7a15993)" d="M 327.236538 253.188437 
L 327.236538 250.628271 
" style="fill:none;stroke:#ff7f0e;stroke-linecap:round;stroke-width:2.625;"/>
   </g>
   <g id="line2d_64">
    <path clip-path="url(#p61c7a15993)" d="M 338.218269 249.620071 
L 338.218269 245.895404 
" style="fill:none;stroke:#ff7f0e;stroke-linecap:round;stroke-width:2.625;"/>
   </g>
   <g id="line2d_65">
    <path clip-path="url(#p61c7a15993)" d="M 63.675 282.716283 
L 66.559091 282.420327 
L 69.443182 282.124371 
L 72.327273 281.828416 
L 75.211364 281.53246 
L 78.095455 281.236504 
L 80.979545 280.940549 
L 83.863636 280.644593 
L 86.747727 280.348637 
L 89.631818 280.052682 
L 92.515909 279.756726 
L 95.4 279.46077 
L 98.284091 279.164815 
L 101.168182 278.868859 
L 104.052273 278.572903 
L 106.936364 278.276948 
L 109.820455 277.980992 
L 112.704545 277.685036 
L 115.588636 277.389081 
L 118.472727 277.093125 
L 121.356818 276.797169 
L 124.240909 276.501214 
L 127.125 276.205258 
L 130.009091 275.909302 
L 132.893182 275.613347 
L 135.777273 275.317391 
L 138.661364 275.021435 
L 141.545455 274.72548 
L 144.429545 274.429524 
L 147.313636 274.133568 
L 150.197727 273.837613 
L 153.081818 273.541657 
L 155.965909 273.245701 
L 158.85 272.949746 
L 161.734091 272.65379 
L 164.618182 272.357834 
L 167.502273 272.061879 
L 170.386364 271.765923 
L 173.270455 271.469967 
L 176.154545 271.174012 
L 179.038636 270.878056 
L 181.922727 270.5821 
L 184.806818 270.286145 
L 187.690909 269.990189 
L 190.575 269.694233 
L 193.459091 269.398278 
L 196.343182 269.102322 
L 199.227273 268.806366 
L 202.111364 268.510411 
L 204.995455 268.214455 
L 207.879545 267.918499 
L 210.763636 267.622544 
L 213.647727 267.326588 
L 216.531818 267.030632 
L 219.415909 266.734676 
L 222.3 266.438721 
L 225.184091 266.142765 
L 228.068182 265.846809 
L 230.952273 265.550854 
L 233.836364 265.254898 
L 236.720455 264.958942 
L 239.604545 264.662987 
L 242.488636 264.367031 
L 245.372727 264.071075 
L 248.256818 263.77512 
L 251.140909 263.479164 
L 254.025 263.183208 
L 256.909091 262.887253 
L 259.793182 262.591297 
L 262.677273 262.295341 
L 265.561364 261.999386 
L 268.445455 261.70343 
L 271.329545 261.407474 
L 274.213636 261.111519 
L 277.097727 260.815563 
L 279.981818 260.519607 
L 282.865909 260.223652 
L 285.75 259.927696 
L 288.634091 259.63174 
L 291.518182 259.335785 
L 294.402273 259.039829 
L 297.286364 258.743873 
L 300.170455 258.447918 
L 303.054545 258.151962 
L 305.938636 257.856006 
L 308.822727 257.560051 
L 311.706818 257.264095 
L 314.590909 256.968139 
L 317.475 256.672184 
L 320.359091 256.376228 
L 323.243182 256.080272 
L 326.127273 255.784317 
L 329.011364 255.488361 
L 331.895455 255.192405 
L 334.779545 254.89645 
L 337.663636 254.600494 
L 340.547727 254.304538 
L 343.431818 254.008583 
L 346.315909 253.712627 
L 349.2 253.416671 
" style="fill:none;stroke:#ff7f0e;stroke-linecap:round;stroke-width:2.25;"/>
   </g>
   <g id="line2d_66">
    <path clip-path="url(#p61c7a15993)" d="M 74.656731 50.509681 
L 74.656731 48.583898 
" style="fill:none;stroke:#2ca02c;stroke-linecap:round;stroke-width:2.625;"/>
   </g>
   <g id="line2d_67">
    <path clip-path="url(#p61c7a15993)" d="M 85.638462 47.655103 
L 85.638462 43.662298 
" style="fill:none;stroke:#2ca02c;stroke-linecap:round;stroke-width:2.625;"/>
   </g>
   <g id="line2d_68">
    <path clip-path="url(#p61c7a15993)" d="M 96.620192 57.761583 
L 96.620192 46.54064 
" style="fill:none;stroke:#2ca02c;stroke-linecap:round;stroke-width:2.625;"/>
   </g>
   <g id="line2d_69">
    <path clip-path="url(#p61c7a15993)" d="M 107.601923 53.368847 
L 107.601923 46.043227 
" style="fill:none;stroke:#2ca02c;stroke-linecap:round;stroke-width:2.625;"/>
   </g>
   <g id="line2d_70">
    <path clip-path="url(#p61c7a15993)" d="M 118.583654 37.867005 
L 118.583654 35.965456 
" style="fill:none;stroke:#2ca02c;stroke-linecap:round;stroke-width:2.625;"/>
   </g>
   <g id="line2d_71">
    <path clip-path="url(#p61c7a15993)" d="M 129.565385 51.01348 
L 129.565385 37.38812 
" style="fill:none;stroke:#2ca02c;stroke-linecap:round;stroke-width:2.625;"/>
   </g>
   <g id="line2d_72">
    <path clip-path="url(#p61c7a15993)" d="M 140.547115 60.479723 
L 140.547115 58.769661 
" style="fill:none;stroke:#2ca02c;stroke-linecap:round;stroke-width:2.625;"/>
   </g>
   <g id="line2d_73">
    <path clip-path="url(#p61c7a15993)" d="M 151.528846 58.228082 
L 151.528846 58.114237 
" style="fill:none;stroke:#2ca02c;stroke-linecap:round;stroke-width:2.625;"/>
   </g>
   <g id="line2d_74">
    <path clip-path="url(#p61c7a15993)" d="M 162.510577 68.195618 
L 162.510577 43.468626 
" style="fill:none;stroke:#2ca02c;stroke-linecap:round;stroke-width:2.625;"/>
   </g>
   <g id="line2d_75">
    <path clip-path="url(#p61c7a15993)" d="M 173.492308 79.656548 
L 173.492308 75.149446 
" style="fill:none;stroke:#2ca02c;stroke-linecap:round;stroke-width:2.625;"/>
   </g>
   <g id="line2d_76">
    <path clip-path="url(#p61c7a15993)" d="M 184.474038 87.183078 
L 184.474038 80.761389 
" style="fill:none;stroke:#2ca02c;stroke-linecap:round;stroke-width:2.625;"/>
   </g>
   <g id="line2d_77">
    <path clip-path="url(#p61c7a15993)" d="M 195.455769 76.306602 
L 195.455769 73.484886 
" style="fill:none;stroke:#2ca02c;stroke-linecap:round;stroke-width:2.625;"/>
   </g>
   <g id="line2d_78">
    <path clip-path="url(#p61c7a15993)" d="M 206.4375 73.765615 
L 206.4375 70.735542 
" style="fill:none;stroke:#2ca02c;stroke-linecap:round;stroke-width:2.625;"/>
   </g>
   <g id="line2d_79">
    <path clip-path="url(#p61c7a15993)" d="M 217.419231 80.277117 
L 217.419231 76.921943 
" style="fill:none;stroke:#2ca02c;stroke-linecap:round;stroke-width:2.625;"/>
   </g>
   <g id="line2d_80">
    <path clip-path="url(#p61c7a15993)" d="M 228.400962 85.651733 
L 228.400962 81.325071 
" style="fill:none;stroke:#2ca02c;stroke-linecap:round;stroke-width:2.625;"/>
   </g>
   <g id="line2d_81">
    <path clip-path="url(#p61c7a15993)" d="M 239.382692 89.424863 
L 239.382692 85.783818 
" style="fill:none;stroke:#2ca02c;stroke-linecap:round;stroke-width:2.625;"/>
   </g>
   <g id="line2d_82">
    <path clip-path="url(#p61c7a15993)" d="M 250.364423 94.294706 
L 250.364423 85.11602 
" style="fill:none;stroke:#2ca02c;stroke-linecap:round;stroke-width:2.625;"/>
   </g>
   <g id="line2d_83">
    <path clip-path="url(#p61c7a15993)" d="M 261.346154 94.191588 
L 261.346154 93.210429 
" style="fill:none;stroke:#2ca02c;stroke-linecap:round;stroke-width:2.625;"/>
   </g>
   <g id="line2d_84">
    <path clip-path="url(#p61c7a15993)" d="M 272.327885 95.93672 
L 272.327885 89.733976 
" style="fill:none;stroke:#2ca02c;stroke-linecap:round;stroke-width:2.625;"/>
   </g>
   <g id="line2d_85">
    <path clip-path="url(#p61c7a15993)" d="M 283.309615 95.418796 
L 283.309615 94.073227 
" style="fill:none;stroke:#2ca02c;stroke-linecap:round;stroke-width:2.625;"/>
   </g>
   <g id="line2d_86">
    <path clip-path="url(#p61c7a15993)" d="M 294.291346 97.315958 
L 294.291346 95.548901 
" style="fill:none;stroke:#2ca02c;stroke-linecap:round;stroke-width:2.625;"/>
   </g>
   <g id="line2d_87">
    <path clip-path="url(#p61c7a15993)" d="M 305.273077 106.938825 
L 305.273077 103.222625 
" style="fill:none;stroke:#2ca02c;stroke-linecap:round;stroke-width:2.625;"/>
   </g>
   <g id="line2d_88">
    <path clip-path="url(#p61c7a15993)" d="M 316.254808 125.205663 
L 316.254808 119.33055 
" style="fill:none;stroke:#2ca02c;stroke-linecap:round;stroke-width:2.625;"/>
   </g>
   <g id="line2d_89">
    <path clip-path="url(#p61c7a15993)" d="M 327.236538 135.614734 
L 327.236538 129.785621 
" style="fill:none;stroke:#2ca02c;stroke-linecap:round;stroke-width:2.625;"/>
   </g>
   <g id="line2d_90">
    <path clip-path="url(#p61c7a15993)" d="M 338.218269 159.852966 
L 338.218269 139.577692 
" style="fill:none;stroke:#2ca02c;stroke-linecap:round;stroke-width:2.625;"/>
   </g>
   <g id="line2d_91">
    <path clip-path="url(#p61c7a15993)" d="M 63.675 32.128666 
L 66.559091 33.103639 
L 69.443182 34.078613 
L 72.327273 35.053587 
L 75.211364 36.028561 
L 78.095455 37.003535 
L 80.979545 37.978509 
L 83.863636 38.953483 
L 86.747727 39.928457 
L 89.631818 40.903431 
L 92.515909 41.878405 
L 95.4 42.853379 
L 98.284091 43.828353 
L 101.168182 44.803327 
L 104.052273 45.778301 
L 106.936364 46.753275 
L 109.820455 47.728249 
L 112.704545 48.703222 
L 115.588636 49.678196 
L 118.472727 50.65317 
L 121.356818 51.628144 
L 124.240909 52.603118 
L 127.125 53.578092 
L 130.009091 54.553066 
L 132.893182 55.52804 
L 135.777273 56.503014 
L 138.661364 57.477988 
L 141.545455 58.452962 
L 144.429545 59.427936 
L 147.313636 60.40291 
L 150.197727 61.377884 
L 153.081818 62.352858 
L 155.965909 63.327832 
L 158.85 64.302805 
L 161.734091 65.277779 
L 164.618182 66.252753 
L 167.502273 67.227727 
L 170.386364 68.202701 
L 173.270455 69.177675 
L 176.154545 70.152649 
L 179.038636 71.127623 
L 181.922727 72.102597 
L 184.806818 73.077571 
L 187.690909 74.052545 
L 190.575 75.027519 
L 193.459091 76.002493 
L 196.343182 76.977467 
L 199.227273 77.952441 
L 202.111364 78.927415 
L 204.995455 79.902389 
L 207.879545 80.877362 
L 210.763636 81.852336 
L 213.647727 82.82731 
L 216.531818 83.802284 
L 219.415909 84.777258 
L 222.3 85.752232 
L 225.184091 86.727206 
L 228.068182 87.70218 
L 230.952273 88.677154 
L 233.836364 89.652128 
L 236.720455 90.627102 
L 239.604545 91.602076 
L 242.488636 92.57705 
L 245.372727 93.552024 
L 248.256818 94.526998 
L 251.140909 95.501972 
L 254.025 96.476945 
L 256.909091 97.451919 
L 259.793182 98.426893 
L 262.677273 99.401867 
L 265.561364 100.376841 
L 268.445455 101.351815 
L 271.329545 102.326789 
L 274.213636 103.301763 
L 277.097727 104.276737 
L 279.981818 105.251711 
L 282.865909 106.226685 
L 285.75 107.201659 
L 288.634091 108.176633 
L 291.518182 109.151607 
L 294.402273 110.126581 
L 297.286364 111.101555 
L 300.170455 112.076529 
L 303.054545 113.051502 
L 305.938636 114.026476 
L 308.822727 115.00145 
L 311.706818 115.976424 
L 314.590909 116.951398 
L 317.475 117.926372 
L 320.359091 118.901346 
L 323.243182 119.87632 
L 326.127273 120.851294 
L 329.011364 121.826268 
L 331.895455 122.801242 
L 334.779545 123.776216 
L 337.663636 124.75119 
L 340.547727 125.726164 
L 343.431818 126.701138 
L 346.315909 127.676112 
L 349.2 128.651085 
" style="fill:none;stroke:#2ca02c;stroke-linecap:round;stroke-width:2.25;"/>
   </g>
   <g id="line2d_92">
    <path clip-path="url(#p61c7a15993)" d="M 74.656731 283.940594 
L 74.656731 283.937776 
" style="fill:none;stroke:#d62728;stroke-linecap:round;stroke-width:2.625;"/>
   </g>
   <g id="line2d_93">
    <path clip-path="url(#p61c7a15993)" d="M 85.638462 283.934477 
L 85.638462 283.932776 
" style="fill:none;stroke:#d62728;stroke-linecap:round;stroke-width:2.625;"/>
   </g>
   <g id="line2d_94">
    <path clip-path="url(#p61c7a15993)" d="M 96.620192 283.93069 
L 96.620192 283.929852 
" style="fill:none;stroke:#d62728;stroke-linecap:round;stroke-width:2.625;"/>
   </g>
   <g id="line2d_95">
    <path clip-path="url(#p61c7a15993)" d="M 107.601923 283.927586 
L 107.601923 283.92463 
" style="fill:none;stroke:#d62728;stroke-linecap:round;stroke-width:2.625;"/>
   </g>
   <g id="line2d_96">
    <path clip-path="url(#p61c7a15993)" d="M 118.583654 283.920578 
L 118.583654 283.919154 
" style="fill:none;stroke:#d62728;stroke-linecap:round;stroke-width:2.625;"/>
   </g>
   <g id="line2d_97">
    <path clip-path="url(#p61c7a15993)" d="M 129.565385 283.917247 
L 129.565385 283.914807 
" style="fill:none;stroke:#d62728;stroke-linecap:round;stroke-width:2.625;"/>
   </g>
   <g id="line2d_98">
    <path clip-path="url(#p61c7a15993)" d="M 140.547115 283.918213 
L 140.547115 283.914755 
" style="fill:none;stroke:#d62728;stroke-linecap:round;stroke-width:2.625;"/>
   </g>
   <g id="line2d_99">
    <path clip-path="url(#p61c7a15993)" d="M 151.528846 283.914065 
L 151.528846 283.913531 
" style="fill:none;stroke:#d62728;stroke-linecap:round;stroke-width:2.625;"/>
   </g>
   <g id="line2d_100">
    <path clip-path="url(#p61c7a15993)" d="M 162.510577 283.913243 
L 162.510577 283.910646 
" style="fill:none;stroke:#d62728;stroke-linecap:round;stroke-width:2.625;"/>
   </g>
   <g id="line2d_101">
    <path clip-path="url(#p61c7a15993)" d="M 173.492308 283.919905 
L 173.492308 283.917618 
" style="fill:none;stroke:#d62728;stroke-linecap:round;stroke-width:2.625;"/>
   </g>
   <g id="line2d_102">
    <path clip-path="url(#p61c7a15993)" d="M 184.474038 283.921713 
L 184.474038 283.920187 
" style="fill:none;stroke:#d62728;stroke-linecap:round;stroke-width:2.625;"/>
   </g>
   <g id="line2d_103">
    <path clip-path="url(#p61c7a15993)" d="M 195.455769 283.919121 
L 195.455769 283.918025 
" style="fill:none;stroke:#d62728;stroke-linecap:round;stroke-width:2.625;"/>
   </g>
   <g id="line2d_104">
    <path clip-path="url(#p61c7a15993)" d="M 206.4375 283.917027 
L 206.4375 283.915251 
" style="fill:none;stroke:#d62728;stroke-linecap:round;stroke-width:2.625;"/>
   </g>
   <g id="line2d_105">
    <path clip-path="url(#p61c7a15993)" d="M 217.419231 283.917217 
L 217.419231 283.916741 
" style="fill:none;stroke:#d62728;stroke-linecap:round;stroke-width:2.625;"/>
   </g>
   <g id="line2d_106">
    <path clip-path="url(#p61c7a15993)" d="M 228.400962 283.920244 
L 228.400962 283.919706 
" style="fill:none;stroke:#d62728;stroke-linecap:round;stroke-width:2.625;"/>
   </g>
   <g id="line2d_107">
    <path clip-path="url(#p61c7a15993)" d="M 239.382692 283.920889 
L 239.382692 283.920283 
" style="fill:none;stroke:#d62728;stroke-linecap:round;stroke-width:2.625;"/>
   </g>
   <g id="line2d_108">
    <path clip-path="url(#p61c7a15993)" d="M 250.364423 283.919665 
L 250.364423 283.919387 
" style="fill:none;stroke:#d62728;stroke-linecap:round;stroke-width:2.625;"/>
   </g>
   <g id="line2d_109">
    <path clip-path="url(#p61c7a15993)" d="M 261.346154 283.920892 
L 261.346154 283.920819 
" style="fill:none;stroke:#d62728;stroke-linecap:round;stroke-width:2.625;"/>
   </g>
   <g id="line2d_110">
    <path clip-path="url(#p61c7a15993)" d="M 272.327885 283.920148 
L 272.327885 283.919354 
" style="fill:none;stroke:#d62728;stroke-linecap:round;stroke-width:2.625;"/>
   </g>
   <g id="line2d_111">
    <path clip-path="url(#p61c7a15993)" d="M 283.309615 283.915687 
L 283.309615 283.912741 
" style="fill:none;stroke:#d62728;stroke-linecap:round;stroke-width:2.625;"/>
   </g>
   <g id="line2d_112">
    <path clip-path="url(#p61c7a15993)" d="M 294.291346 283.910171 
L 294.291346 283.908141 
" style="fill:none;stroke:#d62728;stroke-linecap:round;stroke-width:2.625;"/>
   </g>
   <g id="line2d_113">
    <path clip-path="url(#p61c7a15993)" d="M 305.273077 283.90769 
L 305.273077 283.905514 
" style="fill:none;stroke:#d62728;stroke-linecap:round;stroke-width:2.625;"/>
   </g>
   <g id="line2d_114">
    <path clip-path="url(#p61c7a15993)" d="M 316.254808 283.909317 
L 316.254808 283.903878 
" style="fill:none;stroke:#d62728;stroke-linecap:round;stroke-width:2.625;"/>
   </g>
   <g id="line2d_115">
    <path clip-path="url(#p61c7a15993)" d="M 327.236538 283.901765 
L 327.236538 283.900707 
" style="fill:none;stroke:#d62728;stroke-linecap:round;stroke-width:2.625;"/>
   </g>
   <g id="line2d_116">
    <path clip-path="url(#p61c7a15993)" d="M 338.218269 283.903091 
L 338.218269 283.900979 
" style="fill:none;stroke:#d62728;stroke-linecap:round;stroke-width:2.625;"/>
   </g>
   <g id="line2d_117">
    <path clip-path="url(#p61c7a15993)" d="M 63.675 283.930958 
L 66.559091 283.930692 
L 69.443182 283.930425 
L 72.327273 283.930159 
L 75.211364 283.929892 
L 78.095455 283.929626 
L 80.979545 283.929359 
L 83.863636 283.929093 
L 86.747727 283.928826 
L 89.631818 283.92856 
L 92.515909 283.928294 
L 95.4 283.928027 
L 98.284091 283.927761 
L 101.168182 283.927494 
L 104.052273 283.927228 
L 106.936364 283.926961 
L 109.820455 283.926695 
L 112.704545 283.926429 
L 115.588636 283.926162 
L 118.472727 283.925896 
L 121.356818 283.925629 
L 124.240909 283.925363 
L 127.125 283.925096 
L 130.009091 283.92483 
L 132.893182 283.924563 
L 135.777273 283.924297 
L 138.661364 283.924031 
L 141.545455 283.923764 
L 144.429545 283.923498 
L 147.313636 283.923231 
L 150.197727 283.922965 
L 153.081818 283.922698 
L 155.965909 283.922432 
L 158.85 283.922165 
L 161.734091 283.921899 
L 164.618182 283.921633 
L 167.502273 283.921366 
L 170.386364 283.9211 
L 173.270455 283.920833 
L 176.154545 283.920567 
L 179.038636 283.9203 
L 181.922727 283.920034 
L 184.806818 283.919768 
L 187.690909 283.919501 
L 190.575 283.919235 
L 193.459091 283.918968 
L 196.343182 283.918702 
L 199.227273 283.918435 
L 202.111364 283.918169 
L 204.995455 283.917902 
L 207.879545 283.917636 
L 210.763636 283.91737 
L 213.647727 283.917103 
L 216.531818 283.916837 
L 219.415909 283.91657 
L 222.3 283.916304 
L 225.184091 283.916037 
L 228.068182 283.915771 
L 230.952273 283.915505 
L 233.836364 283.915238 
L 236.720455 283.914972 
L 239.604545 283.914705 
L 242.488636 283.914439 
L 245.372727 283.914172 
L 248.256818 283.913906 
L 251.140909 283.913639 
L 254.025 283.913373 
L 256.909091 283.913107 
L 259.793182 283.91284 
L 262.677273 283.912574 
L 265.561364 283.912307 
L 268.445455 283.912041 
L 271.329545 283.911774 
L 274.213636 283.911508 
L 277.097727 283.911241 
L 279.981818 283.910975 
L 282.865909 283.910709 
L 285.75 283.910442 
L 288.634091 283.910176 
L 291.518182 283.909909 
L 294.402273 283.909643 
L 297.286364 283.909376 
L 300.170455 283.90911 
L 303.054545 283.908844 
L 305.938636 283.908577 
L 308.822727 283.908311 
L 311.706818 283.908044 
L 314.590909 283.907778 
L 317.475 283.907511 
L 320.359091 283.907245 
L 323.243182 283.906978 
L 326.127273 283.906712 
L 329.011364 283.906446 
L 331.895455 283.906179 
L 334.779545 283.905913 
L 337.663636 283.905646 
L 340.547727 283.90538 
L 343.431818 283.905113 
L 346.315909 283.904847 
L 349.2 283.90458 
" style="fill:none;stroke:#d62728;stroke-linecap:round;stroke-width:2.25;"/>
   </g>
   <g id="patch_3">
    <path d="M 63.675 318.2 
L 63.675 10.8 
" style="fill:none;stroke:#cccccc;stroke-linecap:square;stroke-linejoin:miter;stroke-width:0.8;"/>
   </g>
   <g id="patch_4">
    <path d="M 63.675 318.2 
L 349.2 318.2 
" style="fill:none;stroke:#cccccc;stroke-linecap:square;stroke-linejoin:miter;stroke-width:0.8;"/>
   </g>
   <g id="legend_1">
    <g id="patch_5">
     <path d="M 70.675 202.695313 
L 182.939063 202.695313 
Q 184.939063 202.695313 184.939063 200.695313 
L 184.939063 128.304688 
Q 184.939063 126.304688 182.939063 126.304688 
L 70.675 126.304688 
Q 68.675 126.304688 68.675 128.304688 
L 68.675 200.695313 
Q 68.675 202.695313 70.675 202.695313 
z
" style="fill:#ffffff;opacity:0.8;stroke:#cccccc;stroke-linejoin:miter;"/>
    </g>
    <g id="text_16">
     <!-- Country Name -->
     <g style="fill:#262626;" transform="translate(90.603125 137.903125)scale(0.1 -0.1)">
      <defs>
       <path d="M 8.5 21.578125 
L 8.5 54.6875 
L 17.484375 54.6875 
L 17.484375 21.921875 
Q 17.484375 14.15625 20.5 10.265625 
Q 23.53125 6.390625 29.59375 6.390625 
Q 36.859375 6.390625 41.078125 11.03125 
Q 45.3125 15.671875 45.3125 23.6875 
L 45.3125 54.6875 
L 54.296875 54.6875 
L 54.296875 0 
L 45.3125 0 
L 45.3125 8.40625 
Q 42.046875 3.421875 37.71875 1 
Q 33.40625 -1.421875 27.6875 -1.421875 
Q 18.265625 -1.421875 13.375 4.4375 
Q 8.5 10.296875 8.5 21.578125 
z
M 31.109375 56 
z
" id="DejaVuSans-117"/>
       <path d="M 54.890625 33.015625 
L 54.890625 0 
L 45.90625 0 
L 45.90625 32.71875 
Q 45.90625 40.484375 42.875 44.328125 
Q 39.84375 48.1875 33.796875 48.1875 
Q 26.515625 48.1875 22.3125 43.546875 
Q 18.109375 38.921875 18.109375 30.90625 
L 18.109375 0 
L 9.078125 0 
L 9.078125 54.6875 
L 18.109375 54.6875 
L 18.109375 46.1875 
Q 21.34375 51.125 25.703125 53.5625 
Q 30.078125 56 35.796875 56 
Q 45.21875 56 50.046875 50.171875 
Q 54.890625 44.34375 54.890625 33.015625 
z
" id="DejaVuSans-110"/>
       <path d="M 32.171875 -5.078125 
Q 28.375 -14.84375 24.75 -17.8125 
Q 21.140625 -20.796875 15.09375 -20.796875 
L 7.90625 -20.796875 
L 7.90625 -13.28125 
L 13.1875 -13.28125 
Q 16.890625 -13.28125 18.9375 -11.515625 
Q 21 -9.765625 23.484375 -3.21875 
L 25.09375 0.875 
L 2.984375 54.6875 
L 12.5 54.6875 
L 29.59375 11.921875 
L 46.6875 54.6875 
L 56.203125 54.6875 
z
" id="DejaVuSans-121"/>
       <path d="M 9.8125 72.90625 
L 23.09375 72.90625 
L 55.421875 11.921875 
L 55.421875 72.90625 
L 64.984375 72.90625 
L 64.984375 0 
L 51.703125 0 
L 19.390625 60.984375 
L 19.390625 0 
L 9.8125 0 
z
" id="DejaVuSans-78"/>
      </defs>
      <use xlink:href="#DejaVuSans-67"/>
      <use x="69.824219" xlink:href="#DejaVuSans-111"/>
      <use x="131.005859" xlink:href="#DejaVuSans-117"/>
      <use x="194.384766" xlink:href="#DejaVuSans-110"/>
      <use x="257.763672" xlink:href="#DejaVuSans-116"/>
      <use x="296.972656" xlink:href="#DejaVuSans-114"/>
      <use x="338.085938" xlink:href="#DejaVuSans-121"/>
      <use x="397.265625" xlink:href="#DejaVuSans-32"/>
      <use x="429.052734" xlink:href="#DejaVuSans-78"/>
      <use x="503.857422" xlink:href="#DejaVuSans-97"/>
      <use x="565.136719" xlink:href="#DejaVuSans-109"/>
      <use x="662.548828" xlink:href="#DejaVuSans-101"/>
     </g>
    </g>
    <g id="PathCollection_5">
     <g>
      <use style="fill:#1f77b4;stroke:#1f77b4;" x="82.675" xlink:href="#m9278812a22" y="149.95625"/>
     </g>
    </g>
    <g id="text_17">
     <!-- China -->
     <g style="fill:#262626;" transform="translate(100.675 152.58125)scale(0.1 -0.1)">
      <defs>
       <path d="M 54.890625 33.015625 
L 54.890625 0 
L 45.90625 0 
L 45.90625 32.71875 
Q 45.90625 40.484375 42.875 44.328125 
Q 39.84375 48.1875 33.796875 48.1875 
Q 26.515625 48.1875 22.3125 43.546875 
Q 18.109375 38.921875 18.109375 30.90625 
L 18.109375 0 
L 9.078125 0 
L 9.078125 75.984375 
L 18.109375 75.984375 
L 18.109375 46.1875 
Q 21.34375 51.125 25.703125 53.5625 
Q 30.078125 56 35.796875 56 
Q 45.21875 56 50.046875 50.171875 
Q 54.890625 44.34375 54.890625 33.015625 
z
" id="DejaVuSans-104"/>
      </defs>
      <use xlink:href="#DejaVuSans-67"/>
      <use x="69.824219" xlink:href="#DejaVuSans-104"/>
      <use x="133.203125" xlink:href="#DejaVuSans-105"/>
      <use x="160.986328" xlink:href="#DejaVuSans-110"/>
      <use x="224.365234" xlink:href="#DejaVuSans-97"/>
     </g>
    </g>
    <g id="PathCollection_6">
     <g>
      <use style="fill:#ff7f0e;stroke:#ff7f0e;stroke-width:1.5;" x="82.675" xlink:href="#m78262bba59" y="164.634375"/>
     </g>
    </g>
    <g id="text_18">
     <!-- India -->
     <g style="fill:#262626;" transform="translate(100.675 167.259375)scale(0.1 -0.1)">
      <defs>
       <path d="M 9.8125 72.90625 
L 19.671875 72.90625 
L 19.671875 0 
L 9.8125 0 
z
" id="DejaVuSans-73"/>
       <path d="M 45.40625 46.390625 
L 45.40625 75.984375 
L 54.390625 75.984375 
L 54.390625 0 
L 45.40625 0 
L 45.40625 8.203125 
Q 42.578125 3.328125 38.25 0.953125 
Q 33.9375 -1.421875 27.875 -1.421875 
Q 17.96875 -1.421875 11.734375 6.484375 
Q 5.515625 14.40625 5.515625 27.296875 
Q 5.515625 40.1875 11.734375 48.09375 
Q 17.96875 56 27.875 56 
Q 33.9375 56 38.25 53.625 
Q 42.578125 51.265625 45.40625 46.390625 
z
M 14.796875 27.296875 
Q 14.796875 17.390625 18.875 11.75 
Q 22.953125 6.109375 30.078125 6.109375 
Q 37.203125 6.109375 41.296875 11.75 
Q 45.40625 17.390625 45.40625 27.296875 
Q 45.40625 37.203125 41.296875 42.84375 
Q 37.203125 48.484375 30.078125 48.484375 
Q 22.953125 48.484375 18.875 42.84375 
Q 14.796875 37.203125 14.796875 27.296875 
z
" id="DejaVuSans-100"/>
      </defs>
      <use xlink:href="#DejaVuSans-73"/>
      <use x="29.492188" xlink:href="#DejaVuSans-110"/>
      <use x="92.871094" xlink:href="#DejaVuSans-100"/>
      <use x="156.347656" xlink:href="#DejaVuSans-105"/>
      <use x="184.130859" xlink:href="#DejaVuSans-97"/>
     </g>
    </g>
    <g id="PathCollection_7">
     <g>
      <use style="fill:#2ca02c;stroke:#2ca02c;stroke-width:1.5;" x="82.675" xlink:href="#mc272072c24" y="179.3125"/>
     </g>
    </g>
    <g id="text_19">
     <!-- United Kingdom -->
     <g style="fill:#262626;" transform="translate(100.675 181.9375)scale(0.1 -0.1)">
      <defs>
       <path d="M 8.6875 72.90625 
L 18.609375 72.90625 
L 18.609375 28.609375 
Q 18.609375 16.890625 22.84375 11.734375 
Q 27.09375 6.59375 36.625 6.59375 
Q 46.09375 6.59375 50.34375 11.734375 
Q 54.59375 16.890625 54.59375 28.609375 
L 54.59375 72.90625 
L 64.5 72.90625 
L 64.5 27.390625 
Q 64.5 13.140625 57.4375 5.859375 
Q 50.390625 -1.421875 36.625 -1.421875 
Q 22.796875 -1.421875 15.734375 5.859375 
Q 8.6875 13.140625 8.6875 27.390625 
z
" id="DejaVuSans-85"/>
       <path d="M 9.8125 72.90625 
L 19.671875 72.90625 
L 19.671875 42.09375 
L 52.390625 72.90625 
L 65.09375 72.90625 
L 28.90625 38.921875 
L 67.671875 0 
L 54.6875 0 
L 19.671875 35.109375 
L 19.671875 0 
L 9.8125 0 
z
" id="DejaVuSans-75"/>
      </defs>
      <use xlink:href="#DejaVuSans-85"/>
      <use x="73.193359" xlink:href="#DejaVuSans-110"/>
      <use x="136.572266" xlink:href="#DejaVuSans-105"/>
      <use x="164.355469" xlink:href="#DejaVuSans-116"/>
      <use x="203.564453" xlink:href="#DejaVuSans-101"/>
      <use x="265.087891" xlink:href="#DejaVuSans-100"/>
      <use x="328.564453" xlink:href="#DejaVuSans-32"/>
      <use x="360.351562" xlink:href="#DejaVuSans-75"/>
      <use x="425.927734" xlink:href="#DejaVuSans-105"/>
      <use x="453.710938" xlink:href="#DejaVuSans-110"/>
      <use x="517.089844" xlink:href="#DejaVuSans-103"/>
      <use x="580.566406" xlink:href="#DejaVuSans-100"/>
      <use x="644.042969" xlink:href="#DejaVuSans-111"/>
      <use x="705.224609" xlink:href="#DejaVuSans-109"/>
     </g>
    </g>
    <g id="PathCollection_8">
     <g>
      <use style="fill:#d62728;stroke:#d62728;stroke-width:1.5;" x="82.675" xlink:href="#mafdcd821da" y="193.990625"/>
     </g>
    </g>
    <g id="text_20">
     <!-- World -->
     <g style="fill:#262626;" transform="translate(100.675 196.615625)scale(0.1 -0.1)">
      <defs>
       <path d="M 3.328125 72.90625 
L 13.28125 72.90625 
L 28.609375 11.28125 
L 43.890625 72.90625 
L 54.984375 72.90625 
L 70.3125 11.28125 
L 85.59375 72.90625 
L 95.609375 72.90625 
L 77.296875 0 
L 64.890625 0 
L 49.515625 63.28125 
L 33.984375 0 
L 21.578125 0 
z
" id="DejaVuSans-87"/>
       <path d="M 9.421875 75.984375 
L 18.40625 75.984375 
L 18.40625 0 
L 9.421875 0 
z
" id="DejaVuSans-108"/>
      </defs>
      <use xlink:href="#DejaVuSans-87"/>
      <use x="93.001953" xlink:href="#DejaVuSans-111"/>
      <use x="154.183594" xlink:href="#DejaVuSans-114"/>
      <use x="195.296875" xlink:href="#DejaVuSans-108"/>
      <use x="223.080078" xlink:href="#DejaVuSans-100"/>
     </g>
    </g>
   </g>
  </g>
 </g>
 <defs>
  <clipPath id="p61c7a15993">
   <rect height="307.4" width="285.525" x="63.675" y="10.8"/>
  </clipPath>
 </defs>
</svg>
