<?xml version="1.0" encoding="utf-8" standalone="no"?>
<!DOCTYPE svg PUBLIC "-//W3C//DTD SVG 1.1//EN"
  "http://www.w3.org/Graphics/SVG/1.1/DTD/svg11.dtd">
<!-- Created with matplotlib (https://matplotlib.org/) -->
<svg height="288pt" version="1.1" viewBox="0 0 432 288" width="432pt" xmlns="http://www.w3.org/2000/svg" xmlns:xlink="http://www.w3.org/1999/xlink">
 <metadata>
  <rdf:RDF xmlns:cc="http://creativecommons.org/ns#" xmlns:dc="http://purl.org/dc/elements/1.1/" xmlns:rdf="http://www.w3.org/1999/02/22-rdf-syntax-ns#">
   <cc:Work>
    <dc:type rdf:resource="http://purl.org/dc/dcmitype/StillImage"/>
    <dc:date>2021-01-23T02:52:33.423260</dc:date>
    <dc:format>image/svg+xml</dc:format>
    <dc:creator>
     <cc:Agent>
      <dc:title>Matplotlib v3.3.2, https://matplotlib.org/</dc:title>
     </cc:Agent>
    </dc:creator>
   </cc:Work>
  </rdf:RDF>
 </metadata>
 <defs>
  <style type="text/css">*{stroke-linecap:butt;stroke-linejoin:round;}</style>
 </defs>
 <g id="figure_1">
  <g id="patch_1">
   <path d="M 0 288 
L 432 288 
L 432 0 
L 0 0 
z
" style="fill:#ffffff;"/>
  </g>
  <g id="axes_1">
   <g id="patch_2">
    <path d="M 47.8 246.2 
L 421.2 246.2 
L 421.2 10.8 
L 47.8 10.8 
z
" style="fill:#ffffff;"/>
   </g>
   <g id="matplotlib.axis_1">
    <g id="xtick_1">
     <g id="line2d_1">
      <path clip-path="url(#p1774031989)" d="M 102.228269 246.2 
L 102.228269 10.8 
" style="fill:none;stroke:#cccccc;stroke-linecap:round;stroke-width:0.8;"/>
     </g>
     <g id="text_1">
      <!-- 4.5 -->
      <g style="fill:#262626;" transform="translate(94.276706 260.798437)scale(0.1 -0.1)">
       <defs>
        <path d="M 37.796875 64.3125 
L 12.890625 25.390625 
L 37.796875 25.390625 
z
M 35.203125 72.90625 
L 47.609375 72.90625 
L 47.609375 25.390625 
L 58.015625 25.390625 
L 58.015625 17.1875 
L 47.609375 17.1875 
L 47.609375 0 
L 37.796875 0 
L 37.796875 17.1875 
L 4.890625 17.1875 
L 4.890625 26.703125 
z
" id="DejaVuSans-52"/>
        <path d="M 10.6875 12.40625 
L 21 12.40625 
L 21 0 
L 10.6875 0 
z
" id="DejaVuSans-46"/>
        <path d="M 10.796875 72.90625 
L 49.515625 72.90625 
L 49.515625 64.59375 
L 19.828125 64.59375 
L 19.828125 46.734375 
Q 21.96875 47.46875 24.109375 47.828125 
Q 26.265625 48.1875 28.421875 48.1875 
Q 40.625 48.1875 47.75 41.5 
Q 54.890625 34.8125 54.890625 23.390625 
Q 54.890625 11.625 47.5625 5.09375 
Q 40.234375 -1.421875 26.90625 -1.421875 
Q 22.3125 -1.421875 17.546875 -0.640625 
Q 12.796875 0.140625 7.71875 1.703125 
L 7.71875 11.625 
Q 12.109375 9.234375 16.796875 8.0625 
Q 21.484375 6.890625 26.703125 6.890625 
Q 35.15625 6.890625 40.078125 11.328125 
Q 45.015625 15.765625 45.015625 23.390625 
Q 45.015625 31 40.078125 35.4375 
Q 35.15625 39.890625 26.703125 39.890625 
Q 22.75 39.890625 18.8125 39.015625 
Q 14.890625 38.140625 10.796875 36.28125 
z
" id="DejaVuSans-53"/>
       </defs>
       <use xlink:href="#DejaVuSans-52"/>
       <use x="63.623047" xlink:href="#DejaVuSans-46"/>
       <use x="95.410156" xlink:href="#DejaVuSans-53"/>
      </g>
     </g>
    </g>
    <g id="xtick_2">
     <g id="line2d_2">
      <path clip-path="url(#p1774031989)" d="M 162.327652 246.2 
L 162.327652 10.8 
" style="fill:none;stroke:#cccccc;stroke-linecap:round;stroke-width:0.8;"/>
     </g>
     <g id="text_2">
      <!-- 5.0 -->
      <g style="fill:#262626;" transform="translate(154.37609 260.798437)scale(0.1 -0.1)">
       <defs>
        <path d="M 31.78125 66.40625 
Q 24.171875 66.40625 20.328125 58.90625 
Q 16.5 51.421875 16.5 36.375 
Q 16.5 21.390625 20.328125 13.890625 
Q 24.171875 6.390625 31.78125 6.390625 
Q 39.453125 6.390625 43.28125 13.890625 
Q 47.125 21.390625 47.125 36.375 
Q 47.125 51.421875 43.28125 58.90625 
Q 39.453125 66.40625 31.78125 66.40625 
z
M 31.78125 74.21875 
Q 44.046875 74.21875 50.515625 64.515625 
Q 56.984375 54.828125 56.984375 36.375 
Q 56.984375 17.96875 50.515625 8.265625 
Q 44.046875 -1.421875 31.78125 -1.421875 
Q 19.53125 -1.421875 13.0625 8.265625 
Q 6.59375 17.96875 6.59375 36.375 
Q 6.59375 54.828125 13.0625 64.515625 
Q 19.53125 74.21875 31.78125 74.21875 
z
" id="DejaVuSans-48"/>
       </defs>
       <use xlink:href="#DejaVuSans-53"/>
       <use x="63.623047" xlink:href="#DejaVuSans-46"/>
       <use x="95.410156" xlink:href="#DejaVuSans-48"/>
      </g>
     </g>
    </g>
    <g id="xtick_3">
     <g id="line2d_3">
      <path clip-path="url(#p1774031989)" d="M 222.427036 246.2 
L 222.427036 10.8 
" style="fill:none;stroke:#cccccc;stroke-linecap:round;stroke-width:0.8;"/>
     </g>
     <g id="text_3">
      <!-- 5.5 -->
      <g style="fill:#262626;" transform="translate(214.475473 260.798437)scale(0.1 -0.1)">
       <use xlink:href="#DejaVuSans-53"/>
       <use x="63.623047" xlink:href="#DejaVuSans-46"/>
       <use x="95.410156" xlink:href="#DejaVuSans-53"/>
      </g>
     </g>
    </g>
    <g id="xtick_4">
     <g id="line2d_4">
      <path clip-path="url(#p1774031989)" d="M 282.526419 246.2 
L 282.526419 10.8 
" style="fill:none;stroke:#cccccc;stroke-linecap:round;stroke-width:0.8;"/>
     </g>
     <g id="text_4">
      <!-- 6.0 -->
      <g style="fill:#262626;" transform="translate(274.574856 260.798437)scale(0.1 -0.1)">
       <defs>
        <path d="M 33.015625 40.375 
Q 26.375 40.375 22.484375 35.828125 
Q 18.609375 31.296875 18.609375 23.390625 
Q 18.609375 15.53125 22.484375 10.953125 
Q 26.375 6.390625 33.015625 6.390625 
Q 39.65625 6.390625 43.53125 10.953125 
Q 47.40625 15.53125 47.40625 23.390625 
Q 47.40625 31.296875 43.53125 35.828125 
Q 39.65625 40.375 33.015625 40.375 
z
M 52.59375 71.296875 
L 52.59375 62.3125 
Q 48.875 64.0625 45.09375 64.984375 
Q 41.3125 65.921875 37.59375 65.921875 
Q 27.828125 65.921875 22.671875 59.328125 
Q 17.53125 52.734375 16.796875 39.40625 
Q 19.671875 43.65625 24.015625 45.921875 
Q 28.375 48.1875 33.59375 48.1875 
Q 44.578125 48.1875 50.953125 41.515625 
Q 57.328125 34.859375 57.328125 23.390625 
Q 57.328125 12.15625 50.6875 5.359375 
Q 44.046875 -1.421875 33.015625 -1.421875 
Q 20.359375 -1.421875 13.671875 8.265625 
Q 6.984375 17.96875 6.984375 36.375 
Q 6.984375 53.65625 15.1875 63.9375 
Q 23.390625 74.21875 37.203125 74.21875 
Q 40.921875 74.21875 44.703125 73.484375 
Q 48.484375 72.75 52.59375 71.296875 
z
" id="DejaVuSans-54"/>
       </defs>
       <use xlink:href="#DejaVuSans-54"/>
       <use x="63.623047" xlink:href="#DejaVuSans-46"/>
       <use x="95.410156" xlink:href="#DejaVuSans-48"/>
      </g>
     </g>
    </g>
    <g id="xtick_5">
     <g id="line2d_5">
      <path clip-path="url(#p1774031989)" d="M 342.625802 246.2 
L 342.625802 10.8 
" style="fill:none;stroke:#cccccc;stroke-linecap:round;stroke-width:0.8;"/>
     </g>
     <g id="text_5">
      <!-- 6.5 -->
      <g style="fill:#262626;" transform="translate(334.67424 260.798437)scale(0.1 -0.1)">
       <use xlink:href="#DejaVuSans-54"/>
       <use x="63.623047" xlink:href="#DejaVuSans-46"/>
       <use x="95.410156" xlink:href="#DejaVuSans-53"/>
      </g>
     </g>
    </g>
    <g id="xtick_6">
     <g id="line2d_6">
      <path clip-path="url(#p1774031989)" d="M 402.725186 246.2 
L 402.725186 10.8 
" style="fill:none;stroke:#cccccc;stroke-linecap:round;stroke-width:0.8;"/>
     </g>
     <g id="text_6">
      <!-- 7.0 -->
      <g style="fill:#262626;" transform="translate(394.773623 260.798437)scale(0.1 -0.1)">
       <defs>
        <path d="M 8.203125 72.90625 
L 55.078125 72.90625 
L 55.078125 68.703125 
L 28.609375 0 
L 18.3125 0 
L 43.21875 64.59375 
L 8.203125 64.59375 
z
" id="DejaVuSans-55"/>
       </defs>
       <use xlink:href="#DejaVuSans-55"/>
       <use x="63.623047" xlink:href="#DejaVuSans-46"/>
       <use x="95.410156" xlink:href="#DejaVuSans-48"/>
      </g>
     </g>
    </g>
    <g id="text_7">
     <!-- log10(CO2 emissions (kt)) -->
     <g style="fill:#262626;" transform="translate(169.302344 274.476562)scale(0.1 -0.1)">
      <defs>
       <path d="M 9.421875 75.984375 
L 18.40625 75.984375 
L 18.40625 0 
L 9.421875 0 
z
" id="DejaVuSans-108"/>
       <path d="M 30.609375 48.390625 
Q 23.390625 48.390625 19.1875 42.75 
Q 14.984375 37.109375 14.984375 27.296875 
Q 14.984375 17.484375 19.15625 11.84375 
Q 23.34375 6.203125 30.609375 6.203125 
Q 37.796875 6.203125 41.984375 11.859375 
Q 46.1875 17.53125 46.1875 27.296875 
Q 46.1875 37.015625 41.984375 42.703125 
Q 37.796875 48.390625 30.609375 48.390625 
z
M 30.609375 56 
Q 42.328125 56 49.015625 48.375 
Q 55.71875 40.765625 55.71875 27.296875 
Q 55.71875 13.875 49.015625 6.21875 
Q 42.328125 -1.421875 30.609375 -1.421875 
Q 18.84375 -1.421875 12.171875 6.21875 
Q 5.515625 13.875 5.515625 27.296875 
Q 5.515625 40.765625 12.171875 48.375 
Q 18.84375 56 30.609375 56 
z
" id="DejaVuSans-111"/>
       <path d="M 45.40625 27.984375 
Q 45.40625 37.75 41.375 43.109375 
Q 37.359375 48.484375 30.078125 48.484375 
Q 22.859375 48.484375 18.828125 43.109375 
Q 14.796875 37.75 14.796875 27.984375 
Q 14.796875 18.265625 18.828125 12.890625 
Q 22.859375 7.515625 30.078125 7.515625 
Q 37.359375 7.515625 41.375 12.890625 
Q 45.40625 18.265625 45.40625 27.984375 
z
M 54.390625 6.78125 
Q 54.390625 -7.171875 48.1875 -13.984375 
Q 42 -20.796875 29.203125 -20.796875 
Q 24.46875 -20.796875 20.265625 -20.09375 
Q 16.0625 -19.390625 12.109375 -17.921875 
L 12.109375 -9.1875 
Q 16.0625 -11.328125 19.921875 -12.34375 
Q 23.78125 -13.375 27.78125 -13.375 
Q 36.625 -13.375 41.015625 -8.765625 
Q 45.40625 -4.15625 45.40625 5.171875 
L 45.40625 9.625 
Q 42.625 4.78125 38.28125 2.390625 
Q 33.9375 0 27.875 0 
Q 17.828125 0 11.671875 7.65625 
Q 5.515625 15.328125 5.515625 27.984375 
Q 5.515625 40.671875 11.671875 48.328125 
Q 17.828125 56 27.875 56 
Q 33.9375 56 38.28125 53.609375 
Q 42.625 51.21875 45.40625 46.390625 
L 45.40625 54.6875 
L 54.390625 54.6875 
z
" id="DejaVuSans-103"/>
       <path d="M 12.40625 8.296875 
L 28.515625 8.296875 
L 28.515625 63.921875 
L 10.984375 60.40625 
L 10.984375 69.390625 
L 28.421875 72.90625 
L 38.28125 72.90625 
L 38.28125 8.296875 
L 54.390625 8.296875 
L 54.390625 0 
L 12.40625 0 
z
" id="DejaVuSans-49"/>
       <path d="M 31 75.875 
Q 24.46875 64.65625 21.28125 53.65625 
Q 18.109375 42.671875 18.109375 31.390625 
Q 18.109375 20.125 21.3125 9.0625 
Q 24.515625 -2 31 -13.1875 
L 23.1875 -13.1875 
Q 15.875 -1.703125 12.234375 9.375 
Q 8.59375 20.453125 8.59375 31.390625 
Q 8.59375 42.28125 12.203125 53.3125 
Q 15.828125 64.359375 23.1875 75.875 
z
" id="DejaVuSans-40"/>
       <path d="M 64.40625 67.28125 
L 64.40625 56.890625 
Q 59.421875 61.53125 53.78125 63.8125 
Q 48.140625 66.109375 41.796875 66.109375 
Q 29.296875 66.109375 22.65625 58.46875 
Q 16.015625 50.828125 16.015625 36.375 
Q 16.015625 21.96875 22.65625 14.328125 
Q 29.296875 6.6875 41.796875 6.6875 
Q 48.140625 6.6875 53.78125 8.984375 
Q 59.421875 11.28125 64.40625 15.921875 
L 64.40625 5.609375 
Q 59.234375 2.09375 53.4375 0.328125 
Q 47.65625 -1.421875 41.21875 -1.421875 
Q 24.65625 -1.421875 15.125 8.703125 
Q 5.609375 18.84375 5.609375 36.375 
Q 5.609375 53.953125 15.125 64.078125 
Q 24.65625 74.21875 41.21875 74.21875 
Q 47.75 74.21875 53.53125 72.484375 
Q 59.328125 70.75 64.40625 67.28125 
z
" id="DejaVuSans-67"/>
       <path d="M 39.40625 66.21875 
Q 28.65625 66.21875 22.328125 58.203125 
Q 16.015625 50.203125 16.015625 36.375 
Q 16.015625 22.609375 22.328125 14.59375 
Q 28.65625 6.59375 39.40625 6.59375 
Q 50.140625 6.59375 56.421875 14.59375 
Q 62.703125 22.609375 62.703125 36.375 
Q 62.703125 50.203125 56.421875 58.203125 
Q 50.140625 66.21875 39.40625 66.21875 
z
M 39.40625 74.21875 
Q 54.734375 74.21875 63.90625 63.9375 
Q 73.09375 53.65625 73.09375 36.375 
Q 73.09375 19.140625 63.90625 8.859375 
Q 54.734375 -1.421875 39.40625 -1.421875 
Q 24.03125 -1.421875 14.8125 8.828125 
Q 5.609375 19.09375 5.609375 36.375 
Q 5.609375 53.65625 14.8125 63.9375 
Q 24.03125 74.21875 39.40625 74.21875 
z
" id="DejaVuSans-79"/>
       <path d="M 19.1875 8.296875 
L 53.609375 8.296875 
L 53.609375 0 
L 7.328125 0 
L 7.328125 8.296875 
Q 12.9375 14.109375 22.625 23.890625 
Q 32.328125 33.6875 34.8125 36.53125 
Q 39.546875 41.84375 41.421875 45.53125 
Q 43.3125 49.21875 43.3125 52.78125 
Q 43.3125 58.59375 39.234375 62.25 
Q 35.15625 65.921875 28.609375 65.921875 
Q 23.96875 65.921875 18.8125 64.3125 
Q 13.671875 62.703125 7.8125 59.421875 
L 7.8125 69.390625 
Q 13.765625 71.78125 18.9375 73 
Q 24.125 74.21875 28.421875 74.21875 
Q 39.75 74.21875 46.484375 68.546875 
Q 53.21875 62.890625 53.21875 53.421875 
Q 53.21875 48.921875 51.53125 44.890625 
Q 49.859375 40.875 45.40625 35.40625 
Q 44.1875 33.984375 37.640625 27.21875 
Q 31.109375 20.453125 19.1875 8.296875 
z
" id="DejaVuSans-50"/>
       <path id="DejaVuSans-32"/>
       <path d="M 56.203125 29.59375 
L 56.203125 25.203125 
L 14.890625 25.203125 
Q 15.484375 15.921875 20.484375 11.0625 
Q 25.484375 6.203125 34.421875 6.203125 
Q 39.59375 6.203125 44.453125 7.46875 
Q 49.3125 8.734375 54.109375 11.28125 
L 54.109375 2.78125 
Q 49.265625 0.734375 44.1875 -0.34375 
Q 39.109375 -1.421875 33.890625 -1.421875 
Q 20.796875 -1.421875 13.15625 6.1875 
Q 5.515625 13.8125 5.515625 26.8125 
Q 5.515625 40.234375 12.765625 48.109375 
Q 20.015625 56 32.328125 56 
Q 43.359375 56 49.78125 48.890625 
Q 56.203125 41.796875 56.203125 29.59375 
z
M 47.21875 32.234375 
Q 47.125 39.59375 43.09375 43.984375 
Q 39.0625 48.390625 32.421875 48.390625 
Q 24.90625 48.390625 20.390625 44.140625 
Q 15.875 39.890625 15.1875 32.171875 
z
" id="DejaVuSans-101"/>
       <path d="M 52 44.1875 
Q 55.375 50.25 60.0625 53.125 
Q 64.75 56 71.09375 56 
Q 79.640625 56 84.28125 50.015625 
Q 88.921875 44.046875 88.921875 33.015625 
L 88.921875 0 
L 79.890625 0 
L 79.890625 32.71875 
Q 79.890625 40.578125 77.09375 44.375 
Q 74.3125 48.1875 68.609375 48.1875 
Q 61.625 48.1875 57.5625 43.546875 
Q 53.515625 38.921875 53.515625 30.90625 
L 53.515625 0 
L 44.484375 0 
L 44.484375 32.71875 
Q 44.484375 40.625 41.703125 44.40625 
Q 38.921875 48.1875 33.109375 48.1875 
Q 26.21875 48.1875 22.15625 43.53125 
Q 18.109375 38.875 18.109375 30.90625 
L 18.109375 0 
L 9.078125 0 
L 9.078125 54.6875 
L 18.109375 54.6875 
L 18.109375 46.1875 
Q 21.1875 51.21875 25.484375 53.609375 
Q 29.78125 56 35.6875 56 
Q 41.65625 56 45.828125 52.96875 
Q 50 49.953125 52 44.1875 
z
" id="DejaVuSans-109"/>
       <path d="M 9.421875 54.6875 
L 18.40625 54.6875 
L 18.40625 0 
L 9.421875 0 
z
M 9.421875 75.984375 
L 18.40625 75.984375 
L 18.40625 64.59375 
L 9.421875 64.59375 
z
" id="DejaVuSans-105"/>
       <path d="M 44.28125 53.078125 
L 44.28125 44.578125 
Q 40.484375 46.53125 36.375 47.5 
Q 32.28125 48.484375 27.875 48.484375 
Q 21.1875 48.484375 17.84375 46.4375 
Q 14.5 44.390625 14.5 40.28125 
Q 14.5 37.15625 16.890625 35.375 
Q 19.28125 33.59375 26.515625 31.984375 
L 29.59375 31.296875 
Q 39.15625 29.25 43.1875 25.515625 
Q 47.21875 21.78125 47.21875 15.09375 
Q 47.21875 7.46875 41.1875 3.015625 
Q 35.15625 -1.421875 24.609375 -1.421875 
Q 20.21875 -1.421875 15.453125 -0.5625 
Q 10.6875 0.296875 5.421875 2 
L 5.421875 11.28125 
Q 10.40625 8.6875 15.234375 7.390625 
Q 20.0625 6.109375 24.8125 6.109375 
Q 31.15625 6.109375 34.5625 8.28125 
Q 37.984375 10.453125 37.984375 14.40625 
Q 37.984375 18.0625 35.515625 20.015625 
Q 33.0625 21.96875 24.703125 23.78125 
L 21.578125 24.515625 
Q 13.234375 26.265625 9.515625 29.90625 
Q 5.8125 33.546875 5.8125 39.890625 
Q 5.8125 47.609375 11.28125 51.796875 
Q 16.75 56 26.8125 56 
Q 31.78125 56 36.171875 55.265625 
Q 40.578125 54.546875 44.28125 53.078125 
z
" id="DejaVuSans-115"/>
       <path d="M 54.890625 33.015625 
L 54.890625 0 
L 45.90625 0 
L 45.90625 32.71875 
Q 45.90625 40.484375 42.875 44.328125 
Q 39.84375 48.1875 33.796875 48.1875 
Q 26.515625 48.1875 22.3125 43.546875 
Q 18.109375 38.921875 18.109375 30.90625 
L 18.109375 0 
L 9.078125 0 
L 9.078125 54.6875 
L 18.109375 54.6875 
L 18.109375 46.1875 
Q 21.34375 51.125 25.703125 53.5625 
Q 30.078125 56 35.796875 56 
Q 45.21875 56 50.046875 50.171875 
Q 54.890625 44.34375 54.890625 33.015625 
z
" id="DejaVuSans-110"/>
       <path d="M 9.078125 75.984375 
L 18.109375 75.984375 
L 18.109375 31.109375 
L 44.921875 54.6875 
L 56.390625 54.6875 
L 27.390625 29.109375 
L 57.625 0 
L 45.90625 0 
L 18.109375 26.703125 
L 18.109375 0 
L 9.078125 0 
z
" id="DejaVuSans-107"/>
       <path d="M 18.3125 70.21875 
L 18.3125 54.6875 
L 36.8125 54.6875 
L 36.8125 47.703125 
L 18.3125 47.703125 
L 18.3125 18.015625 
Q 18.3125 11.328125 20.140625 9.421875 
Q 21.96875 7.515625 27.59375 7.515625 
L 36.8125 7.515625 
L 36.8125 0 
L 27.59375 0 
Q 17.1875 0 13.234375 3.875 
Q 9.28125 7.765625 9.28125 18.015625 
L 9.28125 47.703125 
L 2.6875 47.703125 
L 2.6875 54.6875 
L 9.28125 54.6875 
L 9.28125 70.21875 
z
" id="DejaVuSans-116"/>
       <path d="M 8.015625 75.875 
L 15.828125 75.875 
Q 23.140625 64.359375 26.78125 53.3125 
Q 30.421875 42.28125 30.421875 31.390625 
Q 30.421875 20.453125 26.78125 9.375 
Q 23.140625 -1.703125 15.828125 -13.1875 
L 8.015625 -13.1875 
Q 14.5 -2 17.703125 9.0625 
Q 20.90625 20.125 20.90625 31.390625 
Q 20.90625 42.671875 17.703125 53.65625 
Q 14.5 64.65625 8.015625 75.875 
z
" id="DejaVuSans-41"/>
      </defs>
      <use xlink:href="#DejaVuSans-108"/>
      <use x="27.783203" xlink:href="#DejaVuSans-111"/>
      <use x="88.964844" xlink:href="#DejaVuSans-103"/>
      <use x="152.441406" xlink:href="#DejaVuSans-49"/>
      <use x="216.064453" xlink:href="#DejaVuSans-48"/>
      <use x="279.6875" xlink:href="#DejaVuSans-40"/>
      <use x="318.701172" xlink:href="#DejaVuSans-67"/>
      <use x="388.525391" xlink:href="#DejaVuSans-79"/>
      <use x="467.236328" xlink:href="#DejaVuSans-50"/>
      <use x="530.859375" xlink:href="#DejaVuSans-32"/>
      <use x="562.646484" xlink:href="#DejaVuSans-101"/>
      <use x="624.169922" xlink:href="#DejaVuSans-109"/>
      <use x="721.582031" xlink:href="#DejaVuSans-105"/>
      <use x="749.365234" xlink:href="#DejaVuSans-115"/>
      <use x="801.464844" xlink:href="#DejaVuSans-115"/>
      <use x="853.564453" xlink:href="#DejaVuSans-105"/>
      <use x="881.347656" xlink:href="#DejaVuSans-111"/>
      <use x="942.529297" xlink:href="#DejaVuSans-110"/>
      <use x="1005.908203" xlink:href="#DejaVuSans-115"/>
      <use x="1058.007812" xlink:href="#DejaVuSans-32"/>
      <use x="1089.794922" xlink:href="#DejaVuSans-40"/>
      <use x="1128.808594" xlink:href="#DejaVuSans-107"/>
      <use x="1186.71875" xlink:href="#DejaVuSans-116"/>
      <use x="1225.927734" xlink:href="#DejaVuSans-41"/>
      <use x="1264.941406" xlink:href="#DejaVuSans-41"/>
     </g>
    </g>
   </g>
   <g id="matplotlib.axis_2">
    <g id="ytick_1">
     <g id="line2d_7">
      <path clip-path="url(#p1774031989)" d="M 47.8 244.047264 
L 421.2 244.047264 
" style="fill:none;stroke:#cccccc;stroke-linecap:round;stroke-width:0.8;"/>
     </g>
     <g id="text_8">
      <!-- 1.0 -->
      <g style="fill:#262626;" transform="translate(24.896875 247.846482)scale(0.1 -0.1)">
       <use xlink:href="#DejaVuSans-49"/>
       <use x="63.623047" xlink:href="#DejaVuSans-46"/>
       <use x="95.410156" xlink:href="#DejaVuSans-48"/>
      </g>
     </g>
    </g>
    <g id="ytick_2">
     <g id="line2d_8">
      <path clip-path="url(#p1774031989)" d="M 47.8 204.474923 
L 421.2 204.474923 
" style="fill:none;stroke:#cccccc;stroke-linecap:round;stroke-width:0.8;"/>
     </g>
     <g id="text_9">
      <!-- 1.5 -->
      <g style="fill:#262626;" transform="translate(24.896875 208.274141)scale(0.1 -0.1)">
       <use xlink:href="#DejaVuSans-49"/>
       <use x="63.623047" xlink:href="#DejaVuSans-46"/>
       <use x="95.410156" xlink:href="#DejaVuSans-53"/>
      </g>
     </g>
    </g>
    <g id="ytick_3">
     <g id="line2d_9">
      <path clip-path="url(#p1774031989)" d="M 47.8 164.902582 
L 421.2 164.902582 
" style="fill:none;stroke:#cccccc;stroke-linecap:round;stroke-width:0.8;"/>
     </g>
     <g id="text_10">
      <!-- 2.0 -->
      <g style="fill:#262626;" transform="translate(24.896875 168.701801)scale(0.1 -0.1)">
       <use xlink:href="#DejaVuSans-50"/>
       <use x="63.623047" xlink:href="#DejaVuSans-46"/>
       <use x="95.410156" xlink:href="#DejaVuSans-48"/>
      </g>
     </g>
    </g>
    <g id="ytick_4">
     <g id="line2d_10">
      <path clip-path="url(#p1774031989)" d="M 47.8 125.330241 
L 421.2 125.330241 
" style="fill:none;stroke:#cccccc;stroke-linecap:round;stroke-width:0.8;"/>
     </g>
     <g id="text_11">
      <!-- 2.5 -->
      <g style="fill:#262626;" transform="translate(24.896875 129.12946)scale(0.1 -0.1)">
       <use xlink:href="#DejaVuSans-50"/>
       <use x="63.623047" xlink:href="#DejaVuSans-46"/>
       <use x="95.410156" xlink:href="#DejaVuSans-53"/>
      </g>
     </g>
    </g>
    <g id="ytick_5">
     <g id="line2d_11">
      <path clip-path="url(#p1774031989)" d="M 47.8 85.7579 
L 421.2 85.7579 
" style="fill:none;stroke:#cccccc;stroke-linecap:round;stroke-width:0.8;"/>
     </g>
     <g id="text_12">
      <!-- 3.0 -->
      <g style="fill:#262626;" transform="translate(24.896875 89.557119)scale(0.1 -0.1)">
       <defs>
        <path d="M 40.578125 39.3125 
Q 47.65625 37.796875 51.625 33 
Q 55.609375 28.21875 55.609375 21.1875 
Q 55.609375 10.40625 48.1875 4.484375 
Q 40.765625 -1.421875 27.09375 -1.421875 
Q 22.515625 -1.421875 17.65625 -0.515625 
Q 12.796875 0.390625 7.625 2.203125 
L 7.625 11.71875 
Q 11.71875 9.328125 16.59375 8.109375 
Q 21.484375 6.890625 26.8125 6.890625 
Q 36.078125 6.890625 40.9375 10.546875 
Q 45.796875 14.203125 45.796875 21.1875 
Q 45.796875 27.640625 41.28125 31.265625 
Q 36.765625 34.90625 28.71875 34.90625 
L 20.21875 34.90625 
L 20.21875 43.015625 
L 29.109375 43.015625 
Q 36.375 43.015625 40.234375 45.921875 
Q 44.09375 48.828125 44.09375 54.296875 
Q 44.09375 59.90625 40.109375 62.90625 
Q 36.140625 65.921875 28.71875 65.921875 
Q 24.65625 65.921875 20.015625 65.03125 
Q 15.375 64.15625 9.8125 62.3125 
L 9.8125 71.09375 
Q 15.4375 72.65625 20.34375 73.4375 
Q 25.25 74.21875 29.59375 74.21875 
Q 40.828125 74.21875 47.359375 69.109375 
Q 53.90625 64.015625 53.90625 55.328125 
Q 53.90625 49.265625 50.4375 45.09375 
Q 46.96875 40.921875 40.578125 39.3125 
z
" id="DejaVuSans-51"/>
       </defs>
       <use xlink:href="#DejaVuSans-51"/>
       <use x="63.623047" xlink:href="#DejaVuSans-46"/>
       <use x="95.410156" xlink:href="#DejaVuSans-48"/>
      </g>
     </g>
    </g>
    <g id="ytick_6">
     <g id="line2d_12">
      <path clip-path="url(#p1774031989)" d="M 47.8 46.185559 
L 421.2 46.185559 
" style="fill:none;stroke:#cccccc;stroke-linecap:round;stroke-width:0.8;"/>
     </g>
     <g id="text_13">
      <!-- 3.5 -->
      <g style="fill:#262626;" transform="translate(24.896875 49.984778)scale(0.1 -0.1)">
       <use xlink:href="#DejaVuSans-51"/>
       <use x="63.623047" xlink:href="#DejaVuSans-46"/>
       <use x="95.410156" xlink:href="#DejaVuSans-53"/>
      </g>
     </g>
    </g>
    <g id="text_14">
     <!-- log10(Electric power consumption (kWh per capita)) -->
     <g style="fill:#262626;" transform="translate(18.817187 259.303906)rotate(-90)scale(0.1 -0.1)">
      <defs>
       <path d="M 9.8125 72.90625 
L 55.90625 72.90625 
L 55.90625 64.59375 
L 19.671875 64.59375 
L 19.671875 43.015625 
L 54.390625 43.015625 
L 54.390625 34.71875 
L 19.671875 34.71875 
L 19.671875 8.296875 
L 56.78125 8.296875 
L 56.78125 0 
L 9.8125 0 
z
" id="DejaVuSans-69"/>
       <path d="M 48.78125 52.59375 
L 48.78125 44.1875 
Q 44.96875 46.296875 41.140625 47.34375 
Q 37.3125 48.390625 33.40625 48.390625 
Q 24.65625 48.390625 19.8125 42.84375 
Q 14.984375 37.3125 14.984375 27.296875 
Q 14.984375 17.28125 19.8125 11.734375 
Q 24.65625 6.203125 33.40625 6.203125 
Q 37.3125 6.203125 41.140625 7.25 
Q 44.96875 8.296875 48.78125 10.40625 
L 48.78125 2.09375 
Q 45.015625 0.34375 40.984375 -0.53125 
Q 36.96875 -1.421875 32.421875 -1.421875 
Q 20.0625 -1.421875 12.78125 6.34375 
Q 5.515625 14.109375 5.515625 27.296875 
Q 5.515625 40.671875 12.859375 48.328125 
Q 20.21875 56 33.015625 56 
Q 37.15625 56 41.109375 55.140625 
Q 45.0625 54.296875 48.78125 52.59375 
z
" id="DejaVuSans-99"/>
       <path d="M 41.109375 46.296875 
Q 39.59375 47.171875 37.8125 47.578125 
Q 36.03125 48 33.890625 48 
Q 26.265625 48 22.1875 43.046875 
Q 18.109375 38.09375 18.109375 28.8125 
L 18.109375 0 
L 9.078125 0 
L 9.078125 54.6875 
L 18.109375 54.6875 
L 18.109375 46.1875 
Q 20.953125 51.171875 25.484375 53.578125 
Q 30.03125 56 36.53125 56 
Q 37.453125 56 38.578125 55.875 
Q 39.703125 55.765625 41.0625 55.515625 
z
" id="DejaVuSans-114"/>
       <path d="M 18.109375 8.203125 
L 18.109375 -20.796875 
L 9.078125 -20.796875 
L 9.078125 54.6875 
L 18.109375 54.6875 
L 18.109375 46.390625 
Q 20.953125 51.265625 25.265625 53.625 
Q 29.59375 56 35.59375 56 
Q 45.5625 56 51.78125 48.09375 
Q 58.015625 40.1875 58.015625 27.296875 
Q 58.015625 14.40625 51.78125 6.484375 
Q 45.5625 -1.421875 35.59375 -1.421875 
Q 29.59375 -1.421875 25.265625 0.953125 
Q 20.953125 3.328125 18.109375 8.203125 
z
M 48.6875 27.296875 
Q 48.6875 37.203125 44.609375 42.84375 
Q 40.53125 48.484375 33.40625 48.484375 
Q 26.265625 48.484375 22.1875 42.84375 
Q 18.109375 37.203125 18.109375 27.296875 
Q 18.109375 17.390625 22.1875 11.75 
Q 26.265625 6.109375 33.40625 6.109375 
Q 40.53125 6.109375 44.609375 11.75 
Q 48.6875 17.390625 48.6875 27.296875 
z
" id="DejaVuSans-112"/>
       <path d="M 4.203125 54.6875 
L 13.1875 54.6875 
L 24.421875 12.015625 
L 35.59375 54.6875 
L 46.1875 54.6875 
L 57.421875 12.015625 
L 68.609375 54.6875 
L 77.59375 54.6875 
L 63.28125 0 
L 52.6875 0 
L 40.921875 44.828125 
L 29.109375 0 
L 18.5 0 
z
" id="DejaVuSans-119"/>
       <path d="M 8.5 21.578125 
L 8.5 54.6875 
L 17.484375 54.6875 
L 17.484375 21.921875 
Q 17.484375 14.15625 20.5 10.265625 
Q 23.53125 6.390625 29.59375 6.390625 
Q 36.859375 6.390625 41.078125 11.03125 
Q 45.3125 15.671875 45.3125 23.6875 
L 45.3125 54.6875 
L 54.296875 54.6875 
L 54.296875 0 
L 45.3125 0 
L 45.3125 8.40625 
Q 42.046875 3.421875 37.71875 1 
Q 33.40625 -1.421875 27.6875 -1.421875 
Q 18.265625 -1.421875 13.375 4.4375 
Q 8.5 10.296875 8.5 21.578125 
z
M 31.109375 56 
z
" id="DejaVuSans-117"/>
       <path d="M 3.328125 72.90625 
L 13.28125 72.90625 
L 28.609375 11.28125 
L 43.890625 72.90625 
L 54.984375 72.90625 
L 70.3125 11.28125 
L 85.59375 72.90625 
L 95.609375 72.90625 
L 77.296875 0 
L 64.890625 0 
L 49.515625 63.28125 
L 33.984375 0 
L 21.578125 0 
z
" id="DejaVuSans-87"/>
       <path d="M 54.890625 33.015625 
L 54.890625 0 
L 45.90625 0 
L 45.90625 32.71875 
Q 45.90625 40.484375 42.875 44.328125 
Q 39.84375 48.1875 33.796875 48.1875 
Q 26.515625 48.1875 22.3125 43.546875 
Q 18.109375 38.921875 18.109375 30.90625 
L 18.109375 0 
L 9.078125 0 
L 9.078125 75.984375 
L 18.109375 75.984375 
L 18.109375 46.1875 
Q 21.34375 51.125 25.703125 53.5625 
Q 30.078125 56 35.796875 56 
Q 45.21875 56 50.046875 50.171875 
Q 54.890625 44.34375 54.890625 33.015625 
z
" id="DejaVuSans-104"/>
       <path d="M 34.28125 27.484375 
Q 23.390625 27.484375 19.1875 25 
Q 14.984375 22.515625 14.984375 16.5 
Q 14.984375 11.71875 18.140625 8.90625 
Q 21.296875 6.109375 26.703125 6.109375 
Q 34.1875 6.109375 38.703125 11.40625 
Q 43.21875 16.703125 43.21875 25.484375 
L 43.21875 27.484375 
z
M 52.203125 31.203125 
L 52.203125 0 
L 43.21875 0 
L 43.21875 8.296875 
Q 40.140625 3.328125 35.546875 0.953125 
Q 30.953125 -1.421875 24.3125 -1.421875 
Q 15.921875 -1.421875 10.953125 3.296875 
Q 6 8.015625 6 15.921875 
Q 6 25.140625 12.171875 29.828125 
Q 18.359375 34.515625 30.609375 34.515625 
L 43.21875 34.515625 
L 43.21875 35.40625 
Q 43.21875 41.609375 39.140625 45 
Q 35.0625 48.390625 27.6875 48.390625 
Q 23 48.390625 18.546875 47.265625 
Q 14.109375 46.140625 10.015625 43.890625 
L 10.015625 52.203125 
Q 14.9375 54.109375 19.578125 55.046875 
Q 24.21875 56 28.609375 56 
Q 40.484375 56 46.34375 49.84375 
Q 52.203125 43.703125 52.203125 31.203125 
z
" id="DejaVuSans-97"/>
      </defs>
      <use xlink:href="#DejaVuSans-108"/>
      <use x="27.783203" xlink:href="#DejaVuSans-111"/>
      <use x="88.964844" xlink:href="#DejaVuSans-103"/>
      <use x="152.441406" xlink:href="#DejaVuSans-49"/>
      <use x="216.064453" xlink:href="#DejaVuSans-48"/>
      <use x="279.6875" xlink:href="#DejaVuSans-40"/>
      <use x="318.701172" xlink:href="#DejaVuSans-69"/>
      <use x="381.884766" xlink:href="#DejaVuSans-108"/>
      <use x="409.667969" xlink:href="#DejaVuSans-101"/>
      <use x="471.191406" xlink:href="#DejaVuSans-99"/>
      <use x="526.171875" xlink:href="#DejaVuSans-116"/>
      <use x="565.380859" xlink:href="#DejaVuSans-114"/>
      <use x="606.494141" xlink:href="#DejaVuSans-105"/>
      <use x="634.277344" xlink:href="#DejaVuSans-99"/>
      <use x="689.257812" xlink:href="#DejaVuSans-32"/>
      <use x="721.044922" xlink:href="#DejaVuSans-112"/>
      <use x="784.521484" xlink:href="#DejaVuSans-111"/>
      <use x="845.703125" xlink:href="#DejaVuSans-119"/>
      <use x="927.490234" xlink:href="#DejaVuSans-101"/>
      <use x="989.013672" xlink:href="#DejaVuSans-114"/>
      <use x="1030.126953" xlink:href="#DejaVuSans-32"/>
      <use x="1061.914062" xlink:href="#DejaVuSans-99"/>
      <use x="1116.894531" xlink:href="#DejaVuSans-111"/>
      <use x="1178.076172" xlink:href="#DejaVuSans-110"/>
      <use x="1241.455078" xlink:href="#DejaVuSans-115"/>
      <use x="1293.554688" xlink:href="#DejaVuSans-117"/>
      <use x="1356.933594" xlink:href="#DejaVuSans-109"/>
      <use x="1454.345703" xlink:href="#DejaVuSans-112"/>
      <use x="1517.822266" xlink:href="#DejaVuSans-116"/>
      <use x="1557.03125" xlink:href="#DejaVuSans-105"/>
      <use x="1584.814453" xlink:href="#DejaVuSans-111"/>
      <use x="1645.996094" xlink:href="#DejaVuSans-110"/>
      <use x="1709.375" xlink:href="#DejaVuSans-32"/>
      <use x="1741.162109" xlink:href="#DejaVuSans-40"/>
      <use x="1780.175781" xlink:href="#DejaVuSans-107"/>
      <use x="1838.085938" xlink:href="#DejaVuSans-87"/>
      <use x="1936.962891" xlink:href="#DejaVuSans-104"/>
      <use x="2000.341797" xlink:href="#DejaVuSans-32"/>
      <use x="2032.128906" xlink:href="#DejaVuSans-112"/>
      <use x="2095.605469" xlink:href="#DejaVuSans-101"/>
      <use x="2157.128906" xlink:href="#DejaVuSans-114"/>
      <use x="2198.242188" xlink:href="#DejaVuSans-32"/>
      <use x="2230.029297" xlink:href="#DejaVuSans-99"/>
      <use x="2285.009766" xlink:href="#DejaVuSans-97"/>
      <use x="2346.289062" xlink:href="#DejaVuSans-112"/>
      <use x="2409.765625" xlink:href="#DejaVuSans-105"/>
      <use x="2437.548828" xlink:href="#DejaVuSans-116"/>
      <use x="2476.757812" xlink:href="#DejaVuSans-97"/>
      <use x="2538.037109" xlink:href="#DejaVuSans-41"/>
      <use x="2577.050781" xlink:href="#DejaVuSans-41"/>
     </g>
    </g>
   </g>
   <g id="PathCollection_1">
    <defs>
     <path d="M 0 1.5 
C 0.397805 1.5 0.77937 1.341951 1.06066 1.06066 
C 1.341951 0.77937 1.5 0.397805 1.5 0 
C 1.5 -0.397805 1.341951 -0.77937 1.06066 -1.06066 
C 0.77937 -1.341951 0.397805 -1.5 0 -1.5 
C -0.397805 -1.5 -0.77937 -1.341951 -1.06066 -1.06066 
C -1.341951 -0.77937 -1.5 -0.397805 -1.5 0 
C -1.5 0.397805 -1.341951 0.77937 -1.06066 1.06066 
C -0.77937 1.341951 -0.397805 1.5 0 1.5 
z
" id="m3e7afe297c" style="stroke:#1f77b4;"/>
    </defs>
    <g clip-path="url(#p1774031989)">
     <use style="fill:#1f77b4;stroke:#1f77b4;" x="200.02091" xlink:href="#m3e7afe297c" y="165.676799"/>
     <use style="fill:#1f77b4;stroke:#1f77b4;" x="202.973567" xlink:href="#m3e7afe297c" y="164.797881"/>
     <use style="fill:#1f77b4;stroke:#1f77b4;" x="204.506996" xlink:href="#m3e7afe297c" y="164.685981"/>
     <use style="fill:#1f77b4;stroke:#1f77b4;" x="206.257227" xlink:href="#m3e7afe297c" y="163.556911"/>
     <use style="fill:#1f77b4;stroke:#1f77b4;" x="210.617245" xlink:href="#m3e7afe297c" y="160.230755"/>
     <use style="fill:#1f77b4;stroke:#1f77b4;" x="212.961522" xlink:href="#m3e7afe297c" y="157.474483"/>
     <use style="fill:#1f77b4;stroke:#1f77b4;" x="215.898338" xlink:href="#m3e7afe297c" y="156.888823"/>
     <use style="fill:#1f77b4;stroke:#1f77b4;" x="216.649542" xlink:href="#m3e7afe297c" y="154.354508"/>
     <use style="fill:#1f77b4;stroke:#1f77b4;" x="219.133289" xlink:href="#m3e7afe297c" y="154.399013"/>
     <use style="fill:#1f77b4;stroke:#1f77b4;" x="222.060678" xlink:href="#m3e7afe297c" y="152.920595"/>
     <use style="fill:#1f77b4;stroke:#1f77b4;" x="226.032071" xlink:href="#m3e7afe297c" y="150.537988"/>
     <use style="fill:#1f77b4;stroke:#1f77b4;" x="227.669858" xlink:href="#m3e7afe297c" y="149.158202"/>
     <use style="fill:#1f77b4;stroke:#1f77b4;" x="231.833773" xlink:href="#m3e7afe297c" y="147.546968"/>
     <use style="fill:#1f77b4;stroke:#1f77b4;" x="233.1205" xlink:href="#m3e7afe297c" y="144.074321"/>
     <use style="fill:#1f77b4;stroke:#1f77b4;" x="238.06441" xlink:href="#m3e7afe297c" y="142.207117"/>
     <use style="fill:#1f77b4;stroke:#1f77b4;" x="241.714054" xlink:href="#m3e7afe297c" y="139.733445"/>
     <use style="fill:#1f77b4;stroke:#1f77b4;" x="245.126301" xlink:href="#m3e7afe297c" y="137.767177"/>
     <use style="fill:#1f77b4;stroke:#1f77b4;" x="249.14423" xlink:href="#m3e7afe297c" y="134.807215"/>
     <use style="fill:#1f77b4;stroke:#1f77b4;" x="254.001423" xlink:href="#m3e7afe297c" y="132.453241"/>
     <use style="fill:#1f77b4;stroke:#1f77b4;" x="257.500929" xlink:href="#m3e7afe297c" y="130.500743"/>
     <use style="fill:#1f77b4;stroke:#1f77b4;" x="260.692453" xlink:href="#m3e7afe297c" y="128.199782"/>
     <use style="fill:#1f77b4;stroke:#1f77b4;" x="263.83933" xlink:href="#m3e7afe297c" y="126.636915"/>
     <use style="fill:#1f77b4;stroke:#1f77b4;" x="265.645325" xlink:href="#m3e7afe297c" y="124.863541"/>
     <use style="fill:#1f77b4;stroke:#1f77b4;" x="268.524297" xlink:href="#m3e7afe297c" y="122.714593"/>
     <use style="fill:#1f77b4;stroke:#1f77b4;" x="271.627006" xlink:href="#m3e7afe297c" y="120.992583"/>
     <use style="fill:#1f77b4;stroke:#1f77b4;" x="275.990995" xlink:href="#m3e7afe297c" y="120.891744"/>
     <use style="fill:#1f77b4;stroke:#1f77b4;" x="278.042244" xlink:href="#m3e7afe297c" y="119.426629"/>
     <use style="fill:#1f77b4;stroke:#1f77b4;" x="279.086178" xlink:href="#m3e7afe297c" y="118.48943"/>
     <use style="fill:#1f77b4;stroke:#1f77b4;" x="282.304955" xlink:href="#m3e7afe297c" y="117.943665"/>
     <use style="fill:#1f77b4;stroke:#1f77b4;" x="284.163289" xlink:href="#m3e7afe297c" y="117.803098"/>
     <use style="fill:#1f77b4;stroke:#1f77b4;" x="284.631646" xlink:href="#m3e7afe297c" y="117.788785"/>
     <use style="fill:#1f77b4;stroke:#1f77b4;" x="285.28465" xlink:href="#m3e7afe297c" y="116.349986"/>
     <use style="fill:#1f77b4;stroke:#1f77b4;" x="287.48267" xlink:href="#m3e7afe297c" y="114.728322"/>
     <use style="fill:#1f77b4;stroke:#1f77b4;" x="290.017966" xlink:href="#m3e7afe297c" y="113.081411"/>
     <use style="fill:#1f77b4;stroke:#1f77b4;" x="293.016321" xlink:href="#m3e7afe297c" y="111.854296"/>
     <use style="fill:#1f77b4;stroke:#1f77b4;" x="296.371333" xlink:href="#m3e7afe297c" y="108.955176"/>
     <use style="fill:#1f77b4;stroke:#1f77b4;" x="300.373713" xlink:href="#m3e7afe297c" y="106.827036"/>
     <use style="fill:#1f77b4;stroke:#1f77b4;" x="306.019409" xlink:href="#m3e7afe297c" y="105.610989"/>
     <use style="fill:#1f77b4;stroke:#1f77b4;" x="311.399496" xlink:href="#m3e7afe297c" y="103.402187"/>
     <use style="fill:#1f77b4;stroke:#1f77b4;" x="310.827269" xlink:href="#m3e7afe297c" y="101.076538"/>
     <use style="fill:#1f77b4;stroke:#1f77b4;" x="314.259564" xlink:href="#m3e7afe297c" y="98.172972"/>
     <use style="fill:#1f77b4;stroke:#1f77b4;" x="319.068498" xlink:href="#m3e7afe297c" y="96.895162"/>
     <use style="fill:#1f77b4;stroke:#1f77b4;" x="319.512043" xlink:href="#m3e7afe297c" y="95.001499"/>
     <use style="fill:#1f77b4;stroke:#1f77b4;" x="324.4561" xlink:href="#m3e7afe297c" y="93.234403"/>
    </g>
   </g>
   <g id="PathCollection_2">
    <defs>
     <path d="M 0 1.5 
C 0.397805 1.5 0.77937 1.341951 1.06066 1.06066 
C 1.341951 0.77937 1.5 0.397805 1.5 0 
C 1.5 -0.397805 1.341951 -0.77937 1.06066 -1.06066 
C 0.77937 -1.341951 0.397805 -1.5 0 -1.5 
C -0.397805 -1.5 -0.77937 -1.341951 -1.06066 -1.06066 
C -1.341951 -0.77937 -1.5 -0.397805 -1.5 0 
C -1.5 0.397805 -1.341951 0.77937 -1.06066 1.06066 
C -0.77937 1.341951 -0.397805 1.5 0 1.5 
z
" id="m067aa83bd8" style="stroke:#ff7f0e;"/>
    </defs>
    <g clip-path="url(#p1774031989)">
     <use style="fill:#ff7f0e;stroke:#ff7f0e;" x="64.772727" xlink:href="#m067aa83bd8" y="79.487507"/>
     <use style="fill:#ff7f0e;stroke:#ff7f0e;" x="66.816296" xlink:href="#m067aa83bd8" y="77.441729"/>
     <use style="fill:#ff7f0e;stroke:#ff7f0e;" x="69.580901" xlink:href="#m067aa83bd8" y="75.502271"/>
     <use style="fill:#ff7f0e;stroke:#ff7f0e;" x="69.682626" xlink:href="#m067aa83bd8" y="75.515064"/>
     <use style="fill:#ff7f0e;stroke:#ff7f0e;" x="69.376856" xlink:href="#m067aa83bd8" y="75.285781"/>
     <use style="fill:#ff7f0e;stroke:#ff7f0e;" x="72.335373" xlink:href="#m067aa83bd8" y="73.529297"/>
     <use style="fill:#ff7f0e;stroke:#ff7f0e;" x="73.941705" xlink:href="#m067aa83bd8" y="72.440455"/>
     <use style="fill:#ff7f0e;stroke:#ff7f0e;" x="74.54185" xlink:href="#m067aa83bd8" y="71.245209"/>
     <use style="fill:#ff7f0e;stroke:#ff7f0e;" x="77.375077" xlink:href="#m067aa83bd8" y="70.248887"/>
     <use style="fill:#ff7f0e;stroke:#ff7f0e;" x="76.826509" xlink:href="#m067aa83bd8" y="69.877482"/>
     <use style="fill:#ff7f0e;stroke:#ff7f0e;" x="75.196168" xlink:href="#m067aa83bd8" y="69.674177"/>
     <use style="fill:#ff7f0e;stroke:#ff7f0e;" x="74.747207" xlink:href="#m067aa83bd8" y="70.225678"/>
     <use style="fill:#ff7f0e;stroke:#ff7f0e;" x="74.552137" xlink:href="#m067aa83bd8" y="69.419498"/>
     <use style="fill:#ff7f0e;stroke:#ff7f0e;" x="76.401339" xlink:href="#m067aa83bd8" y="67.922185"/>
     <use style="fill:#ff7f0e;stroke:#ff7f0e;" x="77.956501" xlink:href="#m067aa83bd8" y="67.130244"/>
     <use style="fill:#ff7f0e;stroke:#ff7f0e;" x="79.532162" xlink:href="#m067aa83bd8" y="66.651267"/>
     <use style="fill:#ff7f0e;stroke:#ff7f0e;" x="80.843274" xlink:href="#m067aa83bd8" y="65.480303"/>
     <use style="fill:#ff7f0e;stroke:#ff7f0e;" x="82.732606" xlink:href="#m067aa83bd8" y="64.426418"/>
     <use style="fill:#ff7f0e;stroke:#ff7f0e;" x="83.863498" xlink:href="#m067aa83bd8" y="63.743158"/>
     <use style="fill:#ff7f0e;stroke:#ff7f0e;" x="83.932297" xlink:href="#m067aa83bd8" y="59.803296"/>
     <use style="fill:#ff7f0e;stroke:#ff7f0e;" x="84.513461" xlink:href="#m067aa83bd8" y="59.391837"/>
     <use style="fill:#ff7f0e;stroke:#ff7f0e;" x="83.829064" xlink:href="#m067aa83bd8" y="59.69848"/>
     <use style="fill:#ff7f0e;stroke:#ff7f0e;" x="84.309083" xlink:href="#m067aa83bd8" y="59.602883"/>
     <use style="fill:#ff7f0e;stroke:#ff7f0e;" x="84.700108" xlink:href="#m067aa83bd8" y="59.2359"/>
     <use style="fill:#ff7f0e;stroke:#ff7f0e;" x="85.855912" xlink:href="#m067aa83bd8" y="58.647638"/>
     <use style="fill:#ff7f0e;stroke:#ff7f0e;" x="87.156624" xlink:href="#m067aa83bd8" y="58.043754"/>
     <use style="fill:#ff7f0e;stroke:#ff7f0e;" x="87.727139" xlink:href="#m067aa83bd8" y="57.696234"/>
     <use style="fill:#ff7f0e;stroke:#ff7f0e;" x="87.695163" xlink:href="#m067aa83bd8" y="57.359664"/>
     <use style="fill:#ff7f0e;stroke:#ff7f0e;" x="88.441481" xlink:href="#m067aa83bd8" y="56.872241"/>
     <use style="fill:#ff7f0e;stroke:#ff7f0e;" x="89.826139" xlink:href="#m067aa83bd8" y="55.856593"/>
     <use style="fill:#ff7f0e;stroke:#ff7f0e;" x="90.139939" xlink:href="#m067aa83bd8" y="55.948546"/>
     <use style="fill:#ff7f0e;stroke:#ff7f0e;" x="91.391512" xlink:href="#m067aa83bd8" y="55.16679"/>
     <use style="fill:#ff7f0e;stroke:#ff7f0e;" x="94.197832" xlink:href="#m067aa83bd8" y="54.255914"/>
     <use style="fill:#ff7f0e;stroke:#ff7f0e;" x="96.537929" xlink:href="#m067aa83bd8" y="53.20171"/>
     <use style="fill:#ff7f0e;stroke:#ff7f0e;" x="98.615684" xlink:href="#m067aa83bd8" y="52.179778"/>
     <use style="fill:#ff7f0e;stroke:#ff7f0e;" x="100.363557" xlink:href="#m067aa83bd8" y="51.206439"/>
     <use style="fill:#ff7f0e;stroke:#ff7f0e;" x="101.246876" xlink:href="#m067aa83bd8" y="50.096568"/>
     <use style="fill:#ff7f0e;stroke:#ff7f0e;" x="103.041466" xlink:href="#m067aa83bd8" y="49.83802"/>
     <use style="fill:#ff7f0e;stroke:#ff7f0e;" x="101.646279" xlink:href="#m067aa83bd8" y="50.441415"/>
     <use style="fill:#ff7f0e;stroke:#ff7f0e;" x="105.14979" xlink:href="#m067aa83bd8" y="48.479652"/>
     <use style="fill:#ff7f0e;stroke:#ff7f0e;" x="106.833769" xlink:href="#m067aa83bd8" y="47.729424"/>
     <use style="fill:#ff7f0e;stroke:#ff7f0e;" x="107.979418" xlink:href="#m067aa83bd8" y="47.423266"/>
     <use style="fill:#ff7f0e;stroke:#ff7f0e;" x="108.62602" xlink:href="#m067aa83bd8" y="46.750208"/>
     <use style="fill:#ff7f0e;stroke:#ff7f0e;" x="108.765068" xlink:href="#m067aa83bd8" y="46.507602"/>
    </g>
   </g>
   <g id="PathCollection_3">
    <defs>
     <path d="M 0 1.5 
C 0.397805 1.5 0.77937 1.341951 1.06066 1.06066 
C 1.341951 0.77937 1.5 0.397805 1.5 0 
C 1.5 -0.397805 1.341951 -0.77937 1.06066 -1.06066 
C 0.77937 -1.341951 0.397805 -1.5 0 -1.5 
C -0.397805 -1.5 -0.77937 -1.341951 -1.06066 -1.06066 
C -1.341951 -0.77937 -1.5 -0.397805 -1.5 0 
C -1.5 0.397805 -1.341951 0.77937 -1.06066 1.06066 
C -0.77937 1.341951 -0.397805 1.5 0 1.5 
z
" id="m6608664619" style="stroke:#2ca02c;"/>
    </defs>
    <g clip-path="url(#p1774031989)">
     <use style="fill:#2ca02c;stroke:#2ca02c;" x="254.476321" xlink:href="#m6608664619" y="55.492812"/>
     <use style="fill:#2ca02c;stroke:#2ca02c;" x="254.889113" xlink:href="#m6608664619" y="53.532661"/>
     <use style="fill:#2ca02c;stroke:#2ca02c;" x="255.279636" xlink:href="#m6608664619" y="50.60599"/>
     <use style="fill:#2ca02c;stroke:#2ca02c;" x="256.19202" xlink:href="#m6608664619" y="47.97238"/>
     <use style="fill:#2ca02c;stroke:#2ca02c;" x="256.582392" xlink:href="#m6608664619" y="46.566073"/>
     <use style="fill:#2ca02c;stroke:#2ca02c;" x="257.79228" xlink:href="#m6608664619" y="44.407319"/>
     <use style="fill:#2ca02c;stroke:#2ca02c;" x="257.451129" xlink:href="#m6608664619" y="43.4343"/>
     <use style="fill:#2ca02c;stroke:#2ca02c;" x="255.205384" xlink:href="#m6608664619" y="42.630239"/>
     <use style="fill:#2ca02c;stroke:#2ca02c;" x="256.463316" xlink:href="#m6608664619" y="40.211171"/>
     <use style="fill:#2ca02c;stroke:#2ca02c;" x="258.312647" xlink:href="#m6608664619" y="38.053694"/>
     <use style="fill:#2ca02c;stroke:#2ca02c;" x="260.284277" xlink:href="#m6608664619" y="36.702724"/>
     <use style="fill:#2ca02c;stroke:#2ca02c;" x="260.904041" xlink:href="#m6608664619" y="35.986652"/>
     <use style="fill:#2ca02c;stroke:#2ca02c;" x="259.91718" xlink:href="#m6608664619" y="35.046466"/>
     <use style="fill:#2ca02c;stroke:#2ca02c;" x="260.838538" xlink:href="#m6608664619" y="32.772384"/>
     <use style="fill:#2ca02c;stroke:#2ca02c;" x="257.370297" xlink:href="#m6608664619" y="33.798952"/>
     <use style="fill:#2ca02c;stroke:#2ca02c;" x="256.176483" xlink:href="#m6608664619" y="34.117538"/>
     <use style="fill:#2ca02c;stroke:#2ca02c;" x="255.765795" xlink:href="#m6608664619" y="33.396259"/>
     <use style="fill:#2ca02c;stroke:#2ca02c;" x="256.271847" xlink:href="#m6608664619" y="32.796636"/>
     <use style="fill:#2ca02c;stroke:#2ca02c;" x="256.30096" xlink:href="#m6608664619" y="32.347324"/>
     <use style="fill:#2ca02c;stroke:#2ca02c;" x="259.627094" xlink:href="#m6608664619" y="30.972178"/>
     <use style="fill:#2ca02c;stroke:#2ca02c;" x="254.026874" xlink:href="#m6608664619" y="32.682633"/>
     <use style="fill:#2ca02c;stroke:#2ca02c;" x="252.335311" xlink:href="#m6608664619" y="33.506833"/>
     <use style="fill:#2ca02c;stroke:#2ca02c;" x="251.177757" xlink:href="#m6608664619" y="34.210135"/>
     <use style="fill:#2ca02c;stroke:#2ca02c;" x="250.912557" xlink:href="#m6608664619" y="33.686028"/>
     <use style="fill:#2ca02c;stroke:#2ca02c;" x="249.319191" xlink:href="#m6608664619" y="33.321036"/>
     <use style="fill:#2ca02c;stroke:#2ca02c;" x="252.245464" xlink:href="#m6608664619" y="31.65051"/>
     <use style="fill:#2ca02c;stroke:#2ca02c;" x="253.070787" xlink:href="#m6608664619" y="30.758232"/>
     <use style="fill:#2ca02c;stroke:#2ca02c;" x="253.353732" xlink:href="#m6608664619" y="29.876037"/>
     <use style="fill:#2ca02c;stroke:#2ca02c;" x="253.225372" xlink:href="#m6608664619" y="28.874325"/>
     <use style="fill:#2ca02c;stroke:#2ca02c;" x="254.2455" xlink:href="#m6608664619" y="28.466301"/>
     <use style="fill:#2ca02c;stroke:#2ca02c;" x="251.877637" xlink:href="#m6608664619" y="28.070354"/>
     <use style="fill:#2ca02c;stroke:#2ca02c;" x="252.891771" xlink:href="#m6608664619" y="27.465457"/>
     <use style="fill:#2ca02c;stroke:#2ca02c;" x="251.911027" xlink:href="#m6608664619" y="27.460942"/>
     <use style="fill:#2ca02c;stroke:#2ca02c;" x="250.909751" xlink:href="#m6608664619" y="27.212231"/>
     <use style="fill:#2ca02c;stroke:#2ca02c;" x="251.007876" xlink:href="#m6608664619" y="27.918681"/>
     <use style="fill:#2ca02c;stroke:#2ca02c;" x="250.178188" xlink:href="#m6608664619" y="26.691603"/>
     <use style="fill:#2ca02c;stroke:#2ca02c;" x="251.454463" xlink:href="#m6608664619" y="25.242959"/>
     <use style="fill:#2ca02c;stroke:#2ca02c;" x="249.122455" xlink:href="#m6608664619" y="25.147766"/>
     <use style="fill:#2ca02c;stroke:#2ca02c;" x="249.57208" xlink:href="#m6608664619" y="24.697418"/>
     <use style="fill:#2ca02c;stroke:#2ca02c;" x="249.476984" xlink:href="#m6608664619" y="24.128518"/>
     <use style="fill:#2ca02c;stroke:#2ca02c;" x="250.53271" xlink:href="#m6608664619" y="23.521448"/>
     <use style="fill:#2ca02c;stroke:#2ca02c;" x="250.924131" xlink:href="#m6608664619" y="23.367468"/>
     <use style="fill:#2ca02c;stroke:#2ca02c;" x="249.250798" xlink:href="#m6608664619" y="23.363175"/>
     <use style="fill:#2ca02c;stroke:#2ca02c;" x="250.361067" xlink:href="#m6608664619" y="23.185689"/>
     <use style="fill:#2ca02c;stroke:#2ca02c;" x="250.286928" xlink:href="#m6608664619" y="23.38554"/>
     <use style="fill:#2ca02c;stroke:#2ca02c;" x="250.609324" xlink:href="#m6608664619" y="22.65302"/>
     <use style="fill:#2ca02c;stroke:#2ca02c;" x="250.501255" xlink:href="#m6608664619" y="23.04124"/>
     <use style="fill:#2ca02c;stroke:#2ca02c;" x="249.229429" xlink:href="#m6608664619" y="23.589717"/>
     <use style="fill:#2ca02c;stroke:#2ca02c;" x="248.556024" xlink:href="#m6608664619" y="24.08139"/>
     <use style="fill:#2ca02c;stroke:#2ca02c;" x="243.267051" xlink:href="#m6608664619" y="26.279093"/>
     <use style="fill:#2ca02c;stroke:#2ca02c;" x="245.572692" xlink:href="#m6608664619" y="25.929264"/>
     <use style="fill:#2ca02c;stroke:#2ca02c;" x="240.545174" xlink:href="#m6608664619" y="27.33798"/>
     <use style="fill:#2ca02c;stroke:#2ca02c;" x="242.919507" xlink:href="#m6608664619" y="27.480704"/>
     <use style="fill:#2ca02c;stroke:#2ca02c;" x="241.527557" xlink:href="#m6608664619" y="27.731609"/>
     <use style="fill:#2ca02c;stroke:#2ca02c;" x="237.209515" xlink:href="#m6608664619" y="29.553272"/>
    </g>
   </g>
   <g id="PathCollection_4">
    <defs>
     <path d="M 0 1.5 
C 0.397805 1.5 0.77937 1.341951 1.06066 1.06066 
C 1.341951 0.77937 1.5 0.397805 1.5 0 
C 1.5 -0.397805 1.341951 -0.77937 1.06066 -1.06066 
C 0.77937 -1.341951 0.397805 -1.5 0 -1.5 
C -0.397805 -1.5 -0.77937 -1.341951 -1.06066 -1.06066 
C -1.341951 -0.77937 -1.5 -0.397805 -1.5 0 
C -1.5 0.397805 -1.341951 0.77937 -1.06066 1.06066 
C -0.77937 1.341951 -0.397805 1.5 0 1.5 
z
" id="m0ca232e629" style="stroke:#d62728;"/>
    </defs>
    <g clip-path="url(#p1774031989)">
     <use style="fill:#d62728;stroke:#d62728;" x="275.653192" xlink:href="#m0ca232e629" y="150.513038"/>
     <use style="fill:#d62728;stroke:#d62728;" x="278.826478" xlink:href="#m0ca232e629" y="147.917297"/>
     <use style="fill:#d62728;stroke:#d62728;" x="280.857913" xlink:href="#m0ca232e629" y="145.484503"/>
     <use style="fill:#d62728;stroke:#d62728;" x="281.896975" xlink:href="#m0ca232e629" y="145.818322"/>
     <use style="fill:#d62728;stroke:#d62728;" x="289.622454" xlink:href="#m0ca232e629" y="141.243091"/>
     <use style="fill:#d62728;stroke:#d62728;" x="291.878066" xlink:href="#m0ca232e629" y="140.391885"/>
     <use style="fill:#d62728;stroke:#d62728;" x="296.634667" xlink:href="#m0ca232e629" y="137.699145"/>
     <use style="fill:#d62728;stroke:#d62728;" x="302.358909" xlink:href="#m0ca232e629" y="133.88458"/>
     <use style="fill:#d62728;stroke:#d62728;" x="303.513182" xlink:href="#m0ca232e629" y="131.098337"/>
     <use style="fill:#d62728;stroke:#d62728;" x="302.537958" xlink:href="#m0ca232e629" y="129.313536"/>
     <use style="fill:#d62728;stroke:#d62728;" x="301.976674" xlink:href="#m0ca232e629" y="128.805544"/>
     <use style="fill:#d62728;stroke:#d62728;" x="306.413367" xlink:href="#m0ca232e629" y="127.232992"/>
     <use style="fill:#d62728;stroke:#d62728;" x="309.203719" xlink:href="#m0ca232e629" y="125.244209"/>
     <use style="fill:#d62728;stroke:#d62728;" x="313.640433" xlink:href="#m0ca232e629" y="123.203543"/>
     <use style="fill:#d62728;stroke:#d62728;" x="317.829488" xlink:href="#m0ca232e629" y="120.606749"/>
     <use style="fill:#d62728;stroke:#d62728;" x="320.47966" xlink:href="#m0ca232e629" y="118.004044"/>
     <use style="fill:#d62728;stroke:#d62728;" x="323.91506" xlink:href="#m0ca232e629" y="115.043449"/>
     <use style="fill:#d62728;stroke:#d62728;" x="327.559732" xlink:href="#m0ca232e629" y="112.314772"/>
     <use style="fill:#d62728;stroke:#d62728;" x="328.412776" xlink:href="#m0ca232e629" y="110.461993"/>
     <use style="fill:#d62728;stroke:#d62728;" x="329.152605" xlink:href="#m0ca232e629" y="108.860415"/>
     <use style="fill:#d62728;stroke:#d62728;" x="331.692106" xlink:href="#m0ca232e629" y="106.372259"/>
     <use style="fill:#d62728;stroke:#d62728;" x="334.114774" xlink:href="#m0ca232e629" y="103.048209"/>
     <use style="fill:#d62728;stroke:#d62728;" x="337.721152" xlink:href="#m0ca232e629" y="99.902977"/>
     <use style="fill:#d62728;stroke:#d62728;" x="340.879525" xlink:href="#m0ca232e629" y="96.711639"/>
     <use style="fill:#d62728;stroke:#d62728;" x="345.171057" xlink:href="#m0ca232e629" y="94.729048"/>
     <use style="fill:#d62728;stroke:#d62728;" x="347.369287" xlink:href="#m0ca232e629" y="92.533798"/>
     <use style="fill:#d62728;stroke:#d62728;" x="347.465984" xlink:href="#m0ca232e629" y="91.233368"/>
     <use style="fill:#d62728;stroke:#d62728;" x="345.23484" xlink:href="#m0ca232e629" y="90.520253"/>
     <use style="fill:#d62728;stroke:#d62728;" x="345.135993" xlink:href="#m0ca232e629" y="88.850175"/>
     <use style="fill:#d62728;stroke:#d62728;" x="346.488998" xlink:href="#m0ca232e629" y="86.00131"/>
     <use style="fill:#d62728;stroke:#d62728;" x="347.736952" xlink:href="#m0ca232e629" y="83.222591"/>
     <use style="fill:#d62728;stroke:#d62728;" x="352.901728" xlink:href="#m0ca232e629" y="79.638775"/>
     <use style="fill:#d62728;stroke:#d62728;" x="361.508517" xlink:href="#m0ca232e629" y="74.700053"/>
     <use style="fill:#d62728;stroke:#d62728;" x="368.924745" xlink:href="#m0ca232e629" y="69.908462"/>
     <use style="fill:#d62728;stroke:#d62728;" x="375.154956" xlink:href="#m0ca232e629" y="65.893869"/>
     <use style="fill:#d62728;stroke:#d62728;" x="380.472314" xlink:href="#m0ca232e629" y="61.268925"/>
     <use style="fill:#d62728;stroke:#d62728;" x="381.801314" xlink:href="#m0ca232e629" y="56.743773"/>
     <use style="fill:#d62728;stroke:#d62728;" x="388.075784" xlink:href="#m0ca232e629" y="55.008452"/>
     <use style="fill:#d62728;stroke:#d62728;" x="388.108391" xlink:href="#m0ca232e629" y="52.750683"/>
     <use style="fill:#d62728;stroke:#d62728;" x="395.909749" xlink:href="#m0ca232e629" y="48.648754"/>
     <use style="fill:#d62728;stroke:#d62728;" x="401.315342" xlink:href="#m0ca232e629" y="44.741076"/>
     <use style="fill:#d62728;stroke:#d62728;" x="402.874134" xlink:href="#m0ca232e629" y="42.944322"/>
     <use style="fill:#d62728;stroke:#d62728;" x="404.054944" xlink:href="#m0ca232e629" y="40.112513"/>
     <use style="fill:#d62728;stroke:#d62728;" x="404.227273" xlink:href="#m0ca232e629" y="38.740749"/>
    </g>
   </g>
   <g id="line2d_13">
    <path clip-path="url(#p1774031989)" d="M 200.02091 160.269735 
L 202.973567 159.039635 
L 204.506996 158.390768 
L 206.257227 157.641876 
L 210.617245 155.738466 
L 212.961522 154.693116 
L 215.898338 153.362366 
L 216.649542 153.018246 
L 219.133289 151.869813 
L 222.060678 150.495587 
L 226.032071 148.596436 
L 227.669858 147.801837 
L 231.833773 145.752551 
L 233.1205 145.111025 
L 238.06441 142.611067 
L 241.714054 140.731071 
L 245.126301 138.947972 
L 249.14423 136.818194 
L 254.001423 134.202016 
L 257.500929 132.290318 
L 260.692453 130.528224 
L 263.83933 128.774094 
L 265.645325 127.760179 
L 268.524297 126.13337 
L 271.627006 124.366184 
L 275.990995 121.857279 
L 278.042244 120.668984 
L 279.086178 120.062097 
L 282.304955 118.182088 
L 284.163289 117.09082 
L 284.631646 116.815129 
L 285.28465 116.430313 
L 287.48267 115.131348 
L 290.017966 113.626229 
L 293.016321 111.837126 
L 296.371333 109.824066 
L 300.373713 107.407999 
L 306.019409 103.974768 
L 311.399496 100.677792 
L 310.827269 101.029566 
L 314.259564 98.915812 
L 319.068498 95.939677 
L 319.512043 95.664361 
L 324.4561 92.586684 
" style="fill:none;stroke:#1f77b4;stroke-linecap:round;stroke-width:1.5;"/>
   </g>
   <g id="line2d_14">
    <path clip-path="url(#p1774031989)" d="M 64.772727 76.404744 
L 66.816296 74.898948 
L 69.580901 72.872704 
L 69.682626 72.798376 
L 69.376856 73.021843 
L 72.335373 70.865576 
L 73.941705 69.700171 
L 74.54185 69.265688 
L 77.375077 67.221092 
L 76.826509 67.61614 
L 75.196168 68.792549 
L 74.747207 69.117131 
L 74.552137 69.258245 
L 76.401339 67.922593 
L 77.956501 66.802806 
L 79.532162 65.671386 
L 80.843274 64.732248 
L 82.732606 63.382511 
L 83.863498 62.576559 
L 83.932297 62.527574 
L 84.513461 62.113994 
L 83.829064 62.601078 
L 84.309083 62.259396 
L 84.700108 61.981248 
L 85.855912 61.160059 
L 87.156624 60.237608 
L 87.727139 59.833559 
L 87.695163 59.856196 
L 88.441481 59.328116 
L 89.826139 58.349833 
L 90.139939 58.128389 
L 91.391512 57.246115 
L 94.197832 55.273145 
L 96.537929 53.633297 
L 98.615684 52.181156 
L 100.363557 50.962265 
L 101.246876 50.347183 
L 103.041466 49.099369 
L 101.646279 50.069262 
L 105.14979 47.636415 
L 106.833769 46.470152 
L 107.979418 45.677816 
L 108.62602 45.231006 
L 108.765068 45.134958 
" style="fill:none;stroke:#ff7f0e;stroke-linecap:round;stroke-width:1.5;"/>
   </g>
   <g id="line2d_15">
    <path clip-path="url(#p1774031989)" d="M 254.476321 32.699108 
L 254.889113 33.074347 
L 255.279636 33.43594 
L 256.19202 34.306805 
L 256.582392 34.691048 
L 257.79228 35.929176 
L 257.451129 35.572592 
L 255.205384 33.366685 
L 256.463316 34.57308 
L 258.312647 36.484916 
L 260.284277 38.73089 
L 260.904041 39.487021 
L 259.91718 38.294858 
L 260.838538 39.405885 
L 257.370297 35.48898 
L 256.176483 34.29166 
L 255.765795 33.895332 
L 256.271847 34.384798 
L 256.30096 34.413316 
L 259.627094 37.956297 
L 254.026874 32.298457 
L 252.335311 30.860186 
L 251.177757 29.93481 
L 250.912557 29.729083 
L 249.319191 28.539266 
L 252.245464 30.786716 
L 253.070787 31.472446 
L 253.353732 31.713269 
L 253.225372 31.603647 
L 254.2455 32.492333 
L 251.877637 30.488866 
L 252.891771 31.321615 
L 251.911027 30.515711 
L 250.909751 29.726918 
L 251.007876 29.802764 
L 250.178188 29.171067 
L 251.454463 30.15191 
L 249.122455 28.397624 
L 249.57208 28.722991 
L 249.476984 28.653684 
L 250.53271 29.438342 
L 250.924131 29.738014 
L 249.250798 28.489899 
L 250.361067 29.308454 
L 250.286928 29.252633 
L 250.609324 29.496617 
L 250.501255 29.41447 
L 249.229429 28.474502 
L 248.556024 27.99597 
L 243.267051 24.638712 
L 245.572692 26.020716 
L 240.545174 23.147531 
L 242.919507 24.44024 
L 241.527557 23.669411 
L 237.209515 21.5 
" style="fill:none;stroke:#2ca02c;stroke-linecap:round;stroke-width:1.5;"/>
   </g>
   <g id="line2d_16">
    <path clip-path="url(#p1774031989)" d="M 278.826478 235.5 
L 280.857913 209.92686 
L 281.896975 201.537842 
L 289.622454 166.732843 
L 291.878066 160.340717 
L 296.634667 149.19974 
L 302.358909 138.419199 
L 303.513182 136.482704 
L 302.537958 138.114424 
L 301.976674 139.07545 
L 306.413367 131.885411 
L 309.203719 127.769901 
L 313.640433 121.723853 
L 317.829488 116.462538 
L 320.47966 113.316315 
L 323.91506 109.414801 
L 327.559732 105.463338 
L 328.412776 104.563272 
L 329.152605 103.789721 
L 331.692106 101.1816 
L 334.114774 98.756513 
L 337.721152 95.248582 
L 340.879525 92.265877 
L 345.171057 88.330391 
L 347.369287 86.361413 
L 347.465984 86.275477 
L 345.23484 88.272834 
L 345.135993 88.362044 
L 346.488998 87.14632 
L 347.736952 86.034961 
L 352.901728 81.529173 
L 361.508517 74.308286 
L 368.924745 68.320569 
L 375.154956 63.42644 
L 380.472314 59.332322 
L 381.801314 58.319718 
L 388.075784 53.590704 
L 388.108391 53.566338 
L 395.909749 47.792043 
L 401.315342 43.849419 
L 402.874134 42.720401 
L 404.054944 41.867362 
L 404.227273 41.743025 
" style="fill:none;stroke:#d62728;stroke-linecap:round;stroke-width:1.5;"/>
   </g>
   <g id="patch_3">
    <path d="M 47.8 246.2 
L 47.8 10.8 
" style="fill:none;stroke:#cccccc;stroke-linecap:square;stroke-linejoin:miter;stroke-width:0.8;"/>
   </g>
   <g id="patch_4">
    <path d="M 421.2 246.2 
L 421.2 10.8 
" style="fill:none;stroke:#cccccc;stroke-linecap:square;stroke-linejoin:miter;stroke-width:0.8;"/>
   </g>
   <g id="patch_5">
    <path d="M 47.8 246.2 
L 421.2 246.2 
" style="fill:none;stroke:#cccccc;stroke-linecap:square;stroke-linejoin:miter;stroke-width:0.8;"/>
   </g>
   <g id="patch_6">
    <path d="M 47.8 10.8 
L 421.2 10.8 
" style="fill:none;stroke:#cccccc;stroke-linecap:square;stroke-linejoin:miter;stroke-width:0.8;"/>
   </g>
   <g id="legend_1">
    <g id="patch_7">
     <path d="M 54.8 241.2 
L 167.064063 241.2 
Q 169.064063 241.2 169.064063 239.2 
L 169.064063 181.4875 
Q 169.064063 179.4875 167.064063 179.4875 
L 54.8 179.4875 
Q 52.8 179.4875 52.8 181.4875 
L 52.8 239.2 
Q 52.8 241.2 54.8 241.2 
z
" style="fill:#ffffff;opacity:0.8;stroke:#cccccc;stroke-linejoin:miter;"/>
    </g>
    <g id="line2d_17">
     <path d="M 56.8 187.585938 
L 76.8 187.585938 
" style="fill:none;stroke:#1f77b4;stroke-linecap:round;stroke-width:1.5;"/>
    </g>
    <g id="line2d_18"/>
    <g id="text_15">
     <!-- India -->
     <g style="fill:#262626;" transform="translate(84.8 191.085938)scale(0.1 -0.1)">
      <defs>
       <path d="M 9.8125 72.90625 
L 19.671875 72.90625 
L 19.671875 0 
L 9.8125 0 
z
" id="DejaVuSans-73"/>
       <path d="M 45.40625 46.390625 
L 45.40625 75.984375 
L 54.390625 75.984375 
L 54.390625 0 
L 45.40625 0 
L 45.40625 8.203125 
Q 42.578125 3.328125 38.25 0.953125 
Q 33.9375 -1.421875 27.875 -1.421875 
Q 17.96875 -1.421875 11.734375 6.484375 
Q 5.515625 14.40625 5.515625 27.296875 
Q 5.515625 40.1875 11.734375 48.09375 
Q 17.96875 56 27.875 56 
Q 33.9375 56 38.25 53.625 
Q 42.578125 51.265625 45.40625 46.390625 
z
M 14.796875 27.296875 
Q 14.796875 17.390625 18.875 11.75 
Q 22.953125 6.109375 30.078125 6.109375 
Q 37.203125 6.109375 41.296875 11.75 
Q 45.40625 17.390625 45.40625 27.296875 
Q 45.40625 37.203125 41.296875 42.84375 
Q 37.203125 48.484375 30.078125 48.484375 
Q 22.953125 48.484375 18.875 42.84375 
Q 14.796875 37.203125 14.796875 27.296875 
z
" id="DejaVuSans-100"/>
      </defs>
      <use xlink:href="#DejaVuSans-73"/>
      <use x="29.492188" xlink:href="#DejaVuSans-110"/>
      <use x="92.871094" xlink:href="#DejaVuSans-100"/>
      <use x="156.347656" xlink:href="#DejaVuSans-105"/>
      <use x="184.130859" xlink:href="#DejaVuSans-97"/>
     </g>
    </g>
    <g id="line2d_19">
     <path d="M 56.8 202.264062 
L 76.8 202.264062 
" style="fill:none;stroke:#ff7f0e;stroke-linecap:round;stroke-width:1.5;"/>
    </g>
    <g id="line2d_20"/>
    <g id="text_16">
     <!-- World -->
     <g style="fill:#262626;" transform="translate(84.8 205.764062)scale(0.1 -0.1)">
      <use xlink:href="#DejaVuSans-87"/>
      <use x="93.001953" xlink:href="#DejaVuSans-111"/>
      <use x="154.183594" xlink:href="#DejaVuSans-114"/>
      <use x="195.296875" xlink:href="#DejaVuSans-108"/>
      <use x="223.080078" xlink:href="#DejaVuSans-100"/>
     </g>
    </g>
    <g id="line2d_21">
     <path d="M 56.8 216.942187 
L 76.8 216.942187 
" style="fill:none;stroke:#2ca02c;stroke-linecap:round;stroke-width:1.5;"/>
    </g>
    <g id="line2d_22"/>
    <g id="text_17">
     <!-- United Kingdom -->
     <g style="fill:#262626;" transform="translate(84.8 220.442187)scale(0.1 -0.1)">
      <defs>
       <path d="M 8.6875 72.90625 
L 18.609375 72.90625 
L 18.609375 28.609375 
Q 18.609375 16.890625 22.84375 11.734375 
Q 27.09375 6.59375 36.625 6.59375 
Q 46.09375 6.59375 50.34375 11.734375 
Q 54.59375 16.890625 54.59375 28.609375 
L 54.59375 72.90625 
L 64.5 72.90625 
L 64.5 27.390625 
Q 64.5 13.140625 57.4375 5.859375 
Q 50.390625 -1.421875 36.625 -1.421875 
Q 22.796875 -1.421875 15.734375 5.859375 
Q 8.6875 13.140625 8.6875 27.390625 
z
" id="DejaVuSans-85"/>
       <path d="M 9.8125 72.90625 
L 19.671875 72.90625 
L 19.671875 42.09375 
L 52.390625 72.90625 
L 65.09375 72.90625 
L 28.90625 38.921875 
L 67.671875 0 
L 54.6875 0 
L 19.671875 35.109375 
L 19.671875 0 
L 9.8125 0 
z
" id="DejaVuSans-75"/>
      </defs>
      <use xlink:href="#DejaVuSans-85"/>
      <use x="73.193359" xlink:href="#DejaVuSans-110"/>
      <use x="136.572266" xlink:href="#DejaVuSans-105"/>
      <use x="164.355469" xlink:href="#DejaVuSans-116"/>
      <use x="203.564453" xlink:href="#DejaVuSans-101"/>
      <use x="265.087891" xlink:href="#DejaVuSans-100"/>
      <use x="328.564453" xlink:href="#DejaVuSans-32"/>
      <use x="360.351562" xlink:href="#DejaVuSans-75"/>
      <use x="425.927734" xlink:href="#DejaVuSans-105"/>
      <use x="453.710938" xlink:href="#DejaVuSans-110"/>
      <use x="517.089844" xlink:href="#DejaVuSans-103"/>
      <use x="580.566406" xlink:href="#DejaVuSans-100"/>
      <use x="644.042969" xlink:href="#DejaVuSans-111"/>
      <use x="705.224609" xlink:href="#DejaVuSans-109"/>
     </g>
    </g>
    <g id="line2d_23">
     <path d="M 56.8 231.620312 
L 76.8 231.620312 
" style="fill:none;stroke:#d62728;stroke-linecap:round;stroke-width:1.5;"/>
    </g>
    <g id="line2d_24"/>
    <g id="text_18">
     <!-- China -->
     <g style="fill:#262626;" transform="translate(84.8 235.120312)scale(0.1 -0.1)">
      <use xlink:href="#DejaVuSans-67"/>
      <use x="69.824219" xlink:href="#DejaVuSans-104"/>
      <use x="133.203125" xlink:href="#DejaVuSans-105"/>
      <use x="160.986328" xlink:href="#DejaVuSans-110"/>
      <use x="224.365234" xlink:href="#DejaVuSans-97"/>
     </g>
    </g>
   </g>
  </g>
 </g>
 <defs>
  <clipPath id="p1774031989">
   <rect height="235.4" width="373.4" x="47.8" y="10.8"/>
  </clipPath>
 </defs>
</svg>
