<?xml version="1.0" encoding="utf-8" standalone="no"?>
<!DOCTYPE svg PUBLIC "-//W3C//DTD SVG 1.1//EN"
  "http://www.w3.org/Graphics/SVG/1.1/DTD/svg11.dtd">
<!-- Created with matplotlib (https://matplotlib.org/) -->
<svg height="360pt" version="1.1" viewBox="0 0 360 360" width="360pt" xmlns="http://www.w3.org/2000/svg" xmlns:xlink="http://www.w3.org/1999/xlink">
 <metadata>
  <rdf:RDF xmlns:cc="http://creativecommons.org/ns#" xmlns:dc="http://purl.org/dc/elements/1.1/" xmlns:rdf="http://www.w3.org/1999/02/22-rdf-syntax-ns#">
   <cc:Work>
    <dc:type rdf:resource="http://purl.org/dc/dcmitype/StillImage"/>
    <dc:date>2021-01-23T02:52:50.353546</dc:date>
    <dc:format>image/svg+xml</dc:format>
    <dc:creator>
     <cc:Agent>
      <dc:title>Matplotlib v3.3.2, https://matplotlib.org/</dc:title>
     </cc:Agent>
    </dc:creator>
   </cc:Work>
  </rdf:RDF>
 </metadata>
 <defs>
  <style type="text/css">*{stroke-linecap:butt;stroke-linejoin:round;}</style>
 </defs>
 <g id="figure_1">
  <g id="patch_1">
   <path d="M 0 360 
L 360 360 
L 360 0 
L 0 0 
z
" style="fill:#ffffff;"/>
  </g>
  <g id="axes_1">
   <g id="patch_2">
    <path d="M 50.629609 318.2 
L 349.2 318.2 
L 349.2 10.8 
L 50.629609 10.8 
z
" style="fill:#ffffff;"/>
   </g>
   <g id="matplotlib.axis_1">
    <g id="xtick_1">
     <g id="line2d_1">
      <path clip-path="url(#p35957bac0b)" d="M 50.629609 318.2 
L 50.629609 10.8 
" style="fill:none;stroke:#cccccc;stroke-linecap:round;stroke-width:0.8;"/>
     </g>
     <g id="text_1">
      <!-- 1960 -->
      <g style="fill:#262626;" transform="translate(37.904609 332.798438)scale(0.1 -0.1)">
       <defs>
        <path d="M 12.40625 8.296875 
L 28.515625 8.296875 
L 28.515625 63.921875 
L 10.984375 60.40625 
L 10.984375 69.390625 
L 28.421875 72.90625 
L 38.28125 72.90625 
L 38.28125 8.296875 
L 54.390625 8.296875 
L 54.390625 0 
L 12.40625 0 
z
" id="DejaVuSans-49"/>
        <path d="M 10.984375 1.515625 
L 10.984375 10.5 
Q 14.703125 8.734375 18.5 7.8125 
Q 22.3125 6.890625 25.984375 6.890625 
Q 35.75 6.890625 40.890625 13.453125 
Q 46.046875 20.015625 46.78125 33.40625 
Q 43.953125 29.203125 39.59375 26.953125 
Q 35.25 24.703125 29.984375 24.703125 
Q 19.046875 24.703125 12.671875 31.3125 
Q 6.296875 37.9375 6.296875 49.421875 
Q 6.296875 60.640625 12.9375 67.421875 
Q 19.578125 74.21875 30.609375 74.21875 
Q 43.265625 74.21875 49.921875 64.515625 
Q 56.59375 54.828125 56.59375 36.375 
Q 56.59375 19.140625 48.40625 8.859375 
Q 40.234375 -1.421875 26.421875 -1.421875 
Q 22.703125 -1.421875 18.890625 -0.6875 
Q 15.09375 0.046875 10.984375 1.515625 
z
M 30.609375 32.421875 
Q 37.25 32.421875 41.125 36.953125 
Q 45.015625 41.5 45.015625 49.421875 
Q 45.015625 57.28125 41.125 61.84375 
Q 37.25 66.40625 30.609375 66.40625 
Q 23.96875 66.40625 20.09375 61.84375 
Q 16.21875 57.28125 16.21875 49.421875 
Q 16.21875 41.5 20.09375 36.953125 
Q 23.96875 32.421875 30.609375 32.421875 
z
" id="DejaVuSans-57"/>
        <path d="M 33.015625 40.375 
Q 26.375 40.375 22.484375 35.828125 
Q 18.609375 31.296875 18.609375 23.390625 
Q 18.609375 15.53125 22.484375 10.953125 
Q 26.375 6.390625 33.015625 6.390625 
Q 39.65625 6.390625 43.53125 10.953125 
Q 47.40625 15.53125 47.40625 23.390625 
Q 47.40625 31.296875 43.53125 35.828125 
Q 39.65625 40.375 33.015625 40.375 
z
M 52.59375 71.296875 
L 52.59375 62.3125 
Q 48.875 64.0625 45.09375 64.984375 
Q 41.3125 65.921875 37.59375 65.921875 
Q 27.828125 65.921875 22.671875 59.328125 
Q 17.53125 52.734375 16.796875 39.40625 
Q 19.671875 43.65625 24.015625 45.921875 
Q 28.375 48.1875 33.59375 48.1875 
Q 44.578125 48.1875 50.953125 41.515625 
Q 57.328125 34.859375 57.328125 23.390625 
Q 57.328125 12.15625 50.6875 5.359375 
Q 44.046875 -1.421875 33.015625 -1.421875 
Q 20.359375 -1.421875 13.671875 8.265625 
Q 6.984375 17.96875 6.984375 36.375 
Q 6.984375 53.65625 15.1875 63.9375 
Q 23.390625 74.21875 37.203125 74.21875 
Q 40.921875 74.21875 44.703125 73.484375 
Q 48.484375 72.75 52.59375 71.296875 
z
" id="DejaVuSans-54"/>
        <path d="M 31.78125 66.40625 
Q 24.171875 66.40625 20.328125 58.90625 
Q 16.5 51.421875 16.5 36.375 
Q 16.5 21.390625 20.328125 13.890625 
Q 24.171875 6.390625 31.78125 6.390625 
Q 39.453125 6.390625 43.28125 13.890625 
Q 47.125 21.390625 47.125 36.375 
Q 47.125 51.421875 43.28125 58.90625 
Q 39.453125 66.40625 31.78125 66.40625 
z
M 31.78125 74.21875 
Q 44.046875 74.21875 50.515625 64.515625 
Q 56.984375 54.828125 56.984375 36.375 
Q 56.984375 17.96875 50.515625 8.265625 
Q 44.046875 -1.421875 31.78125 -1.421875 
Q 19.53125 -1.421875 13.0625 8.265625 
Q 6.59375 17.96875 6.59375 36.375 
Q 6.59375 54.828125 13.0625 64.515625 
Q 19.53125 74.21875 31.78125 74.21875 
z
" id="DejaVuSans-48"/>
       </defs>
       <use xlink:href="#DejaVuSans-49"/>
       <use x="63.623047" xlink:href="#DejaVuSans-57"/>
       <use x="127.246094" xlink:href="#DejaVuSans-54"/>
       <use x="190.869141" xlink:href="#DejaVuSans-48"/>
      </g>
     </g>
    </g>
    <g id="xtick_2">
     <g id="line2d_2">
      <path clip-path="url(#p35957bac0b)" d="M 101.23476 318.2 
L 101.23476 10.8 
" style="fill:none;stroke:#cccccc;stroke-linecap:round;stroke-width:0.8;"/>
     </g>
     <g id="text_2">
      <!-- 1970 -->
      <g style="fill:#262626;" transform="translate(88.50976 332.798438)scale(0.1 -0.1)">
       <defs>
        <path d="M 8.203125 72.90625 
L 55.078125 72.90625 
L 55.078125 68.703125 
L 28.609375 0 
L 18.3125 0 
L 43.21875 64.59375 
L 8.203125 64.59375 
z
" id="DejaVuSans-55"/>
       </defs>
       <use xlink:href="#DejaVuSans-49"/>
       <use x="63.623047" xlink:href="#DejaVuSans-57"/>
       <use x="127.246094" xlink:href="#DejaVuSans-55"/>
       <use x="190.869141" xlink:href="#DejaVuSans-48"/>
      </g>
     </g>
    </g>
    <g id="xtick_3">
     <g id="line2d_3">
      <path clip-path="url(#p35957bac0b)" d="M 151.839911 318.2 
L 151.839911 10.8 
" style="fill:none;stroke:#cccccc;stroke-linecap:round;stroke-width:0.8;"/>
     </g>
     <g id="text_3">
      <!-- 1980 -->
      <g style="fill:#262626;" transform="translate(139.114911 332.798438)scale(0.1 -0.1)">
       <defs>
        <path d="M 31.78125 34.625 
Q 24.75 34.625 20.71875 30.859375 
Q 16.703125 27.09375 16.703125 20.515625 
Q 16.703125 13.921875 20.71875 10.15625 
Q 24.75 6.390625 31.78125 6.390625 
Q 38.8125 6.390625 42.859375 10.171875 
Q 46.921875 13.96875 46.921875 20.515625 
Q 46.921875 27.09375 42.890625 30.859375 
Q 38.875 34.625 31.78125 34.625 
z
M 21.921875 38.8125 
Q 15.578125 40.375 12.03125 44.71875 
Q 8.5 49.078125 8.5 55.328125 
Q 8.5 64.0625 14.71875 69.140625 
Q 20.953125 74.21875 31.78125 74.21875 
Q 42.671875 74.21875 48.875 69.140625 
Q 55.078125 64.0625 55.078125 55.328125 
Q 55.078125 49.078125 51.53125 44.71875 
Q 48 40.375 41.703125 38.8125 
Q 48.828125 37.15625 52.796875 32.3125 
Q 56.78125 27.484375 56.78125 20.515625 
Q 56.78125 9.90625 50.3125 4.234375 
Q 43.84375 -1.421875 31.78125 -1.421875 
Q 19.734375 -1.421875 13.25 4.234375 
Q 6.78125 9.90625 6.78125 20.515625 
Q 6.78125 27.484375 10.78125 32.3125 
Q 14.796875 37.15625 21.921875 38.8125 
z
M 18.3125 54.390625 
Q 18.3125 48.734375 21.84375 45.5625 
Q 25.390625 42.390625 31.78125 42.390625 
Q 38.140625 42.390625 41.71875 45.5625 
Q 45.3125 48.734375 45.3125 54.390625 
Q 45.3125 60.0625 41.71875 63.234375 
Q 38.140625 66.40625 31.78125 66.40625 
Q 25.390625 66.40625 21.84375 63.234375 
Q 18.3125 60.0625 18.3125 54.390625 
z
" id="DejaVuSans-56"/>
       </defs>
       <use xlink:href="#DejaVuSans-49"/>
       <use x="63.623047" xlink:href="#DejaVuSans-57"/>
       <use x="127.246094" xlink:href="#DejaVuSans-56"/>
       <use x="190.869141" xlink:href="#DejaVuSans-48"/>
      </g>
     </g>
    </g>
    <g id="xtick_4">
     <g id="line2d_4">
      <path clip-path="url(#p35957bac0b)" d="M 202.445062 318.2 
L 202.445062 10.8 
" style="fill:none;stroke:#cccccc;stroke-linecap:round;stroke-width:0.8;"/>
     </g>
     <g id="text_4">
      <!-- 1990 -->
      <g style="fill:#262626;" transform="translate(189.720062 332.798438)scale(0.1 -0.1)">
       <use xlink:href="#DejaVuSans-49"/>
       <use x="63.623047" xlink:href="#DejaVuSans-57"/>
       <use x="127.246094" xlink:href="#DejaVuSans-57"/>
       <use x="190.869141" xlink:href="#DejaVuSans-48"/>
      </g>
     </g>
    </g>
    <g id="xtick_5">
     <g id="line2d_5">
      <path clip-path="url(#p35957bac0b)" d="M 253.050213 318.2 
L 253.050213 10.8 
" style="fill:none;stroke:#cccccc;stroke-linecap:round;stroke-width:0.8;"/>
     </g>
     <g id="text_5">
      <!-- 2000 -->
      <g style="fill:#262626;" transform="translate(240.325213 332.798438)scale(0.1 -0.1)">
       <defs>
        <path d="M 19.1875 8.296875 
L 53.609375 8.296875 
L 53.609375 0 
L 7.328125 0 
L 7.328125 8.296875 
Q 12.9375 14.109375 22.625 23.890625 
Q 32.328125 33.6875 34.8125 36.53125 
Q 39.546875 41.84375 41.421875 45.53125 
Q 43.3125 49.21875 43.3125 52.78125 
Q 43.3125 58.59375 39.234375 62.25 
Q 35.15625 65.921875 28.609375 65.921875 
Q 23.96875 65.921875 18.8125 64.3125 
Q 13.671875 62.703125 7.8125 59.421875 
L 7.8125 69.390625 
Q 13.765625 71.78125 18.9375 73 
Q 24.125 74.21875 28.421875 74.21875 
Q 39.75 74.21875 46.484375 68.546875 
Q 53.21875 62.890625 53.21875 53.421875 
Q 53.21875 48.921875 51.53125 44.890625 
Q 49.859375 40.875 45.40625 35.40625 
Q 44.1875 33.984375 37.640625 27.21875 
Q 31.109375 20.453125 19.1875 8.296875 
z
" id="DejaVuSans-50"/>
       </defs>
       <use xlink:href="#DejaVuSans-50"/>
       <use x="63.623047" xlink:href="#DejaVuSans-48"/>
       <use x="127.246094" xlink:href="#DejaVuSans-48"/>
       <use x="190.869141" xlink:href="#DejaVuSans-48"/>
      </g>
     </g>
    </g>
    <g id="xtick_6">
     <g id="line2d_6">
      <path clip-path="url(#p35957bac0b)" d="M 303.655364 318.2 
L 303.655364 10.8 
" style="fill:none;stroke:#cccccc;stroke-linecap:round;stroke-width:0.8;"/>
     </g>
     <g id="text_6">
      <!-- 2010 -->
      <g style="fill:#262626;" transform="translate(290.930364 332.798438)scale(0.1 -0.1)">
       <use xlink:href="#DejaVuSans-50"/>
       <use x="63.623047" xlink:href="#DejaVuSans-48"/>
       <use x="127.246094" xlink:href="#DejaVuSans-49"/>
       <use x="190.869141" xlink:href="#DejaVuSans-48"/>
      </g>
     </g>
    </g>
    <g id="text_7">
     <!-- Time -->
     <g style="fill:#262626;" transform="translate(187.681211 346.476562)scale(0.1 -0.1)">
      <defs>
       <path d="M -0.296875 72.90625 
L 61.375 72.90625 
L 61.375 64.59375 
L 35.5 64.59375 
L 35.5 0 
L 25.59375 0 
L 25.59375 64.59375 
L -0.296875 64.59375 
z
" id="DejaVuSans-84"/>
       <path d="M 9.421875 54.6875 
L 18.40625 54.6875 
L 18.40625 0 
L 9.421875 0 
z
M 9.421875 75.984375 
L 18.40625 75.984375 
L 18.40625 64.59375 
L 9.421875 64.59375 
z
" id="DejaVuSans-105"/>
       <path d="M 52 44.1875 
Q 55.375 50.25 60.0625 53.125 
Q 64.75 56 71.09375 56 
Q 79.640625 56 84.28125 50.015625 
Q 88.921875 44.046875 88.921875 33.015625 
L 88.921875 0 
L 79.890625 0 
L 79.890625 32.71875 
Q 79.890625 40.578125 77.09375 44.375 
Q 74.3125 48.1875 68.609375 48.1875 
Q 61.625 48.1875 57.5625 43.546875 
Q 53.515625 38.921875 53.515625 30.90625 
L 53.515625 0 
L 44.484375 0 
L 44.484375 32.71875 
Q 44.484375 40.625 41.703125 44.40625 
Q 38.921875 48.1875 33.109375 48.1875 
Q 26.21875 48.1875 22.15625 43.53125 
Q 18.109375 38.875 18.109375 30.90625 
L 18.109375 0 
L 9.078125 0 
L 9.078125 54.6875 
L 18.109375 54.6875 
L 18.109375 46.1875 
Q 21.1875 51.21875 25.484375 53.609375 
Q 29.78125 56 35.6875 56 
Q 41.65625 56 45.828125 52.96875 
Q 50 49.953125 52 44.1875 
z
" id="DejaVuSans-109"/>
       <path d="M 56.203125 29.59375 
L 56.203125 25.203125 
L 14.890625 25.203125 
Q 15.484375 15.921875 20.484375 11.0625 
Q 25.484375 6.203125 34.421875 6.203125 
Q 39.59375 6.203125 44.453125 7.46875 
Q 49.3125 8.734375 54.109375 11.28125 
L 54.109375 2.78125 
Q 49.265625 0.734375 44.1875 -0.34375 
Q 39.109375 -1.421875 33.890625 -1.421875 
Q 20.796875 -1.421875 13.15625 6.1875 
Q 5.515625 13.8125 5.515625 26.8125 
Q 5.515625 40.234375 12.765625 48.109375 
Q 20.015625 56 32.328125 56 
Q 43.359375 56 49.78125 48.890625 
Q 56.203125 41.796875 56.203125 29.59375 
z
M 47.21875 32.234375 
Q 47.125 39.59375 43.09375 43.984375 
Q 39.0625 48.390625 32.421875 48.390625 
Q 24.90625 48.390625 20.390625 44.140625 
Q 15.875 39.890625 15.1875 32.171875 
z
" id="DejaVuSans-101"/>
      </defs>
      <use xlink:href="#DejaVuSans-84"/>
      <use x="57.958984" xlink:href="#DejaVuSans-105"/>
      <use x="85.742188" xlink:href="#DejaVuSans-109"/>
      <use x="183.154297" xlink:href="#DejaVuSans-101"/>
     </g>
    </g>
   </g>
   <g id="matplotlib.axis_2">
    <g id="ytick_1">
     <g id="line2d_7">
      <path clip-path="url(#p35957bac0b)" d="M 50.629609 267.589814 
L 349.2 267.589814 
" style="fill:none;stroke:#cccccc;stroke-linecap:round;stroke-width:0.8;"/>
     </g>
     <g id="text_8">
      <!-- $\mathdefault{10^{8}}$ -->
      <g style="fill:#262626;" transform="translate(26.029609 271.389033)scale(0.1 -0.1)">
       <use transform="translate(0 0.765625)" xlink:href="#DejaVuSans-49"/>
       <use transform="translate(63.623047 0.765625)" xlink:href="#DejaVuSans-48"/>
       <use transform="translate(128.203125 39.046875)scale(0.7)" xlink:href="#DejaVuSans-56"/>
      </g>
     </g>
    </g>
    <g id="ytick_2">
     <g id="line2d_8">
      <path clip-path="url(#p35957bac0b)" d="M 50.629609 138.689379 
L 349.2 138.689379 
" style="fill:none;stroke:#cccccc;stroke-linecap:round;stroke-width:0.8;"/>
     </g>
     <g id="text_9">
      <!-- $\mathdefault{10^{9}}$ -->
      <g style="fill:#262626;" transform="translate(26.029609 142.488597)scale(0.1 -0.1)">
       <use transform="translate(0 0.765625)" xlink:href="#DejaVuSans-49"/>
       <use transform="translate(63.623047 0.765625)" xlink:href="#DejaVuSans-48"/>
       <use transform="translate(128.203125 39.046875)scale(0.7)" xlink:href="#DejaVuSans-57"/>
      </g>
     </g>
    </g>
    <g id="ytick_3"/>
    <g id="ytick_4"/>
    <g id="ytick_5"/>
    <g id="ytick_6"/>
    <g id="ytick_7"/>
    <g id="ytick_8"/>
    <g id="ytick_9"/>
    <g id="ytick_10"/>
    <g id="ytick_11"/>
    <g id="ytick_12"/>
    <g id="ytick_13"/>
    <g id="ytick_14"/>
    <g id="ytick_15"/>
    <g id="ytick_16"/>
    <g id="ytick_17"/>
    <g id="ytick_18"/>
    <g id="ytick_19"/>
    <g id="ytick_20"/>
    <g id="ytick_21"/>
    <g id="ytick_22"/>
    <g id="ytick_23"/>
    <g id="text_10">
     <!-- Population, total -->
     <g style="fill:#262626;" transform="translate(19.949922 205.377344)rotate(-90)scale(0.1 -0.1)">
      <defs>
       <path d="M 19.671875 64.796875 
L 19.671875 37.40625 
L 32.078125 37.40625 
Q 38.96875 37.40625 42.71875 40.96875 
Q 46.484375 44.53125 46.484375 51.125 
Q 46.484375 57.671875 42.71875 61.234375 
Q 38.96875 64.796875 32.078125 64.796875 
z
M 9.8125 72.90625 
L 32.078125 72.90625 
Q 44.34375 72.90625 50.609375 67.359375 
Q 56.890625 61.8125 56.890625 51.125 
Q 56.890625 40.328125 50.609375 34.8125 
Q 44.34375 29.296875 32.078125 29.296875 
L 19.671875 29.296875 
L 19.671875 0 
L 9.8125 0 
z
" id="DejaVuSans-80"/>
       <path d="M 30.609375 48.390625 
Q 23.390625 48.390625 19.1875 42.75 
Q 14.984375 37.109375 14.984375 27.296875 
Q 14.984375 17.484375 19.15625 11.84375 
Q 23.34375 6.203125 30.609375 6.203125 
Q 37.796875 6.203125 41.984375 11.859375 
Q 46.1875 17.53125 46.1875 27.296875 
Q 46.1875 37.015625 41.984375 42.703125 
Q 37.796875 48.390625 30.609375 48.390625 
z
M 30.609375 56 
Q 42.328125 56 49.015625 48.375 
Q 55.71875 40.765625 55.71875 27.296875 
Q 55.71875 13.875 49.015625 6.21875 
Q 42.328125 -1.421875 30.609375 -1.421875 
Q 18.84375 -1.421875 12.171875 6.21875 
Q 5.515625 13.875 5.515625 27.296875 
Q 5.515625 40.765625 12.171875 48.375 
Q 18.84375 56 30.609375 56 
z
" id="DejaVuSans-111"/>
       <path d="M 18.109375 8.203125 
L 18.109375 -20.796875 
L 9.078125 -20.796875 
L 9.078125 54.6875 
L 18.109375 54.6875 
L 18.109375 46.390625 
Q 20.953125 51.265625 25.265625 53.625 
Q 29.59375 56 35.59375 56 
Q 45.5625 56 51.78125 48.09375 
Q 58.015625 40.1875 58.015625 27.296875 
Q 58.015625 14.40625 51.78125 6.484375 
Q 45.5625 -1.421875 35.59375 -1.421875 
Q 29.59375 -1.421875 25.265625 0.953125 
Q 20.953125 3.328125 18.109375 8.203125 
z
M 48.6875 27.296875 
Q 48.6875 37.203125 44.609375 42.84375 
Q 40.53125 48.484375 33.40625 48.484375 
Q 26.265625 48.484375 22.1875 42.84375 
Q 18.109375 37.203125 18.109375 27.296875 
Q 18.109375 17.390625 22.1875 11.75 
Q 26.265625 6.109375 33.40625 6.109375 
Q 40.53125 6.109375 44.609375 11.75 
Q 48.6875 17.390625 48.6875 27.296875 
z
" id="DejaVuSans-112"/>
       <path d="M 8.5 21.578125 
L 8.5 54.6875 
L 17.484375 54.6875 
L 17.484375 21.921875 
Q 17.484375 14.15625 20.5 10.265625 
Q 23.53125 6.390625 29.59375 6.390625 
Q 36.859375 6.390625 41.078125 11.03125 
Q 45.3125 15.671875 45.3125 23.6875 
L 45.3125 54.6875 
L 54.296875 54.6875 
L 54.296875 0 
L 45.3125 0 
L 45.3125 8.40625 
Q 42.046875 3.421875 37.71875 1 
Q 33.40625 -1.421875 27.6875 -1.421875 
Q 18.265625 -1.421875 13.375 4.4375 
Q 8.5 10.296875 8.5 21.578125 
z
M 31.109375 56 
z
" id="DejaVuSans-117"/>
       <path d="M 9.421875 75.984375 
L 18.40625 75.984375 
L 18.40625 0 
L 9.421875 0 
z
" id="DejaVuSans-108"/>
       <path d="M 34.28125 27.484375 
Q 23.390625 27.484375 19.1875 25 
Q 14.984375 22.515625 14.984375 16.5 
Q 14.984375 11.71875 18.140625 8.90625 
Q 21.296875 6.109375 26.703125 6.109375 
Q 34.1875 6.109375 38.703125 11.40625 
Q 43.21875 16.703125 43.21875 25.484375 
L 43.21875 27.484375 
z
M 52.203125 31.203125 
L 52.203125 0 
L 43.21875 0 
L 43.21875 8.296875 
Q 40.140625 3.328125 35.546875 0.953125 
Q 30.953125 -1.421875 24.3125 -1.421875 
Q 15.921875 -1.421875 10.953125 3.296875 
Q 6 8.015625 6 15.921875 
Q 6 25.140625 12.171875 29.828125 
Q 18.359375 34.515625 30.609375 34.515625 
L 43.21875 34.515625 
L 43.21875 35.40625 
Q 43.21875 41.609375 39.140625 45 
Q 35.0625 48.390625 27.6875 48.390625 
Q 23 48.390625 18.546875 47.265625 
Q 14.109375 46.140625 10.015625 43.890625 
L 10.015625 52.203125 
Q 14.9375 54.109375 19.578125 55.046875 
Q 24.21875 56 28.609375 56 
Q 40.484375 56 46.34375 49.84375 
Q 52.203125 43.703125 52.203125 31.203125 
z
" id="DejaVuSans-97"/>
       <path d="M 18.3125 70.21875 
L 18.3125 54.6875 
L 36.8125 54.6875 
L 36.8125 47.703125 
L 18.3125 47.703125 
L 18.3125 18.015625 
Q 18.3125 11.328125 20.140625 9.421875 
Q 21.96875 7.515625 27.59375 7.515625 
L 36.8125 7.515625 
L 36.8125 0 
L 27.59375 0 
Q 17.1875 0 13.234375 3.875 
Q 9.28125 7.765625 9.28125 18.015625 
L 9.28125 47.703125 
L 2.6875 47.703125 
L 2.6875 54.6875 
L 9.28125 54.6875 
L 9.28125 70.21875 
z
" id="DejaVuSans-116"/>
       <path d="M 54.890625 33.015625 
L 54.890625 0 
L 45.90625 0 
L 45.90625 32.71875 
Q 45.90625 40.484375 42.875 44.328125 
Q 39.84375 48.1875 33.796875 48.1875 
Q 26.515625 48.1875 22.3125 43.546875 
Q 18.109375 38.921875 18.109375 30.90625 
L 18.109375 0 
L 9.078125 0 
L 9.078125 54.6875 
L 18.109375 54.6875 
L 18.109375 46.1875 
Q 21.34375 51.125 25.703125 53.5625 
Q 30.078125 56 35.796875 56 
Q 45.21875 56 50.046875 50.171875 
Q 54.890625 44.34375 54.890625 33.015625 
z
" id="DejaVuSans-110"/>
       <path d="M 11.71875 12.40625 
L 22.015625 12.40625 
L 22.015625 4 
L 14.015625 -11.625 
L 7.71875 -11.625 
L 11.71875 4 
z
" id="DejaVuSans-44"/>
       <path id="DejaVuSans-32"/>
      </defs>
      <use xlink:href="#DejaVuSans-80"/>
      <use x="56.677734" xlink:href="#DejaVuSans-111"/>
      <use x="117.859375" xlink:href="#DejaVuSans-112"/>
      <use x="181.335938" xlink:href="#DejaVuSans-117"/>
      <use x="244.714844" xlink:href="#DejaVuSans-108"/>
      <use x="272.498047" xlink:href="#DejaVuSans-97"/>
      <use x="333.777344" xlink:href="#DejaVuSans-116"/>
      <use x="372.986328" xlink:href="#DejaVuSans-105"/>
      <use x="400.769531" xlink:href="#DejaVuSans-111"/>
      <use x="461.951172" xlink:href="#DejaVuSans-110"/>
      <use x="525.330078" xlink:href="#DejaVuSans-44"/>
      <use x="557.117188" xlink:href="#DejaVuSans-32"/>
      <use x="588.904297" xlink:href="#DejaVuSans-116"/>
      <use x="628.113281" xlink:href="#DejaVuSans-111"/>
      <use x="689.294922" xlink:href="#DejaVuSans-116"/>
      <use x="728.503906" xlink:href="#DejaVuSans-97"/>
      <use x="789.783203" xlink:href="#DejaVuSans-108"/>
     </g>
    </g>
   </g>
   <g id="PathCollection_1">
    <defs>
     <path d="M 0 3.535534 
C 0.937635 3.535534 1.836992 3.163008 2.5 2.5 
C 3.163008 1.836992 3.535534 0.937635 3.535534 0 
C 3.535534 -0.937635 3.163008 -1.836992 2.5 -2.5 
C 1.836992 -3.163008 0.937635 -3.535534 0 -3.535534 
C -0.937635 -3.535534 -1.836992 -3.163008 -2.5 -2.5 
C -3.163008 -1.836992 -3.535534 -0.937635 -3.535534 0 
C -3.535534 0.937635 -3.163008 1.836992 -2.5 2.5 
C -1.836992 3.163008 -0.937635 3.535534 0 3.535534 
z
" id="m443ebd19b2" style="stroke:#1f77b4;"/>
    </defs>
    <g clip-path="url(#p35957bac0b)">
     <use style="fill:#1f77b4;stroke:#1f77b4;" x="62.113086" xlink:href="#m443ebd19b2" y="161.202384"/>
     <use style="fill:#1f77b4;stroke:#1f77b4;" x="73.596563" xlink:href="#m443ebd19b2" y="158.117496"/>
     <use style="fill:#1f77b4;stroke:#1f77b4;" x="85.080039" xlink:href="#m443ebd19b2" y="155.170369"/>
     <use style="fill:#1f77b4;stroke:#1f77b4;" x="96.563516" xlink:href="#m443ebd19b2" y="151.441805"/>
     <use style="fill:#1f77b4;stroke:#1f77b4;" x="108.046992" xlink:href="#m443ebd19b2" y="147.68417"/>
     <use style="fill:#1f77b4;stroke:#1f77b4;" x="119.530469" xlink:href="#m443ebd19b2" y="145.141055"/>
     <use style="fill:#1f77b4;stroke:#1f77b4;" x="131.013945" xlink:href="#m443ebd19b2" y="142.741207"/>
     <use style="fill:#1f77b4;stroke:#1f77b4;" x="142.497422" xlink:href="#m443ebd19b2" y="140.824087"/>
     <use style="fill:#1f77b4;stroke:#1f77b4;" x="153.980898" xlink:href="#m443ebd19b2" y="139.390147"/>
     <use style="fill:#1f77b4;stroke:#1f77b4;" x="165.464375" xlink:href="#m443ebd19b2" y="137.80243"/>
     <use style="fill:#1f77b4;stroke:#1f77b4;" x="176.947852" xlink:href="#m443ebd19b2" y="135.875403"/>
     <use style="fill:#1f77b4;stroke:#1f77b4;" x="188.431328" xlink:href="#m443ebd19b2" y="133.719802"/>
     <use style="fill:#1f77b4;stroke:#1f77b4;" x="199.914805" xlink:href="#m443ebd19b2" y="132.000461"/>
     <use style="fill:#1f77b4;stroke:#1f77b4;" x="211.398281" xlink:href="#m443ebd19b2" y="130.483361"/>
     <use style="fill:#1f77b4;stroke:#1f77b4;" x="222.881758" xlink:href="#m443ebd19b2" y="128.870957"/>
     <use style="fill:#1f77b4;stroke:#1f77b4;" x="234.365234" xlink:href="#m443ebd19b2" y="127.382892"/>
     <use style="fill:#1f77b4;stroke:#1f77b4;" x="245.848711" xlink:href="#m443ebd19b2" y="126.317114"/>
     <use style="fill:#1f77b4;stroke:#1f77b4;" x="257.332188" xlink:href="#m443ebd19b2" y="125.430494"/>
     <use style="fill:#1f77b4;stroke:#1f77b4;" x="268.815664" xlink:href="#m443ebd19b2" y="124.508501"/>
     <use style="fill:#1f77b4;stroke:#1f77b4;" x="280.299141" xlink:href="#m443ebd19b2" y="123.685559"/>
     <use style="fill:#1f77b4;stroke:#1f77b4;" x="291.782617" xlink:href="#m443ebd19b2" y="123.093512"/>
     <use style="fill:#1f77b4;stroke:#1f77b4;" x="303.266094" xlink:href="#m443ebd19b2" y="122.401753"/>
     <use style="fill:#1f77b4;stroke:#1f77b4;" x="314.74957" xlink:href="#m443ebd19b2" y="121.722125"/>
     <use style="fill:#1f77b4;stroke:#1f77b4;" x="326.233047" xlink:href="#m443ebd19b2" y="121.158257"/>
     <use style="fill:#1f77b4;stroke:#1f77b4;" x="337.716523" xlink:href="#m443ebd19b2" y="120.299985"/>
    </g>
   </g>
   <g id="PolyCollection_1">
    <defs>
     <path d="M 50.629609 -203.237637 
L 50.629609 -199.803715 
L 53.645472 -200.465797 
L 56.661334 -201.120371 
L 59.677197 -201.768968 
L 62.69306 -202.425882 
L 65.708922 -203.063207 
L 68.724785 -203.695596 
L 71.740647 -204.332694 
L 74.75651 -204.969213 
L 77.772372 -205.574877 
L 80.788235 -206.185315 
L 83.804097 -206.784848 
L 86.81996 -207.376124 
L 89.835822 -207.960137 
L 92.851685 -208.520339 
L 95.867547 -209.105388 
L 98.88341 -209.676454 
L 101.899272 -210.235287 
L 104.915135 -210.788827 
L 107.930997 -211.335888 
L 110.94686 -211.877994 
L 113.962723 -212.407903 
L 116.978585 -212.924888 
L 119.994448 -213.439763 
L 123.01031 -213.956486 
L 126.026173 -214.463665 
L 129.042035 -214.966937 
L 132.057898 -215.464719 
L 135.07376 -215.96022 
L 138.089623 -216.458325 
L 141.105485 -216.957668 
L 144.121348 -217.431594 
L 147.13721 -217.914837 
L 150.153073 -218.384012 
L 153.168935 -218.843825 
L 156.184798 -219.302058 
L 159.200661 -219.757591 
L 162.216523 -220.22179 
L 165.232386 -220.678339 
L 168.248248 -221.119136 
L 171.264111 -221.562343 
L 174.279973 -222.00198 
L 177.295836 -222.438203 
L 180.311698 -222.870935 
L 183.327561 -223.291667 
L 186.343423 -223.719614 
L 189.359286 -224.142313 
L 192.375148 -224.556114 
L 195.391011 -224.965962 
L 198.406873 -225.378027 
L 201.422736 -225.780636 
L 204.438598 -226.18825 
L 207.454461 -226.588227 
L 210.470324 -226.976525 
L 213.486186 -227.359109 
L 216.502049 -227.744424 
L 219.517911 -228.127446 
L 222.533774 -228.507407 
L 225.549636 -228.880962 
L 228.565499 -229.251801 
L 231.581361 -229.620351 
L 234.597224 -229.992052 
L 237.613086 -230.365503 
L 240.628949 -230.73443 
L 243.644811 -231.093045 
L 246.660674 -231.449007 
L 249.676536 -231.797005 
L 252.692399 -232.147426 
L 255.708262 -232.490231 
L 258.724124 -232.842495 
L 261.739987 -233.197476 
L 264.755849 -233.540859 
L 267.771712 -233.882033 
L 270.787574 -234.220936 
L 273.803437 -234.555919 
L 276.819299 -234.89285 
L 279.835162 -235.225875 
L 282.851024 -235.556761 
L 285.866887 -235.885726 
L 288.882749 -236.212823 
L 291.898612 -236.5343 
L 294.914474 -236.852225 
L 297.930337 -237.168043 
L 300.946199 -237.485036 
L 303.962062 -237.791226 
L 306.977925 -238.10205 
L 309.993787 -238.412532 
L 313.00965 -238.717206 
L 316.025512 -239.023588 
L 319.041375 -239.328021 
L 322.057237 -239.627809 
L 325.0731 -239.92817 
L 328.088962 -240.227718 
L 331.104825 -240.526116 
L 334.120687 -240.823321 
L 337.13655 -241.117323 
L 340.152412 -241.409808 
L 343.168275 -241.692216 
L 346.184137 -241.977535 
L 349.2 -242.263991 
L 349.2 -244.051572 
L 349.2 -244.051572 
L 346.184137 -243.740138 
L 343.168275 -243.427848 
L 340.152412 -243.117183 
L 337.13655 -242.804784 
L 334.120687 -242.490632 
L 331.104825 -242.174708 
L 328.088962 -241.85699 
L 325.0731 -241.538453 
L 322.057237 -241.218503 
L 319.041375 -240.896714 
L 316.025512 -240.573065 
L 313.00965 -240.247534 
L 309.993787 -239.920099 
L 306.977925 -239.590737 
L 303.962062 -239.259426 
L 300.946199 -238.92589 
L 297.930337 -238.588987 
L 294.914474 -238.253712 
L 291.898612 -237.914514 
L 288.882749 -237.575013 
L 285.866887 -237.235773 
L 282.851024 -236.887609 
L 279.835162 -236.537447 
L 276.819299 -236.189087 
L 273.803437 -235.838538 
L 270.787574 -235.48578 
L 267.771712 -235.130785 
L 264.755849 -234.773484 
L 261.739987 -234.40572 
L 258.724124 -234.039367 
L 255.708262 -233.666489 
L 252.692399 -233.293158 
L 249.676536 -232.923178 
L 246.660674 -232.556589 
L 243.644811 -232.185855 
L 240.628949 -231.807553 
L 237.613086 -231.427482 
L 234.597224 -231.047914 
L 231.581361 -230.66921 
L 228.565499 -230.295157 
L 225.549636 -229.905457 
L 222.533774 -229.525145 
L 219.517911 -229.134545 
L 216.502049 -228.746515 
L 213.486186 -228.33946 
L 210.470324 -227.94021 
L 207.454461 -227.544777 
L 204.438598 -227.134377 
L 201.422736 -226.730568 
L 198.406873 -226.331694 
L 195.391011 -225.932524 
L 192.375148 -225.523758 
L 189.359286 -225.108888 
L 186.343423 -224.698684 
L 183.327561 -224.278285 
L 180.311698 -223.86841 
L 177.295836 -223.453139 
L 174.279973 -223.046995 
L 171.264111 -222.635413 
L 168.248248 -222.212768 
L 165.232386 -221.793996 
L 162.216523 -221.374985 
L 159.200661 -220.94547 
L 156.184798 -220.516815 
L 153.168935 -220.077996 
L 150.153073 -219.645658 
L 147.13721 -219.215021 
L 144.121348 -218.774059 
L 141.105485 -218.33401 
L 138.089623 -217.88148 
L 135.07376 -217.429951 
L 132.057898 -216.97631 
L 129.042035 -216.532075 
L 126.026173 -216.084287 
L 123.01031 -215.632569 
L 119.994448 -215.165185 
L 116.978585 -214.704858 
L 113.962723 -214.228569 
L 110.94686 -213.737244 
L 107.930997 -213.243977 
L 104.915135 -212.759338 
L 101.899272 -212.267721 
L 98.88341 -211.757933 
L 95.867547 -211.243459 
L 92.851685 -210.745161 
L 89.835822 -210.245677 
L 86.81996 -209.742379 
L 83.804097 -209.234952 
L 80.788235 -208.722884 
L 77.772372 -208.202063 
L 74.75651 -207.672668 
L 71.740647 -207.136731 
L 68.724785 -206.596626 
L 65.708922 -206.051044 
L 62.69306 -205.499992 
L 59.677197 -204.943461 
L 56.661334 -204.381341 
L 53.645472 -203.81352 
L 50.629609 -203.237637 
z
" id="m35403ae5b8" style="stroke:#ffffff;stroke-opacity:0.15;"/>
    </defs>
    <g clip-path="url(#p35957bac0b)">
     <use style="fill:#1f77b4;fill-opacity:0.15;stroke:#ffffff;stroke-opacity:0.15;" x="0" xlink:href="#m35403ae5b8" y="360"/>
    </g>
   </g>
   <g id="PathCollection_2">
    <defs>
     <path d="M -3.535534 3.535534 
L 3.535534 -3.535534 
M -3.535534 -3.535534 
L 3.535534 3.535534 
" id="m25d242282f" style="stroke:#ff7f0e;stroke-width:1.5;"/>
    </defs>
    <g clip-path="url(#p35957bac0b)">
     <use style="fill:#ff7f0e;stroke:#ff7f0e;stroke-width:1.5;" x="62.113086" xlink:href="#m25d242282f" y="181.612273"/>
     <use style="fill:#ff7f0e;stroke:#ff7f0e;stroke-width:1.5;" x="73.596563" xlink:href="#m25d242282f" y="178.169725"/>
     <use style="fill:#ff7f0e;stroke:#ff7f0e;stroke-width:1.5;" x="85.080039" xlink:href="#m25d242282f" y="175.835809"/>
     <use style="fill:#ff7f0e;stroke:#ff7f0e;stroke-width:1.5;" x="96.563516" xlink:href="#m25d242282f" y="172.846725"/>
     <use style="fill:#ff7f0e;stroke:#ff7f0e;stroke-width:1.5;" x="108.046992" xlink:href="#m25d242282f" y="169.719177"/>
     <use style="fill:#ff7f0e;stroke:#ff7f0e;stroke-width:1.5;" x="119.530469" xlink:href="#m25d242282f" y="167.119356"/>
     <use style="fill:#ff7f0e;stroke:#ff7f0e;stroke-width:1.5;" x="131.013945" xlink:href="#m25d242282f" y="163.873186"/>
     <use style="fill:#ff7f0e;stroke:#ff7f0e;stroke-width:1.5;" x="142.497422" xlink:href="#m25d242282f" y="160.671667"/>
     <use style="fill:#ff7f0e;stroke:#ff7f0e;stroke-width:1.5;" x="153.980898" xlink:href="#m25d242282f" y="158.085908"/>
     <use style="fill:#ff7f0e;stroke:#ff7f0e;stroke-width:1.5;" x="165.464375" xlink:href="#m25d242282f" y="155.482393"/>
     <use style="fill:#ff7f0e;stroke:#ff7f0e;stroke-width:1.5;" x="176.947852" xlink:href="#m25d242282f" y="152.284275"/>
     <use style="fill:#ff7f0e;stroke:#ff7f0e;stroke-width:1.5;" x="188.431328" xlink:href="#m25d242282f" y="149.216407"/>
     <use style="fill:#ff7f0e;stroke:#ff7f0e;stroke-width:1.5;" x="199.914805" xlink:href="#m25d242282f" y="146.852946"/>
     <use style="fill:#ff7f0e;stroke:#ff7f0e;stroke-width:1.5;" x="211.398281" xlink:href="#m25d242282f" y="144.569497"/>
     <use style="fill:#ff7f0e;stroke:#ff7f0e;stroke-width:1.5;" x="222.881758" xlink:href="#m25d242282f" y="141.818166"/>
     <use style="fill:#ff7f0e;stroke:#ff7f0e;stroke-width:1.5;" x="234.365234" xlink:href="#m25d242282f" y="139.15976"/>
     <use style="fill:#ff7f0e;stroke:#ff7f0e;stroke-width:1.5;" x="245.848711" xlink:href="#m25d242282f" y="137.101498"/>
     <use style="fill:#ff7f0e;stroke:#ff7f0e;stroke-width:1.5;" x="257.332188" xlink:href="#m25d242282f" y="135.122607"/>
     <use style="fill:#ff7f0e;stroke:#ff7f0e;stroke-width:1.5;" x="268.815664" xlink:href="#m25d242282f" y="132.772236"/>
     <use style="fill:#ff7f0e;stroke:#ff7f0e;stroke-width:1.5;" x="280.299141" xlink:href="#m25d242282f" y="130.54755"/>
     <use style="fill:#ff7f0e;stroke:#ff7f0e;stroke-width:1.5;" x="291.782617" xlink:href="#m25d242282f" y="128.860172"/>
     <use style="fill:#ff7f0e;stroke:#ff7f0e;stroke-width:1.5;" x="303.266094" xlink:href="#m25d242282f" y="126.914337"/>
     <use style="fill:#ff7f0e;stroke:#ff7f0e;stroke-width:1.5;" x="314.74957" xlink:href="#m25d242282f" y="125.163125"/>
     <use style="fill:#ff7f0e;stroke:#ff7f0e;stroke-width:1.5;" x="326.233047" xlink:href="#m25d242282f" y="123.878222"/>
     <use style="fill:#ff7f0e;stroke:#ff7f0e;stroke-width:1.5;" x="337.716523" xlink:href="#m25d242282f" y="122.074096"/>
    </g>
   </g>
   <g id="PolyCollection_2">
    <defs>
     <path d="M 50.629609 -170.885244 
L 50.629609 -166.907986 
L 53.645472 -168.378976 
L 56.661334 -169.807226 
L 59.677197 -171.194828 
L 62.69306 -172.551383 
L 65.708922 -173.884436 
L 68.724785 -175.186582 
L 71.740647 -176.455447 
L 74.75651 -177.694828 
L 77.772372 -178.907364 
L 80.788235 -180.094192 
L 83.804097 -181.257656 
L 86.81996 -182.394758 
L 89.835822 -183.510435 
L 92.851685 -184.602733 
L 95.867547 -185.670458 
L 98.88341 -186.718198 
L 101.899272 -187.746689 
L 104.915135 -188.756624 
L 107.930997 -189.748768 
L 110.94686 -190.726611 
L 113.962723 -191.69072 
L 116.978585 -192.640152 
L 119.994448 -193.573749 
L 123.01031 -194.492032 
L 126.026173 -195.395494 
L 129.042035 -196.284607 
L 132.057898 -197.156723 
L 135.07376 -198.01506 
L 138.089623 -198.86044 
L 141.105485 -199.693341 
L 144.121348 -200.51403 
L 147.13721 -201.325305 
L 150.153073 -202.119938 
L 153.168935 -202.905873 
L 156.184798 -203.676631 
L 159.200661 -204.438433 
L 162.216523 -205.189733 
L 165.232386 -205.931558 
L 168.248248 -206.663683 
L 171.264111 -207.386355 
L 174.279973 -208.099912 
L 177.295836 -208.804585 
L 180.311698 -209.506912 
L 183.327561 -210.204324 
L 186.343423 -210.891408 
L 189.359286 -211.560829 
L 192.375148 -212.222341 
L 195.391011 -212.875771 
L 198.406873 -213.522221 
L 201.422736 -214.162005 
L 204.438598 -214.794052 
L 207.454461 -215.420107 
L 210.470324 -216.037111 
L 213.486186 -216.649909 
L 216.502049 -217.251815 
L 219.517911 -217.847846 
L 222.533774 -218.435594 
L 225.549636 -219.014486 
L 228.565499 -219.590907 
L 231.581361 -220.156611 
L 234.597224 -220.719577 
L 237.613086 -221.275691 
L 240.628949 -221.820089 
L 243.644811 -222.360443 
L 246.660674 -222.898029 
L 249.676536 -223.423443 
L 252.692399 -223.95084 
L 255.708262 -224.465623 
L 258.724124 -224.975818 
L 261.739987 -225.48569 
L 264.755849 -225.984523 
L 267.771712 -226.482995 
L 270.787574 -226.977619 
L 273.803437 -227.469528 
L 276.819299 -227.948979 
L 279.835162 -228.426345 
L 282.851024 -228.902618 
L 285.866887 -229.37159 
L 288.882749 -229.83866 
L 291.898612 -230.302683 
L 294.914474 -230.763154 
L 297.930337 -231.218522 
L 300.946199 -231.670059 
L 303.962062 -232.120026 
L 306.977925 -232.564379 
L 309.993787 -233.004522 
L 313.00965 -233.442009 
L 316.025512 -233.876783 
L 319.041375 -234.308227 
L 322.057237 -234.735809 
L 325.0731 -235.161324 
L 328.088962 -235.583015 
L 331.104825 -236.001574 
L 334.120687 -236.417062 
L 337.13655 -236.82965 
L 340.152412 -237.238854 
L 343.168275 -237.646503 
L 346.184137 -238.048717 
L 349.2 -238.448498 
L 349.2 -239.125913 
L 349.2 -239.125913 
L 346.184137 -238.714776 
L 343.168275 -238.301981 
L 340.152412 -237.885537 
L 337.13655 -237.467225 
L 334.120687 -237.045735 
L 331.104825 -236.621219 
L 328.088962 -236.193143 
L 325.0731 -235.761295 
L 322.057237 -235.325764 
L 319.041375 -234.885747 
L 316.025512 -234.440691 
L 313.00965 -233.995703 
L 309.993787 -233.547446 
L 306.977925 -233.097291 
L 303.962062 -232.643263 
L 300.946199 -232.186043 
L 297.930337 -231.723736 
L 294.914474 -231.258915 
L 291.898612 -230.786234 
L 288.882749 -230.315166 
L 285.866887 -229.840083 
L 282.851024 -229.359337 
L 279.835162 -228.874806 
L 276.819299 -228.385317 
L 273.803437 -227.891811 
L 270.787574 -227.394794 
L 267.771712 -226.89348 
L 264.755849 -226.391499 
L 261.739987 -225.885663 
L 258.724124 -225.377063 
L 255.708262 -224.860113 
L 252.692399 -224.341681 
L 249.676536 -223.815563 
L 246.660674 -223.292808 
L 243.644811 -222.762388 
L 240.628949 -222.225434 
L 237.613086 -221.683293 
L 234.597224 -221.136318 
L 231.581361 -220.586885 
L 228.565499 -220.029824 
L 225.549636 -219.469731 
L 222.533774 -218.900996 
L 219.517911 -218.327963 
L 216.502049 -217.751412 
L 213.486186 -217.168069 
L 210.470324 -216.580733 
L 207.454461 -215.988296 
L 204.438598 -215.387968 
L 201.422736 -214.77956 
L 198.406873 -214.167249 
L 195.391011 -213.542726 
L 192.375148 -212.916373 
L 189.359286 -212.285834 
L 186.343423 -211.642899 
L 183.327561 -210.996091 
L 180.311698 -210.336882 
L 177.295836 -209.671907 
L 174.279973 -208.995747 
L 171.264111 -208.321863 
L 168.248248 -207.641144 
L 165.232386 -206.945275 
L 162.216523 -206.239129 
L 159.200661 -205.52351 
L 156.184798 -204.798625 
L 153.168935 -204.067035 
L 150.153073 -203.326081 
L 147.13721 -202.56988 
L 144.121348 -201.809079 
L 141.105485 -201.038864 
L 138.089623 -200.257897 
L 135.07376 -199.465496 
L 132.057898 -198.659509 
L 129.042035 -197.841703 
L 126.026173 -197.011773 
L 123.01031 -196.169326 
L 119.994448 -195.311867 
L 116.978585 -194.44092 
L 113.962723 -193.563153 
L 110.94686 -192.6669 
L 107.930997 -191.755947 
L 104.915135 -190.829907 
L 101.899272 -189.888127 
L 98.88341 -188.93063 
L 95.867547 -187.956321 
L 92.851685 -186.968572 
L 89.835822 -185.964334 
L 86.81996 -184.937695 
L 83.804097 -183.891861 
L 80.788235 -182.82518 
L 77.772372 -181.731252 
L 74.75651 -180.624657 
L 71.740647 -179.500303 
L 68.724785 -178.347614 
L 65.708922 -177.169855 
L 62.69306 -175.966604 
L 59.677197 -174.737871 
L 56.661334 -173.489648 
L 53.645472 -172.202723 
L 50.629609 -170.885244 
z
" id="me9561ffe67" style="stroke:#ffffff;stroke-opacity:0.15;"/>
    </defs>
    <g clip-path="url(#p35957bac0b)">
     <use style="fill:#ff7f0e;fill-opacity:0.15;stroke:#ffffff;stroke-opacity:0.15;" x="0" xlink:href="#me9561ffe67" y="360"/>
    </g>
   </g>
   <g id="PathCollection_3">
    <defs>
     <path d="M -0 3.535534 
L 3.535534 -3.535534 
L -3.535534 -3.535534 
z
" id="mf2c583ed83" style="stroke:#2ca02c;"/>
    </defs>
    <g clip-path="url(#p35957bac0b)">
     <use style="fill:#2ca02c;stroke:#2ca02c;" x="62.113086" xlink:href="#mf2c583ed83" y="303.104375"/>
     <use style="fill:#2ca02c;stroke:#2ca02c;" x="73.596563" xlink:href="#mf2c583ed83" y="301.904257"/>
     <use style="fill:#2ca02c;stroke:#2ca02c;" x="85.080039" xlink:href="#mf2c583ed83" y="301.265149"/>
     <use style="fill:#2ca02c;stroke:#2ca02c;" x="96.563516" xlink:href="#mf2c583ed83" y="300.612223"/>
     <use style="fill:#2ca02c;stroke:#2ca02c;" x="108.046992" xlink:href="#mf2c583ed83" y="300.057341"/>
     <use style="fill:#2ca02c;stroke:#2ca02c;" x="119.530469" xlink:href="#mf2c583ed83" y="299.836711"/>
     <use style="fill:#2ca02c;stroke:#2ca02c;" x="131.013945" xlink:href="#mf2c583ed83" y="299.838534"/>
     <use style="fill:#2ca02c;stroke:#2ca02c;" x="142.497422" xlink:href="#mf2c583ed83" y="299.827274"/>
     <use style="fill:#2ca02c;stroke:#2ca02c;" x="153.980898" xlink:href="#mf2c583ed83" y="299.72551"/>
     <use style="fill:#2ca02c;stroke:#2ca02c;" x="165.464375" xlink:href="#mf2c583ed83" y="299.726283"/>
     <use style="fill:#2ca02c;stroke:#2ca02c;" x="176.947852" xlink:href="#mf2c583ed83" y="299.500126"/>
     <use style="fill:#2ca02c;stroke:#2ca02c;" x="188.431328" xlink:href="#mf2c583ed83" y="299.190209"/>
     <use style="fill:#2ca02c;stroke:#2ca02c;" x="199.914805" xlink:href="#mf2c583ed83" y="298.898629"/>
     <use style="fill:#2ca02c;stroke:#2ca02c;" x="211.398281" xlink:href="#mf2c583ed83" y="298.566154"/>
     <use style="fill:#2ca02c;stroke:#2ca02c;" x="222.881758" xlink:href="#mf2c583ed83" y="298.211796"/>
     <use style="fill:#2ca02c;stroke:#2ca02c;" x="234.365234" xlink:href="#mf2c583ed83" y="297.851006"/>
     <use style="fill:#2ca02c;stroke:#2ca02c;" x="245.848711" xlink:href="#mf2c583ed83" y="297.522432"/>
     <use style="fill:#2ca02c;stroke:#2ca02c;" x="257.332188" xlink:href="#mf2c583ed83" y="297.121308"/>
     <use style="fill:#2ca02c;stroke:#2ca02c;" x="268.815664" xlink:href="#mf2c583ed83" y="296.496222"/>
     <use style="fill:#2ca02c;stroke:#2ca02c;" x="280.299141" xlink:href="#mf2c583ed83" y="295.607009"/>
     <use style="fill:#2ca02c;stroke:#2ca02c;" x="291.782617" xlink:href="#mf2c583ed83" y="294.745015"/>
     <use style="fill:#2ca02c;stroke:#2ca02c;" x="303.266094" xlink:href="#mf2c583ed83" y="293.662196"/>
     <use style="fill:#2ca02c;stroke:#2ca02c;" x="314.74957" xlink:href="#mf2c583ed83" y="292.648361"/>
     <use style="fill:#2ca02c;stroke:#2ca02c;" x="326.233047" xlink:href="#mf2c583ed83" y="291.826708"/>
     <use style="fill:#2ca02c;stroke:#2ca02c;" x="337.716523" xlink:href="#mf2c583ed83" y="290.646384"/>
    </g>
   </g>
   <g id="PolyCollection_3">
    <defs>
     <path d="M 50.629609 -56.869921 
L 50.629609 -55.772727 
L 53.645472 -55.912986 
L 56.661334 -56.052895 
L 59.677197 -56.192467 
L 62.69306 -56.329146 
L 65.708922 -56.463018 
L 68.724785 -56.596571 
L 71.740647 -56.729806 
L 74.75651 -56.857432 
L 77.772372 -56.983398 
L 80.788235 -57.112617 
L 83.804097 -57.248858 
L 86.81996 -57.38496 
L 89.835822 -57.520732 
L 92.851685 -57.651981 
L 95.867547 -57.779732 
L 98.88341 -57.907226 
L 101.899272 -58.034324 
L 104.915135 -58.164448 
L 107.930997 -58.296917 
L 110.94686 -58.426406 
L 113.962723 -58.55321 
L 116.978585 -58.67705 
L 119.994448 -58.80652 
L 123.01031 -58.934016 
L 126.026173 -59.057557 
L 129.042035 -59.180523 
L 132.057898 -59.307948 
L 135.07376 -59.434253 
L 138.089623 -59.557191 
L 141.105485 -59.684353 
L 144.121348 -59.805342 
L 147.13721 -59.93035 
L 150.153073 -60.056187 
L 153.168935 -60.175418 
L 156.184798 -60.298333 
L 159.200661 -60.419322 
L 162.216523 -60.53762 
L 165.232386 -60.660491 
L 168.248248 -60.77712 
L 171.264111 -60.893571 
L 174.279973 -61.009344 
L 177.295836 -61.121494 
L 180.311698 -61.232248 
L 183.327561 -61.345636 
L 186.343423 -61.454704 
L 189.359286 -61.563041 
L 192.375148 -61.670509 
L 195.391011 -61.787879 
L 198.406873 -61.889337 
L 201.422736 -61.994907 
L 204.438598 -62.102618 
L 207.454461 -62.210091 
L 210.470324 -62.309123 
L 213.486186 -62.411756 
L 216.502049 -62.508818 
L 219.517911 -62.615314 
L 222.533774 -62.721513 
L 225.549636 -62.822039 
L 228.565499 -62.933829 
L 231.581361 -63.033167 
L 234.597224 -63.133155 
L 237.613086 -63.237944 
L 240.628949 -63.342463 
L 243.644811 -63.443621 
L 246.660674 -63.542905 
L 249.676536 -63.641459 
L 252.692399 -63.7367 
L 255.708262 -63.832877 
L 258.724124 -63.929866 
L 261.739987 -64.026262 
L 264.755849 -64.12255 
L 267.771712 -64.217965 
L 270.787574 -64.312836 
L 273.803437 -64.407338 
L 276.819299 -64.502433 
L 279.835162 -64.598023 
L 282.851024 -64.692667 
L 285.866887 -64.789722 
L 288.882749 -64.88762 
L 291.898612 -64.983677 
L 294.914474 -65.080955 
L 297.930337 -65.178907 
L 300.946199 -65.275892 
L 303.962062 -65.371811 
L 306.977925 -65.466523 
L 309.993787 -65.56001 
L 313.00965 -65.653341 
L 316.025512 -65.746516 
L 319.041375 -65.839537 
L 322.057237 -65.932404 
L 325.0731 -66.025116 
L 328.088962 -66.117676 
L 331.104825 -66.210082 
L 334.120687 -66.302336 
L 337.13655 -66.394508 
L 340.152412 -66.488388 
L 343.168275 -66.583423 
L 346.184137 -66.674849 
L 349.2 -66.766167 
L 349.2 -68.104432 
L 349.2 -68.104432 
L 346.184137 -67.996302 
L 343.168275 -67.887963 
L 340.152412 -67.777392 
L 337.13655 -67.66628 
L 334.120687 -67.554986 
L 331.104825 -67.446962 
L 328.088962 -67.334171 
L 325.0731 -67.219961 
L 322.057237 -67.107851 
L 319.041375 -66.995462 
L 316.025512 -66.885871 
L 313.00965 -66.77673 
L 309.993787 -66.667377 
L 306.977925 -66.55781 
L 303.962062 -66.447741 
L 300.946199 -66.338135 
L 297.930337 -66.228031 
L 294.914474 -66.117686 
L 291.898612 -66.005883 
L 288.882749 -65.892991 
L 285.866887 -65.779782 
L 282.851024 -65.665251 
L 279.835162 -65.549668 
L 276.819299 -65.433882 
L 273.803437 -65.317814 
L 270.787574 -65.201552 
L 267.771712 -65.089232 
L 264.755849 -64.977782 
L 261.739987 -64.86611 
L 258.724124 -64.750982 
L 255.708262 -64.636268 
L 252.692399 -64.52408 
L 249.676536 -64.411588 
L 246.660674 -64.297728 
L 243.644811 -64.181377 
L 240.628949 -64.064701 
L 237.613086 -63.947328 
L 234.597224 -63.831929 
L 231.581361 -63.717912 
L 228.565499 -63.604246 
L 225.549636 -63.491974 
L 222.533774 -63.37622 
L 219.517911 -63.262172 
L 216.502049 -63.147745 
L 213.486186 -63.032364 
L 210.470324 -62.915807 
L 207.454461 -62.798602 
L 204.438598 -62.680952 
L 201.422736 -62.565784 
L 198.406873 -62.445673 
L 195.391011 -62.328486 
L 192.375148 -62.211437 
L 189.359286 -62.095807 
L 186.343423 -61.97987 
L 183.327561 -61.863672 
L 180.311698 -61.749435 
L 177.295836 -61.635391 
L 174.279973 -61.515744 
L 171.264111 -61.399396 
L 168.248248 -61.286361 
L 165.232386 -61.168981 
L 162.216523 -61.051735 
L 159.200661 -60.934872 
L 156.184798 -60.820942 
L 153.168935 -60.70557 
L 150.153073 -60.587598 
L 147.13721 -60.465913 
L 144.121348 -60.350168 
L 141.105485 -60.236611 
L 138.089623 -60.121062 
L 135.07376 -60.005027 
L 132.057898 -59.892657 
L 129.042035 -59.780229 
L 126.026173 -59.667505 
L 123.01031 -59.551018 
L 119.994448 -59.437187 
L 116.978585 -59.323093 
L 113.962723 -59.211116 
L 110.94686 -59.098698 
L 107.930997 -58.986143 
L 104.915135 -58.871771 
L 101.899272 -58.758764 
L 98.88341 -58.644805 
L 95.867547 -58.532377 
L 92.851685 -58.42414 
L 89.835822 -58.310332 
L 86.81996 -58.195682 
L 83.804097 -58.083897 
L 80.788235 -57.971067 
L 77.772372 -57.863795 
L 74.75651 -57.755956 
L 71.740647 -57.648496 
L 68.724785 -57.540781 
L 65.708922 -57.427897 
L 62.69306 -57.31407 
L 59.677197 -57.202566 
L 56.661334 -57.091163 
L 53.645472 -56.981094 
L 50.629609 -56.869921 
z
" id="md2535ec37f" style="stroke:#ffffff;stroke-opacity:0.15;"/>
    </defs>
    <g clip-path="url(#p35957bac0b)">
     <use style="fill:#2ca02c;fill-opacity:0.15;stroke:#ffffff;stroke-opacity:0.15;" x="0" xlink:href="#md2535ec37f" y="360"/>
    </g>
   </g>
   <g id="PathCollection_4">
    <defs>
     <path d="M 0 1.767767 
C 0.468817 1.767767 0.918496 1.581504 1.25 1.25 
C 1.581504 0.918496 1.767767 0.468817 1.767767 0 
C 1.767767 -0.468817 1.581504 -0.918496 1.25 -1.25 
C 0.918496 -1.581504 0.468817 -1.767767 0 -1.767767 
C -0.468817 -1.767767 -0.918496 -1.581504 -1.25 -1.25 
C -1.581504 -0.918496 -1.767767 -0.468817 -1.767767 0 
C -1.767767 0.468817 -1.581504 0.918496 -1.25 1.25 
C -0.918496 1.581504 -0.468817 1.767767 0 1.767767 
z
" id="mc2cc1086f4" style="stroke:#d62728;"/>
    </defs>
    <g clip-path="url(#p35957bac0b)">
     <use style="fill:#d62728;stroke:#d62728;" x="62.113086" xlink:href="#mc2cc1086f4" y="75.262696"/>
     <use style="fill:#d62728;stroke:#d62728;" x="73.596563" xlink:href="#mc2cc1086f4" y="72.030786"/>
     <use style="fill:#d62728;stroke:#d62728;" x="85.080039" xlink:href="#mc2cc1086f4" y="69.726533"/>
     <use style="fill:#d62728;stroke:#d62728;" x="96.563516" xlink:href="#mc2cc1086f4" y="66.861422"/>
     <use style="fill:#d62728;stroke:#d62728;" x="108.046992" xlink:href="#mc2cc1086f4" y="63.974163"/>
     <use style="fill:#d62728;stroke:#d62728;" x="119.530469" xlink:href="#mc2cc1086f4" y="61.781901"/>
     <use style="fill:#d62728;stroke:#d62728;" x="131.013945" xlink:href="#mc2cc1086f4" y="59.220681"/>
     <use style="fill:#d62728;stroke:#d62728;" x="142.497422" xlink:href="#mc2cc1086f4" y="56.787826"/>
     <use style="fill:#d62728;stroke:#d62728;" x="153.980898" xlink:href="#mc2cc1086f4" y="54.839021"/>
     <use style="fill:#d62728;stroke:#d62728;" x="165.464375" xlink:href="#mc2cc1086f4" y="52.855769"/>
     <use style="fill:#d62728;stroke:#d62728;" x="176.947852" xlink:href="#mc2cc1086f4" y="50.413571"/>
     <use style="fill:#d62728;stroke:#d62728;" x="188.431328" xlink:href="#mc2cc1086f4" y="47.958087"/>
     <use style="fill:#d62728;stroke:#d62728;" x="199.914805" xlink:href="#mc2cc1086f4" y="46.020314"/>
     <use style="fill:#d62728;stroke:#d62728;" x="211.398281" xlink:href="#mc2cc1086f4" y="44.177783"/>
     <use style="fill:#d62728;stroke:#d62728;" x="222.881758" xlink:href="#mc2cc1086f4" y="42.028163"/>
     <use style="fill:#d62728;stroke:#d62728;" x="234.365234" xlink:href="#mc2cc1086f4" y="39.985352"/>
     <use style="fill:#d62728;stroke:#d62728;" x="245.848711" xlink:href="#mc2cc1086f4" y="38.43903"/>
     <use style="fill:#d62728;stroke:#d62728;" x="257.332188" xlink:href="#mc2cc1086f4" y="36.966614"/>
     <use style="fill:#d62728;stroke:#d62728;" x="268.815664" xlink:href="#mc2cc1086f4" y="35.193317"/>
     <use style="fill:#d62728;stroke:#d62728;" x="280.299141" xlink:href="#mc2cc1086f4" y="33.456366"/>
     <use style="fill:#d62728;stroke:#d62728;" x="291.782617" xlink:href="#mc2cc1086f4" y="32.078112"/>
     <use style="fill:#d62728;stroke:#d62728;" x="303.266094" xlink:href="#mc2cc1086f4" y="30.387726"/>
     <use style="fill:#d62728;stroke:#d62728;" x="314.74957" xlink:href="#mc2cc1086f4" y="28.743825"/>
     <use style="fill:#d62728;stroke:#d62728;" x="326.233047" xlink:href="#mc2cc1086f4" y="27.432796"/>
     <use style="fill:#d62728;stroke:#d62728;" x="337.716523" xlink:href="#mc2cc1086f4" y="25.523785"/>
    </g>
   </g>
   <g id="PolyCollection_4">
    <defs>
     <path d="M 50.629609 -281.167885 
L 50.629609 -280.002149 
L 53.645472 -280.946027 
L 56.661334 -281.874254 
L 59.677197 -282.78734 
L 62.69306 -283.684752 
L 65.708922 -284.567415 
L 68.724785 -285.435725 
L 71.740647 -286.291377 
L 74.75651 -287.135271 
L 77.772372 -287.965626 
L 80.788235 -288.783327 
L 83.804097 -289.588771 
L 86.81996 -290.382812 
L 89.835822 -291.167407 
L 92.851685 -291.941842 
L 95.867547 -292.704777 
L 98.88341 -293.457058 
L 101.899272 -294.19977 
L 104.915135 -294.931916 
L 107.930997 -295.65501 
L 110.94686 -296.368882 
L 113.962723 -297.073766 
L 116.978585 -297.768302 
L 119.994448 -298.456871 
L 123.01031 -299.136714 
L 126.026173 -299.807827 
L 129.042035 -300.469727 
L 132.057898 -301.125174 
L 135.07376 -301.772231 
L 138.089623 -302.411932 
L 141.105485 -303.044413 
L 144.121348 -303.669829 
L 147.13721 -304.288334 
L 150.153073 -304.900081 
L 153.168935 -305.505225 
L 156.184798 -306.102736 
L 159.200661 -306.695931 
L 162.216523 -307.28233 
L 165.232386 -307.862383 
L 168.248248 -308.434912 
L 171.264111 -309.002982 
L 174.279973 -309.567382 
L 177.295836 -310.125242 
L 180.311698 -310.675834 
L 183.327561 -311.221925 
L 186.343423 -311.761229 
L 189.359286 -312.295793 
L 192.375148 -312.827407 
L 195.391011 -313.352147 
L 198.406873 -313.872919 
L 201.422736 -314.388851 
L 204.438598 -314.897591 
L 207.454461 -315.404314 
L 210.470324 -315.906746 
L 213.486186 -316.401989 
L 216.502049 -316.89311 
L 219.517911 -317.382634 
L 222.533774 -317.864419 
L 225.549636 -318.341868 
L 228.565499 -318.817639 
L 231.581361 -319.288611 
L 234.597224 -319.751182 
L 237.613086 -320.211708 
L 240.628949 -320.667214 
L 243.644811 -321.120886 
L 246.660674 -321.572418 
L 249.676536 -322.018743 
L 252.692399 -322.460903 
L 255.708262 -322.900393 
L 258.724124 -323.335893 
L 261.739987 -323.768207 
L 264.755849 -324.196001 
L 267.771712 -324.621044 
L 270.787574 -325.041669 
L 273.803437 -325.458646 
L 276.819299 -325.87328 
L 279.835162 -326.284916 
L 282.851024 -326.693457 
L 285.866887 -327.098725 
L 288.882749 -327.500138 
L 291.898612 -327.898604 
L 294.914474 -328.294651 
L 297.930337 -328.687946 
L 300.946199 -329.078498 
L 303.962062 -329.466239 
L 306.977925 -329.851503 
L 309.993787 -330.234736 
L 313.00965 -330.61463 
L 316.025512 -330.991647 
L 319.041375 -331.366212 
L 322.057237 -331.738235 
L 325.0731 -332.108396 
L 328.088962 -332.475711 
L 331.104825 -332.840591 
L 334.120687 -333.203108 
L 337.13655 -333.563292 
L 340.152412 -333.921174 
L 343.168275 -334.276363 
L 346.184137 -334.629118 
L 349.2 -334.9811 
L 349.2 -335.227273 
L 349.2 -335.227273 
L 346.184137 -334.871464 
L 343.168275 -334.513119 
L 340.152412 -334.152461 
L 337.13655 -333.790652 
L 334.120687 -333.426179 
L 331.104825 -333.059365 
L 328.088962 -332.689502 
L 325.0731 -332.317344 
L 322.057237 -331.942312 
L 319.041375 -331.564952 
L 316.025512 -331.185763 
L 313.00965 -330.804243 
L 309.993787 -330.420479 
L 306.977925 -330.033933 
L 303.962062 -329.644308 
L 300.946199 -329.252455 
L 297.930337 -328.858053 
L 294.914474 -328.460307 
L 291.898612 -328.059047 
L 288.882749 -327.655674 
L 285.866887 -327.248402 
L 282.851024 -326.840561 
L 279.835162 -326.42966 
L 276.819299 -326.014667 
L 273.803437 -325.597778 
L 270.787574 -325.177058 
L 267.771712 -324.754745 
L 264.755849 -324.329869 
L 261.739987 -323.901612 
L 258.724124 -323.468971 
L 255.708262 -323.034497 
L 252.692399 -322.596293 
L 249.676536 -322.154285 
L 246.660674 -321.709811 
L 243.644811 -321.263488 
L 240.628949 -320.812607 
L 237.613086 -320.356624 
L 234.597224 -319.898451 
L 231.581361 -319.436688 
L 228.565499 -318.970859 
L 225.549636 -318.501149 
L 222.533774 -318.02679 
L 219.517911 -317.548684 
L 216.502049 -317.067752 
L 213.486186 -316.584692 
L 210.470324 -316.096158 
L 207.454461 -315.603271 
L 204.438598 -315.106023 
L 201.422736 -314.603818 
L 198.406873 -314.09656 
L 195.391011 -313.584335 
L 192.375148 -313.067545 
L 189.359286 -312.54787 
L 186.343423 -312.023195 
L 183.327561 -311.493871 
L 180.311698 -310.958152 
L 177.295836 -310.418107 
L 174.279973 -309.872016 
L 171.264111 -309.319913 
L 168.248248 -308.762387 
L 165.232386 -308.199691 
L 162.216523 -307.632014 
L 159.200661 -307.058922 
L 156.184798 -306.478356 
L 153.168935 -305.891727 
L 150.153073 -305.302288 
L 147.13721 -304.706032 
L 144.121348 -304.102137 
L 141.105485 -303.491427 
L 138.089623 -302.873808 
L 135.07376 -302.248918 
L 132.057898 -301.616973 
L 129.042035 -300.977814 
L 126.026173 -300.331247 
L 123.01031 -299.677109 
L 119.994448 -299.015044 
L 116.978585 -298.343848 
L 113.962723 -297.664881 
L 110.94686 -296.980631 
L 107.930997 -296.286701 
L 104.915135 -295.584281 
L 101.899272 -294.874813 
L 98.88341 -294.155513 
L 95.867547 -293.424929 
L 92.851685 -292.684665 
L 89.835822 -291.935634 
L 86.81996 -291.176981 
L 83.804097 -290.407904 
L 80.788235 -289.628393 
L 77.772372 -288.837858 
L 74.75651 -288.035198 
L 71.740647 -287.219716 
L 68.724785 -286.392364 
L 65.708922 -285.552882 
L 62.69306 -284.703955 
L 59.677197 -283.842669 
L 56.661334 -282.965212 
L 53.645472 -282.073782 
L 50.629609 -281.167885 
z
" id="m151a156349" style="stroke:#ffffff;stroke-opacity:0.15;"/>
    </defs>
    <g clip-path="url(#p35957bac0b)">
     <use style="fill:#d62728;fill-opacity:0.15;stroke:#ffffff;stroke-opacity:0.15;" x="0" xlink:href="#m151a156349" y="360"/>
    </g>
   </g>
   <g id="line2d_9">
    <path clip-path="url(#p35957bac0b)" d="M 62.113086 161.779593 
L 62.113086 160.427949 
" style="fill:none;stroke:#1f77b4;stroke-linecap:round;stroke-width:2.625;"/>
   </g>
   <g id="line2d_10">
    <path clip-path="url(#p35957bac0b)" d="M 73.596563 158.788018 
L 73.596563 157.454911 
" style="fill:none;stroke:#1f77b4;stroke-linecap:round;stroke-width:2.625;"/>
   </g>
   <g id="line2d_11">
    <path clip-path="url(#p35957bac0b)" d="M 85.080039 155.894541 
L 85.080039 154.455446 
" style="fill:none;stroke:#1f77b4;stroke-linecap:round;stroke-width:2.625;"/>
   </g>
   <g id="line2d_12">
    <path clip-path="url(#p35957bac0b)" d="M 96.563516 152.993843 
L 96.563516 149.913962 
" style="fill:none;stroke:#1f77b4;stroke-linecap:round;stroke-width:2.625;"/>
   </g>
   <g id="line2d_13">
    <path clip-path="url(#p35957bac0b)" d="M 108.046992 148.376219 
L 108.046992 147.000572 
" style="fill:none;stroke:#1f77b4;stroke-linecap:round;stroke-width:2.625;"/>
   </g>
   <g id="line2d_14">
    <path clip-path="url(#p35957bac0b)" d="M 119.530469 145.72231 
L 119.530469 144.565773 
" style="fill:none;stroke:#1f77b4;stroke-linecap:round;stroke-width:2.625;"/>
   </g>
   <g id="line2d_15">
    <path clip-path="url(#p35957bac0b)" d="M 131.013945 143.576934 
L 131.013945 141.947828 
" style="fill:none;stroke:#1f77b4;stroke-linecap:round;stroke-width:2.625;"/>
   </g>
   <g id="line2d_16">
    <path clip-path="url(#p35957bac0b)" d="M 142.497422 141.198704 
L 142.497422 140.451961 
" style="fill:none;stroke:#1f77b4;stroke-linecap:round;stroke-width:2.625;"/>
   </g>
   <g id="line2d_17">
    <path clip-path="url(#p35957bac0b)" d="M 153.980898 139.749838 
L 153.980898 139.032752 
" style="fill:none;stroke:#1f77b4;stroke-linecap:round;stroke-width:2.625;"/>
   </g>
   <g id="line2d_18">
    <path clip-path="url(#p35957bac0b)" d="M 165.464375 138.208337 
L 165.464375 137.399444 
" style="fill:none;stroke:#1f77b4;stroke-linecap:round;stroke-width:2.625;"/>
   </g>
   <g id="line2d_19">
    <path clip-path="url(#p35957bac0b)" d="M 176.947852 136.664938 
L 176.947852 135.069991 
" style="fill:none;stroke:#1f77b4;stroke-linecap:round;stroke-width:2.625;"/>
   </g>
   <g id="line2d_20">
    <path clip-path="url(#p35957bac0b)" d="M 188.431328 134.172281 
L 188.431328 133.270951 
" style="fill:none;stroke:#1f77b4;stroke-linecap:round;stroke-width:2.625;"/>
   </g>
   <g id="line2d_21">
    <path clip-path="url(#p35957bac0b)" d="M 199.914805 132.412671 
L 199.914805 131.591264 
" style="fill:none;stroke:#1f77b4;stroke-linecap:round;stroke-width:2.625;"/>
   </g>
   <g id="line2d_22">
    <path clip-path="url(#p35957bac0b)" d="M 211.398281 130.827444 
L 211.398281 130.141379 
" style="fill:none;stroke:#1f77b4;stroke-linecap:round;stroke-width:2.625;"/>
   </g>
   <g id="line2d_23">
    <path clip-path="url(#p35957bac0b)" d="M 222.881758 129.497814 
L 222.881758 128.25685 
" style="fill:none;stroke:#1f77b4;stroke-linecap:round;stroke-width:2.625;"/>
   </g>
   <g id="line2d_24">
    <path clip-path="url(#p35957bac0b)" d="M 234.365234 127.670092 
L 234.365234 127.097157 
" style="fill:none;stroke:#1f77b4;stroke-linecap:round;stroke-width:2.625;"/>
   </g>
   <g id="line2d_25">
    <path clip-path="url(#p35957bac0b)" d="M 245.848711 126.559994 
L 245.848711 126.075284 
" style="fill:none;stroke:#1f77b4;stroke-linecap:round;stroke-width:2.625;"/>
   </g>
   <g id="line2d_26">
    <path clip-path="url(#p35957bac0b)" d="M 257.332188 125.63418 
L 257.332188 125.227546 
" style="fill:none;stroke:#1f77b4;stroke-linecap:round;stroke-width:2.625;"/>
   </g>
   <g id="line2d_27">
    <path clip-path="url(#p35957bac0b)" d="M 268.815664 124.852475 
L 268.815664 124.171305 
" style="fill:none;stroke:#1f77b4;stroke-linecap:round;stroke-width:2.625;"/>
   </g>
   <g id="line2d_28">
    <path clip-path="url(#p35957bac0b)" d="M 280.299141 123.842068 
L 280.299141 123.529486 
" style="fill:none;stroke:#1f77b4;stroke-linecap:round;stroke-width:2.625;"/>
   </g>
   <g id="line2d_29">
    <path clip-path="url(#p35957bac0b)" d="M 291.782617 123.237115 
L 291.782617 122.950277 
" style="fill:none;stroke:#1f77b4;stroke-linecap:round;stroke-width:2.625;"/>
   </g>
   <g id="line2d_30">
    <path clip-path="url(#p35957bac0b)" d="M 303.266094 122.671839 
L 303.266094 122.133242 
" style="fill:none;stroke:#1f77b4;stroke-linecap:round;stroke-width:2.625;"/>
   </g>
   <g id="line2d_31">
    <path clip-path="url(#p35957bac0b)" d="M 314.74957 121.860487 
L 314.74957 121.584104 
" style="fill:none;stroke:#1f77b4;stroke-linecap:round;stroke-width:2.625;"/>
   </g>
   <g id="line2d_32">
    <path clip-path="url(#p35957bac0b)" d="M 326.233047 121.300667 
L 326.233047 121.016209 
" style="fill:none;stroke:#1f77b4;stroke-linecap:round;stroke-width:2.625;"/>
   </g>
   <g id="line2d_33">
    <path clip-path="url(#p35957bac0b)" d="M 337.716523 120.634671 
L 337.716523 120.044772 
" style="fill:none;stroke:#1f77b4;stroke-linecap:round;stroke-width:2.625;"/>
   </g>
   <g id="line2d_34">
    <path clip-path="url(#p35957bac0b)" d="M 50.629609 158.643204 
L 53.645472 158.020447 
L 56.661334 157.404543 
L 59.677197 156.79534 
L 62.69306 156.192697 
L 65.708922 155.596471 
L 68.724785 155.006529 
L 71.740647 154.422739 
L 74.75651 153.844975 
L 77.772372 153.273112 
L 80.788235 152.707032 
L 83.804097 152.14662 
L 86.81996 151.591761 
L 89.835822 151.042349 
L 92.851685 150.498276 
L 95.867547 149.95944 
L 98.88341 149.425741 
L 101.899272 148.897083 
L 104.915135 148.37337 
L 107.930997 147.854511 
L 110.94686 147.340417 
L 113.962723 146.831001 
L 116.978585 146.326179 
L 119.994448 145.825869 
L 123.01031 145.32999 
L 126.026173 144.838466 
L 129.042035 144.35122 
L 132.057898 143.868178 
L 135.07376 143.389268 
L 138.089623 142.914421 
L 141.105485 142.443567 
L 144.121348 141.976641 
L 147.13721 141.513578 
L 150.153073 141.054313 
L 153.168935 140.598786 
L 156.184798 140.146935 
L 159.200661 139.698702 
L 162.216523 139.25403 
L 165.232386 138.812862 
L 168.248248 138.375144 
L 171.264111 137.940822 
L 174.279973 137.509843 
L 177.295836 137.082157 
L 180.311698 136.657714 
L 183.327561 136.236464 
L 186.343423 135.818361 
L 189.359286 135.403358 
L 192.375148 134.991408 
L 195.391011 134.582468 
L 198.406873 134.176493 
L 201.422736 133.773441 
L 204.438598 133.373271 
L 207.454461 132.97594 
L 210.470324 132.58141 
L 213.486186 132.189641 
L 216.502049 131.800595 
L 219.517911 131.414234 
L 222.533774 131.030521 
L 225.549636 130.64942 
L 228.565499 130.270896 
L 231.581361 129.894915 
L 234.597224 129.521441 
L 237.613086 129.150443 
L 240.628949 128.781888 
L 243.644811 128.415743 
L 246.660674 128.051977 
L 249.676536 127.69056 
L 252.692399 127.331461 
L 255.708262 126.974651 
L 258.724124 126.6201 
L 261.739987 126.267781 
L 264.755849 125.917666 
L 267.771712 125.569727 
L 270.787574 125.223937 
L 273.803437 124.88027 
L 276.819299 124.538699 
L 279.835162 124.1992 
L 282.851024 123.861748 
L 285.866887 123.526318 
L 288.882749 123.192885 
L 291.898612 122.861427 
L 294.914474 122.53192 
L 297.930337 122.204341 
L 300.946199 121.878668 
L 303.962062 121.554878 
L 306.977925 121.23295 
L 309.993787 120.912863 
L 313.00965 120.594596 
L 316.025512 120.278128 
L 319.041375 119.963439 
L 322.057237 119.65051 
L 325.0731 119.339319 
L 328.088962 119.029849 
L 331.104825 118.722081 
L 334.120687 118.415995 
L 337.13655 118.111574 
L 340.152412 117.808799 
L 343.168275 117.507653 
L 346.184137 117.208118 
L 349.2 116.910178 
" style="fill:none;stroke:#1f77b4;stroke-linecap:round;stroke-width:2.25;"/>
   </g>
   <g id="line2d_35">
    <path clip-path="url(#p35957bac0b)" d="M 62.113086 182.760181 
L 62.113086 180.4872 
" style="fill:none;stroke:#ff7f0e;stroke-linecap:round;stroke-width:2.625;"/>
   </g>
   <g id="line2d_36">
    <path clip-path="url(#p35957bac0b)" d="M 73.596563 178.75499 
L 73.596563 177.590516 
" style="fill:none;stroke:#ff7f0e;stroke-linecap:round;stroke-width:2.625;"/>
   </g>
   <g id="line2d_37">
    <path clip-path="url(#p35957bac0b)" d="M 85.080039 176.424174 
L 85.080039 175.253564 
" style="fill:none;stroke:#ff7f0e;stroke-linecap:round;stroke-width:2.625;"/>
   </g>
   <g id="line2d_38">
    <path clip-path="url(#p35957bac0b)" d="M 96.563516 174.070671 
L 96.563516 171.630984 
" style="fill:none;stroke:#ff7f0e;stroke-linecap:round;stroke-width:2.625;"/>
   </g>
   <g id="line2d_39">
    <path clip-path="url(#p35957bac0b)" d="M 108.046992 170.366994 
L 108.046992 169.078771 
" style="fill:none;stroke:#ff7f0e;stroke-linecap:round;stroke-width:2.625;"/>
   </g>
   <g id="line2d_40">
    <path clip-path="url(#p35957bac0b)" d="M 119.530469 167.775871 
L 119.530469 166.470452 
" style="fill:none;stroke:#ff7f0e;stroke-linecap:round;stroke-width:2.625;"/>
   </g>
   <g id="line2d_41">
    <path clip-path="url(#p35957bac0b)" d="M 131.013945 165.170714 
L 131.013945 162.597858 
" style="fill:none;stroke:#ff7f0e;stroke-linecap:round;stroke-width:2.625;"/>
   </g>
   <g id="line2d_42">
    <path clip-path="url(#p35957bac0b)" d="M 142.497422 161.317703 
L 142.497422 160.033003 
" style="fill:none;stroke:#ff7f0e;stroke-linecap:round;stroke-width:2.625;"/>
   </g>
   <g id="line2d_43">
    <path clip-path="url(#p35957bac0b)" d="M 153.980898 158.740115 
L 153.980898 157.439258 
" style="fill:none;stroke:#ff7f0e;stroke-linecap:round;stroke-width:2.625;"/>
   </g>
   <g id="line2d_44">
    <path clip-path="url(#p35957bac0b)" d="M 165.464375 156.135646 
L 165.464375 154.836675 
" style="fill:none;stroke:#ff7f0e;stroke-linecap:round;stroke-width:2.625;"/>
   </g>
   <g id="line2d_45">
    <path clip-path="url(#p35957bac0b)" d="M 176.947852 153.551466 
L 176.947852 151.043072 
" style="fill:none;stroke:#ff7f0e;stroke-linecap:round;stroke-width:2.625;"/>
   </g>
   <g id="line2d_46">
    <path clip-path="url(#p35957bac0b)" d="M 188.431328 149.820517 
L 188.431328 148.618746 
" style="fill:none;stroke:#ff7f0e;stroke-linecap:round;stroke-width:2.625;"/>
   </g>
   <g id="line2d_47">
    <path clip-path="url(#p35957bac0b)" d="M 199.914805 147.437067 
L 199.914805 146.274857 
" style="fill:none;stroke:#ff7f0e;stroke-linecap:round;stroke-width:2.625;"/>
   </g>
   <g id="line2d_48">
    <path clip-path="url(#p35957bac0b)" d="M 211.398281 145.133001 
L 211.398281 144.011608 
" style="fill:none;stroke:#ff7f0e;stroke-linecap:round;stroke-width:2.625;"/>
   </g>
   <g id="line2d_49">
    <path clip-path="url(#p35957bac0b)" d="M 222.881758 142.908432 
L 222.881758 140.746351 
" style="fill:none;stroke:#ff7f0e;stroke-linecap:round;stroke-width:2.625;"/>
   </g>
   <g id="line2d_50">
    <path clip-path="url(#p35957bac0b)" d="M 234.365234 139.685394 
L 234.365234 138.639017 
" style="fill:none;stroke:#ff7f0e;stroke-linecap:round;stroke-width:2.625;"/>
   </g>
   <g id="line2d_51">
    <path clip-path="url(#p35957bac0b)" d="M 245.848711 137.609162 
L 245.848711 136.598396 
" style="fill:none;stroke:#ff7f0e;stroke-linecap:round;stroke-width:2.625;"/>
   </g>
   <g id="line2d_52">
    <path clip-path="url(#p35957bac0b)" d="M 257.332188 135.608586 
L 257.332188 134.640809 
" style="fill:none;stroke:#ff7f0e;stroke-linecap:round;stroke-width:2.625;"/>
   </g>
   <g id="line2d_53">
    <path clip-path="url(#p35957bac0b)" d="M 268.815664 133.69498 
L 268.815664 131.866201 
" style="fill:none;stroke:#ff7f0e;stroke-linecap:round;stroke-width:2.625;"/>
   </g>
   <g id="line2d_54">
    <path clip-path="url(#p35957bac0b)" d="M 280.299141 130.981868 
L 280.299141 130.116575 
" style="fill:none;stroke:#ff7f0e;stroke-linecap:round;stroke-width:2.625;"/>
   </g>
   <g id="line2d_55">
    <path clip-path="url(#p35957bac0b)" d="M 291.782617 129.271702 
L 291.782617 128.451645 
" style="fill:none;stroke:#ff7f0e;stroke-linecap:round;stroke-width:2.625;"/>
   </g>
   <g id="line2d_56">
    <path clip-path="url(#p35957bac0b)" d="M 303.266094 127.661991 
L 303.266094 126.184706 
" style="fill:none;stroke:#ff7f0e;stroke-linecap:round;stroke-width:2.625;"/>
   </g>
   <g id="line2d_57">
    <path clip-path="url(#p35957bac0b)" d="M 314.74957 125.495235 
L 314.74957 124.832974 
" style="fill:none;stroke:#ff7f0e;stroke-linecap:round;stroke-width:2.625;"/>
   </g>
   <g id="line2d_58">
    <path clip-path="url(#p35957bac0b)" d="M 326.233047 124.191645 
L 326.233047 123.566545 
" style="fill:none;stroke:#ff7f0e;stroke-linecap:round;stroke-width:2.625;"/>
   </g>
   <g id="line2d_59">
    <path clip-path="url(#p35957bac0b)" d="M 337.716523 122.660212 
L 337.716523 121.354133 
" style="fill:none;stroke:#ff7f0e;stroke-linecap:round;stroke-width:2.625;"/>
   </g>
   <g id="line2d_60">
    <path clip-path="url(#p35957bac0b)" d="M 50.629609 190.746494 
L 53.645472 189.370631 
L 56.661334 188.027773 
L 59.677197 186.716375 
L 62.69306 185.434995 
L 65.708922 184.18229 
L 68.724785 182.957006 
L 71.740647 181.757966 
L 74.75651 180.584071 
L 77.772372 179.434287 
L 80.788235 178.307644 
L 83.804097 177.203229 
L 86.81996 176.120181 
L 89.835822 175.057689 
L 92.851685 174.014989 
L 95.867547 172.991355 
L 98.88341 171.986103 
L 101.899272 170.998584 
L 104.915135 170.028185 
L 107.930997 169.07432 
L 110.94686 168.136436 
L 113.962723 167.214007 
L 116.978585 166.306531 
L 119.994448 165.413532 
L 123.01031 164.534554 
L 126.026173 163.669165 
L 129.042035 162.816949 
L 132.057898 161.977513 
L 135.07376 161.150479 
L 138.089623 160.335485 
L 141.105485 159.532186 
L 144.121348 158.740252 
L 147.13721 157.959364 
L 150.153073 157.18922 
L 153.168935 156.429527 
L 156.184798 155.680005 
L 159.200661 154.940387 
L 162.216523 154.210413 
L 165.232386 153.489835 
L 168.248248 152.778415 
L 171.264111 152.075922 
L 174.279973 151.382136 
L 177.295836 150.696842 
L 180.311698 150.019837 
L 183.327561 149.350921 
L 186.343423 148.689904 
L 189.359286 148.036601 
L 192.375148 147.390834 
L 195.391011 146.752432 
L 198.406873 146.121228 
L 201.422736 145.497062 
L 204.438598 144.879778 
L 207.454461 144.269227 
L 210.470324 143.665263 
L 213.486186 143.067745 
L 216.502049 142.476538 
L 219.517911 141.89151 
L 222.533774 141.312532 
L 225.549636 140.739481 
L 228.565499 140.172236 
L 231.581361 139.610682 
L 234.597224 139.054705 
L 237.613086 138.504195 
L 240.628949 137.959046 
L 243.644811 137.419155 
L 246.660674 136.884421 
L 249.676536 136.354747 
L 252.692399 135.830037 
L 255.708262 135.3102 
L 258.724124 134.795146 
L 261.739987 134.284787 
L 264.755849 133.779039 
L 267.771712 133.277819 
L 270.787574 132.781047 
L 273.803437 132.288645 
L 276.819299 131.800536 
L 279.835162 131.316646 
L 282.851024 130.836904 
L 285.866887 130.361237 
L 288.882749 129.889578 
L 291.898612 129.42186 
L 294.914474 128.958017 
L 297.930337 128.497986 
L 300.946199 128.041705 
L 303.962062 127.589113 
L 306.977925 127.14015 
L 309.993787 126.69476 
L 313.00965 126.252885 
L 316.025512 125.81447 
L 319.041375 125.379463 
L 322.057237 124.947809 
L 325.0731 124.519459 
L 328.088962 124.094361 
L 331.104825 123.672467 
L 334.120687 123.253729 
L 337.13655 122.8381 
L 340.152412 122.425534 
L 343.168275 122.015986 
L 346.184137 121.609413 
L 349.2 121.205771 
" style="fill:none;stroke:#ff7f0e;stroke-linecap:round;stroke-width:2.25;"/>
   </g>
   <g id="line2d_61">
    <path clip-path="url(#p35957bac0b)" d="M 62.113086 303.554873 
L 62.113086 302.657473 
" style="fill:none;stroke:#2ca02c;stroke-linecap:round;stroke-width:2.625;"/>
   </g>
   <g id="line2d_62">
    <path clip-path="url(#p35957bac0b)" d="M 73.596563 302.084375 
L 73.596563 301.724716 
" style="fill:none;stroke:#2ca02c;stroke-linecap:round;stroke-width:2.625;"/>
   </g>
   <g id="line2d_63">
    <path clip-path="url(#p35957bac0b)" d="M 85.080039 301.416093 
L 85.080039 301.114612 
" style="fill:none;stroke:#2ca02c;stroke-linecap:round;stroke-width:2.625;"/>
   </g>
   <g id="line2d_64">
    <path clip-path="url(#p35957bac0b)" d="M 96.563516 300.842115 
L 96.563516 300.386138 
" style="fill:none;stroke:#2ca02c;stroke-linecap:round;stroke-width:2.625;"/>
   </g>
   <g id="line2d_65">
    <path clip-path="url(#p35957bac0b)" d="M 108.046992 300.152325 
L 108.046992 299.962518 
" style="fill:none;stroke:#2ca02c;stroke-linecap:round;stroke-width:2.625;"/>
   </g>
   <g id="line2d_66">
    <path clip-path="url(#p35957bac0b)" d="M 119.530469 299.854364 
L 119.530469 299.819063 
" style="fill:none;stroke:#2ca02c;stroke-linecap:round;stroke-width:2.625;"/>
   </g>
   <g id="line2d_67">
    <path clip-path="url(#p35957bac0b)" d="M 131.013945 299.855395 
L 131.013945 299.823219 
" style="fill:none;stroke:#2ca02c;stroke-linecap:round;stroke-width:2.625;"/>
   </g>
   <g id="line2d_68">
    <path clip-path="url(#p35957bac0b)" d="M 142.497422 299.852395 
L 142.497422 299.802164 
" style="fill:none;stroke:#2ca02c;stroke-linecap:round;stroke-width:2.625;"/>
   </g>
   <g id="line2d_69">
    <path clip-path="url(#p35957bac0b)" d="M 153.980898 299.735257 
L 153.980898 299.715764 
" style="fill:none;stroke:#2ca02c;stroke-linecap:round;stroke-width:2.625;"/>
   </g>
   <g id="line2d_70">
    <path clip-path="url(#p35957bac0b)" d="M 165.464375 299.735829 
L 165.464375 299.716739 
" style="fill:none;stroke:#2ca02c;stroke-linecap:round;stroke-width:2.625;"/>
   </g>
   <g id="line2d_71">
    <path clip-path="url(#p35957bac0b)" d="M 176.947852 299.628142 
L 176.947852 299.371436 
" style="fill:none;stroke:#2ca02c;stroke-linecap:round;stroke-width:2.625;"/>
   </g>
   <g id="line2d_72">
    <path clip-path="url(#p35957bac0b)" d="M 188.431328 299.2524 
L 188.431328 299.128087 
" style="fill:none;stroke:#2ca02c;stroke-linecap:round;stroke-width:2.625;"/>
   </g>
   <g id="line2d_73">
    <path clip-path="url(#p35957bac0b)" d="M 199.914805 298.982363 
L 199.914805 298.815019 
" style="fill:none;stroke:#2ca02c;stroke-linecap:round;stroke-width:2.625;"/>
   </g>
   <g id="line2d_74">
    <path clip-path="url(#p35957bac0b)" d="M 211.398281 298.6419 
L 211.398281 298.490511 
" style="fill:none;stroke:#2ca02c;stroke-linecap:round;stroke-width:2.625;"/>
   </g>
   <g id="line2d_75">
    <path clip-path="url(#p35957bac0b)" d="M 222.881758 298.356299 
L 222.881758 298.065684 
" style="fill:none;stroke:#2ca02c;stroke-linecap:round;stroke-width:2.625;"/>
   </g>
   <g id="line2d_76">
    <path clip-path="url(#p35957bac0b)" d="M 234.365234 297.923143 
L 234.365234 297.778962 
" style="fill:none;stroke:#2ca02c;stroke-linecap:round;stroke-width:2.625;"/>
   </g>
   <g id="line2d_77">
    <path clip-path="url(#p35957bac0b)" d="M 245.848711 297.615831 
L 245.848711 297.429188 
" style="fill:none;stroke:#2ca02c;stroke-linecap:round;stroke-width:2.625;"/>
   </g>
   <g id="line2d_78">
    <path clip-path="url(#p35957bac0b)" d="M 257.332188 297.229168 
L 257.332188 297.013656 
" style="fill:none;stroke:#2ca02c;stroke-linecap:round;stroke-width:2.625;"/>
   </g>
   <g id="line2d_79">
    <path clip-path="url(#p35957bac0b)" d="M 268.815664 296.776669 
L 268.815664 296.197501 
" style="fill:none;stroke:#2ca02c;stroke-linecap:round;stroke-width:2.625;"/>
   </g>
   <g id="line2d_80">
    <path clip-path="url(#p35957bac0b)" d="M 280.299141 295.81313 
L 280.299141 295.401645 
" style="fill:none;stroke:#2ca02c;stroke-linecap:round;stroke-width:2.625;"/>
   </g>
   <g id="line2d_81">
    <path clip-path="url(#p35957bac0b)" d="M 291.782617 294.965742 
L 291.782617 294.525155 
" style="fill:none;stroke:#2ca02c;stroke-linecap:round;stroke-width:2.625;"/>
   </g>
   <g id="line2d_82">
    <path clip-path="url(#p35957bac0b)" d="M 303.266094 294.101722 
L 303.266094 293.225402 
" style="fill:none;stroke:#2ca02c;stroke-linecap:round;stroke-width:2.625;"/>
   </g>
   <g id="line2d_83">
    <path clip-path="url(#p35957bac0b)" d="M 314.74957 292.836138 
L 314.74957 292.461212 
" style="fill:none;stroke:#2ca02c;stroke-linecap:round;stroke-width:2.625;"/>
   </g>
   <g id="line2d_84">
    <path clip-path="url(#p35957bac0b)" d="M 326.233047 292.048934 
L 326.233047 291.605361 
" style="fill:none;stroke:#2ca02c;stroke-linecap:round;stroke-width:2.625;"/>
   </g>
   <g id="line2d_85">
    <path clip-path="url(#p35957bac0b)" d="M 337.716523 291.000347 
L 337.716523 290.302293 
" style="fill:none;stroke:#2ca02c;stroke-linecap:round;stroke-width:2.625;"/>
   </g>
   <g id="line2d_86">
    <path clip-path="url(#p35957bac0b)" d="M 50.629609 303.614095 
L 53.645472 303.489882 
L 56.661334 303.365945 
L 59.677197 303.242281 
L 62.69306 303.11889 
L 65.708922 302.995771 
L 68.724785 302.872921 
L 71.740647 302.750341 
L 74.75651 302.628028 
L 77.772372 302.505982 
L 80.788235 302.384202 
L 83.804097 302.262686 
L 86.81996 302.141433 
L 89.835822 302.020442 
L 92.851685 301.899712 
L 95.867547 301.779242 
L 98.88341 301.65903 
L 101.899272 301.539076 
L 104.915135 301.419379 
L 107.930997 301.299937 
L 110.94686 301.18075 
L 113.962723 301.061815 
L 116.978585 300.943133 
L 119.994448 300.824702 
L 123.01031 300.70652 
L 126.026173 300.588588 
L 129.042035 300.470904 
L 132.057898 300.353466 
L 135.07376 300.236275 
L 138.089623 300.119328 
L 141.105485 300.002625 
L 144.121348 299.886165 
L 147.13721 299.769946 
L 150.153073 299.653969 
L 153.168935 299.538231 
L 156.184798 299.422732 
L 159.200661 299.307471 
L 162.216523 299.192446 
L 165.232386 299.077658 
L 168.248248 298.963104 
L 171.264111 298.848784 
L 174.279973 298.734698 
L 177.295836 298.620843 
L 180.311698 298.507219 
L 183.327561 298.393826 
L 186.343423 298.280661 
L 189.359286 298.167725 
L 192.375148 298.055017 
L 195.391011 297.942535 
L 198.406873 297.830278 
L 201.422736 297.718246 
L 204.438598 297.606438 
L 207.454461 297.494853 
L 210.470324 297.38349 
L 213.486186 297.272347 
L 216.502049 297.161425 
L 219.517911 297.050723 
L 222.533774 296.940239 
L 225.549636 296.829972 
L 228.565499 296.719922 
L 231.581361 296.610088 
L 234.597224 296.50047 
L 237.613086 296.391065 
L 240.628949 296.281874 
L 243.644811 296.172895 
L 246.660674 296.064129 
L 249.676536 295.955573 
L 252.692399 295.847227 
L 255.708262 295.73909 
L 258.724124 295.631162 
L 261.739987 295.523442 
L 264.755849 295.415928 
L 267.771712 295.308621 
L 270.787574 295.201519 
L 273.803437 295.094621 
L 276.819299 294.987927 
L 279.835162 294.881436 
L 282.851024 294.775148 
L 285.866887 294.66906 
L 288.882749 294.563174 
L 291.898612 294.457487 
L 294.914474 294.352 
L 297.930337 294.24671 
L 300.946199 294.141619 
L 303.962062 294.036724 
L 306.977925 293.932026 
L 309.993787 293.827523 
L 313.00965 293.723215 
L 316.025512 293.6191 
L 319.041375 293.515179 
L 322.057237 293.411451 
L 325.0731 293.307914 
L 328.088962 293.204569 
L 331.104825 293.101414 
L 334.120687 292.998449 
L 337.13655 292.895673 
L 340.152412 292.793085 
L 343.168275 292.690684 
L 346.184137 292.588471 
L 349.2 292.486444 
" style="fill:none;stroke:#2ca02c;stroke-linecap:round;stroke-width:2.25;"/>
   </g>
   <g id="line2d_87">
    <path clip-path="url(#p35957bac0b)" d="M 62.113086 76.226967 
L 62.113086 74.261017 
" style="fill:none;stroke:#d62728;stroke-linecap:round;stroke-width:2.625;"/>
   </g>
   <g id="line2d_88">
    <path clip-path="url(#p35957bac0b)" d="M 73.596563 72.603023 
L 73.596563 71.464339 
" style="fill:none;stroke:#d62728;stroke-linecap:round;stroke-width:2.625;"/>
   </g>
   <g id="line2d_89">
    <path clip-path="url(#p35957bac0b)" d="M 85.080039 70.296363 
L 85.080039 69.162444 
" style="fill:none;stroke:#d62728;stroke-linecap:round;stroke-width:2.625;"/>
   </g>
   <g id="line2d_90">
    <path clip-path="url(#p35957bac0b)" d="M 96.563516 68.036168 
L 96.563516 65.707083 
" style="fill:none;stroke:#d62728;stroke-linecap:round;stroke-width:2.625;"/>
   </g>
   <g id="line2d_91">
    <path clip-path="url(#p35957bac0b)" d="M 108.046992 64.539837 
L 108.046992 63.414148 
" style="fill:none;stroke:#d62728;stroke-linecap:round;stroke-width:2.625;"/>
   </g>
   <g id="line2d_92">
    <path clip-path="url(#p35957bac0b)" d="M 119.530469 62.323935 
L 119.530469 61.245064 
" style="fill:none;stroke:#d62728;stroke-linecap:round;stroke-width:2.625;"/>
   </g>
   <g id="line2d_93">
    <path clip-path="url(#p35957bac0b)" d="M 131.013945 60.210624 
L 131.013945 58.248849 
" style="fill:none;stroke:#d62728;stroke-linecap:round;stroke-width:2.625;"/>
   </g>
   <g id="line2d_94">
    <path clip-path="url(#p35957bac0b)" d="M 142.497422 57.278834 
L 142.497422 56.301087 
" style="fill:none;stroke:#d62728;stroke-linecap:round;stroke-width:2.625;"/>
   </g>
   <g id="line2d_95">
    <path clip-path="url(#p35957bac0b)" d="M 153.980898 55.330699 
L 153.980898 54.351624 
" style="fill:none;stroke:#d62728;stroke-linecap:round;stroke-width:2.625;"/>
   </g>
   <g id="line2d_96">
    <path clip-path="url(#p35957bac0b)" d="M 165.464375 53.352889 
L 165.464375 52.363026 
" style="fill:none;stroke:#d62728;stroke-linecap:round;stroke-width:2.625;"/>
   </g>
   <g id="line2d_97">
    <path clip-path="url(#p35957bac0b)" d="M 176.947852 51.39362 
L 176.947852 49.440905 
" style="fill:none;stroke:#d62728;stroke-linecap:round;stroke-width:2.625;"/>
   </g>
   <g id="line2d_98">
    <path clip-path="url(#p35957bac0b)" d="M 188.431328 48.451447 
L 188.431328 47.469037 
" style="fill:none;stroke:#d62728;stroke-linecap:round;stroke-width:2.625;"/>
   </g>
   <g id="line2d_99">
    <path clip-path="url(#p35957bac0b)" d="M 199.914805 46.504029 
L 199.914805 45.540742 
" style="fill:none;stroke:#d62728;stroke-linecap:round;stroke-width:2.625;"/>
   </g>
   <g id="line2d_100">
    <path clip-path="url(#p35957bac0b)" d="M 211.398281 44.615546 
L 211.398281 43.743416 
" style="fill:none;stroke:#d62728;stroke-linecap:round;stroke-width:2.625;"/>
   </g>
   <g id="line2d_101">
    <path clip-path="url(#p35957bac0b)" d="M 222.881758 42.875797 
L 222.881758 41.191124 
" style="fill:none;stroke:#d62728;stroke-linecap:round;stroke-width:2.625;"/>
   </g>
   <g id="line2d_102">
    <path clip-path="url(#p35957bac0b)" d="M 234.365234 40.383417 
L 234.365234 39.590097 
" style="fill:none;stroke:#d62728;stroke-linecap:round;stroke-width:2.625;"/>
   </g>
   <g id="line2d_103">
    <path clip-path="url(#p35957bac0b)" d="M 245.848711 38.816131 
L 245.848711 38.064452 
" style="fill:none;stroke:#d62728;stroke-linecap:round;stroke-width:2.625;"/>
   </g>
   <g id="line2d_104">
    <path clip-path="url(#p35957bac0b)" d="M 257.332188 37.328643 
L 257.332188 36.606912 
" style="fill:none;stroke:#d62728;stroke-linecap:round;stroke-width:2.625;"/>
   </g>
   <g id="line2d_105">
    <path clip-path="url(#p35957bac0b)" d="M 268.815664 35.896671 
L 268.815664 34.497125 
" style="fill:none;stroke:#d62728;stroke-linecap:round;stroke-width:2.625;"/>
   </g>
   <g id="line2d_106">
    <path clip-path="url(#p35957bac0b)" d="M 280.299141 33.803402 
L 280.299141 33.111467 
" style="fill:none;stroke:#d62728;stroke-linecap:round;stroke-width:2.625;"/>
   </g>
   <g id="line2d_107">
    <path clip-path="url(#p35957bac0b)" d="M 291.782617 32.42393 
L 291.782617 31.734417 
" style="fill:none;stroke:#d62728;stroke-linecap:round;stroke-width:2.625;"/>
   </g>
   <g id="line2d_108">
    <path clip-path="url(#p35957bac0b)" d="M 303.266094 31.053767 
L 303.266094 29.733004 
" style="fill:none;stroke:#d62728;stroke-linecap:round;stroke-width:2.625;"/>
   </g>
   <g id="line2d_109">
    <path clip-path="url(#p35957bac0b)" d="M 314.74957 29.074178 
L 314.74957 28.41541 
" style="fill:none;stroke:#d62728;stroke-linecap:round;stroke-width:2.625;"/>
   </g>
   <g id="line2d_110">
    <path clip-path="url(#p35957bac0b)" d="M 326.233047 27.758806 
L 326.233047 27.108674 
" style="fill:none;stroke:#d62728;stroke-linecap:round;stroke-width:2.625;"/>
   </g>
   <g id="line2d_111">
    <path clip-path="url(#p35957bac0b)" d="M 337.716523 26.14645 
L 337.716523 24.911484 
" style="fill:none;stroke:#d62728;stroke-linecap:round;stroke-width:2.625;"/>
   </g>
   <g id="line2d_112">
    <path clip-path="url(#p35957bac0b)" d="M 50.629609 79.390556 
L 53.645472 78.466807 
L 56.661334 77.558054 
L 59.677197 76.663818 
L 62.69306 75.783642 
L 65.708922 74.917091 
L 68.724785 74.063749 
L 71.740647 73.22322 
L 74.75651 72.395125 
L 77.772372 71.579102 
L 80.788235 70.774802 
L 83.804097 69.981895 
L 86.81996 69.200062 
L 89.835822 68.428998 
L 92.851685 67.66841 
L 95.867547 66.918017 
L 98.88341 66.177551 
L 101.899272 65.44675 
L 104.915135 64.725368 
L 107.930997 64.013163 
L 110.94686 63.309905 
L 113.962723 62.615372 
L 116.978585 61.929351 
L 119.994448 61.251635 
L 123.01031 60.582025 
L 126.026173 59.920331 
L 129.042035 59.266366 
L 132.057898 58.619953 
L 135.07376 57.980919 
L 138.089623 57.349097 
L 141.105485 56.724327 
L 144.121348 56.106452 
L 147.13721 55.495323 
L 150.153073 54.890794 
L 153.168935 54.292723 
L 156.184798 53.700974 
L 159.200661 53.115415 
L 162.216523 52.535917 
L 165.232386 51.962357 
L 168.248248 51.394614 
L 171.264111 50.832571 
L 174.279973 50.276114 
L 177.295836 49.725135 
L 180.311698 49.179526 
L 183.327561 48.639183 
L 186.343423 48.104006 
L 189.359286 47.573897 
L 192.375148 47.04876 
L 195.391011 46.528504 
L 198.406873 46.013039 
L 201.422736 45.502276 
L 204.438598 44.996132 
L 207.454461 44.494523 
L 210.470324 43.997368 
L 213.486186 43.50459 
L 216.502049 43.016112 
L 219.517911 42.531859 
L 222.533774 42.05176 
L 225.549636 41.575742 
L 228.565499 41.103739 
L 231.581361 40.635682 
L 234.597224 40.171505 
L 237.613086 39.711146 
L 240.628949 39.254542 
L 243.644811 38.801633 
L 246.660674 38.352358 
L 249.676536 37.90666 
L 252.692399 37.464482 
L 255.708262 37.02577 
L 258.724124 36.590469 
L 261.739987 36.158527 
L 264.755849 35.729892 
L 267.771712 35.304514 
L 270.787574 34.882344 
L 273.803437 34.463335 
L 276.819299 34.047438 
L 279.835162 33.634608 
L 282.851024 33.2248 
L 285.866887 32.81797 
L 288.882749 32.414076 
L 291.898612 32.013075 
L 294.914474 31.614926 
L 297.930337 31.219589 
L 300.946199 30.827024 
L 303.962062 30.437192 
L 306.977925 30.050057 
L 309.993787 29.66558 
L 313.00965 29.283726 
L 316.025512 28.90446 
L 319.041375 28.527745 
L 322.057237 28.153548 
L 325.0731 27.781836 
L 328.088962 27.412576 
L 331.104825 27.045736 
L 334.120687 26.681284 
L 337.13655 26.31919 
L 340.152412 25.959422 
L 343.168275 25.601952 
L 346.184137 25.24675 
L 349.2 24.893787 
" style="fill:none;stroke:#d62728;stroke-linecap:round;stroke-width:2.25;"/>
   </g>
   <g id="patch_3">
    <path d="M 50.629609 318.2 
L 50.629609 10.8 
" style="fill:none;stroke:#cccccc;stroke-linecap:square;stroke-linejoin:miter;stroke-width:0.8;"/>
   </g>
   <g id="patch_4">
    <path d="M 50.629609 318.2 
L 349.2 318.2 
" style="fill:none;stroke:#cccccc;stroke-linecap:square;stroke-linejoin:miter;stroke-width:0.8;"/>
   </g>
   <g id="legend_1">
    <g id="patch_5">
     <path d="M 229.935937 202.695313 
L 342.2 202.695313 
Q 344.2 202.695313 344.2 200.695313 
L 344.2 128.304688 
Q 344.2 126.304688 342.2 126.304688 
L 229.935937 126.304688 
Q 227.935937 126.304688 227.935937 128.304688 
L 227.935937 200.695313 
Q 227.935937 202.695313 229.935937 202.695313 
z
" style="fill:#ffffff;opacity:0.8;stroke:#cccccc;stroke-linejoin:miter;"/>
    </g>
    <g id="text_11">
     <!-- Country Name -->
     <g style="fill:#262626;" transform="translate(249.864062 137.903125)scale(0.1 -0.1)">
      <defs>
       <path d="M 64.40625 67.28125 
L 64.40625 56.890625 
Q 59.421875 61.53125 53.78125 63.8125 
Q 48.140625 66.109375 41.796875 66.109375 
Q 29.296875 66.109375 22.65625 58.46875 
Q 16.015625 50.828125 16.015625 36.375 
Q 16.015625 21.96875 22.65625 14.328125 
Q 29.296875 6.6875 41.796875 6.6875 
Q 48.140625 6.6875 53.78125 8.984375 
Q 59.421875 11.28125 64.40625 15.921875 
L 64.40625 5.609375 
Q 59.234375 2.09375 53.4375 0.328125 
Q 47.65625 -1.421875 41.21875 -1.421875 
Q 24.65625 -1.421875 15.125 8.703125 
Q 5.609375 18.84375 5.609375 36.375 
Q 5.609375 53.953125 15.125 64.078125 
Q 24.65625 74.21875 41.21875 74.21875 
Q 47.75 74.21875 53.53125 72.484375 
Q 59.328125 70.75 64.40625 67.28125 
z
" id="DejaVuSans-67"/>
       <path d="M 41.109375 46.296875 
Q 39.59375 47.171875 37.8125 47.578125 
Q 36.03125 48 33.890625 48 
Q 26.265625 48 22.1875 43.046875 
Q 18.109375 38.09375 18.109375 28.8125 
L 18.109375 0 
L 9.078125 0 
L 9.078125 54.6875 
L 18.109375 54.6875 
L 18.109375 46.1875 
Q 20.953125 51.171875 25.484375 53.578125 
Q 30.03125 56 36.53125 56 
Q 37.453125 56 38.578125 55.875 
Q 39.703125 55.765625 41.0625 55.515625 
z
" id="DejaVuSans-114"/>
       <path d="M 32.171875 -5.078125 
Q 28.375 -14.84375 24.75 -17.8125 
Q 21.140625 -20.796875 15.09375 -20.796875 
L 7.90625 -20.796875 
L 7.90625 -13.28125 
L 13.1875 -13.28125 
Q 16.890625 -13.28125 18.9375 -11.515625 
Q 21 -9.765625 23.484375 -3.21875 
L 25.09375 0.875 
L 2.984375 54.6875 
L 12.5 54.6875 
L 29.59375 11.921875 
L 46.6875 54.6875 
L 56.203125 54.6875 
z
" id="DejaVuSans-121"/>
       <path d="M 9.8125 72.90625 
L 23.09375 72.90625 
L 55.421875 11.921875 
L 55.421875 72.90625 
L 64.984375 72.90625 
L 64.984375 0 
L 51.703125 0 
L 19.390625 60.984375 
L 19.390625 0 
L 9.8125 0 
z
" id="DejaVuSans-78"/>
      </defs>
      <use xlink:href="#DejaVuSans-67"/>
      <use x="69.824219" xlink:href="#DejaVuSans-111"/>
      <use x="131.005859" xlink:href="#DejaVuSans-117"/>
      <use x="194.384766" xlink:href="#DejaVuSans-110"/>
      <use x="257.763672" xlink:href="#DejaVuSans-116"/>
      <use x="296.972656" xlink:href="#DejaVuSans-114"/>
      <use x="338.085938" xlink:href="#DejaVuSans-121"/>
      <use x="397.265625" xlink:href="#DejaVuSans-32"/>
      <use x="429.052734" xlink:href="#DejaVuSans-78"/>
      <use x="503.857422" xlink:href="#DejaVuSans-97"/>
      <use x="565.136719" xlink:href="#DejaVuSans-109"/>
      <use x="662.548828" xlink:href="#DejaVuSans-101"/>
     </g>
    </g>
    <g id="PathCollection_5">
     <g>
      <use style="fill:#1f77b4;stroke:#1f77b4;" x="241.935937" xlink:href="#m443ebd19b2" y="149.95625"/>
     </g>
    </g>
    <g id="text_12">
     <!-- China -->
     <g style="fill:#262626;" transform="translate(259.935937 152.58125)scale(0.1 -0.1)">
      <defs>
       <path d="M 54.890625 33.015625 
L 54.890625 0 
L 45.90625 0 
L 45.90625 32.71875 
Q 45.90625 40.484375 42.875 44.328125 
Q 39.84375 48.1875 33.796875 48.1875 
Q 26.515625 48.1875 22.3125 43.546875 
Q 18.109375 38.921875 18.109375 30.90625 
L 18.109375 0 
L 9.078125 0 
L 9.078125 75.984375 
L 18.109375 75.984375 
L 18.109375 46.1875 
Q 21.34375 51.125 25.703125 53.5625 
Q 30.078125 56 35.796875 56 
Q 45.21875 56 50.046875 50.171875 
Q 54.890625 44.34375 54.890625 33.015625 
z
" id="DejaVuSans-104"/>
      </defs>
      <use xlink:href="#DejaVuSans-67"/>
      <use x="69.824219" xlink:href="#DejaVuSans-104"/>
      <use x="133.203125" xlink:href="#DejaVuSans-105"/>
      <use x="160.986328" xlink:href="#DejaVuSans-110"/>
      <use x="224.365234" xlink:href="#DejaVuSans-97"/>
     </g>
    </g>
    <g id="PathCollection_6">
     <g>
      <use style="fill:#ff7f0e;stroke:#ff7f0e;stroke-width:1.5;" x="241.935937" xlink:href="#m25d242282f" y="164.634375"/>
     </g>
    </g>
    <g id="text_13">
     <!-- India -->
     <g style="fill:#262626;" transform="translate(259.935937 167.259375)scale(0.1 -0.1)">
      <defs>
       <path d="M 9.8125 72.90625 
L 19.671875 72.90625 
L 19.671875 0 
L 9.8125 0 
z
" id="DejaVuSans-73"/>
       <path d="M 45.40625 46.390625 
L 45.40625 75.984375 
L 54.390625 75.984375 
L 54.390625 0 
L 45.40625 0 
L 45.40625 8.203125 
Q 42.578125 3.328125 38.25 0.953125 
Q 33.9375 -1.421875 27.875 -1.421875 
Q 17.96875 -1.421875 11.734375 6.484375 
Q 5.515625 14.40625 5.515625 27.296875 
Q 5.515625 40.1875 11.734375 48.09375 
Q 17.96875 56 27.875 56 
Q 33.9375 56 38.25 53.625 
Q 42.578125 51.265625 45.40625 46.390625 
z
M 14.796875 27.296875 
Q 14.796875 17.390625 18.875 11.75 
Q 22.953125 6.109375 30.078125 6.109375 
Q 37.203125 6.109375 41.296875 11.75 
Q 45.40625 17.390625 45.40625 27.296875 
Q 45.40625 37.203125 41.296875 42.84375 
Q 37.203125 48.484375 30.078125 48.484375 
Q 22.953125 48.484375 18.875 42.84375 
Q 14.796875 37.203125 14.796875 27.296875 
z
" id="DejaVuSans-100"/>
      </defs>
      <use xlink:href="#DejaVuSans-73"/>
      <use x="29.492188" xlink:href="#DejaVuSans-110"/>
      <use x="92.871094" xlink:href="#DejaVuSans-100"/>
      <use x="156.347656" xlink:href="#DejaVuSans-105"/>
      <use x="184.130859" xlink:href="#DejaVuSans-97"/>
     </g>
    </g>
    <g id="PathCollection_7">
     <g>
      <use style="fill:#2ca02c;stroke:#2ca02c;" x="241.935937" xlink:href="#mf2c583ed83" y="179.3125"/>
     </g>
    </g>
    <g id="text_14">
     <!-- United Kingdom -->
     <g style="fill:#262626;" transform="translate(259.935937 181.9375)scale(0.1 -0.1)">
      <defs>
       <path d="M 8.6875 72.90625 
L 18.609375 72.90625 
L 18.609375 28.609375 
Q 18.609375 16.890625 22.84375 11.734375 
Q 27.09375 6.59375 36.625 6.59375 
Q 46.09375 6.59375 50.34375 11.734375 
Q 54.59375 16.890625 54.59375 28.609375 
L 54.59375 72.90625 
L 64.5 72.90625 
L 64.5 27.390625 
Q 64.5 13.140625 57.4375 5.859375 
Q 50.390625 -1.421875 36.625 -1.421875 
Q 22.796875 -1.421875 15.734375 5.859375 
Q 8.6875 13.140625 8.6875 27.390625 
z
" id="DejaVuSans-85"/>
       <path d="M 9.8125 72.90625 
L 19.671875 72.90625 
L 19.671875 42.09375 
L 52.390625 72.90625 
L 65.09375 72.90625 
L 28.90625 38.921875 
L 67.671875 0 
L 54.6875 0 
L 19.671875 35.109375 
L 19.671875 0 
L 9.8125 0 
z
" id="DejaVuSans-75"/>
       <path d="M 45.40625 27.984375 
Q 45.40625 37.75 41.375 43.109375 
Q 37.359375 48.484375 30.078125 48.484375 
Q 22.859375 48.484375 18.828125 43.109375 
Q 14.796875 37.75 14.796875 27.984375 
Q 14.796875 18.265625 18.828125 12.890625 
Q 22.859375 7.515625 30.078125 7.515625 
Q 37.359375 7.515625 41.375 12.890625 
Q 45.40625 18.265625 45.40625 27.984375 
z
M 54.390625 6.78125 
Q 54.390625 -7.171875 48.1875 -13.984375 
Q 42 -20.796875 29.203125 -20.796875 
Q 24.46875 -20.796875 20.265625 -20.09375 
Q 16.0625 -19.390625 12.109375 -17.921875 
L 12.109375 -9.1875 
Q 16.0625 -11.328125 19.921875 -12.34375 
Q 23.78125 -13.375 27.78125 -13.375 
Q 36.625 -13.375 41.015625 -8.765625 
Q 45.40625 -4.15625 45.40625 5.171875 
L 45.40625 9.625 
Q 42.625 4.78125 38.28125 2.390625 
Q 33.9375 0 27.875 0 
Q 17.828125 0 11.671875 7.65625 
Q 5.515625 15.328125 5.515625 27.984375 
Q 5.515625 40.671875 11.671875 48.328125 
Q 17.828125 56 27.875 56 
Q 33.9375 56 38.28125 53.609375 
Q 42.625 51.21875 45.40625 46.390625 
L 45.40625 54.6875 
L 54.390625 54.6875 
z
" id="DejaVuSans-103"/>
      </defs>
      <use xlink:href="#DejaVuSans-85"/>
      <use x="73.193359" xlink:href="#DejaVuSans-110"/>
      <use x="136.572266" xlink:href="#DejaVuSans-105"/>
      <use x="164.355469" xlink:href="#DejaVuSans-116"/>
      <use x="203.564453" xlink:href="#DejaVuSans-101"/>
      <use x="265.087891" xlink:href="#DejaVuSans-100"/>
      <use x="328.564453" xlink:href="#DejaVuSans-32"/>
      <use x="360.351562" xlink:href="#DejaVuSans-75"/>
      <use x="425.927734" xlink:href="#DejaVuSans-105"/>
      <use x="453.710938" xlink:href="#DejaVuSans-110"/>
      <use x="517.089844" xlink:href="#DejaVuSans-103"/>
      <use x="580.566406" xlink:href="#DejaVuSans-100"/>
      <use x="644.042969" xlink:href="#DejaVuSans-111"/>
      <use x="705.224609" xlink:href="#DejaVuSans-109"/>
     </g>
    </g>
    <g id="PathCollection_8">
     <g>
      <use style="fill:#d62728;stroke:#d62728;" x="241.935937" xlink:href="#mc2cc1086f4" y="193.990625"/>
     </g>
    </g>
    <g id="text_15">
     <!-- World -->
     <g style="fill:#262626;" transform="translate(259.935937 196.615625)scale(0.1 -0.1)">
      <defs>
       <path d="M 3.328125 72.90625 
L 13.28125 72.90625 
L 28.609375 11.28125 
L 43.890625 72.90625 
L 54.984375 72.90625 
L 70.3125 11.28125 
L 85.59375 72.90625 
L 95.609375 72.90625 
L 77.296875 0 
L 64.890625 0 
L 49.515625 63.28125 
L 33.984375 0 
L 21.578125 0 
z
" id="DejaVuSans-87"/>
      </defs>
      <use xlink:href="#DejaVuSans-87"/>
      <use x="93.001953" xlink:href="#DejaVuSans-111"/>
      <use x="154.183594" xlink:href="#DejaVuSans-114"/>
      <use x="195.296875" xlink:href="#DejaVuSans-108"/>
      <use x="223.080078" xlink:href="#DejaVuSans-100"/>
     </g>
    </g>
   </g>
  </g>
 </g>
 <defs>
  <clipPath id="p35957bac0b">
   <rect height="307.4" width="298.570391" x="50.629609" y="10.8"/>
  </clipPath>
 </defs>
</svg>
